<svg id="레이어_1" data-name="레이어 1" xmlns="http://www.w3.org/2000/svg" viewBox="0 0 301.54 266.64"><defs><style>.cls-1{fill:#456581;}.cls-2{fill:#fff;}.cls-3{fill:#575956;}.cls-4{fill:#e76069;}.cls-5{fill:#fafbfc;}.cls-6{fill:#585b56;}</style></defs><rect class="cls-1" x="235.3" y="76.16" width="48.58" height="12.75"/><path class="cls-2" d="M253,82.91h-2.36v2.28h-.89V79.83h3.62v.72h-2.73v1.64H253Z"/><path class="cls-2" d="M255.84,82h-.38a.78.78,0,0,0-.43.11.77.77,0,0,0-.28.31v2.77h-.89v-4h.81l.06.58a1.18,1.18,0,0,1,.39-.48.88.88,0,0,1,.55-.17h.15l.13,0Z"/><path class="cls-2" d="M257.42,80.23h-.89v-.78h.89Zm0,5h-.89v-4h.89Z"/><path class="cls-2" d="M258.26,83.26a2.65,2.65,0,0,1,.4-1.54,1.33,1.33,0,0,1,1.15-.58,1.21,1.21,0,0,1,.58.13,1.44,1.44,0,0,1,.45.37V79.45h.89v5.74H261l-.09-.49a1.22,1.22,0,0,1-.46.42,1.24,1.24,0,0,1-.62.15,1.39,1.39,0,0,1-1.15-.53,2.29,2.29,0,0,1-.4-1.41Zm.89.07a1.59,1.59,0,0,0,.21.88.75.75,0,0,0,.68.33.89.89,0,0,0,.47-.12.93.93,0,0,0,.33-.35V82.34a.93.93,0,0,0-.33-.35.89.89,0,0,0-.47-.12.72.72,0,0,0-.67.38,2,2,0,0,0-.22,1Z"/><path class="cls-2" d="M265.09,85.19c0-.1-.06-.2-.08-.29a2.93,2.93,0,0,1-.05-.29,1.54,1.54,0,0,1-.48.47,1.19,1.19,0,0,1-.67.19,1.33,1.33,0,0,1-.95-.32,1.14,1.14,0,0,1-.34-.88,1.05,1.05,0,0,1,.46-.9,2.22,2.22,0,0,1,1.28-.32h.7V82.5a.63.63,0,0,0-.19-.49.7.7,0,0,0-.52-.18.75.75,0,0,0-.49.15.46.46,0,0,0-.18.38h-.86v0a1,1,0,0,1,.42-.84,1.82,1.82,0,0,1,1.17-.36,1.69,1.69,0,0,1,1.12.35,1.26,1.26,0,0,1,.42,1v1.77a2.42,2.42,0,0,0,0,.47,2.16,2.16,0,0,0,.1.44Zm-1.1-.64a1.06,1.06,0,0,0,.61-.17A.86.86,0,0,0,265,84v-.59h-.71a.88.88,0,0,0-.61.19.58.58,0,0,0-.22.45.51.51,0,0,0,.14.37A.65.65,0,0,0,264,84.55Z"/><path class="cls-2" d="M268.05,83.6l.09.39h0l.87-2.78h1l-1.65,4.59a2.07,2.07,0,0,1-.44.71,1.1,1.1,0,0,1-.81.29l-.24,0-.25,0,.11-.7H267a.48.48,0,0,0,.39-.16,1.51,1.51,0,0,0,.24-.39l.14-.36-1.44-3.93h1Z"/><rect class="cls-1" x="183.93" y="76.16" width="48.58" height="12.75"/><path class="cls-2" d="M196.69,80.55h-1.62v4.64h-.89V80.55h-1.62v-.72h4.13Z"/><path class="cls-2" d="M198.16,81.73a1.46,1.46,0,0,1,.49-.44,1.33,1.33,0,0,1,.63-.15,1.25,1.25,0,0,1,1,.4,1.82,1.82,0,0,1,.35,1.23v2.42h-.9V82.76a1,1,0,0,0-.18-.68.72.72,0,0,0-.56-.21,1,1,0,0,0-.82.41v2.91h-.89V79.45h.89Z"/><path class="cls-2" d="M204,84.61a1.26,1.26,0,0,1-.48.49,1.3,1.3,0,0,1-.66.17,1.28,1.28,0,0,1-1-.41,1.87,1.87,0,0,1-.36-1.27V81.21h.89V83.6a1.2,1.2,0,0,0,.17.73.61.61,0,0,0,.51.21,1.08,1.08,0,0,0,.54-.12.8.8,0,0,0,.35-.33V81.21h.89v4h-.78Z"/><path class="cls-2" d="M207.8,82h-.38a.84.84,0,0,0-.44.11.82.82,0,0,0-.27.31v2.77h-.89v-4h.81l.06.58a1.18,1.18,0,0,1,.39-.48.88.88,0,0,1,.55-.17h.15l.13,0Z"/><path class="cls-2" d="M210.66,84.11a.4.4,0,0,0-.17-.34,1.83,1.83,0,0,0-.66-.24,2.73,2.73,0,0,1-1.08-.43.92.92,0,0,1-.36-.76,1.1,1.1,0,0,1,.41-.85,1.69,1.69,0,0,1,1.12-.35,1.78,1.78,0,0,1,1.16.35,1.07,1.07,0,0,1,.41.9h-.87a.58.58,0,0,0-.18-.42.78.78,0,0,0-.52-.18.72.72,0,0,0-.49.15.48.48,0,0,0-.17.36.38.38,0,0,0,.16.33,1.88,1.88,0,0,0,.65.22,2.64,2.64,0,0,1,1.11.44.91.91,0,0,1,.37.76,1,1,0,0,1-.45.87,1.83,1.83,0,0,1-1.17.34,1.73,1.73,0,0,1-1.22-.4,1.13,1.13,0,0,1-.43-.91v0h.83a.58.58,0,0,0,.25.5,1,1,0,0,0,.58.16.9.9,0,0,0,.53-.13A.4.4,0,0,0,210.66,84.11Z"/><path class="cls-2" d="M212.18,83.26a2.65,2.65,0,0,1,.41-1.54,1.31,1.31,0,0,1,1.15-.58,1.21,1.21,0,0,1,.58.13,1.3,1.3,0,0,1,.44.37V79.45h.9v5.74h-.75l-.09-.49a1.22,1.22,0,0,1-.46.42,1.28,1.28,0,0,1-.63.15,1.36,1.36,0,0,1-1.14-.53,2.29,2.29,0,0,1-.41-1.41Zm.9.07a1.59,1.59,0,0,0,.21.88.73.73,0,0,0,.67.33.84.84,0,0,0,.8-.47V82.34a.91.91,0,0,0-.32-.35.89.89,0,0,0-.47-.12.74.74,0,0,0-.68.38,2.11,2.11,0,0,0-.21,1Z"/><path class="cls-2" d="M219,85.19c0-.1-.06-.2-.08-.29a2.89,2.89,0,0,1,0-.29,1.54,1.54,0,0,1-.48.47,1.21,1.21,0,0,1-.67.19,1.34,1.34,0,0,1-1-.32,1.17,1.17,0,0,1-.33-.88,1,1,0,0,1,.45-.9,2.28,2.28,0,0,1,1.29-.32h.7V82.5a.66.66,0,0,0-.19-.49.86.86,0,0,0-1,0,.46.46,0,0,0-.18.38h-.86v0a1,1,0,0,1,.42-.84,1.77,1.77,0,0,1,1.16-.36,1.67,1.67,0,0,1,1.12.35,1.23,1.23,0,0,1,.43,1v1.77a3.59,3.59,0,0,0,0,.47,3.15,3.15,0,0,0,.11.44Zm-1.09-.64a1,1,0,0,0,.6-.17.89.89,0,0,0,.37-.38v-.59h-.72a.89.89,0,0,0-.61.19.61.61,0,0,0-.22.45.48.48,0,0,0,.15.37A.61.61,0,0,0,217.92,84.55Z"/><path class="cls-2" d="M222,83.6l.09.39h0l.87-2.78h1l-1.65,4.59a2.07,2.07,0,0,1-.44.71,1.12,1.12,0,0,1-.82.29l-.23,0-.25,0,.1-.7h.27a.5.5,0,0,0,.39-.16,1.49,1.49,0,0,0,.23-.39l.15-.36-1.44-3.93h1Z"/><rect class="cls-1" x="132.56" y="76.16" width="48.58" height="12.75"/><path class="cls-2" d="M139.18,83.76h0v0l1.08-3.92H141l1.08,3.93v0l.85-3.92h.88l-1.28,5.36h-.81l-1.07-3.84h0l-1.07,3.84h-.81l-1.28-5.36h.89Z"/><path class="cls-2" d="M146,85.27a1.73,1.73,0,0,1-1.35-.56,2,2,0,0,1-.5-1.42v-.14a2.16,2.16,0,0,1,.5-1.45,1.74,1.74,0,0,1,2.48-.08,1.92,1.92,0,0,1,.43,1.31v.53H145.1v0a1.22,1.22,0,0,0,.28.77.89.89,0,0,0,.71.3,1.82,1.82,0,0,0,.61-.09,2.13,2.13,0,0,0,.5-.25l.29.59a1.88,1.88,0,0,1-.6.33A2.5,2.5,0,0,1,146,85.27Zm-.1-3.42a.65.65,0,0,0-.54.27,1.19,1.19,0,0,0-.27.67h1.58v-.09a1,1,0,0,0-.19-.62A.7.7,0,0,0,145.92,81.85Z"/><path class="cls-2" d="M148.14,83.26a2.58,2.58,0,0,1,.41-1.54,1.3,1.3,0,0,1,1.14-.58,1.21,1.21,0,0,1,.58.13,1.33,1.33,0,0,1,.45.37V79.45h.89v5.74h-.75l-.09-.49a1.15,1.15,0,0,1-.46.42,1.28,1.28,0,0,1-.63.15,1.35,1.35,0,0,1-1.13-.53,2.23,2.23,0,0,1-.41-1.41Zm.89.07a1.51,1.51,0,0,0,.22.88.71.71,0,0,0,.66.33,1,1,0,0,0,.49-.12,1.09,1.09,0,0,0,.32-.35V82.34a1,1,0,0,0-.33-.35.89.89,0,0,0-.47-.12.72.72,0,0,0-.67.38,2,2,0,0,0-.22,1Z"/><path class="cls-2" d="M153.38,81.21l.05.57a1.46,1.46,0,0,1,.49-.47,1.26,1.26,0,0,1,.67-.17,1.24,1.24,0,0,1,1,.37,1.73,1.73,0,0,1,.35,1.18v2.5H155V82.7a.9.9,0,0,0-.19-.64.75.75,0,0,0-.56-.19.89.89,0,0,0-.47.12.92.92,0,0,0-.34.31v2.89h-.9v-4Z"/><path class="cls-2" d="M158.55,85.27a1.72,1.72,0,0,1-1.35-.56,2,2,0,0,1-.5-1.42v-.14a2.12,2.12,0,0,1,.5-1.45,1.54,1.54,0,0,1,1.25-.56,1.58,1.58,0,0,1,1.23.48,2,2,0,0,1,.43,1.31v.53h-2.49v0a1.17,1.17,0,0,0,.28.77.87.87,0,0,0,.7.3,1.89,1.89,0,0,0,.62-.09,2.13,2.13,0,0,0,.5-.25l.28.59a1.72,1.72,0,0,1-.59.33A2.5,2.5,0,0,1,158.55,85.27Zm-.1-3.42a.66.66,0,0,0-.55.27,1.26,1.26,0,0,0-.26.67h1.58v-.09a1,1,0,0,0-.19-.62A.7.7,0,0,0,158.45,81.85Z"/><path class="cls-2" d="M163.07,84.11a.41.41,0,0,0-.18-.34,1.76,1.76,0,0,0-.66-.24,2.67,2.67,0,0,1-1.08-.43.92.92,0,0,1-.37-.76,1.09,1.09,0,0,1,.43-.85,1.65,1.65,0,0,1,1.12-.35,1.79,1.79,0,0,1,1.15.35,1.07,1.07,0,0,1,.41.9H163a.55.55,0,0,0-.19-.42.77.77,0,0,0-.51-.18.75.75,0,0,0-.5.15.48.48,0,0,0-.17.36.41.41,0,0,0,.16.33,2,2,0,0,0,.65.22,2.64,2.64,0,0,1,1.11.44.91.91,0,0,1,.37.76,1,1,0,0,1-.45.87,1.82,1.82,0,0,1-1.16.34,1.77,1.77,0,0,1-1.23-.4,1.13,1.13,0,0,1-.43-.91v0h.83a.58.58,0,0,0,.25.5,1,1,0,0,0,.58.16.9.9,0,0,0,.53-.13A.44.44,0,0,0,163.07,84.11Z"/><path class="cls-2" d="M164.59,83.26a2.58,2.58,0,0,1,.41-1.54,1.29,1.29,0,0,1,1.14-.58,1.21,1.21,0,0,1,.58.13,1.44,1.44,0,0,1,.45.37V79.45h.89v5.74h-.75l-.09-.49a1.22,1.22,0,0,1-.46.42,1.28,1.28,0,0,1-.63.15,1.33,1.33,0,0,1-1.13-.53,2.23,2.23,0,0,1-.41-1.41Zm.89.07a1.59,1.59,0,0,0,.21.88.73.73,0,0,0,.67.33.9.9,0,0,0,.48-.12,1,1,0,0,0,.33-.35V82.34a1,1,0,0,0-.33-.35.89.89,0,0,0-.47-.12.71.71,0,0,0-.67.38,2,2,0,0,0-.22,1Z"/><path class="cls-2" d="M171.42,85.19a1.82,1.82,0,0,1-.08-.29,1.47,1.47,0,0,1-.05-.29,1.54,1.54,0,0,1-.48.47,1.19,1.19,0,0,1-.67.19,1.36,1.36,0,0,1-1-.32,1.17,1.17,0,0,1-.33-.88,1,1,0,0,1,.46-.9,2.22,2.22,0,0,1,1.28-.32h.69V82.5a.62.62,0,0,0-.18-.49.7.7,0,0,0-.52-.18.74.74,0,0,0-.49.15.46.46,0,0,0-.18.38h-.86v0a1,1,0,0,1,.42-.84,1.83,1.83,0,0,1,1.17-.36,1.67,1.67,0,0,1,1.12.35,1.23,1.23,0,0,1,.43,1v1.77a3.59,3.59,0,0,0,0,.47,3.15,3.15,0,0,0,.11.44Zm-1.1-.64a1.08,1.08,0,0,0,.61-.17.78.78,0,0,0,.35-.38v-.59h-.7a.88.88,0,0,0-.61.19.59.59,0,0,0-.23.45.52.52,0,0,0,.15.37A.61.61,0,0,0,170.32,84.55Z"/><path class="cls-2" d="M174.38,83.6l.09.39h0l.87-2.78h1l-1.65,4.59a2.07,2.07,0,0,1-.44.71,1.1,1.1,0,0,1-.81.29l-.24,0-.25,0,.1-.7h.27a.5.5,0,0,0,.39-.16,1.51,1.51,0,0,0,.24-.39l.14-.36-1.44-3.93h1Z"/><rect class="cls-1" x="81.18" y="76.16" width="48.58" height="12.75"/><path class="cls-2" d="M95.53,80.55H93.91v4.64H93V80.55H91.39v-.72h4.14Z"/><path class="cls-2" d="M98.33,84.61a1.3,1.3,0,0,1-.47.49,1.33,1.33,0,0,1-.67.17,1.28,1.28,0,0,1-1-.41,1.87,1.87,0,0,1-.36-1.27V81.21h.9V83.6a1.21,1.21,0,0,0,.16.73.61.61,0,0,0,.51.21,1.15,1.15,0,0,0,.55-.12.83.83,0,0,0,.34-.33V81.21h.89v4H98.4Z"/><path class="cls-2" d="M101.83,85.27a1.72,1.72,0,0,1-1.35-.56,2,2,0,0,1-.5-1.42v-.14a2.12,2.12,0,0,1,.5-1.45,1.54,1.54,0,0,1,1.25-.56,1.58,1.58,0,0,1,1.23.48,2,2,0,0,1,.43,1.31v.53H100.9v0a1.17,1.17,0,0,0,.28.77.87.87,0,0,0,.7.3,1.89,1.89,0,0,0,.62-.09,2.13,2.13,0,0,0,.5-.25l.28.59a1.72,1.72,0,0,1-.59.33A2.5,2.5,0,0,1,101.83,85.27Zm-.1-3.42a.66.66,0,0,0-.55.27,1.26,1.26,0,0,0-.26.67h1.58v-.09a1,1,0,0,0-.19-.62A.7.7,0,0,0,101.73,81.85Z"/><path class="cls-2" d="M106.35,84.11a.41.41,0,0,0-.18-.34,1.76,1.76,0,0,0-.66-.24,2.61,2.61,0,0,1-1.08-.43.92.92,0,0,1-.37-.76,1.09,1.09,0,0,1,.43-.85,1.65,1.65,0,0,1,1.12-.35,1.79,1.79,0,0,1,1.15.35,1.07,1.07,0,0,1,.41.9h-.86a.59.59,0,0,0-.19-.42.77.77,0,0,0-.51-.18.75.75,0,0,0-.5.15.48.48,0,0,0-.17.36.41.41,0,0,0,.16.33,2,2,0,0,0,.65.22,2.64,2.64,0,0,1,1.11.44.91.91,0,0,1,.37.76,1,1,0,0,1-.45.87,1.82,1.82,0,0,1-1.16.34,1.77,1.77,0,0,1-1.23-.4A1.13,1.13,0,0,1,104,84v0h.83a.58.58,0,0,0,.25.5,1,1,0,0,0,.58.16.9.9,0,0,0,.53-.13A.44.44,0,0,0,106.35,84.11Z"/><path class="cls-2" d="M107.86,83.26a2.65,2.65,0,0,1,.41-1.54,1.32,1.32,0,0,1,1.15-.58,1.21,1.21,0,0,1,.58.13,1.44,1.44,0,0,1,.45.37V79.45h.89v5.74h-.75l-.09-.49a1.22,1.22,0,0,1-.46.42,1.28,1.28,0,0,1-.63.15,1.36,1.36,0,0,1-1.14-.53,2.29,2.29,0,0,1-.41-1.41Zm.9.07a1.59,1.59,0,0,0,.21.88.73.73,0,0,0,.67.33.9.9,0,0,0,.48-.12,1,1,0,0,0,.33-.35V82.34a1,1,0,0,0-.33-.35.89.89,0,0,0-.47-.12.71.71,0,0,0-.67.38,2,2,0,0,0-.22,1Z"/><path class="cls-2" d="M114.7,85.19a1.82,1.82,0,0,1-.08-.29,1.47,1.47,0,0,1-.05-.29,1.54,1.54,0,0,1-.48.47,1.19,1.19,0,0,1-.67.19,1.36,1.36,0,0,1-1-.32,1.17,1.17,0,0,1-.33-.88,1,1,0,0,1,.46-.9,2.22,2.22,0,0,1,1.28-.32h.69V82.5a.62.62,0,0,0-.18-.49.7.7,0,0,0-.52-.18.74.74,0,0,0-.49.15.46.46,0,0,0-.18.38h-.86v0a1,1,0,0,1,.42-.84,1.83,1.83,0,0,1,1.17-.36,1.67,1.67,0,0,1,1.12.35,1.23,1.23,0,0,1,.43,1v1.77a3.59,3.59,0,0,0,0,.47,3.15,3.15,0,0,0,.11.44Zm-1.1-.64a1.08,1.08,0,0,0,.61-.17.78.78,0,0,0,.35-.38v-.59h-.7a.88.88,0,0,0-.61.19.59.59,0,0,0-.23.45.52.52,0,0,0,.15.37A.61.61,0,0,0,113.6,84.55Z"/><path class="cls-2" d="M117.66,83.6l.09.39h0l.87-2.78h1L118,85.8a2.07,2.07,0,0,1-.44.71,1.1,1.1,0,0,1-.81.29l-.24,0-.25,0,.1-.7h.27a.5.5,0,0,0,.39-.16,1.51,1.51,0,0,0,.24-.39l.14-.36-1.44-3.93h1Z"/><rect class="cls-1" x="29.81" y="76.16" width="48.59" height="12.75"/><path class="cls-2" d="M42.22,79.83,43.76,84h0l1.55-4.13h1.16v5.36h-.9V83.37L45.68,81h0l-1.59,4.15h-.6l-1.58-4.14h0L42,83.37v1.82h-.89V79.83Z"/><path class="cls-2" d="M47.38,83.17a2.13,2.13,0,0,1,.49-1.46,1.67,1.67,0,0,1,1.33-.57,1.7,1.7,0,0,1,1.35.57A2.16,2.16,0,0,1,51,83.17v.07a2.21,2.21,0,0,1-.49,1.47,1.7,1.7,0,0,1-1.34.56,1.66,1.66,0,0,1-1.34-.57,2.13,2.13,0,0,1-.49-1.46Zm.9.07a1.81,1.81,0,0,0,.22,1,.87.87,0,0,0,1.41,0,1.72,1.72,0,0,0,.23-1v-.08a1.7,1.7,0,0,0-.23-.94.86.86,0,0,0-1.41,0,1.82,1.82,0,0,0-.22.94Z"/><path class="cls-2" d="M52.63,81.21l0,.57a1.38,1.38,0,0,1,.49-.47,1.24,1.24,0,0,1,.67-.17,1.27,1.27,0,0,1,1,.37,1.73,1.73,0,0,1,.35,1.18v2.5h-.9V82.7a.91.91,0,0,0-.18-.64.77.77,0,0,0-.57-.19A.94.94,0,0,0,53,82a.89.89,0,0,0-.33.31v2.89h-.9v-4Z"/><path class="cls-2" d="M55.92,83.26a2.65,2.65,0,0,1,.41-1.54,1.31,1.31,0,0,1,1.15-.58,1.24,1.24,0,0,1,.58.13,1.3,1.3,0,0,1,.44.37V79.45h.9v5.74h-.76l-.08-.49a1.3,1.3,0,0,1-.46.42,1.28,1.28,0,0,1-.63.15,1.36,1.36,0,0,1-1.14-.53,2.29,2.29,0,0,1-.41-1.41Zm.89.07a1.59,1.59,0,0,0,.22.88.73.73,0,0,0,.67.33.9.9,0,0,0,.48-.12,1,1,0,0,0,.32-.35V82.34a1,1,0,0,0-.32-.35.91.91,0,0,0-.47-.12.74.74,0,0,0-.68.38,2.1,2.1,0,0,0-.22,1Z"/><path class="cls-2" d="M62.75,85.19c0-.1-.06-.2-.08-.29a1.45,1.45,0,0,1,0-.29,1.54,1.54,0,0,1-.48.47,1.22,1.22,0,0,1-.68.19,1.33,1.33,0,0,1-.95-.32,1.17,1.17,0,0,1-.33-.88,1,1,0,0,1,.45-.9,2.28,2.28,0,0,1,1.29-.32h.69V82.5a.66.66,0,0,0-.18-.49.86.86,0,0,0-1,0,.47.47,0,0,0-.19.38h-.85v0a1,1,0,0,1,.42-.84A1.82,1.82,0,0,1,62,81.14a1.67,1.67,0,0,1,1.12.35,1.23,1.23,0,0,1,.43,1v1.77a3.59,3.59,0,0,0,0,.47,3.13,3.13,0,0,0,.1.44Zm-1.1-.64a1.06,1.06,0,0,0,.61-.17.86.86,0,0,0,.36-.38v-.59h-.71a.89.89,0,0,0-.61.19.58.58,0,0,0-.22.45.48.48,0,0,0,.15.37A.6.6,0,0,0,61.65,84.55Z"/><path class="cls-2" d="M65.72,83.6l.09.39h0l.87-2.78h1L66,85.8a2.1,2.1,0,0,1-.45.71,1.1,1.1,0,0,1-.81.29l-.24,0-.24,0,.1-.7h.26a.51.51,0,0,0,.4-.16,1.49,1.49,0,0,0,.23-.39l.15-.36L64,81.21h1Z"/><path class="cls-3" d="M104.63,62.23h-3l-8-13.09-.07,0V62.23h-3V44.29h3l7.95,13.08.08,0V44.29h3Z"/><path class="cls-3" d="M107.62,55.44a7.29,7.29,0,0,1,1.62-4.88,6.24,6.24,0,0,1,9,0,7.22,7.22,0,0,1,1.64,4.88v.26a7.24,7.24,0,0,1-1.64,4.9,5.57,5.57,0,0,1-4.47,1.89,5.66,5.66,0,0,1-4.5-1.9,7.29,7.29,0,0,1-1.62-4.89Zm3,.25a5.94,5.94,0,0,0,.77,3.18,2.56,2.56,0,0,0,2.36,1.21,2.59,2.59,0,0,0,2.34-1.21,5.77,5.77,0,0,0,.79-3.18v-.26a5.66,5.66,0,0,0-.79-3.13,2.6,2.6,0,0,0-2.37-1.24,2.55,2.55,0,0,0-2.33,1.24,5.88,5.88,0,0,0-.77,3.13Z"/><path class="cls-3" d="M126.89,57.72l.23,1.08h.07l.23-1.08,2.65-8.82h3.09l-4.73,13.33h-2.6L121.08,48.9h3.09Z"/><path class="cls-3" d="M140.59,62.49a5.81,5.81,0,0,1-4.52-1.86,6.8,6.8,0,0,1-1.68-4.76v-.49a7.07,7.07,0,0,1,1.67-4.82,5.79,5.79,0,0,1,8.32-.27,6.41,6.41,0,0,1,1.43,4.37v1.77H137.5l0,.06a4.19,4.19,0,0,0,.93,2.59,2.94,2.94,0,0,0,2.37,1,6.58,6.58,0,0,0,2.07-.29,6.69,6.69,0,0,0,1.66-.85l1,2a6.21,6.21,0,0,1-2,1.13A8.45,8.45,0,0,1,140.59,62.49Zm-.35-11.43a2.23,2.23,0,0,0-1.82.88,4.23,4.23,0,0,0-.88,2.23l0,.06h5.28v-.31a3.12,3.12,0,0,0-.65-2.06A2.32,2.32,0,0,0,140.24,51.06Z"/><path class="cls-3" d="M151,48.9l.16,1.74a4.52,4.52,0,0,1,1.64-1.47,4.88,4.88,0,0,1,2.28-.51,4.07,4.07,0,0,1,2.24.59,3.54,3.54,0,0,1,1.4,1.77,4.71,4.71,0,0,1,1.63-1.74,4.35,4.35,0,0,1,2.36-.62A3.91,3.91,0,0,1,165.84,50,6.29,6.29,0,0,1,167,54.2v8h-3v-8a3.72,3.72,0,0,0-.58-2.38,2.17,2.17,0,0,0-1.76-.7,2.6,2.6,0,0,0-1.62.52,3,3,0,0,0-1,1.39,3,3,0,0,0,0,.32,2.35,2.35,0,0,1,0,.26v8.64h-3v-8a3.66,3.66,0,0,0-.6-2.35,2.15,2.15,0,0,0-1.75-.73,3.12,3.12,0,0,0-1.55.36,2.51,2.51,0,0,0-1,1v9.78h-3V48.9Z"/><path class="cls-3" d="M181.86,56a7.54,7.54,0,0,1-1.36,4.7,4.58,4.58,0,0,1-3.84,1.78A4.37,4.37,0,0,1,174.5,62,4.24,4.24,0,0,1,173,60.5l-.3,1.73h-2.51V43h3v7.41a4,4,0,0,1,3.49-1.76,4.42,4.42,0,0,1,3.86,1.94,8.79,8.79,0,0,1,1.36,5.15Zm-3-.26a6.81,6.81,0,0,0-.72-3.36,2.39,2.39,0,0,0-2.26-1.29,2.93,2.93,0,0,0-1.67.45,3.14,3.14,0,0,0-1.07,1.23v5.59a3,3,0,0,0,1.06,1.24,3.09,3.09,0,0,0,1.7.44A2.5,2.5,0,0,0,178.17,59a5.48,5.48,0,0,0,.7-3Z"/><path class="cls-3" d="M190.16,62.49a5.77,5.77,0,0,1-4.51-1.86A6.8,6.8,0,0,1,184,55.87v-.49a7.06,7.06,0,0,1,1.66-4.82,5.28,5.28,0,0,1,4.19-1.9A5.21,5.21,0,0,1,194,50.29a6.41,6.41,0,0,1,1.43,4.37v1.77h-8.31l0,.06a4.14,4.14,0,0,0,.94,2.59,2.91,2.91,0,0,0,2.36,1,6.69,6.69,0,0,0,2.08-.29,7.05,7.05,0,0,0,1.66-.85l1,2A6.21,6.21,0,0,1,193,62,8.45,8.45,0,0,1,190.16,62.49Zm-.34-11.43a2.25,2.25,0,0,0-1.83.88,4.31,4.31,0,0,0-.88,2.23l0,.06h5.29v-.31a3.17,3.17,0,0,0-.65-2.06A2.34,2.34,0,0,0,189.82,51.06Z"/><path class="cls-3" d="M204.44,51.6l-1.29-.05a2.63,2.63,0,0,0-1.45.37,2.35,2.35,0,0,0-.91,1v9.26h-3V48.9h2.73l.2,1.93a4.34,4.34,0,0,1,1.3-1.6,3.06,3.06,0,0,1,1.83-.57,2.6,2.6,0,0,1,.5,0l.43.1Z"/><rect id="Place_for_Month" class="cls-4" x="29.81" y="27.23" width="48.58" height="38.33"/><path class="cls-2" d="M47.56,59H45.73V38.63l-5.62.66V38l7.45-1.34Z"/><path class="cls-2" d="M64.82,59H63V38.63l-5.62.66V38l7.45-1.34Z"/><rect class="cls-5" x="235.4" y="207.85" width="48.49" height="35.78"/><path class="cls-6" d="M244.67,218.7h-4.13V218l2-2.21a5.12,5.12,0,0,0,.68-.89,1.49,1.49,0,0,0,.19-.68,1,1,0,0,0-.25-.7.81.81,0,0,0-.65-.28,1,1,0,0,0-.82.31,1.26,1.26,0,0,0-.26.84h-1v0A1.79,1.79,0,0,1,241,213a2.07,2.07,0,0,1,1.55-.57,2,2,0,0,1,1.42.5,1.72,1.72,0,0,1,.52,1.29,2,2,0,0,1-.31,1,9.28,9.28,0,0,1-.93,1.18l-1.38,1.45v0h2.8Z"/><path class="cls-6" d="M249.64,213.32a8,8,0,0,0-1.45,2.27,10.51,10.51,0,0,0-.54,2.45l-.07.66h-1l.07-.66a9,9,0,0,1,.66-2.55,8.79,8.79,0,0,1,1.37-2.17h-3.3v-.84h4.3Z"/><rect class="cls-5" x="184.13" y="207.85" width="48.48" height="35.78"/><path class="cls-6" d="M193.41,218.7h-4.14V218l2-2.21a4.66,4.66,0,0,0,.68-.89,1.38,1.38,0,0,0,.19-.68,1,1,0,0,0-.24-.7.83.83,0,0,0-.66-.28,1,1,0,0,0-.81.31,1.21,1.21,0,0,0-.27.84h-1v0a1.86,1.86,0,0,1,.54-1.39,2.1,2.1,0,0,1,1.55-.57,2,2,0,0,1,1.42.5,1.69,1.69,0,0,1,.52,1.29,2,2,0,0,1-.3,1,8.65,8.65,0,0,1-.94,1.18l-1.38,1.45v0h2.81Z"/><path class="cls-6" d="M196.69,212.39a3.39,3.39,0,0,1,.64.07,2.73,2.73,0,0,1,.55.19l-.2.79a3.16,3.16,0,0,0-.46-.16,2.73,2.73,0,0,0-.53-.05,1.21,1.21,0,0,0-1,.48,2.07,2.07,0,0,0-.38,1.3v0a1.66,1.66,0,0,1,.6-.36,2,2,0,0,1,.74-.13,1.64,1.64,0,0,1,1.32.58,2.48,2.48,0,0,1-.07,3.05,1.86,1.86,0,0,1-1.46.61,2,2,0,0,1-1.55-.66,2.67,2.67,0,0,1-.61-1.87v-1.18a2.77,2.77,0,0,1,.68-2A2.28,2.28,0,0,1,196.69,212.39Zm-.29,3a1.36,1.36,0,0,0-.67.14,1.08,1.08,0,0,0-.42.37v.45a2,2,0,0,0,.32,1.21,1,1,0,0,0,.81.43.82.82,0,0,0,.72-.39,1.71,1.71,0,0,0,.26-.95,1.43,1.43,0,0,0-.27-.91A.9.9,0,0,0,196.4,215.36Z"/><rect class="cls-5" x="132.87" y="207.85" width="48.49" height="35.78"/><path class="cls-6" d="M142.14,218.7H138V218l2-2.21a5.29,5.29,0,0,0,.69-.89,1.47,1.47,0,0,0,.18-.68,1,1,0,0,0-.24-.7.81.81,0,0,0-.66-.28,1,1,0,0,0-.81.31,1.21,1.21,0,0,0-.26.84h-1v0a1.83,1.83,0,0,1,.55-1.39,2.06,2.06,0,0,1,1.54-.57,2,2,0,0,1,1.42.5,1.69,1.69,0,0,1,.52,1.29,2,2,0,0,1-.3,1,9.28,9.28,0,0,1-.93,1.18l-1.39,1.45,0,0h2.8Z"/><path class="cls-6" d="M143.18,215.92l.36-3.44h3.29v.9H144.4l-.19,1.56a2,2,0,0,1,.43-.23,2.18,2.18,0,0,1,.55-.09,1.69,1.69,0,0,1,1.37.56,2.23,2.23,0,0,1,.49,1.54,2.13,2.13,0,0,1-.52,1.49,1.92,1.92,0,0,1-1.51.58,2.14,2.14,0,0,1-1.38-.45,1.49,1.49,0,0,1-.55-1.28v0l1,0a.91.91,0,0,0,.27.7.92.92,0,0,0,.68.25.86.86,0,0,0,.74-.34,1.75,1.75,0,0,0,0-1.82.87.87,0,0,0-.74-.35,1.22,1.22,0,0,0-.64.14.85.85,0,0,0-.29.4Z"/><rect class="cls-5" x="81.6" y="207.85" width="48.49" height="35.78"/><path class="cls-6" d="M90.87,218.7H86.74V218l2-2.21a5.29,5.29,0,0,0,.69-.89,1.49,1.49,0,0,0,.19-.68,1.05,1.05,0,0,0-.25-.7.81.81,0,0,0-.66-.28,1,1,0,0,0-.81.31,1.26,1.26,0,0,0-.26.84h-1v0a1.79,1.79,0,0,1,.54-1.39,2.06,2.06,0,0,1,1.54-.57,2,2,0,0,1,1.42.5,1.69,1.69,0,0,1,.52,1.29,2,2,0,0,1-.3,1,9.28,9.28,0,0,1-.93,1.18l-1.38,1.45v0h2.8Z"/><path class="cls-6" d="M95.22,216.49H96v.83h-.78v1.38h-1v-1.38H91.51l0-.63,2.66-4.21h1.07Zm-2.71,0h1.67V214h0l-.09.19Z"/><rect class="cls-5" x="30.33" y="207.85" width="48.49" height="35.78"/><path class="cls-6" d="M39.6,218.7H35.47V218l2-2.21a5.29,5.29,0,0,0,.69-.89,1.47,1.47,0,0,0,.18-.68,1,1,0,0,0-.24-.7.81.81,0,0,0-.66-.28,1,1,0,0,0-.81.31,1.26,1.26,0,0,0-.26.84h-1v0a1.83,1.83,0,0,1,.55-1.39,2.06,2.06,0,0,1,1.54-.57,2,2,0,0,1,1.42.5,1.69,1.69,0,0,1,.52,1.29,2,2,0,0,1-.3,1,9.28,9.28,0,0,1-.93,1.18l-1.39,1.45,0,0h2.8Z"/><path class="cls-6" d="M41.64,215.12h.72a.92.92,0,0,0,.73-.25,1,1,0,0,0,.22-.7,1,1,0,0,0-.24-.7.94.94,0,0,0-.7-.24,1,1,0,0,0-.69.24.8.8,0,0,0-.27.63h-1v0a1.45,1.45,0,0,1,.54-1.2,2.09,2.09,0,0,1,1.42-.49,2.21,2.21,0,0,1,1.45.46,1.65,1.65,0,0,1,.54,1.32,1.42,1.42,0,0,1-.24.77,1.62,1.62,0,0,1-.69.57,1.57,1.57,0,0,1,.78.57,1.76,1.76,0,0,1-.34,2.22,2.53,2.53,0,0,1-3,0,1.44,1.44,0,0,1-.57-1.27v0h1a.86.86,0,0,0,.28.67,1.23,1.23,0,0,0,1.5,0,1,1,0,0,0,.28-.74,1,1,0,0,0-.26-.77,1.07,1.07,0,0,0-.79-.25h-.72Z"/><rect class="cls-5" x="235.4" y="169.55" width="48.49" height="35.78"/><path class="cls-6" d="M244.67,180.4h-4.13v-.72l2-2.2a5.12,5.12,0,0,0,.68-.89,1.52,1.52,0,0,0,.19-.68,1,1,0,0,0-.25-.71.81.81,0,0,0-.65-.28,1,1,0,0,0-.82.31,1.29,1.29,0,0,0-.26.85h-1v0a1.81,1.81,0,0,1,.54-1.4,2.1,2.1,0,0,1,1.55-.56,2,2,0,0,1,1.42.5,1.71,1.71,0,0,1,.52,1.29,1.9,1.9,0,0,1-.31,1,8.05,8.05,0,0,1-.93,1.18l-1.38,1.46v0h2.8Z"/><path class="cls-6" d="M249.57,178a2.78,2.78,0,0,1-.54,1.85,1.85,1.85,0,0,1-1.49.64,1.87,1.87,0,0,1-1.5-.64,2.78,2.78,0,0,1-.55-1.85v-1.42a2.74,2.74,0,0,1,.55-1.85,2.05,2.05,0,0,1,3,0,2.74,2.74,0,0,1,.55,1.85Zm-1-1.58a2,2,0,0,0-.25-1.13.95.95,0,0,0-1.5,0,2.1,2.1,0,0,0-.25,1.13v1.73a2,2,0,0,0,.26,1.14.87.87,0,0,0,.75.37.85.85,0,0,0,.74-.37,2,2,0,0,0,.25-1.14Z"/><rect class="cls-5" x="184.13" y="169.55" width="48.48" height="35.78"/><path class="cls-6" d="M191.88,180.4h-1v-5.23h-1.27v-.77l2.31-.22Z"/><path class="cls-6" d="M196,179.66a1.13,1.13,0,0,0,.9-.41,1.84,1.84,0,0,0,.34-1.2v-.29a1.4,1.4,0,0,1-.51.43,1.45,1.45,0,0,1-.66.15,1.82,1.82,0,0,1-1.4-.56,2.43,2.43,0,0,1,.06-3.08,1.88,1.88,0,0,1,1.43-.61,2,2,0,0,1,1.54.63,2.61,2.61,0,0,1,.58,1.83V178a2.5,2.5,0,0,1-.64,1.83,2.2,2.2,0,0,1-1.64.65,3.09,3.09,0,0,1-.66-.07,2.44,2.44,0,0,1-.63-.19l.14-.79a3.27,3.27,0,0,0,.53.17A3.89,3.89,0,0,0,196,179.66Zm.17-2.13a1.34,1.34,0,0,0,.66-.15,1.05,1.05,0,0,0,.41-.4v-.55a2,2,0,0,0-.27-1.13,1,1,0,0,0-.8-.38.85.85,0,0,0-.7.38,1.56,1.56,0,0,0-.28.94,1.59,1.59,0,0,0,.26.94A.82.82,0,0,0,196.15,177.53Z"/><rect class="cls-5" x="132.87" y="169.55" width="48.49" height="35.78"/><path class="cls-6" d="M140.61,180.4h-1v-5.23h-1.26v-.77l2.3-.22Z"/><path class="cls-6" d="M146.91,175.82a1.4,1.4,0,0,1-.25.83,1.76,1.76,0,0,1-.7.56,1.82,1.82,0,0,1,.81.59,1.44,1.44,0,0,1,.3.91,1.61,1.61,0,0,1-.57,1.32,2.68,2.68,0,0,1-3,0,1.61,1.61,0,0,1-.57-1.32,1.44,1.44,0,0,1,.3-.91,1.82,1.82,0,0,1,.81-.59,1.69,1.69,0,0,1-.7-.55,1.46,1.46,0,0,1-.25-.84,1.6,1.6,0,0,1,.53-1.28,2,2,0,0,1,1.38-.45,2.06,2.06,0,0,1,1.38.45A1.6,1.6,0,0,1,146.91,175.82Zm-.87,2.83a1,1,0,0,0-.3-.74,1.1,1.1,0,0,0-1.49,0,1,1,0,0,0-.28.74,1,1,0,0,0,.28.74,1.05,1.05,0,0,0,.76.27,1,1,0,0,0,.74-.27A1,1,0,0,0,146,178.65Zm-.17-2.79a.93.93,0,0,0-.24-.67.8.8,0,0,0-.63-.27.84.84,0,0,0-.64.26,1,1,0,0,0-.23.68.92.92,0,0,0,.24.67.91.91,0,0,0,1.27,0A1,1,0,0,0,145.87,175.86Z"/><rect class="cls-5" x="81.6" y="169.55" width="48.49" height="35.78"/><path class="cls-6" d="M89.34,180.4h-1v-5.23H87v-.77l2.3-.22Z"/><path class="cls-6" d="M95.84,175a8.13,8.13,0,0,0-1.45,2.27,11.24,11.24,0,0,0-.55,2.46l-.06.66h-1l.07-.66a8.49,8.49,0,0,1,2-4.73h-3.3v-.83h4.3Z"/><rect class="cls-5" x="30.33" y="169.55" width="48.49" height="35.78"/><path class="cls-6" d="M38.07,180.4H37v-5.23H35.77v-.77l2.3-.22Z"/><path class="cls-6" d="M42.88,174.09a2.67,2.67,0,0,1,.64.07,3.23,3.23,0,0,1,.55.18l-.19.8a3.27,3.27,0,0,0-.47-.16,2,2,0,0,0-.52-.06,1.21,1.21,0,0,0-1,.49,2.05,2.05,0,0,0-.37,1.3v0a1.71,1.71,0,0,1,.59-.36,2,2,0,0,1,.75-.13,1.64,1.64,0,0,1,1.32.58,2.26,2.26,0,0,1,.48,1.49,2.24,2.24,0,0,1-.55,1.56,1.87,1.87,0,0,1-1.46.61,2,2,0,0,1-1.56-.67,2.67,2.67,0,0,1-.61-1.86v-1.19a2.73,2.73,0,0,1,.69-2A2.24,2.24,0,0,1,42.88,174.09Zm-.29,3a1.54,1.54,0,0,0-.67.13,1,1,0,0,0-.41.38V178a2,2,0,0,0,.31,1.22,1,1,0,0,0,.82.43.81.81,0,0,0,.71-.39,1.64,1.64,0,0,0,.26-1,1.42,1.42,0,0,0-.27-.9A.88.88,0,0,0,42.59,177.06Z"/><rect class="cls-5" x="235.4" y="131.24" width="48.49" height="35.79"/><path class="cls-6" d="M243.14,142.09h-1v-5.23h-1.27v-.76l2.3-.23Z"/><path class="cls-6" d="M246.71,138.52h.73a.9.9,0,0,0,.72-.26,1,1,0,0,0,.23-.7.84.84,0,0,0-.95-.94,1,1,0,0,0-.69.24.8.8,0,0,0-.27.63h-1v0a1.44,1.44,0,0,1,.53-1.2,2.09,2.09,0,0,1,1.42-.49,2.14,2.14,0,0,1,1.45.47,1.61,1.61,0,0,1,.54,1.31,1.42,1.42,0,0,1-.24.77,1.57,1.57,0,0,1-.69.57,1.45,1.45,0,0,1,1,1.45,1.65,1.65,0,0,1-.59,1.34,2.49,2.49,0,0,1-3,0,1.44,1.44,0,0,1-.56-1.27v0h1a.9.9,0,0,0,.28.67,1.05,1.05,0,0,0,.74.25,1,1,0,0,0,.76-.26.94.94,0,0,0,.28-.73,1.11,1.11,0,0,0-.25-.78,1.09,1.09,0,0,0-.79-.25h-.73Z"/><rect class="cls-5" x="184.13" y="131.24" width="48.48" height="35.79"/><path class="cls-6" d="M191.88,142.09h-1v-5.23h-1.27v-.76l2.31-.23Z"/><path class="cls-6" d="M198.38,142.09h-4.13v-.71l2-2.21a4.91,4.91,0,0,0,.69-.89,1.49,1.49,0,0,0,.19-.68,1.05,1.05,0,0,0-.25-.7.81.81,0,0,0-.66-.28,1,1,0,0,0-.81.31,1.26,1.26,0,0,0-.26.84h-1v0a1.8,1.8,0,0,1,.54-1.4,2.06,2.06,0,0,1,1.54-.57,2,2,0,0,1,1.42.5,1.7,1.7,0,0,1,.52,1.3,1.94,1.94,0,0,1-.3,1,9.28,9.28,0,0,1-.93,1.18l-1.38,1.46v0h2.8Z"/><rect class="cls-5" x="132.87" y="131.24" width="48.49" height="35.79"/><path class="cls-6" d="M140.61,142.09h-1v-5.23h-1.26v-.76l2.3-.23Z"/><path class="cls-6" d="M145.58,142.09h-1v-5.23h-1.27v-.76l2.3-.23Z"/><rect class="cls-5" x="81.6" y="131.24" width="48.49" height="35.79"/><path class="cls-6" d="M89.34,142.09h-1v-5.23H87v-.76l2.3-.23Z"/><path class="cls-6" d="M95.77,139.7a2.73,2.73,0,0,1-.55,1.85,1.85,1.85,0,0,1-1.48.64,1.91,1.91,0,0,1-1.5-.64,2.73,2.73,0,0,1-.55-1.85v-1.42a2.73,2.73,0,0,1,.55-1.85,2,2,0,0,1,3,0,2.73,2.73,0,0,1,.55,1.85Zm-1-1.58a2,2,0,0,0-.25-1.13.95.95,0,0,0-1.5,0,2,2,0,0,0-.25,1.13v1.72A1.92,1.92,0,0,0,93,141a.85.85,0,0,0,.75.37.83.83,0,0,0,.74-.37,2,2,0,0,0,.25-1.14Z"/><rect class="cls-5" x="30.33" y="131.24" width="48.49" height="35.79"/><path class="cls-6" d="M39.7,141.35a1.07,1.07,0,0,0,.89-.41,1.81,1.81,0,0,0,.35-1.2v-.29a1.43,1.43,0,0,1-.51.44,1.45,1.45,0,0,1-.66.14,1.82,1.82,0,0,1-1.41-.56,2.18,2.18,0,0,1-.51-1.54,2.14,2.14,0,0,1,.58-1.54,1.88,1.88,0,0,1,1.42-.61,2,2,0,0,1,1.55.64,2.63,2.63,0,0,1,.57,1.82v1.46a2.51,2.51,0,0,1-.63,1.83,2.18,2.18,0,0,1-1.64.66,3.7,3.7,0,0,1-.66-.07,2.9,2.9,0,0,1-.63-.19l.13-.8a2.25,2.25,0,0,0,.54.17A3.8,3.8,0,0,0,39.7,141.35Zm.16-2.12a1.41,1.41,0,0,0,.67-.15,1.13,1.13,0,0,0,.41-.4v-.56a1.85,1.85,0,0,0-.28-1.12.92.92,0,0,0-.79-.38.84.84,0,0,0-.7.37,1.77,1.77,0,0,0,0,1.88A.83.83,0,0,0,39.86,139.23Z"/><rect class="cls-5" x="235.4" y="92.93" width="48.49" height="35.78"/><path class="cls-6" d="M245.47,97.48a2.67,2.67,0,0,1,.64.07,2.54,2.54,0,0,1,.55.18l-.19.8a3.27,3.27,0,0,0-.47-.16,2.09,2.09,0,0,0-.53-.06,1.22,1.22,0,0,0-1,.49,2.05,2.05,0,0,0-.38,1.3v0a1.66,1.66,0,0,1,.6-.36,2,2,0,0,1,.75-.13,1.64,1.64,0,0,1,1.32.58,2.5,2.5,0,0,1-.08,3,1.85,1.85,0,0,1-1.45.61,2,2,0,0,1-1.56-.67,2.62,2.62,0,0,1-.61-1.86v-1.19a2.73,2.73,0,0,1,.69-2A2.27,2.27,0,0,1,245.47,97.48Zm-.29,3a1.54,1.54,0,0,0-.67.13,1.11,1.11,0,0,0-.42.38v.44a2,2,0,0,0,.32,1.22,1,1,0,0,0,.82.43.81.81,0,0,0,.71-.39,1.72,1.72,0,0,0,.26-1,1.47,1.47,0,0,0-.27-.91A.91.91,0,0,0,245.18,100.45Z"/><rect class="cls-5" x="184.13" y="92.93" width="48.48" height="35.78"/><path class="cls-6" d="M192,101l.36-3.44h3.29v.9h-2.42L193,100a1.69,1.69,0,0,1,.42-.23,1.86,1.86,0,0,1,.55-.1,1.75,1.75,0,0,1,1.37.56,2.26,2.26,0,0,1,.5,1.54,2.16,2.16,0,0,1-.53,1.5,1.9,1.9,0,0,1-1.51.58,2.16,2.16,0,0,1-1.38-.45,1.5,1.5,0,0,1-.55-1.28v0l1,0a1,1,0,0,0,1.69.62,1.48,1.48,0,0,0,.26-.9,1.54,1.54,0,0,0-.26-.92.9.9,0,0,0-.75-.35,1.09,1.09,0,0,0-.63.14.76.76,0,0,0-.3.4Z"/><rect class="cls-5" x="132.87" y="92.93" width="48.49" height="35.78"/><path class="cls-6" d="M144,101.57h.79v.83H144v1.39h-1V102.4H140.3l0-.63,2.67-4.2H144Zm-2.7,0H143V99.05h0l-.08.18Z"/><rect class="cls-5" x="81.6" y="92.93" width="48.49" height="35.78"/><path class="cls-6" d="M90.43,100.21h.72a.92.92,0,0,0,.73-.25,1,1,0,0,0,.22-.71.93.93,0,0,0-.24-.69.91.91,0,0,0-.7-.25,1,1,0,0,0-.69.24.82.82,0,0,0-.27.64h-1v0a1.47,1.47,0,0,1,.53-1.2,2.12,2.12,0,0,1,1.42-.48,2.17,2.17,0,0,1,1.46.46,1.63,1.63,0,0,1,.54,1.31,1.37,1.37,0,0,1-.24.77,1.67,1.67,0,0,1-.7.58,1.48,1.48,0,0,1,.78.57,1.56,1.56,0,0,1,.25.88,1.63,1.63,0,0,1-.59,1.34,2.24,2.24,0,0,1-1.5.49,2.29,2.29,0,0,1-1.45-.46,1.45,1.45,0,0,1-.56-1.27v0h1a.85.85,0,0,0,.28.67,1,1,0,0,0,.74.26,1.09,1.09,0,0,0,.76-.26,1,1,0,0,0,.27-.74,1,1,0,0,0-.25-.77,1.07,1.07,0,0,0-.79-.25h-.72Z"/><rect class="cls-5" x="30.33" y="92.93" width="48.49" height="35.78"/><path class="cls-6" d="M42.09,103.79H38v-.72l2-2.2a4.66,4.66,0,0,0,.68-.89,1.38,1.38,0,0,0,.19-.69,1.06,1.06,0,0,0-.24-.7.87.87,0,0,0-.66-.28,1,1,0,0,0-.81.31,1.26,1.26,0,0,0-.27.85h-1v0a1.85,1.85,0,0,1,.54-1.39A2.08,2.08,0,0,1,40,97.48a2,2,0,0,1,1.42.49,1.76,1.76,0,0,1,.52,1.3,1.92,1.92,0,0,1-.3,1,7.58,7.58,0,0,1-.94,1.18l-1.38,1.46v0h2.8Z"/><path class="cls-4" d="M255.7,145.91c-.46.15-1.31.37-2.56.66a.75.75,0,0,1-.45,0,.25.25,0,0,1-.18-.27q0-.18.27-.24a28.94,28.94,0,0,0,2.93-.75c.18,0,.27,0,.29.17a.4.4,0,0,1-.08.26A.5.5,0,0,1,255.7,145.91Zm.92,2.5c.13,0,.22,0,.26.08a.4.4,0,0,1,0,.32.37.37,0,0,1-.22.22c-1.38.36-2.5.62-3.36.8-.39.08-.6,0-.64-.22a.18.18,0,0,1,.07-.19.67.67,0,0,1,.24-.11l.69-.14a8.45,8.45,0,0,0-.33-1.67.26.26,0,0,1,.1-.32.39.39,0,0,1,.35-.05.32.32,0,0,1,.24.25q.18,1,.24,1.65l.36-.09.34-.08a12.65,12.65,0,0,0,.16-2.11c0-.21,0-.33.11-.35a.38.38,0,0,1,.37,0,.42.42,0,0,1,.17.33,12.51,12.51,0,0,1-.21,1.93Zm1.06,1.67c0-.29,0-.79,0-1.5V147c-.42.16-.73.29-.93.38a.4.4,0,0,1-.48-.14.18.18,0,0,1,0-.19.39.39,0,0,1,.16-.15l1.24-.5v-.69c0-.31,0-.54,0-.69a2.49,2.49,0,0,0-.17-.68c-.05-.16,0-.28.05-.35a.4.4,0,0,1,.4,0c.26.11.39.47.39,1.07v4.52a1.27,1.27,0,0,1-.15.68c-.1.15-.2.21-.3.17S257.68,150.27,257.68,150.08Z"/><path class="cls-4" d="M260.1,147.55a15.21,15.21,0,0,0,.77-1.4,4,4,0,0,0,.41-1.14,2.34,2.34,0,0,0,0-.63.24.24,0,0,1,.08-.26.32.32,0,0,1,.27,0,.4.4,0,0,1,.23.19,1.48,1.48,0,0,1,.1.84,5,5,0,0,1-.17.48q.44.26,1.32.84a1.07,1.07,0,0,1,.38.45c.06.17.06.28,0,.34s-.19,0-.34,0a11.4,11.4,0,0,0-1.62-1,12.25,12.25,0,0,1-.69,1.31.91.91,0,0,1-.39.33c-.15.06-.25,0-.3,0S260,147.68,260.1,147.55Zm5.25.64c0,.16,0,.41,0,.77s0,.58,0,.68-.11.33-.22.36c-1,.25-1.56.4-1.64.44,0,.42,0,.66,0,.72a17.11,17.11,0,0,0,2.27-.51c.17,0,.26,0,.27.14a.41.41,0,0,1-.11.31.49.49,0,0,1-.26.17l-1.14.24c-.64.14-1.06.23-1.26.26s-.39-.08-.42-.37a9.28,9.28,0,0,1,0-1,.39.39,0,0,1,.29-.43l.84-.23.76-.2c0-.08,0-.43,0-1.06-.21.08-.76.22-1.64.42a.51.51,0,0,1-.27,0,.33.33,0,0,1-.2-.16c-.1-.18,0-.31.29-.38l.73-.17c.48-.11.87-.21,1.16-.3S265.32,147.85,265.35,148.19Zm-.48-1.19c0-1.23,0-2.21-.05-2.94a2.42,2.42,0,0,0-.17-.69c0-.16,0-.27.05-.34s.22-.08.4,0,.39.46.39,1.06,0,1.21,0,1.7v1a.83.83,0,0,1-.16.52c-.11.14-.21.19-.32.15S264.87,147.24,264.87,147Z"/><path class="cls-4" d="M267.8,145.25a.51.51,0,0,1,.27-.18.78.78,0,0,1,.37,0,1.63,1.63,0,0,1,1.44.86,1.09,1.09,0,0,1-.05,1.14,1.57,1.57,0,0,1-1.13.69,1.26,1.26,0,0,1-1-.16.94.94,0,0,1-.37-.73A2.3,2.3,0,0,1,267.8,145.25Zm1.47.88a.92.92,0,0,0-.27-.33,1.42,1.42,0,0,0-.42-.16.46.46,0,0,0-.29,0c-.07,0-.13.1-.18.23a1.75,1.75,0,0,0-.17.88c0,.36.2.52.56.48a1,1,0,0,0,.78-.42A.59.59,0,0,0,269.27,146.13Zm1.14,2.72a.94.94,0,0,1,.4-.18,1,1,0,0,1,.45-.06,1.26,1.26,0,0,1,1.16,1,1.13,1.13,0,0,1-.27,1,1.33,1.33,0,0,1-1,.48,1.24,1.24,0,0,1-.88-.27.86.86,0,0,1-.34-.69A1.56,1.56,0,0,1,270.41,148.85Zm1.38,1a.67.67,0,0,0-.48-.6.5.5,0,0,0-.6.19,1.08,1.08,0,0,0-.2.77c0,.3.21.45.57.44a.8.8,0,0,0,.59-.23A.61.61,0,0,0,271.79,149.81Zm.16-2c0-1.71,0-3-.05-3.77a2.42,2.42,0,0,0-.17-.69c-.05-.16,0-.27,0-.34s.22-.08.4,0,.39.46.39,1.06v.4a13.6,13.6,0,0,1,1.45-.59.26.26,0,0,1,.21,0c.06,0,.09.08.08.17a.45.45,0,0,1-.29.46,8,8,0,0,0-1.45.61v.93a12.76,12.76,0,0,1,1.45-.28.4.4,0,0,1,.22,0,.15.15,0,0,1,.07.17.53.53,0,0,1-.11.31.36.36,0,0,1-.2.13,9.15,9.15,0,0,0-1.42.28v.88a.84.84,0,0,1-.16.53c-.11.14-.21.19-.32.15S272,148.07,272,147.83Z"/><path class="cls-4" d="M275,147.85a13.71,13.71,0,0,0,.75-1.46,4.12,4.12,0,0,0,.43-1.2,2.34,2.34,0,0,0,0-.63.24.24,0,0,1,.08-.26.32.32,0,0,1,.27,0,.4.4,0,0,1,.23.19,1.48,1.48,0,0,1,.1.84,3.62,3.62,0,0,1-.21.59c.39.27.81.6,1.29,1a1,1,0,0,1,.33.48c.05.18,0,.29,0,.33s-.18,0-.32-.08a13.61,13.61,0,0,0-1.51-1.12c-.28.6-.51,1-.67,1.32a.91.91,0,0,1-.39.33c-.15.06-.25.05-.3,0S274.93,148,275,147.85Zm4.89,0c0-.21,0-.58,0-1.1v-1.16l-1.58.42a.39.39,0,0,1-.48-.18.19.19,0,0,1,0-.19.34.34,0,0,1,.18-.15l1.84-.51c0-.35,0-.65,0-.9a2.42,2.42,0,0,0-.17-.69c0-.16,0-.27.05-.34s.22-.08.4,0,.39.46.39,1.06,0,1.33,0,2.08v1.4a.9.9,0,0,1-.15.53c-.11.14-.21.19-.32.15S279.87,148.07,279.87,147.83Zm-1.5,1a.88.88,0,0,1,.39-.18,1,1,0,0,1,.46-.06,1.25,1.25,0,0,1,1.15,1,1.13,1.13,0,0,1-.26,1,1.35,1.35,0,0,1-1,.48,1.27,1.27,0,0,1-.89-.27.89.89,0,0,1-.34-.69A1.59,1.59,0,0,1,278.37,148.85Zm1.38,1a.7.7,0,0,0-.48-.6.5.5,0,0,0-.6.19,1.14,1.14,0,0,0-.21.77c0,.3.21.45.58.44a.76.76,0,0,0,.58-.23A.61.61,0,0,0,279.75,149.81Z"/><path class="cls-4" d="M264.78,156v2.19c0,.95,0,1.68,0,2.18a1.11,1.11,0,0,1-.13.58c-.08.14-.17.21-.25.21s-.2-.11-.2-.34c0-1.91,0-3.36,0-4.37a2.24,2.24,0,0,1-.39.44.5.5,0,0,1-.22.09.38.38,0,0,1-.26-.05c-.12-.1-.1-.24.08-.43l.67-.78a.55.55,0,0,1,.36-.22.34.34,0,0,1,.28.14A.64.64,0,0,1,264.78,156Z"/><path class="cls-4" d="M270.38,156.63c-1.2.21-2.12.4-2.76.58l-.39.1-.3,0a.37.37,0,0,1-.24,0,.22.22,0,0,1-.07-.19c0-.2.15-.33.43-.38,1.5-.35,2.65-.59,3.45-.71.13,0,.22,0,.25.1a.32.32,0,0,1-.07.3A.44.44,0,0,1,270.38,156.63ZM272,161.8c0-.09,0-.3,0-.62v-.78q-2.68.54-4.35,1a1.15,1.15,0,0,1-.57.08.27.27,0,0,1-.19-.3c0-.1.14-.19.43-.27l1.52-.36a6.64,6.64,0,0,0-.08-.95.78.78,0,0,1-.9-.63,1.31,1.31,0,0,1,.26-1.25,1.11,1.11,0,0,1,.31-.2.75.75,0,0,1,.35-.1,1.22,1.22,0,0,1,1.24.66.91.91,0,0,1,0,.76,1.16,1.16,0,0,1-.62.61,7.06,7.06,0,0,1,.06,1l2.52-.57c0-2.4,0-3.9-.05-4.52a2.49,2.49,0,0,0-.17-.68c-.05-.16,0-.28,0-.35a.4.4,0,0,1,.4,0c.26.11.39.47.39,1.07v6a1.27,1.27,0,0,1-.15.68c-.1.15-.2.21-.3.17S272,162,272,161.8Zm-2.66-6.51c.19.12.23.25.12.37a.35.35,0,0,1-.38.12,2.62,2.62,0,0,1-1-.69c-.18-.16-.2-.32-.05-.46s.14-.09.28-.08a.53.53,0,0,1,.37.2A3.44,3.44,0,0,0,269.3,155.29Zm.15,3a.66.66,0,0,0-.54-.35.48.48,0,0,0-.49.2.81.81,0,0,0-.08.68.41.41,0,0,0,.18.24.46.46,0,0,0,.37,0,.82.82,0,0,0,.53-.31A.5.5,0,0,0,269.45,158.3Z"/><path class="cls-4" d="M275.69,160.28a1.19,1.19,0,0,1-.51.41c-.19.07-.3.07-.35,0s0-.17.06-.29a10.43,10.43,0,0,0,1.69-2.66,12.55,12.55,0,0,0-1.63.46.36.36,0,0,1-.45-.14c-.12-.15-.05-.29.2-.4a12,12,0,0,1,2-.55.42.42,0,0,1,.48.14.62.62,0,0,1,0,.59,7.92,7.92,0,0,1-.49.95,8.63,8.63,0,0,1,1,1,.87.87,0,0,1,.19.51c0,.17-.05.26-.14.27s-.21,0-.33-.18a7.87,7.87,0,0,0-1-1.09C276.12,159.69,275.9,160,275.69,160.28Zm1.07-4.2c.2.09.24.21.12.33a.4.4,0,0,1-.41.14,4.92,4.92,0,0,1-1-.41l-.2-.13a.75.75,0,0,1-.08-.14.21.21,0,0,1,0-.2c0-.08.1-.13.24-.16a.54.54,0,0,1,.43.1A7.72,7.72,0,0,0,276.76,156.08Zm2.4,5c0-2.56,0-4.24-.06-5.05a2.49,2.49,0,0,0-.17-.68c-.05-.16,0-.28.05-.35a.4.4,0,0,1,.4,0c.26.11.39.47.39,1.07V158l1.45-.47a.3.3,0,0,1,.21,0,.14.14,0,0,1,.08.16.45.45,0,0,1-.29.46l-1.45.48v2a1.27,1.27,0,0,1-.15.68c-.1.15-.2.21-.3.17S279.16,161.27,279.16,161.08Z"/><path class="cls-4" d="M255.7,185.48c-.46.15-1.31.37-2.56.66a.75.75,0,0,1-.45,0,.25.25,0,0,1-.18-.27q0-.18.27-.24a26.59,26.59,0,0,0,2.93-.74c.18-.06.27,0,.29.16a.4.4,0,0,1-.08.26A.44.44,0,0,1,255.7,185.48Zm.92,2.51c.13,0,.22,0,.26.07a.4.4,0,0,1,0,.32.37.37,0,0,1-.22.22c-1.38.36-2.5.63-3.36.8-.39.08-.6,0-.64-.21a.19.19,0,0,1,.07-.2.67.67,0,0,1,.24-.1l.69-.15a8.59,8.59,0,0,0-.33-1.67.26.26,0,0,1,.1-.32.39.39,0,0,1,.35-.05.34.34,0,0,1,.24.26c.12.65.2,1.2.24,1.64l.36-.09.34-.08a12.65,12.65,0,0,0,.16-2.11c0-.21,0-.33.11-.35a.38.38,0,0,1,.37.05.42.42,0,0,1,.17.33,12.8,12.8,0,0,1-.21,1.94Zm1.06,1.66c0-.29,0-.79,0-1.5v-1.57q-.63.24-.93.39a.41.41,0,0,1-.48-.15.17.17,0,0,1,0-.18.29.29,0,0,1,.16-.15l1.24-.51v-.69c0-.31,0-.54,0-.69a2.58,2.58,0,0,0-.17-.68c-.05-.16,0-.28.05-.35a.4.4,0,0,1,.4,0c.26.11.39.47.39,1.07v4.52a1.25,1.25,0,0,1-.15.68c-.1.16-.2.21-.3.17S257.68,189.85,257.68,189.65Z"/><path class="cls-4" d="M260.1,187.12a15.21,15.21,0,0,0,.77-1.4,3.84,3.84,0,0,0,.41-1.14,2.23,2.23,0,0,0,0-.62c0-.13,0-.22.08-.26a.28.28,0,0,1,.27,0,.4.4,0,0,1,.23.19,1.48,1.48,0,0,1,.1.84,3.63,3.63,0,0,1-.17.48q.44.26,1.32.84a1.07,1.07,0,0,1,.38.45c.06.18.06.29,0,.34s-.19,0-.34,0a10.75,10.75,0,0,0-1.62-1,11.31,11.31,0,0,1-.69,1.31.94.94,0,0,1-.39.34c-.15.05-.25,0-.3,0S260,187.25,260.1,187.12Zm5.25.64c0,.16,0,.42,0,.77s0,.58,0,.68-.11.34-.22.36c-1,.26-1.56.41-1.64.44,0,.42,0,.66,0,.72a15.61,15.61,0,0,0,2.27-.51c.17,0,.26,0,.27.14a.4.4,0,0,1-.11.31.44.44,0,0,1-.26.17l-1.14.24c-.64.15-1.06.23-1.26.27s-.39-.09-.42-.38a9.28,9.28,0,0,1,0-1,.4.4,0,0,1,.29-.43l.84-.23.76-.2c0-.07,0-.43,0-1.06-.21.08-.76.22-1.64.42a.51.51,0,0,1-.27,0,.3.3,0,0,1-.2-.16c-.1-.18,0-.31.29-.38l.73-.17c.48-.11.87-.21,1.16-.3S265.32,187.42,265.35,187.76Zm-.48-1.19c0-1.22,0-2.2-.05-2.94a2.3,2.3,0,0,0-.17-.68c0-.16,0-.28.05-.35a.4.4,0,0,1,.4,0c.26.11.39.47.39,1.07s0,1.2,0,1.69v1a.81.81,0,0,1-.16.52c-.11.14-.21.19-.32.15S264.87,186.81,264.87,186.57Z"/><path class="cls-4" d="M267.8,184.82a.5.5,0,0,1,.27-.17.79.79,0,0,1,.37-.05,1.62,1.62,0,0,1,1.44.87,1.09,1.09,0,0,1-.05,1.14,1.56,1.56,0,0,1-1.13.68,1.26,1.26,0,0,1-1-.16.94.94,0,0,1-.37-.73A2.32,2.32,0,0,1,267.8,184.82Zm1.47.89a.84.84,0,0,0-.27-.33,1.18,1.18,0,0,0-.42-.17.46.46,0,0,0-.29,0,.37.37,0,0,0-.18.23,1.75,1.75,0,0,0-.17.88c0,.37.2.53.56.48a1,1,0,0,0,.78-.42A.57.57,0,0,0,269.27,185.71Zm1.14,2.71a.94.94,0,0,1,.4-.18,1,1,0,0,1,.45-.06,1.26,1.26,0,0,1,1.16,1,1.13,1.13,0,0,1-.27,1,1.33,1.33,0,0,1-1,.48,1.28,1.28,0,0,1-.88-.26.9.9,0,0,1-.34-.7A1.57,1.57,0,0,1,270.41,188.42Zm1.38,1a.67.67,0,0,0-.48-.6.51.51,0,0,0-.6.19,1.08,1.08,0,0,0-.2.77c0,.3.21.45.57.44a.83.83,0,0,0,.59-.22A.64.64,0,0,0,271.79,189.38Zm.16-2c0-1.71,0-3-.05-3.77a2.3,2.3,0,0,0-.17-.68c-.05-.16,0-.28,0-.35a.4.4,0,0,1,.4,0c.26.11.39.47.39,1.07v.39a13.6,13.6,0,0,1,1.45-.59.26.26,0,0,1,.21,0,.15.15,0,0,1,.08.17.45.45,0,0,1-.29.46,8,8,0,0,0-1.45.61v.94a10.94,10.94,0,0,1,1.45-.29.32.32,0,0,1,.22,0c.06,0,.08.08.07.16a.5.5,0,0,1-.11.31.31.31,0,0,1-.2.13,10.49,10.49,0,0,0-1.42.28v.89a.83.83,0,0,1-.16.52c-.11.14-.21.19-.32.15S272,187.64,272,187.4Z"/><path class="cls-4" d="M275,187.42a12.8,12.8,0,0,0,.75-1.46,4,4,0,0,0,.43-1.2,2.34,2.34,0,0,0,0-.63.23.23,0,0,1,.08-.25.28.28,0,0,1,.27,0,.44.44,0,0,1,.23.19,1.48,1.48,0,0,1,.1.84,3.62,3.62,0,0,1-.21.59c.39.27.81.6,1.29,1a1,1,0,0,1,.33.49c.05.17,0,.28,0,.32s-.18,0-.32-.07a12.69,12.69,0,0,0-1.51-1.13c-.28.61-.51,1-.67,1.32a.85.85,0,0,1-.39.33c-.15.06-.25.05-.3,0A.32.32,0,0,1,275,187.42Zm4.89,0c0-.21,0-.57,0-1.09v-1.17l-1.58.42a.37.37,0,0,1-.48-.18.19.19,0,0,1,0-.19.28.28,0,0,1,.18-.14l1.84-.52c0-.34,0-.64,0-.9a2.3,2.3,0,0,0-.17-.68c0-.16,0-.28.05-.35a.4.4,0,0,1,.4,0c.26.11.39.47.39,1.07s0,1.32,0,2.07v1.41a.89.89,0,0,1-.15.52c-.11.14-.21.19-.32.15S279.87,187.64,279.87,187.4Zm-1.5,1a.88.88,0,0,1,.39-.18,1,1,0,0,1,.46-.06,1.25,1.25,0,0,1,1.15,1,1.12,1.12,0,0,1-.26,1,1.35,1.35,0,0,1-1,.48,1.31,1.31,0,0,1-.89-.26.93.93,0,0,1-.34-.7A1.6,1.6,0,0,1,278.37,188.42Zm1.38,1a.7.7,0,0,0-.48-.6.51.51,0,0,0-.6.19,1.14,1.14,0,0,0-.21.77c0,.3.21.45.58.44a.79.79,0,0,0,.58-.22A.64.64,0,0,0,279.75,189.38Z"/><path class="cls-4" d="M264.12,194.94A1.21,1.21,0,0,1,265.5,196a1.78,1.78,0,0,1-.22,1.12,8.13,8.13,0,0,1-.69,1l-.65.84a1.87,1.87,0,0,0-.39,1.11c.87-.06,1.51-.12,1.92-.17a.4.4,0,0,1,.25,0q.09,0,.06.21a.32.32,0,0,1-.13.21.46.46,0,0,1-.21.12q-.66.07-2,.18-.3,0-.39-.09a.59.59,0,0,1-.11-.36,2.21,2.21,0,0,1,.11-.69,2.65,2.65,0,0,1,.32-.72c.05-.08.26-.35.64-.84a6.79,6.79,0,0,0,.73-1.06,1.34,1.34,0,0,0,.16-.72.76.76,0,0,0-.23-.44.63.63,0,0,0-.48-.17.67.67,0,0,0-.43.15,3.64,3.64,0,0,0-.4.56s-.09.06-.21.07a.51.51,0,0,1-.27,0c-.14-.08-.16-.21-.06-.38A1.67,1.67,0,0,1,264.12,194.94Z"/><path class="cls-4" d="M270.38,196.2c-1.2.21-2.12.4-2.76.58l-.39.1a1.36,1.36,0,0,1-.3,0c-.12,0-.2,0-.24,0a.22.22,0,0,1-.07-.19c0-.19.15-.32.43-.38,1.5-.35,2.65-.59,3.45-.71.13,0,.22,0,.25.11a.3.3,0,0,1-.07.29A.44.44,0,0,1,270.38,196.2Zm1.58,5.18c0-.1,0-.31,0-.63V200c-1.79.36-3.24.69-4.35,1a1.13,1.13,0,0,1-.57.07c-.13,0-.19-.13-.19-.3s.14-.19.43-.27l1.52-.36a6.39,6.39,0,0,0-.08-.94.79.79,0,0,1-.9-.64,1.31,1.31,0,0,1,.26-1.25,1.11,1.11,0,0,1,.31-.2.89.89,0,0,1,.35-.1,1.22,1.22,0,0,1,1.24.66.92.92,0,0,1,0,.76,1.12,1.12,0,0,1-.62.61,7.27,7.27,0,0,1,.06,1l2.52-.56c0-2.4,0-3.91-.05-4.53a2.58,2.58,0,0,0-.17-.68c-.05-.16,0-.28,0-.35a.4.4,0,0,1,.4,0c.26.11.39.47.39,1.07v6a1.27,1.27,0,0,1-.15.68c-.1.16-.2.21-.3.17S272,201.57,272,201.38Zm-2.66-6.52c.19.13.23.25.12.37a.35.35,0,0,1-.38.12,2.69,2.69,0,0,1-1-.68c-.18-.17-.2-.33-.05-.47s.14-.09.28-.08a.53.53,0,0,1,.37.2A2.85,2.85,0,0,0,269.3,194.86Zm.15,3a.66.66,0,0,0-.54-.35.47.47,0,0,0-.49.21.79.79,0,0,0-.08.67.41.41,0,0,0,.18.24.5.5,0,0,0,.37.05.88.88,0,0,0,.53-.32A.5.5,0,0,0,269.45,197.87Z"/><path class="cls-4" d="M275.69,199.85a1.12,1.12,0,0,1-.51.41c-.19.07-.3.07-.35,0s0-.17.06-.29a10.56,10.56,0,0,0,1.69-2.65,11,11,0,0,0-1.63.45.35.35,0,0,1-.45-.14c-.12-.15-.05-.29.2-.4a12,12,0,0,1,2-.55.42.42,0,0,1,.48.14.62.62,0,0,1,0,.59,7.92,7.92,0,0,1-.49.95,8.66,8.66,0,0,1,1,1.05.83.83,0,0,1,.19.5c0,.17-.05.26-.14.27s-.21,0-.33-.18a8.48,8.48,0,0,0-1-1.09C276.12,199.26,275.9,199.58,275.69,199.85Zm1.07-4.2c.2.1.24.21.12.34a.41.41,0,0,1-.41.13,4.41,4.41,0,0,1-1-.41l-.2-.13a1.05,1.05,0,0,1-.08-.13.23.23,0,0,1,0-.21c0-.08.1-.13.24-.16a.58.58,0,0,1,.43.1A6.38,6.38,0,0,0,276.76,195.65Zm2.4,5c0-2.56,0-4.24-.06-5.05a2.58,2.58,0,0,0-.17-.68c-.05-.16,0-.28.05-.35a.4.4,0,0,1,.4,0c.26.11.39.47.39,1.07v1.88l1.45-.47a.3.3,0,0,1,.21,0,.14.14,0,0,1,.08.16.45.45,0,0,1-.29.46l-1.45.48v2a1.25,1.25,0,0,1-.15.68c-.1.16-.2.21-.3.17S279.16,200.85,279.16,200.65Z"/><path class="cls-4" d="M255.7,222.39c-.46.15-1.31.37-2.56.66a.75.75,0,0,1-.45,0,.25.25,0,0,1-.18-.27q0-.18.27-.24a26.59,26.59,0,0,0,2.93-.74c.18-.06.27,0,.29.17a.41.41,0,0,1-.08.26A.42.42,0,0,1,255.7,222.39Zm.92,2.51c.13,0,.22,0,.26.08a.38.38,0,0,1,0,.31.32.32,0,0,1-.22.22c-1.38.36-2.5.63-3.36.8-.39.09-.6,0-.64-.21a.18.18,0,0,1,.07-.19.53.53,0,0,1,.24-.11c.28-.06.51-.1.69-.15a8.37,8.37,0,0,0-.33-1.66.27.27,0,0,1,.1-.33.42.42,0,0,1,.35,0,.35.35,0,0,1,.24.26c.12.65.2,1.2.24,1.64l.36-.09.34-.08a12.65,12.65,0,0,0,.16-2.11c0-.21,0-.32.11-.35a.36.36,0,0,1,.37.06.39.39,0,0,1,.17.33,12.65,12.65,0,0,1-.21,1.93Zm1.06,1.67c0-.3,0-.8,0-1.5V223.5c-.42.16-.73.28-.93.38a.4.4,0,0,1-.48-.15.17.17,0,0,1,0-.18.29.29,0,0,1,.16-.15l1.24-.5v-.69c0-.31,0-.54,0-.69a2.53,2.53,0,0,0-.17-.69c-.05-.16,0-.27.05-.35a.4.4,0,0,1,.4,0c.26.12.39.47.39,1.07v4.52a1.25,1.25,0,0,1-.15.68c-.1.16-.2.21-.3.17S257.68,226.76,257.68,226.57Z"/><path class="cls-4" d="M260.1,224c.24-.39.5-.86.77-1.41a3.84,3.84,0,0,0,.41-1.14,2.26,2.26,0,0,0,0-.62c0-.13,0-.22.08-.26a.28.28,0,0,1,.27,0,.44.44,0,0,1,.23.19,1.48,1.48,0,0,1,.1.84,3.63,3.63,0,0,1-.17.48c.29.17.73.45,1.32.85a1,1,0,0,1,.38.44c.06.18.06.29,0,.34s-.19,0-.34,0a12.72,12.72,0,0,0-1.62-1,11.31,11.31,0,0,1-.69,1.31.94.94,0,0,1-.39.34c-.15.05-.25.05-.3,0S260,224.16,260.1,224Zm5.25.63c0,.16,0,.42,0,.77s0,.59,0,.68-.11.34-.22.36c-1,.26-1.56.41-1.64.45,0,.41,0,.65,0,.72a17.58,17.58,0,0,0,2.27-.52c.17,0,.26,0,.27.14a.43.43,0,0,1-.11.32.46.46,0,0,1-.26.16l-1.14.25c-.64.14-1.06.23-1.26.26s-.39-.09-.42-.37a9.67,9.67,0,0,1,0-1,.4.4,0,0,1,.29-.43l.84-.23.76-.2c0-.07,0-.42,0-1.05a15.55,15.55,0,0,1-1.64.41.51.51,0,0,1-.27,0,.28.28,0,0,1-.2-.16c-.1-.18,0-.31.29-.38l.73-.17c.48-.11.87-.21,1.16-.3S265.32,224.33,265.35,224.67Zm-.48-1.19c0-1.22,0-2.2-.05-2.94a2.45,2.45,0,0,0-.17-.68c0-.16,0-.28.05-.35a.4.4,0,0,1,.4,0c.26.11.39.47.39,1.07s0,1.21,0,1.7v.95a.81.81,0,0,1-.16.52c-.11.14-.21.19-.32.15S264.87,223.72,264.87,223.48Z"/><path class="cls-4" d="M267.8,221.73a.5.5,0,0,1,.27-.17.68.68,0,0,1,.37,0,1.63,1.63,0,0,1,1.44.86,1.09,1.09,0,0,1-.05,1.14,1.53,1.53,0,0,1-1.13.68,1.31,1.31,0,0,1-1-.15,1,1,0,0,1-.37-.74A2.32,2.32,0,0,1,267.8,221.73Zm1.47.89a.92.92,0,0,0-.27-.33,1.19,1.19,0,0,0-.42-.16.48.48,0,0,0-.29,0,.4.4,0,0,0-.18.23,1.75,1.75,0,0,0-.17.88c0,.37.2.53.56.48a1,1,0,0,0,.78-.42A.57.57,0,0,0,269.27,222.62Zm1.14,2.71a1.27,1.27,0,0,1,.4-.18,1.39,1.39,0,0,1,.45-.06,1.26,1.26,0,0,1,1.16,1,1.13,1.13,0,0,1-.27,1,1.3,1.3,0,0,1-1,.48,1.28,1.28,0,0,1-.88-.26.9.9,0,0,1-.34-.7A1.57,1.57,0,0,1,270.41,225.33Zm1.38,1a.67.67,0,0,0-.48-.6.51.51,0,0,0-.6.19,1.1,1.1,0,0,0-.2.77c0,.31.21.45.57.44a.79.79,0,0,0,.59-.22A.64.64,0,0,0,271.79,226.29Zm.16-2c0-1.7,0-3-.05-3.77a2.45,2.45,0,0,0-.17-.68c-.05-.16,0-.28,0-.35a.4.4,0,0,1,.4,0c.26.11.39.47.39,1.07v.4a11.79,11.79,0,0,1,1.45-.59.22.22,0,0,1,.21,0,.16.16,0,0,1,.08.18.44.44,0,0,1-.29.45,8,8,0,0,0-1.45.61v.94a10.94,10.94,0,0,1,1.45-.29.32.32,0,0,1,.22,0,.14.14,0,0,1,.07.16.5.5,0,0,1-.11.31.39.39,0,0,1-.2.14,10.61,10.61,0,0,0-1.42.27v.89a.81.81,0,0,1-.16.52c-.11.14-.21.19-.32.15S272,224.55,272,224.31Z"/><path class="cls-4" d="M275,224.33a13.43,13.43,0,0,0,.75-1.45,4.15,4.15,0,0,0,.43-1.21,2.3,2.3,0,0,0,0-.62c0-.13,0-.22.08-.26a.32.32,0,0,1,.27,0,.42.42,0,0,1,.23.2,1.43,1.43,0,0,1,.1.83,3.32,3.32,0,0,1-.21.59c.39.27.81.6,1.29,1a1,1,0,0,1,.33.48c.05.17,0,.28,0,.33s-.18,0-.32-.08a13.9,13.9,0,0,0-1.51-1.13c-.28.61-.51,1-.67,1.32a.94.94,0,0,1-.39.34c-.15,0-.25,0-.3,0A.32.32,0,0,1,275,224.33Zm4.89,0c0-.21,0-.57,0-1.09v-1.16c-.56.13-1.08.27-1.58.42a.39.39,0,0,1-.48-.19.19.19,0,0,1,0-.19A.28.28,0,0,1,278,222l1.84-.52c0-.34,0-.64,0-.9a2.45,2.45,0,0,0-.17-.68c0-.16,0-.28.05-.35a.4.4,0,0,1,.4,0c.26.11.39.47.39,1.07s0,1.32,0,2.07v1.41a.86.86,0,0,1-.15.52c-.11.14-.21.19-.32.15S279.87,224.55,279.87,224.31Zm-1.5,1a1.19,1.19,0,0,1,.39-.18,1.47,1.47,0,0,1,.46-.06,1.25,1.25,0,0,1,1.15,1,1.12,1.12,0,0,1-.26,1,1.46,1.46,0,0,1-1.92.22.93.93,0,0,1-.34-.7A1.6,1.6,0,0,1,278.37,225.33Zm1.38,1a.7.7,0,0,0-.48-.6.51.51,0,0,0-.6.19,1.16,1.16,0,0,0-.21.77c0,.31.21.45.58.44a.75.75,0,0,0,.58-.22A.64.64,0,0,0,279.75,226.29Z"/><path class="cls-4" d="M262.91,232.42a2.4,2.4,0,0,1,.69-.44,1.68,1.68,0,0,1,.77-.15,1,1,0,0,1,.73.38,1.15,1.15,0,0,1,.18.88,1.48,1.48,0,0,1-.57.94,1.47,1.47,0,0,1,.69.46,1.83,1.83,0,0,1,.27.76,2,2,0,0,1-.55,1.81,1.87,1.87,0,0,1-.91.5,1.44,1.44,0,0,1-1-.12,1.49,1.49,0,0,1-.69-.75.24.24,0,0,1,.15-.34c.16-.07.27,0,.32.05a1,1,0,0,0,.76.61,1.11,1.11,0,0,0,.93-.36,1.39,1.39,0,0,0,.34-1.32.92.92,0,0,0-.88-.89,1.45,1.45,0,0,0-.61.13.29.29,0,0,1-.37-.18c-.09-.17-.05-.28.11-.33a3.75,3.75,0,0,0,.9-.36,1,1,0,0,0,.47-.66.85.85,0,0,0-.09-.46.38.38,0,0,0-.36-.18,1.43,1.43,0,0,0-.86.4c-.18.14-.33.14-.45,0S262.8,232.52,262.91,232.42Z"/><path class="cls-4" d="M270.38,233.11c-1.2.21-2.12.41-2.76.58l-.39.1a1.36,1.36,0,0,1-.3,0c-.12,0-.2,0-.24,0s-.07-.09-.07-.18.15-.33.43-.39c1.5-.35,2.65-.59,3.45-.7.13,0,.22,0,.25.1a.32.32,0,0,1-.07.3A.46.46,0,0,1,270.38,233.11Zm1.58,5.18c0-.1,0-.31,0-.63v-.78c-1.79.36-3.24.7-4.34,1a1.17,1.17,0,0,1-.58.07c-.13,0-.19-.13-.19-.3s.14-.18.43-.26l1.52-.36a6.52,6.52,0,0,0-.08-.95.78.78,0,0,1-.9-.64,1.32,1.32,0,0,1,.26-1.25,1.67,1.67,0,0,1,.31-.2.86.86,0,0,1,.35-.09,1.22,1.22,0,0,1,1.24.66.91.91,0,0,1,0,.76,1.14,1.14,0,0,1-.62.6,7.27,7.27,0,0,1,.06,1l2.52-.56c0-2.4,0-3.91-.05-4.53a2.58,2.58,0,0,0-.17-.68c-.05-.16,0-.28,0-.35a.4.4,0,0,1,.4,0c.26.12.39.47.39,1.07v6a1.25,1.25,0,0,1-.15.68c-.1.16-.2.22-.3.17S272,238.48,272,238.29Zm-2.66-6.52c.19.13.23.25.12.37a.35.35,0,0,1-.38.12,2.65,2.65,0,0,1-1-.68c-.18-.17-.2-.33-.05-.47s.14-.09.28-.08a.53.53,0,0,1,.37.2A3.06,3.06,0,0,0,269.3,231.77Zm.15,3a.63.63,0,0,0-.54-.34.45.45,0,0,0-.49.2.79.79,0,0,0-.08.67.36.36,0,0,0,.18.24.46.46,0,0,0,.37,0,.83.83,0,0,0,.53-.32A.5.5,0,0,0,269.45,234.78Z"/><path class="cls-4" d="M275.69,236.76a1.22,1.22,0,0,1-.51.42c-.19.07-.3.06-.35,0s0-.18.06-.3a10.38,10.38,0,0,0,1.69-2.65,12.39,12.39,0,0,0-1.63.45.36.36,0,0,1-.45-.13c-.12-.16-.05-.29.2-.41a13,13,0,0,1,2-.55.44.44,0,0,1,.48.14.62.62,0,0,1,0,.59,7.23,7.23,0,0,1-.49.95,8.66,8.66,0,0,1,1,1.05.83.83,0,0,1,.19.51c0,.16-.05.25-.14.27a.43.43,0,0,1-.33-.18,7.92,7.92,0,0,0-1-1.1C276.12,236.17,275.9,236.49,275.69,236.76Zm1.07-4.2c.2.1.24.21.12.34a.39.39,0,0,1-.41.13,4,4,0,0,1-1-.41,1.38,1.38,0,0,1-.2-.13.6.6,0,0,1-.08-.13.23.23,0,0,1,0-.21c0-.07.1-.13.24-.16a.58.58,0,0,1,.43.1A6.38,6.38,0,0,0,276.76,232.56Zm2.4,5c0-2.56,0-4.25-.06-5a2.53,2.53,0,0,0-.17-.69c-.05-.16,0-.27.05-.35a.4.4,0,0,1,.4,0c.26.12.39.47.39,1.07v1.89l1.45-.47a.26.26,0,0,1,.21,0,.15.15,0,0,1,.08.16c0,.25-.1.4-.29.46l-1.45.48v2a1.25,1.25,0,0,1-.15.68c-.1.16-.2.21-.3.17S279.16,237.76,279.16,237.57Z"/></svg>