<svg id="레이어_1" data-name="레이어 1" xmlns="http://www.w3.org/2000/svg" viewBox="0 0 291.16 479.14"><defs><style>.cls-1{fill:#fafbfc;}.cls-2{fill:#585b56;}.cls-3{fill:#fcfdfe;}.cls-4{fill:#ccc;}.cls-5{fill:#456581;}.cls-6{fill:#fff;}.cls-7{fill:#466480;}.cls-8{fill:#575956;}.cls-9{fill:#e76069;}</style></defs><rect class="cls-1" x="224.51" y="243.17" width="48.4" height="35.03"/><path class="cls-2" d="M230.84,250.29h.72a1,1,0,0,0,.73-.24,1,1,0,0,0,.22-.69.91.91,0,0,0-.24-.68,1,1,0,0,0-.7-.24,1,1,0,0,0-.69.23.8.8,0,0,0-.27.62h-1v0a1.41,1.41,0,0,1,.53-1.17,2.12,2.12,0,0,1,1.42-.48,2.19,2.19,0,0,1,1.45.45,1.58,1.58,0,0,1,.54,1.29,1.33,1.33,0,0,1-.24.75,1.63,1.63,0,0,1-.69.57,1.54,1.54,0,0,1,.78.55,1.52,1.52,0,0,1,.25.86,1.62,1.62,0,0,1-.59,1.32,2.56,2.56,0,0,1-2.94,0,1.43,1.43,0,0,1-.57-1.25v0h1a.82.82,0,0,0,.28.65,1.24,1.24,0,0,0,1.49,0,.91.91,0,0,0,.28-.72,1,1,0,0,0-.25-.76,1.07,1.07,0,0,0-.79-.25h-.72Z"/><path class="cls-2" d="M238.66,251.45a2.63,2.63,0,0,1-.55,1.81,1.84,1.84,0,0,1-1.48.63,1.86,1.86,0,0,1-1.49-.63,2.63,2.63,0,0,1-.55-1.81v-1.39a2.7,2.7,0,0,1,.54-1.81,2.08,2.08,0,0,1,3,0,2.65,2.65,0,0,1,.55,1.81Zm-1-1.55a1.92,1.92,0,0,0-.25-1.1.86.86,0,0,0-.75-.36.87.87,0,0,0-.75.36,2,2,0,0,0-.25,1.1v1.7a1.93,1.93,0,0,0,.26,1.11.86.86,0,0,0,.75.36.84.84,0,0,0,.74-.36,1.94,1.94,0,0,0,.25-1.11Z"/><rect class="cls-1" x="173.33" y="243.17" width="48.4" height="35.03"/><path class="cls-2" d="M182.59,253.8h-4.12v-.7l2-2.16a5.57,5.57,0,0,0,.68-.87,1.45,1.45,0,0,0,.19-.67,1,1,0,0,0-.25-.69.83.83,0,0,0-.65-.27,1,1,0,0,0-.81.3,1.18,1.18,0,0,0-.27.83h-1v0a1.79,1.79,0,0,1,.54-1.36,2.12,2.12,0,0,1,1.55-.56,1.94,1.94,0,0,1,1.41.49,1.62,1.62,0,0,1,.52,1.26,1.83,1.83,0,0,1-.3,1,8.06,8.06,0,0,1-.93,1.16L179.78,253v0h2.8Z"/><path class="cls-2" d="M185.16,253.07a1.12,1.12,0,0,0,.9-.4,1.76,1.76,0,0,0,.34-1.17v-.29a1.4,1.4,0,0,1-.51.43,1.59,1.59,0,0,1-.66.14,1.81,1.81,0,0,1-1.4-.55,2.12,2.12,0,0,1-.51-1.51,2.08,2.08,0,0,1,.57-1.5,1.91,1.91,0,0,1,1.43-.6,2,2,0,0,1,1.54.62,2.55,2.55,0,0,1,.57,1.79v1.43a2.44,2.44,0,0,1-.63,1.79,2.23,2.23,0,0,1-1.64.64,3.9,3.9,0,0,1-.66-.07,2.9,2.9,0,0,1-.63-.18l.14-.79a2,2,0,0,0,.53.17A3.89,3.89,0,0,0,185.16,253.07Zm.17-2.08a1.34,1.34,0,0,0,.66-.15,1,1,0,0,0,.41-.39v-.54a1.81,1.81,0,0,0-.28-1.1.92.92,0,0,0-.79-.37.86.86,0,0,0-.7.36,1.55,1.55,0,0,0-.28.92,1.52,1.52,0,0,0,.26.92A.82.82,0,0,0,185.33,251Z"/><rect class="cls-1" x="122.16" y="243.17" width="48.4" height="35.03"/><path class="cls-2" d="M131.41,253.8h-4.12v-.7l2-2.16a5,5,0,0,0,.68-.87,1.34,1.34,0,0,0,.19-.67,1,1,0,0,0-.24-.69.85.85,0,0,0-.66-.27,1,1,0,0,0-.81.3,1.18,1.18,0,0,0-.26.83h-1v0a1.72,1.72,0,0,1,.54-1.36,2.09,2.09,0,0,1,1.54-.56,2,2,0,0,1,1.42.49,1.66,1.66,0,0,1,.52,1.26,1.83,1.83,0,0,1-.3,1,7.57,7.57,0,0,1-.94,1.16L128.6,253l0,0h2.79Z"/><path class="cls-2" d="M136.18,249.31a1.38,1.38,0,0,1-.26.82,1.64,1.64,0,0,1-.69.55,1.71,1.71,0,0,1,.81.57,1.43,1.43,0,0,1,.3.89,1.58,1.58,0,0,1-.57,1.3,2.36,2.36,0,0,1-1.49.45,2.4,2.4,0,0,1-1.51-.45,1.55,1.55,0,0,1-.57-1.3,1.43,1.43,0,0,1,.3-.89,1.8,1.8,0,0,1,.81-.58,1.5,1.5,0,0,1-.69-.54,1.35,1.35,0,0,1-.25-.82,1.55,1.55,0,0,1,.52-1.25,2.08,2.08,0,0,1,1.38-.44,2.13,2.13,0,0,1,1.38.44A1.55,1.55,0,0,1,136.18,249.31Zm-.88,2.78a1,1,0,0,0-.29-.73,1.13,1.13,0,0,0-1.49,0,1,1,0,0,0-.28.73.94.94,0,0,0,.28.72,1.09,1.09,0,0,0,.76.26,1.08,1.08,0,0,0,.74-.26A.94.94,0,0,0,135.3,252.09Zm-.16-2.74a.92.92,0,0,0-.24-.66.93.93,0,0,0-1.27,0,1.06,1.06,0,0,0,0,1.33.93.93,0,0,0,1.27,0A1,1,0,0,0,135.14,249.35Z"/><rect class="cls-1" x="70.98" y="243.17" width="48.4" height="35.03"/><path class="cls-2" d="M80.24,253.8H76.11v-.7l2-2.16a5.76,5.76,0,0,0,.69-.87,1.43,1.43,0,0,0,.18-.67,1,1,0,0,0-.24-.69.84.84,0,0,0-.66-.27,1,1,0,0,0-.81.3,1.23,1.23,0,0,0-.26.83H76v0a1.79,1.79,0,0,1,.54-1.36,2.11,2.11,0,0,1,1.54-.56,2,2,0,0,1,1.42.49,1.62,1.62,0,0,1,.52,1.26,1.83,1.83,0,0,1-.3,1,8.06,8.06,0,0,1-.93,1.16L77.43,253v0h2.8Z"/><path class="cls-2" d="M85.2,248.53a7.62,7.62,0,0,0-1.45,2.22,10.17,10.17,0,0,0-.54,2.4l-.07.65h-1l.06-.65a8.74,8.74,0,0,1,.66-2.5,8.53,8.53,0,0,1,1.37-2.12H80.91v-.82H85.2Z"/><rect class="cls-1" x="19.81" y="243.17" width="48.4" height="35.03"/><rect class="cls-1" x="224.51" y="205.68" width="48.4" height="35.02"/><path class="cls-2" d="M233.77,216.31h-4.13v-.71l2-2.16a4.91,4.91,0,0,0,.69-.87,1.4,1.4,0,0,0,.18-.67,1,1,0,0,0-.24-.68.84.84,0,0,0-.66-.28,1,1,0,0,0-.81.31,1.22,1.22,0,0,0-.26.82h-1v0a1.75,1.75,0,0,1,.54-1.37,2.1,2.1,0,0,1,1.54-.55,2,2,0,0,1,1.42.48,1.66,1.66,0,0,1,.52,1.27,1.85,1.85,0,0,1-.3,1,8.64,8.64,0,0,1-.93,1.16L231,215.46v0h2.8Z"/><path class="cls-2" d="M235.8,212.8h.73a1,1,0,0,0,.72-.24,1,1,0,0,0,.22-.7.94.94,0,0,0-.24-.68.93.93,0,0,0-.7-.24,1,1,0,0,0-.69.24.77.77,0,0,0-.26.62h-1v0a1.41,1.41,0,0,1,.53-1.18,2.13,2.13,0,0,1,1.42-.47,2.21,2.21,0,0,1,1.45.45,1.58,1.58,0,0,1,.54,1.28,1.36,1.36,0,0,1-.24.76,1.6,1.6,0,0,1-.69.56,1.48,1.48,0,0,1,.77.56,1.5,1.5,0,0,1,.25.86,1.58,1.58,0,0,1-.58,1.31,2.57,2.57,0,0,1-3,0,1.39,1.39,0,0,1-.56-1.24v0h1a.87.87,0,0,0,.27.66,1.23,1.23,0,0,0,1.5,0,1,1,0,0,0,.28-.72,1,1,0,0,0-.26-.76,1.1,1.1,0,0,0-.78-.24h-.73Z"/><rect class="cls-1" x="173.33" y="205.68" width="48.4" height="35.02"/><path class="cls-2" d="M182.59,216.31h-4.12v-.71l2-2.16a4.77,4.77,0,0,0,.68-.87,1.42,1.42,0,0,0,.19-.67,1,1,0,0,0-.25-.68.84.84,0,0,0-.65-.28,1,1,0,0,0-.81.31,1.18,1.18,0,0,0-.27.82h-1v0a1.82,1.82,0,0,1,.54-1.37,2.11,2.11,0,0,1,1.55-.55,2,2,0,0,1,1.41.48,1.66,1.66,0,0,1,.52,1.27,1.85,1.85,0,0,1-.3,1,8.64,8.64,0,0,1-.93,1.16l-1.38,1.42v0h2.8Z"/><path class="cls-2" d="M187.55,216.31h-4.12v-.71l2-2.16a4.35,4.35,0,0,0,.68-.87,1.31,1.31,0,0,0,.19-.67,1,1,0,0,0-.24-.68.84.84,0,0,0-.66-.28,1,1,0,0,0-.81.31,1.22,1.22,0,0,0-.26.82h-1v0a1.75,1.75,0,0,1,.54-1.37,2.09,2.09,0,0,1,1.54-.55,2,2,0,0,1,1.42.48,1.7,1.7,0,0,1,.52,1.27,1.85,1.85,0,0,1-.3,1,8.64,8.64,0,0,1-.93,1.16l-1.39,1.42,0,0h2.79Z"/><rect class="cls-1" x="122.16" y="205.68" width="48.4" height="35.02"/><path class="cls-2" d="M131.41,216.31h-4.12v-.71l2-2.16a4.35,4.35,0,0,0,.68-.87,1.31,1.31,0,0,0,.19-.67,1,1,0,0,0-.24-.68.86.86,0,0,0-.66-.28,1,1,0,0,0-.81.31,1.17,1.17,0,0,0-.26.82h-1v0a1.75,1.75,0,0,1,.54-1.37,2.09,2.09,0,0,1,1.54-.55,2,2,0,0,1,1.42.48,1.7,1.7,0,0,1,.52,1.27,1.85,1.85,0,0,1-.3,1A8.09,8.09,0,0,1,130,214l-1.38,1.42,0,0h2.79Z"/><path class="cls-2" d="M134.85,216.31h-1v-5.13h-1.27v-.75l2.3-.21Z"/><rect class="cls-1" x="70.98" y="205.68" width="48.4" height="35.02"/><path class="cls-2" d="M80.24,216.31H76.11v-.71l2-2.16a4.91,4.91,0,0,0,.69-.87,1.4,1.4,0,0,0,.18-.67,1,1,0,0,0-.24-.68.84.84,0,0,0-.66-.28,1,1,0,0,0-.81.31,1.22,1.22,0,0,0-.26.82H76v0a1.82,1.82,0,0,1,.54-1.37,2.1,2.1,0,0,1,1.54-.55,2,2,0,0,1,1.42.48,1.66,1.66,0,0,1,.52,1.27,1.85,1.85,0,0,1-.3,1,8.64,8.64,0,0,1-.93,1.16l-1.38,1.42v0h2.8Z"/><path class="cls-2" d="M85.13,214a2.65,2.65,0,0,1-.55,1.81,1.87,1.87,0,0,1-1.48.62,1.89,1.89,0,0,1-1.49-.62,2.65,2.65,0,0,1-.55-1.81v-1.39a2.68,2.68,0,0,1,.54-1.81,2.08,2.08,0,0,1,3,0,2.63,2.63,0,0,1,.55,1.81Zm-1-1.55a1.94,1.94,0,0,0-.25-1.11.86.86,0,0,0-.75-.36.84.84,0,0,0-.74.36,1.93,1.93,0,0,0-.26,1.11v1.69a2,2,0,0,0,.26,1.12.86.86,0,0,0,.75.36.84.84,0,0,0,.74-.36,2,2,0,0,0,.25-1.12Z"/><rect class="cls-1" x="19.81" y="205.68" width="48.4" height="35.02"/><rect class="cls-1" x="224.51" y="168.18" width="48.4" height="35.03"/><path class="cls-2" d="M232.24,178.81h-1v-5.12h-1.26v-.75l2.3-.22Z"/><path class="cls-2" d="M237,172.63a3,3,0,0,1,1.19.25l-.19.78a2.32,2.32,0,0,0-.47-.15,2,2,0,0,0-.52-.06,1.22,1.22,0,0,0-1,.47,2,2,0,0,0-.38,1.28v0a1.87,1.87,0,0,1,.59-.36,2.27,2.27,0,0,1,.75-.12,1.65,1.65,0,0,1,1.31.56,2.39,2.39,0,0,1-.07,3,1.88,1.88,0,0,1-1.45.6,2,2,0,0,1-1.55-.65,2.58,2.58,0,0,1-.61-1.83v-1.16a2.64,2.64,0,0,1,.68-1.91A2.28,2.28,0,0,1,237,172.63Zm-.29,2.91a1.47,1.47,0,0,0-.66.13,1,1,0,0,0-.42.37v.44a1.91,1.91,0,0,0,.32,1.18,1,1,0,0,0,.81.42.8.8,0,0,0,.71-.38,1.55,1.55,0,0,0,.26-.93,1.39,1.39,0,0,0-.27-.89A.9.9,0,0,0,236.75,175.54Z"/><rect class="cls-1" x="173.33" y="168.18" width="48.4" height="35.03"/><path class="cls-2" d="M181.06,178.81h-1v-5.12h-1.27v-.75l2.3-.22Z"/><path class="cls-2" d="M183.63,176.09l.36-3.37h3.28v.88h-2.42l-.19,1.53a1.59,1.59,0,0,1,.43-.22,1.79,1.79,0,0,1,.54-.1,1.74,1.74,0,0,1,1.37.55,2.17,2.17,0,0,1,.5,1.51,2.12,2.12,0,0,1-.52,1.46,2,2,0,0,1-1.51.57,2.17,2.17,0,0,1-1.38-.44,1.45,1.45,0,0,1-.55-1.26v0l1,0a.92.92,0,0,0,.26.69,1,1,0,0,0,.69.24.88.88,0,0,0,.74-.33,1.39,1.39,0,0,0,.25-.88,1.48,1.48,0,0,0-.26-.9.86.86,0,0,0-.74-.34,1.11,1.11,0,0,0-.64.14.79.79,0,0,0-.3.39Z"/><rect class="cls-1" x="122.16" y="168.18" width="48.4" height="35.03"/><path class="cls-2" d="M129.89,178.81h-1v-5.12h-1.26v-.75l2.3-.22Z"/><path class="cls-2" d="M135.75,176.64h.79v.81h-.79v1.36h-1v-1.36h-2.67l0-.61,2.66-4.12h1.06Zm-2.7,0h1.67v-2.47h0l-.08.18Z"/><rect class="cls-1" x="70.98" y="168.18" width="48.4" height="35.03"/><path class="cls-2" d="M78.71,178.81h-1v-5.12H76.41v-.75l2.3-.22Z"/><path class="cls-2" d="M82.28,175.31H83a.93.93,0,0,0,.72-.25,1,1,0,0,0,.22-.69.84.84,0,0,0-.94-.92,1,1,0,0,0-.69.24.76.76,0,0,0-.26.62h-1v0a1.41,1.41,0,0,1,.53-1.17,2.09,2.09,0,0,1,1.42-.48,2.21,2.21,0,0,1,1.45.45,1.6,1.6,0,0,1,.54,1.29,1.33,1.33,0,0,1-.24.75,1.7,1.7,0,0,1-.69.57,1.43,1.43,0,0,1,.77.56,1.47,1.47,0,0,1,.25.85,1.61,1.61,0,0,1-.58,1.32,2.57,2.57,0,0,1-2.95,0A1.41,1.41,0,0,1,81,177.2v0h1a.83.83,0,0,0,.27.65,1.05,1.05,0,0,0,.74.25,1.07,1.07,0,0,0,.76-.25,1,1,0,0,0,.28-.72,1,1,0,0,0-.26-.76,1.1,1.1,0,0,0-.78-.24h-.72Z"/><rect class="cls-1" x="19.81" y="168.18" width="48.4" height="35.03"/><rect class="cls-1" x="224.51" y="130.69" width="48.4" height="35.03"/><path class="cls-2" d="M233.86,140.59a1.09,1.09,0,0,0,.89-.4,1.77,1.77,0,0,0,.35-1.18v-.28a1.4,1.4,0,0,1-.51.43,1.45,1.45,0,0,1-.66.14,1.81,1.81,0,0,1-1.4-.55,2.33,2.33,0,0,1,.06-3,1.89,1.89,0,0,1,1.42-.6,2,2,0,0,1,1.54.62,2.52,2.52,0,0,1,.58,1.79V139a2.45,2.45,0,0,1-.63,1.8,2.24,2.24,0,0,1-1.64.63,3.06,3.06,0,0,1-.66-.06,2.44,2.44,0,0,1-.63-.19l.14-.78a2,2,0,0,0,.53.17A3.8,3.8,0,0,0,233.86,140.59Zm.17-2.08a1.37,1.37,0,0,0,.66-.15,1.1,1.1,0,0,0,.41-.39v-.54a1.88,1.88,0,0,0-.28-1.1A.92.92,0,0,0,234,136a.86.86,0,0,0-.7.36,1.46,1.46,0,0,0-.28.92,1.5,1.5,0,0,0,.26.92A.85.85,0,0,0,234,138.51Z"/><rect class="cls-1" x="173.33" y="130.69" width="48.4" height="35.03"/><path class="cls-2" d="M184.88,136.83a1.37,1.37,0,0,1-.25.82,1.64,1.64,0,0,1-.7.54,1.8,1.8,0,0,1,.81.58,1.41,1.41,0,0,1,.3.89,1.57,1.57,0,0,1-.57,1.3,2.76,2.76,0,0,1-3,0,1.57,1.57,0,0,1-.57-1.3,1.4,1.4,0,0,1,.29-.89,1.78,1.78,0,0,1,.82-.58,1.53,1.53,0,0,1-.7-.54,1.35,1.35,0,0,1-.25-.82,1.55,1.55,0,0,1,.52-1.25,2.38,2.38,0,0,1,2.76,0A1.55,1.55,0,0,1,184.88,136.83Zm-.87,2.78a.94.94,0,0,0-.3-.73,1.13,1.13,0,0,0-1.49,0,1.08,1.08,0,0,0,0,1.45,1.09,1.09,0,0,0,.76.26,1.08,1.08,0,0,0,.74-.26A1,1,0,0,0,184,139.61Zm-.17-2.74a1,1,0,0,0-.24-.66.93.93,0,0,0-1.26,0,.93.93,0,0,0-.24.67.89.89,0,0,0,.24.66.93.93,0,0,0,1.27,0A.89.89,0,0,0,183.84,136.87Z"/><rect class="cls-1" x="122.16" y="130.69" width="48.4" height="35.03"/><path class="cls-2" d="M133.9,136a7.79,7.79,0,0,0-1.45,2.23,10.17,10.17,0,0,0-.54,2.4l-.07.65h-1l.06-.65a8.2,8.2,0,0,1,2-4.63h-3.29v-.81h4.29Z"/><rect class="cls-1" x="70.98" y="130.69" width="48.4" height="35.03"/><path class="cls-2" d="M81,135.14a2.73,2.73,0,0,1,.64.07,2.37,2.37,0,0,1,.55.18l-.2.78a3.16,3.16,0,0,0-.46-.16,2.81,2.81,0,0,0-.53,0,1.2,1.2,0,0,0-1,.47,2,2,0,0,0-.38,1.27v0a1.79,1.79,0,0,1,.6-.35,2,2,0,0,1,.74-.13,1.63,1.63,0,0,1,1.32.57,2.19,2.19,0,0,1,.48,1.46,2.16,2.16,0,0,1-.55,1.53,1.93,1.93,0,0,1-1.46.59,2,2,0,0,1-1.55-.65,2.54,2.54,0,0,1-.61-1.82v-1.16a2.63,2.63,0,0,1,.69-1.91A2.26,2.26,0,0,1,81,135.14Zm-.29,2.9a1.48,1.48,0,0,0-.67.14,1,1,0,0,0-.42.37V139a1.94,1.94,0,0,0,.32,1.19,1,1,0,0,0,.81.42.82.82,0,0,0,.71-.38,1.56,1.56,0,0,0,.27-.94,1.36,1.36,0,0,0-.28-.88A.9.9,0,0,0,80.75,138Z"/><rect class="cls-1" x="19.81" y="130.69" width="48.4" height="35.03"/><rect class="cls-1" x="224.51" y="93.2" width="48.4" height="35.02"/><path class="cls-2" d="M236.25,103.83h-4.12v-.71l2-2.16a4.35,4.35,0,0,0,.68-.87,1.31,1.31,0,0,0,.19-.66,1,1,0,0,0-.24-.69.86.86,0,0,0-.66-.28,1,1,0,0,0-.81.31,1.17,1.17,0,0,0-.26.82h-1v0a1.71,1.71,0,0,1,.54-1.36,2.05,2.05,0,0,1,1.54-.56,2,2,0,0,1,1.42.48,1.7,1.7,0,0,1,.52,1.27,1.85,1.85,0,0,1-.3,1,8.24,8.24,0,0,1-.94,1.16L233.44,103v0h2.8Z"/><rect class="cls-1" x="173.33" y="93.2" width="48.4" height="35.02"/><path class="cls-2" d="M183.55,103.83h-1V98.7h-1.27V98l2.3-.21Z"/><rect class="cls-3" x="122.16" y="93.2" width="48.4" height="35.02"/><path class="cls-4" d="M128.47,100.32h.73a1,1,0,0,0,.72-.24,1,1,0,0,0,.22-.7.85.85,0,0,0-.94-.92,1,1,0,0,0-.69.24.79.79,0,0,0-.26.62h-1v0a1.41,1.41,0,0,1,.53-1.18,2.13,2.13,0,0,1,1.42-.47,2.21,2.21,0,0,1,1.45.45,1.58,1.58,0,0,1,.54,1.28,1.36,1.36,0,0,1-.24.76,1.6,1.6,0,0,1-.69.56,1.48,1.48,0,0,1,.77.56,1.5,1.5,0,0,1,.25.86,1.61,1.61,0,0,1-.58,1.32,2.6,2.6,0,0,1-3,0,1.39,1.39,0,0,1-.56-1.24v0h1a.85.85,0,0,0,.27.66,1.23,1.23,0,0,0,1.5,0,.93.93,0,0,0,.28-.72,1,1,0,0,0-.26-.76,1.1,1.1,0,0,0-.78-.24h-.73Z"/><path class="cls-4" d="M136.3,101.48a2.68,2.68,0,0,1-.55,1.81,2.1,2.1,0,0,1-3,0,2.63,2.63,0,0,1-.55-1.81v-1.39a2.65,2.65,0,0,1,.55-1.81,2.07,2.07,0,0,1,3,0,2.65,2.65,0,0,1,.56,1.81Zm-1-1.55a1.93,1.93,0,0,0-.26-1.11,1,1,0,0,0-1.49,0,1.94,1.94,0,0,0-.25,1.11v1.69a2,2,0,0,0,.25,1.12.88.88,0,0,0,.75.36.86.86,0,0,0,.75-.36,2,2,0,0,0,.25-1.12Z"/><rect class="cls-3" x="70.98" y="93.2" width="48.4" height="35.02"/><path class="cls-4" d="M80.22,103.83H76.1v-.71l2-2.16a4.35,4.35,0,0,0,.68-.87,1.31,1.31,0,0,0,.19-.66,1,1,0,0,0-.24-.69.84.84,0,0,0-.66-.28,1,1,0,0,0-.81.31,1.22,1.22,0,0,0-.26.82H76v0a1.71,1.71,0,0,1,.54-1.36,2.05,2.05,0,0,1,1.54-.56,2,2,0,0,1,1.42.48A1.7,1.7,0,0,1,80,99.4a1.85,1.85,0,0,1-.3,1,8.06,8.06,0,0,1-.93,1.16L77.41,103l0,0h2.79Z"/><path class="cls-4" d="M82.8,103.1a1.09,1.09,0,0,0,.89-.4,1.77,1.77,0,0,0,.34-1.18v-.28a1.32,1.32,0,0,1-.51.43,1.55,1.55,0,0,1-.65.14,1.85,1.85,0,0,1-1.41-.55A2.14,2.14,0,0,1,81,99.75a2,2,0,0,1,.58-1.5,1.87,1.87,0,0,1,1.42-.6,2,2,0,0,1,1.54.62,2.5,2.5,0,0,1,.58,1.79v1.42a2.43,2.43,0,0,1-.64,1.8,2.2,2.2,0,0,1-1.63.63,3.68,3.68,0,0,1-.66-.06,2.44,2.44,0,0,1-.63-.19l.14-.78a2.52,2.52,0,0,0,.53.17A3.8,3.8,0,0,0,82.8,103.1ZM83,101a1.34,1.34,0,0,0,.66-.15,1,1,0,0,0,.41-.39v-.54a1.86,1.86,0,0,0-.27-1.1.94.94,0,0,0-.79-.38.87.87,0,0,0-.7.37,1.7,1.7,0,0,0,0,1.84A.84.84,0,0,0,83,101Z"/><rect class="cls-3" x="19.81" y="93.2" width="48.4" height="35.02"/><path class="cls-2" d="M29.06,253.8H24.94v-.7l2-2.16a5,5,0,0,0,.68-.87,1.34,1.34,0,0,0,.19-.67,1,1,0,0,0-.24-.69.85.85,0,0,0-.66-.27,1,1,0,0,0-.81.3,1.18,1.18,0,0,0-.26.83h-1v0a1.72,1.72,0,0,1,.54-1.36,2.09,2.09,0,0,1,1.54-.56,2,2,0,0,1,1.42.49,1.66,1.66,0,0,1,.52,1.26,1.83,1.83,0,0,1-.3,1,8.24,8.24,0,0,1-.94,1.16L26.25,253v0h2.8Z"/><path class="cls-2" d="M32.34,247.62a2.73,2.73,0,0,1,.64.07,3.55,3.55,0,0,1,.55.18l-.2.78a3.16,3.16,0,0,0-.46-.16,2.12,2.12,0,0,0-.53-.05,1.23,1.23,0,0,0-1,.47,2,2,0,0,0-.37,1.27v0a1.74,1.74,0,0,1,.59-.35,2,2,0,0,1,.74-.13,1.63,1.63,0,0,1,1.32.57,2.21,2.21,0,0,1,.48,1.46,2.16,2.16,0,0,1-.55,1.53,1.88,1.88,0,0,1-1.45.6,2.07,2.07,0,0,1-1.56-.65,2.62,2.62,0,0,1-.61-1.83v-1.16a2.65,2.65,0,0,1,.69-1.91A2.26,2.26,0,0,1,32.34,247.62Zm-.29,2.9a1.54,1.54,0,0,0-.67.14A.93.93,0,0,0,31,251v.43a1.94,1.94,0,0,0,.31,1.19,1,1,0,0,0,.82.42.83.83,0,0,0,.71-.38,1.64,1.64,0,0,0,.26-.93,1.39,1.39,0,0,0-.27-.89A.93.93,0,0,0,32.05,250.52Z"/><path class="cls-2" d="M27.54,216.31h-1v-5.13H25.24v-.75l2.3-.21Z"/><path class="cls-2" d="M31.64,215.58a1.13,1.13,0,0,0,.89-.4,1.77,1.77,0,0,0,.34-1.18v-.28a1.28,1.28,0,0,1-.51.42,1.45,1.45,0,0,1-.66.15,1.81,1.81,0,0,1-1.4-.55,2.14,2.14,0,0,1-.51-1.51,2.1,2.1,0,0,1,.57-1.51,1.94,1.94,0,0,1,1.43-.59,2,2,0,0,1,1.54.62,2.55,2.55,0,0,1,.57,1.79V214a2.43,2.43,0,0,1-.63,1.79,2.18,2.18,0,0,1-1.63.64,3.88,3.88,0,0,1-.67-.06,2.49,2.49,0,0,1-.62-.19l.13-.78a2.6,2.6,0,0,0,.54.17A3.7,3.7,0,0,0,31.64,215.58Zm.16-2.08a1.34,1.34,0,0,0,.66-.15,1,1,0,0,0,.41-.39v-.54a1.86,1.86,0,0,0-.27-1.1.94.94,0,0,0-.79-.38.83.83,0,0,0-.7.37,1.45,1.45,0,0,0-.29.92,1.52,1.52,0,0,0,.26.92A.85.85,0,0,0,31.8,213.5Z"/><path class="cls-2" d="M27.54,178.81h-1v-5.12H25.24v-.75l2.3-.22Z"/><path class="cls-2" d="M34,178.81H29.9v-.7l2-2.16a4.48,4.48,0,0,0,.69-.87,1.45,1.45,0,0,0,.19-.67,1,1,0,0,0-.25-.68.81.81,0,0,0-.65-.28,1,1,0,0,0-.82.3,1.25,1.25,0,0,0-.26.83h-1v0a1.79,1.79,0,0,1,.54-1.36,2.12,2.12,0,0,1,1.55-.56,2,2,0,0,1,1.41.49,1.64,1.64,0,0,1,.52,1.27,1.88,1.88,0,0,1-.3,1,8.66,8.66,0,0,1-.93,1.15L31.22,178v0H34Z"/><path class="cls-2" d="M27.63,138.6l.36-3.37h3.28v.88H28.85l-.19,1.52a1.93,1.93,0,0,1,.43-.22,1.79,1.79,0,0,1,.54-.09,1.77,1.77,0,0,1,1.37.54,2.2,2.2,0,0,1,.49,1.51,2.08,2.08,0,0,1-.52,1.47,1.92,1.92,0,0,1-1.5.56,2.11,2.11,0,0,1-1.38-.44,1.44,1.44,0,0,1-.55-1.25v0l1,0a.9.9,0,0,0,.26.68,1,1,0,0,0,.69.25.86.86,0,0,0,.73-.33,1.42,1.42,0,0,0,.26-.88,1.48,1.48,0,0,0-.26-.9.88.88,0,0,0-.74-.34,1.2,1.2,0,0,0-.64.13.78.78,0,0,0-.3.4Z"/><path class="cls-4" d="M29.05,103.83H24.93v-.71L27,101a4.77,4.77,0,0,0,.68-.87,1.42,1.42,0,0,0,.19-.66,1,1,0,0,0-.25-.69.84.84,0,0,0-.65-.28,1,1,0,0,0-.81.31,1.18,1.18,0,0,0-.27.82h-1v0a1.75,1.75,0,0,1,.55-1.36,2,2,0,0,1,1.54-.56,2,2,0,0,1,1.42.48,1.7,1.7,0,0,1,.52,1.27,1.86,1.86,0,0,1-.31,1,8.06,8.06,0,0,1-.93,1.16L26.24,103v0h2.8Z"/><path class="cls-4" d="M33.82,99.34a1.38,1.38,0,0,1-.26.82,1.55,1.55,0,0,1-.69.54,1.83,1.83,0,0,1,.8.58,1.41,1.41,0,0,1,.3.89,1.53,1.53,0,0,1-.57,1.29,2.32,2.32,0,0,1-1.49.45,2.35,2.35,0,0,1-1.5-.45,1.53,1.53,0,0,1-.57-1.29,1.41,1.41,0,0,1,.3-.89,1.8,1.8,0,0,1,.81-.58,1.53,1.53,0,0,1-.7-.54,1.42,1.42,0,0,1-.25-.82,1.55,1.55,0,0,1,.53-1.25,2.06,2.06,0,0,1,1.38-.44,2.09,2.09,0,0,1,1.37.44A1.53,1.53,0,0,1,33.82,99.34Zm-.88,2.77a1,1,0,0,0-.29-.72,1,1,0,0,0-.74-.28,1,1,0,0,0-.75.27,1,1,0,0,0-.28.73,1,1,0,0,0,.28.73,1.09,1.09,0,0,0,.75.26,1.06,1.06,0,0,0,.75-.27A.91.91,0,0,0,32.94,102.11Zm-.16-2.73a.89.89,0,0,0-.25-.66.82.82,0,0,0-.62-.26.84.84,0,0,0-.64.26.93.93,0,0,0-.23.66.89.89,0,0,0,.24.66.92.92,0,0,0,1.26,0A.89.89,0,0,0,32.78,99.38Z"/><rect class="cls-5" x="224.51" y="78.09" width="48.4" height="12.46"/><path class="cls-6" d="M242.08,84.68h-2.33v2.23h-.89V81.68h3.6v.7h-2.71V84h2.33Z"/><path class="cls-6" d="M245,83.81h-.38a.81.81,0,0,0-.43.11.66.66,0,0,0-.27.3v2.7H243V83h.82l.06.56a1.38,1.38,0,0,1,.38-.47.94.94,0,0,1,.55-.17l.15,0a.5.5,0,0,1,.13,0Z"/><path class="cls-6" d="M246.55,82.07h-.9v-.76h.9Zm0,4.84h-.9V83h.9Z"/><path class="cls-6" d="M247.38,85a2.47,2.47,0,0,1,.41-1.5,1.31,1.31,0,0,1,1.14-.57,1.37,1.37,0,0,1,.58.13,1.4,1.4,0,0,1,.44.37V81.31h.89v5.6h-.75l-.09-.48a1.28,1.28,0,0,1-.45.42,1.39,1.39,0,0,1-.63.14,1.32,1.32,0,0,1-1.13-.52,2.11,2.11,0,0,1-.41-1.37Zm.89.08a1.54,1.54,0,0,0,.21.86.75.75,0,0,0,.67.32.9.9,0,0,0,.48-.12,1.05,1.05,0,0,0,.32-.34V84.13a1,1,0,0,0-.33-.34.85.85,0,0,0-.46-.12.7.7,0,0,0-.67.38,1.86,1.86,0,0,0-.22,1Z"/><path class="cls-6" d="M254.18,86.91c0-.09-.06-.19-.08-.28s0-.19,0-.28a1.48,1.48,0,0,1-.48.45,1.19,1.19,0,0,1-.67.19,1.33,1.33,0,0,1-.95-.31,1.12,1.12,0,0,1-.33-.86,1,1,0,0,1,.45-.88,2.22,2.22,0,0,1,1.28-.31h.69v-.35a.61.61,0,0,0-.18-.47.71.71,0,0,0-.52-.18.74.74,0,0,0-.49.15.45.45,0,0,0-.18.37h-.86v0a1,1,0,0,1,.42-.82A1.79,1.79,0,0,1,253.4,83a1.72,1.72,0,0,1,1.12.35,1.21,1.21,0,0,1,.43,1V86c0,.16,0,.32,0,.46a3,3,0,0,0,.11.43Zm-1.09-.62a1.08,1.08,0,0,0,.61-.17.82.82,0,0,0,.35-.37v-.58h-.7a.93.93,0,0,0-.61.19.57.57,0,0,0-.23.44.47.47,0,0,0,.16.36A.57.57,0,0,0,253.09,86.29Z"/><path class="cls-6" d="M257.14,85.36l.08.38h0l.87-2.71h1l-1.64,4.48a1.92,1.92,0,0,1-.45.69,1.1,1.1,0,0,1-.81.29l-.23,0-.25,0,.1-.68h.27a.53.53,0,0,0,.39-.16,1.6,1.6,0,0,0,.23-.38l.15-.35L255.41,83h1Z"/><rect class="cls-5" x="173.33" y="78.09" width="48.4" height="12.46"/><path class="cls-6" d="M186.05,82.38h-1.62v4.53h-.88V82.38h-1.62v-.7h4.12Z"/><path class="cls-6" d="M187.51,83.53a1.41,1.41,0,0,1,.49-.42,1.17,1.17,0,0,1,.62-.16,1.28,1.28,0,0,1,1,.39,1.78,1.78,0,0,1,.35,1.21v2.36h-.89V84.54a1,1,0,0,0-.19-.67.73.73,0,0,0-.56-.2.93.93,0,0,0-.47.11,1.05,1.05,0,0,0-.34.29v2.84h-.89v-5.6h.89Z"/><path class="cls-6" d="M193.36,86.35a1.35,1.35,0,0,1-.48.47,1.19,1.19,0,0,1-.65.17,1.3,1.3,0,0,1-1-.4,1.85,1.85,0,0,1-.35-1.24V83h.88v2.33a1.19,1.19,0,0,0,.17.72.66.66,0,0,0,.51.2,1.2,1.2,0,0,0,.54-.11.83.83,0,0,0,.34-.33V83h.9v3.88h-.78Z"/><path class="cls-6" d="M197.11,83.81h-.38a.81.81,0,0,0-.43.11.66.66,0,0,0-.27.3v2.7h-.89V83H196l.06.56a1.3,1.3,0,0,1,.39-.47.94.94,0,0,1,.54-.17l.15,0a.5.5,0,0,1,.13,0Z"/><path class="cls-6" d="M200,85.86a.41.41,0,0,0-.18-.34,1.92,1.92,0,0,0-.65-.23,2.76,2.76,0,0,1-1.08-.42.85.85,0,0,1-.37-.74,1,1,0,0,1,.43-.83,1.7,1.7,0,0,1,1.11-.35,1.79,1.79,0,0,1,1.15.35,1.07,1.07,0,0,1,.41.87v0h-.85a.53.53,0,0,0-.19-.41.77.77,0,0,0-.51-.17.75.75,0,0,0-.5.14.44.44,0,0,0-.16.35.38.38,0,0,0,.16.32,1.81,1.81,0,0,0,.64.22,2.79,2.79,0,0,1,1.11.42.9.9,0,0,1,.36.75,1,1,0,0,1-.44.85,1.88,1.88,0,0,1-1.16.33A1.79,1.79,0,0,1,198,86.6a1.09,1.09,0,0,1-.43-.89v0h.83a.57.57,0,0,0,.25.49,1.12,1.12,0,0,0,1.1,0A.43.43,0,0,0,200,85.86Z"/><path class="cls-6" d="M201.48,85a2.54,2.54,0,0,1,.41-1.5A1.32,1.32,0,0,1,203,83a1.37,1.37,0,0,1,.58.13,1.4,1.4,0,0,1,.44.37V81.31h.89v5.6h-.75l-.09-.48a1.28,1.28,0,0,1-.45.42A1.39,1.39,0,0,1,203,87a1.33,1.33,0,0,1-1.13-.52,2.17,2.17,0,0,1-.41-1.37Zm.89.08a1.54,1.54,0,0,0,.21.86.75.75,0,0,0,.67.32.9.9,0,0,0,.48-.12,1,1,0,0,0,.32-.34V84.13a1,1,0,0,0-.32-.34.91.91,0,0,0-.47-.12.7.7,0,0,0-.67.38,1.86,1.86,0,0,0-.22,1Z"/><path class="cls-6" d="M208.28,86.91a2.86,2.86,0,0,1-.07-.28,1.51,1.51,0,0,1-.05-.28,1.48,1.48,0,0,1-.48.45A1.19,1.19,0,0,1,207,87a1.33,1.33,0,0,1-.95-.31,1.12,1.12,0,0,1-.33-.86,1,1,0,0,1,.45-.88,2.24,2.24,0,0,1,1.28-.31h.69v-.35a.61.61,0,0,0-.18-.47.7.7,0,0,0-.52-.18.74.74,0,0,0-.49.15.47.47,0,0,0-.18.37h-.85v0a1,1,0,0,1,.42-.82A1.81,1.81,0,0,1,207.5,83a1.72,1.72,0,0,1,1.12.35,1.19,1.19,0,0,1,.43,1V86a3.33,3.33,0,0,0,0,.46,2.07,2.07,0,0,0,.1.43Zm-1.09-.62a1.08,1.08,0,0,0,.61-.17.82.82,0,0,0,.35-.37v-.58h-.7a1,1,0,0,0-.61.19.56.56,0,0,0-.22.44.46.46,0,0,0,.15.36A.6.6,0,0,0,207.19,86.29Z"/><path class="cls-6" d="M211.24,85.36l.09.38h0l.87-2.71h1l-1.64,4.48a1.92,1.92,0,0,1-.45.69,1.07,1.07,0,0,1-.8.29,1,1,0,0,1-.24,0l-.24,0,.09-.68h.27a.52.52,0,0,0,.39-.16,1.63,1.63,0,0,0,.24-.38l.14-.35L209.51,83h1Z"/><rect class="cls-5" x="122.16" y="78.09" width="48.4" height="12.46"/><path class="cls-6" d="M128.76,85.52h0v0l1.07-3.83h.71l1.08,3.84v0l.84-3.83h.88l-1.27,5.23h-.81l-1.07-3.75h0l-1.07,3.75h-.82L127,81.68h.87Z"/><path class="cls-6" d="M135.57,87a1.73,1.73,0,0,1-1.34-.54,2,2,0,0,1-.5-1.39v-.14a2,2,0,0,1,.5-1.41,1.59,1.59,0,0,1,1.24-.56,1.56,1.56,0,0,1,1.23.48,1.87,1.87,0,0,1,.43,1.28v.51h-2.48v0a1.2,1.2,0,0,0,.28.75.89.89,0,0,0,.71.3,1.82,1.82,0,0,0,.61-.09,2.08,2.08,0,0,0,.5-.24l.28.57a1.83,1.83,0,0,1-.59.33A2.51,2.51,0,0,1,135.57,87Zm-.1-3.34a.67.67,0,0,0-.54.26,1.24,1.24,0,0,0-.27.65v0h1.57v-.09a.92.92,0,0,0-.19-.6A.7.7,0,0,0,135.47,83.65Z"/><path class="cls-6" d="M137.68,85a2.54,2.54,0,0,1,.41-1.5,1.32,1.32,0,0,1,1.14-.57,1.34,1.34,0,0,1,.58.13,1.4,1.4,0,0,1,.44.37V81.31h.89v5.6h-.75l-.09-.48a1.28,1.28,0,0,1-.45.42,1.39,1.39,0,0,1-.63.14,1.35,1.35,0,0,1-1.13-.52,2.17,2.17,0,0,1-.41-1.37Zm.89.08a1.54,1.54,0,0,0,.21.86.75.75,0,0,0,.67.32.9.9,0,0,0,.48-.12.88.88,0,0,0,.32-.34V84.13a.88.88,0,0,0-.32-.34.89.89,0,0,0-.47-.12.7.7,0,0,0-.67.38,1.86,1.86,0,0,0-.22,1Z"/><path class="cls-6" d="M142.9,83l.06.56a1.31,1.31,0,0,1,1.15-.64,1.3,1.3,0,0,1,1,.37,1.65,1.65,0,0,1,.34,1.15v2.44h-.89V84.48a.91.91,0,0,0-.18-.63.8.8,0,0,0-.57-.18.93.93,0,0,0-.8.42v2.82h-.89V83Z"/><path class="cls-6" d="M148.05,87a1.73,1.73,0,0,1-1.34-.54,1.93,1.93,0,0,1-.5-1.39v-.14a2,2,0,0,1,.5-1.41A1.59,1.59,0,0,1,148,83a1.58,1.58,0,0,1,1.23.48,1.87,1.87,0,0,1,.43,1.28v.51h-2.48v0a1.2,1.2,0,0,0,.28.75.89.89,0,0,0,.71.3,1.82,1.82,0,0,0,.61-.09,2.08,2.08,0,0,0,.5-.24l.28.57a1.83,1.83,0,0,1-.59.33A2.51,2.51,0,0,1,148.05,87Zm-.1-3.34a.67.67,0,0,0-.54.26,1.24,1.24,0,0,0-.27.65v0h1.57v-.09a.92.92,0,0,0-.19-.6A.7.7,0,0,0,148,83.65Z"/><path class="cls-6" d="M152.55,85.86a.42.42,0,0,0-.17-.34,2.09,2.09,0,0,0-.66-.23,2.89,2.89,0,0,1-1.08-.42.87.87,0,0,1-.36-.74,1,1,0,0,1,.42-.83,1.7,1.7,0,0,1,1.11-.35,1.8,1.8,0,0,1,1.16.35,1,1,0,0,1,.4.87v0h-.86a.55.55,0,0,0-.18-.41.77.77,0,0,0-.52-.17.72.72,0,0,0-.49.14.46.46,0,0,0-.17.35.4.4,0,0,0,.16.32,1.88,1.88,0,0,0,.65.22,2.79,2.79,0,0,1,1.11.42.9.9,0,0,1,.36.75,1,1,0,0,1-.44.85,1.93,1.93,0,0,1-1.17.33,1.81,1.81,0,0,1-1.22-.39,1.06,1.06,0,0,1-.42-.89v0H151a.59.59,0,0,0,.25.49,1,1,0,0,0,.58.16,1,1,0,0,0,.53-.13A.42.42,0,0,0,152.55,85.86Z"/><path class="cls-6" d="M154.06,85a2.54,2.54,0,0,1,.41-1.5,1.32,1.32,0,0,1,1.14-.57,1.34,1.34,0,0,1,.58.13,1.44,1.44,0,0,1,.45.37V81.31h.88v5.6h-.74l-.09-.48a1.31,1.31,0,0,1-.46.42,1.49,1.49,0,0,1-1.76-.38,2.17,2.17,0,0,1-.41-1.37Zm.9.08a1.54,1.54,0,0,0,.21.86.75.75,0,0,0,.67.32.89.89,0,0,0,.47-.12,1,1,0,0,0,.33-.34V84.13a1,1,0,0,0-.33-.34.89.89,0,0,0-.47-.12.72.72,0,0,0-.67.38,2,2,0,0,0-.21,1Z"/><path class="cls-6" d="M160.87,86.91c0-.09-.06-.19-.08-.28a1.45,1.45,0,0,1,0-.28,1.48,1.48,0,0,1-.48.45,1.21,1.21,0,0,1-.67.19,1.35,1.35,0,0,1-1-.31,1.12,1.12,0,0,1-.33-.86,1,1,0,0,1,.46-.88,2.22,2.22,0,0,1,1.28-.31h.69v-.35a.61.61,0,0,0-.18-.47.86.86,0,0,0-1,0,.45.45,0,0,0-.18.37h-.86v0a1,1,0,0,1,.42-.82,1.79,1.79,0,0,1,1.16-.36,1.74,1.74,0,0,1,1.12.35,1.21,1.21,0,0,1,.42,1V86a3.33,3.33,0,0,0,0,.46,3,3,0,0,0,.11.43Zm-1.09-.62a1,1,0,0,0,.6-.17.84.84,0,0,0,.36-.37v-.58H160a.9.9,0,0,0-.6.19.57.57,0,0,0-.23.44.46.46,0,0,0,.15.36A.61.61,0,0,0,159.78,86.29Z"/><path class="cls-6" d="M163.82,85.36l.09.38h0L164.8,83h1l-1.65,4.48a1.9,1.9,0,0,1-.44.69,1.1,1.1,0,0,1-.81.29l-.23,0-.25,0,.1-.68h.27a.5.5,0,0,0,.38-.16,1.36,1.36,0,0,0,.24-.38l.15-.35L162.1,83h1Z"/><rect class="cls-5" x="70.98" y="78.09" width="48.4" height="12.46"/><path class="cls-6" d="M85.27,82.38H83.65v4.53h-.89V82.38H81.15v-.7h4.12Z"/><path class="cls-6" d="M88.06,86.35a1.32,1.32,0,0,1-.47.47,1.2,1.2,0,0,1-.66.17,1.27,1.27,0,0,1-1-.4,1.8,1.8,0,0,1-.36-1.24V83h.89v2.33a1.19,1.19,0,0,0,.17.72.63.63,0,0,0,.51.2,1.27,1.27,0,0,0,.54-.11.9.9,0,0,0,.34-.33V83h.89v3.88h-.77Z"/><path class="cls-6" d="M91.55,87a1.74,1.74,0,0,1-1.35-.54,2,2,0,0,1-.5-1.39v-.14a2,2,0,0,1,.5-1.41A1.61,1.61,0,0,1,91.44,83a1.55,1.55,0,0,1,1.23.48,1.82,1.82,0,0,1,.43,1.28v.51H90.62v0a1.14,1.14,0,0,0,.27.75.89.89,0,0,0,.71.3,1.89,1.89,0,0,0,.62-.09,2,2,0,0,0,.49-.24l.29.57a1.88,1.88,0,0,1-.6.33A2.45,2.45,0,0,1,91.55,87Zm-.11-3.34a.67.67,0,0,0-.54.26,1.23,1.23,0,0,0-.26.65v0h1.58v-.09a.92.92,0,0,0-.2-.6A.69.69,0,0,0,91.44,83.65Z"/><path class="cls-6" d="M96.05,85.86a.41.41,0,0,0-.18-.34,2,2,0,0,0-.65-.23,2.76,2.76,0,0,1-1.08-.42.87.87,0,0,1-.37-.74,1,1,0,0,1,.42-.83A1.74,1.74,0,0,1,95.31,83a1.77,1.77,0,0,1,1.15.35,1.07,1.07,0,0,1,.41.87v0H96a.56.56,0,0,0-.19-.41.77.77,0,0,0-.51-.17.75.75,0,0,0-.5.14.44.44,0,0,0-.16.35.38.38,0,0,0,.16.32,1.81,1.81,0,0,0,.64.22,2.79,2.79,0,0,1,1.11.42.9.9,0,0,1,.36.75,1,1,0,0,1-.44.85,1.88,1.88,0,0,1-1.16.33,1.77,1.77,0,0,1-1.22-.39,1.09,1.09,0,0,1-.43-.89v0h.83a.57.57,0,0,0,.25.49.94.94,0,0,0,.57.16,1,1,0,0,0,.53-.13A.41.41,0,0,0,96.05,85.86Z"/><path class="cls-6" d="M97.56,85a2.47,2.47,0,0,1,.41-1.5A1.32,1.32,0,0,1,99.11,83a1.37,1.37,0,0,1,.58.13,1.4,1.4,0,0,1,.44.37V81.31H101v5.6h-.75l-.09-.48a1.28,1.28,0,0,1-.45.42,1.39,1.39,0,0,1-.63.14A1.35,1.35,0,0,1,98,86.47a2.11,2.11,0,0,1-.41-1.37Zm.89.08a1.54,1.54,0,0,0,.21.86.75.75,0,0,0,.67.32.9.9,0,0,0,.48-.12,1,1,0,0,0,.32-.34V84.13a1,1,0,0,0-.32-.34.91.91,0,0,0-.47-.12.7.7,0,0,0-.67.38,1.86,1.86,0,0,0-.22,1Z"/><path class="cls-6" d="M104.36,86.91c0-.09-.06-.19-.08-.28s0-.19,0-.28a1.48,1.48,0,0,1-.48.45,1.19,1.19,0,0,1-.67.19,1.33,1.33,0,0,1-1-.31,1.12,1.12,0,0,1-.33-.86,1,1,0,0,1,.45-.88,2.22,2.22,0,0,1,1.28-.31h.69v-.35a.61.61,0,0,0-.18-.47.7.7,0,0,0-.52-.18.74.74,0,0,0-.49.15.45.45,0,0,0-.18.37H102v0a1,1,0,0,1,.42-.82,1.81,1.81,0,0,1,1.16-.36,1.72,1.72,0,0,1,1.12.35,1.21,1.21,0,0,1,.43,1V86a3.33,3.33,0,0,0,0,.46,3,3,0,0,0,.1.43Zm-1.09-.62a1.06,1.06,0,0,0,.61-.17.77.77,0,0,0,.35-.37v-.58h-.7a.93.93,0,0,0-.61.19.56.56,0,0,0-.22.44.46.46,0,0,0,.15.36A.6.6,0,0,0,103.27,86.29Z"/><path class="cls-6" d="M107.32,85.36l.09.38h0l.86-2.71h1l-1.64,4.48a1.92,1.92,0,0,1-.45.69,1.1,1.1,0,0,1-.81.29l-.23,0-.25,0,.1-.68h.27a.53.53,0,0,0,.39-.16,2,2,0,0,0,.24-.38l.14-.35L105.59,83h1Z"/><rect class="cls-5" x="19.81" y="78.09" width="48.4" height="12.46"/><path class="cls-6" d="M32.16,81.68l1.54,4h0l1.54-4h1.16v5.23h-.89V85.13l.09-2.27h0l-1.58,4h-.6l-1.58-4h0l.09,2.25v1.78H31V81.68Z"/><path class="cls-6" d="M37.31,84.94a2.11,2.11,0,0,1,.48-1.43,1.87,1.87,0,0,1,2.67,0A2.1,2.1,0,0,1,41,84.94V85a2.12,2.12,0,0,1-.49,1.43,1.67,1.67,0,0,1-1.33.55,1.73,1.73,0,0,1-1.34-.55A2.11,2.11,0,0,1,37.31,85Zm.89.07a1.69,1.69,0,0,0,.22.92.87.87,0,0,0,1.41,0,1.69,1.69,0,0,0,.23-.92v-.08a1.68,1.68,0,0,0-.23-.91.86.86,0,0,0-1.41,0,1.68,1.68,0,0,0-.22.91Z"/><path class="cls-6" d="M42.53,83l0,.56a1.46,1.46,0,0,1,.49-.47,1.36,1.36,0,0,1,.67-.17,1.27,1.27,0,0,1,1,.37,1.6,1.6,0,0,1,.35,1.15v2.44h-.89V84.48a.91.91,0,0,0-.18-.63.81.81,0,0,0-.57-.18,1,1,0,0,0-.47.11,1.08,1.08,0,0,0-.33.31v2.82h-.89V83Z"/><path class="cls-6" d="M45.81,85a2.54,2.54,0,0,1,.41-1.5A1.32,1.32,0,0,1,47.36,83a1.34,1.34,0,0,1,.58.13,1.3,1.3,0,0,1,.44.37V81.31h.89v5.6h-.74l-.09-.48a1.31,1.31,0,0,1-.46.42,1.38,1.38,0,0,1-.62.14,1.35,1.35,0,0,1-1.14-.52,2.17,2.17,0,0,1-.41-1.37Zm.89.08a1.54,1.54,0,0,0,.22.86.73.73,0,0,0,.66.32.9.9,0,0,0,.48-.12.88.88,0,0,0,.32-.34V84.13a.88.88,0,0,0-.32-.34.89.89,0,0,0-.47-.12.71.71,0,0,0-.67.38,2,2,0,0,0-.22,1Z"/><path class="cls-6" d="M52.62,86.91c0-.09-.06-.19-.08-.28a1.45,1.45,0,0,1,0-.28,1.63,1.63,0,0,1-.49.45,1.16,1.16,0,0,1-.66.19,1.35,1.35,0,0,1-1-.31,1.12,1.12,0,0,1-.33-.86,1,1,0,0,1,.46-.88,2.22,2.22,0,0,1,1.28-.31h.69v-.35a.61.61,0,0,0-.18-.47.74.74,0,0,0-.53-.18.73.73,0,0,0-.48.15.45.45,0,0,0-.18.37h-.86v0a1,1,0,0,1,.42-.82A1.77,1.77,0,0,1,51.84,83,1.74,1.74,0,0,1,53,83.3a1.21,1.21,0,0,1,.42,1V86a3.33,3.33,0,0,0,0,.46,3,3,0,0,0,.11.43Zm-1.09-.62a1,1,0,0,0,.6-.17.84.84,0,0,0,.36-.37v-.58h-.71a1,1,0,0,0-.61.19.59.59,0,0,0-.22.44.46.46,0,0,0,.15.36A.61.61,0,0,0,51.53,86.29Z"/><path class="cls-6" d="M55.57,85.36l.09.38h0L56.55,83h1l-1.65,4.48a1.9,1.9,0,0,1-.44.69,1.1,1.1,0,0,1-.81.29l-.24,0-.24,0,.1-.68h.27a.5.5,0,0,0,.38-.16,1.36,1.36,0,0,0,.24-.38l.15-.35L53.84,83h1Z"/><path class="cls-7" d="M219.25,69.44H204.08V67.91l8-8.89a23.59,23.59,0,0,0,3.13-4.1,6.56,6.56,0,0,0,.92-3.17,5,5,0,0,0-1.28-3.59,4.79,4.79,0,0,0-3.64-1.35A5.57,5.57,0,0,0,207,48.33a5.63,5.63,0,0,0-1.44,4h-1.87l0-.09a6.63,6.63,0,0,1,2-5.07,7.55,7.55,0,0,1,5.59-2.08,7.11,7.11,0,0,1,5,1.78,6.22,6.22,0,0,1,1.9,4.77,7.49,7.49,0,0,1-1.27,4,32.38,32.38,0,0,1-3.53,4.54l-6.73,7.45,0,.08h12.59Z"/><path class="cls-7" d="M236.88,60.14q0,4.65-2,7.15a7.71,7.71,0,0,1-11.38,0c-1.38-1.67-2.08-4.05-2.08-7.14V54.79c0-3.08.69-5.46,2-7.14a7.71,7.71,0,0,1,11.4,0c1.38,1.68,2.06,4.06,2.06,7.14Zm-2-5.68a9.41,9.41,0,0,0-1.48-5.67,5.59,5.59,0,0,0-8.54,0,9.41,9.41,0,0,0-1.46,5.67v6a9.39,9.39,0,0,0,1.48,5.66,5.52,5.52,0,0,0,8.53,0,9.47,9.47,0,0,0,1.47-5.67Z"/><path class="cls-7" d="M254.9,69.44H239.73V67.91l8-8.89a23.59,23.59,0,0,0,3.13-4.1,6.56,6.56,0,0,0,.92-3.17,5,5,0,0,0-1.28-3.59,4.79,4.79,0,0,0-3.64-1.35,5.14,5.14,0,0,0-5.67,5.56h-1.86l0-.09a6.67,6.67,0,0,1,2-5.07,7.55,7.55,0,0,1,5.59-2.08,7.09,7.09,0,0,1,5,1.78,6.22,6.22,0,0,1,1.9,4.77,7.49,7.49,0,0,1-1.27,4A32.38,32.38,0,0,1,249,60.23l-6.73,7.45,0,.08H254.9Z"/><path class="cls-7" d="M272.54,60.14c0,3.1-.69,5.48-2.05,7.15a7.73,7.73,0,0,1-11.39,0Q257,64.78,257,60.14V54.79q0-4.62,2.05-7.14a7.7,7.7,0,0,1,11.39,0q2.07,2.52,2.07,7.14Zm-2-5.68a9.41,9.41,0,0,0-1.47-5.67,5,5,0,0,0-4.28-2,5,5,0,0,0-4.27,2A9.48,9.48,0,0,0,259,54.46v6a9.39,9.39,0,0,0,1.49,5.66,5.51,5.51,0,0,0,8.52,0,9.47,9.47,0,0,0,1.47-5.67Z"/><path class="cls-8" d="M94.31,57.3a7.3,7.3,0,0,1-2,5.32,7.11,7.11,0,0,1-5.33,2.12,6.85,6.85,0,0,1-5.22-2.12,7.39,7.39,0,0,1-2-5.32V54.15a7.41,7.41,0,0,1,2-5.32,6.84,6.84,0,0,1,5.2-2.12,7.12,7.12,0,0,1,5.34,2.12,7.32,7.32,0,0,1,2.06,5.32Zm-3-3.18a5.4,5.4,0,0,0-1.19-3.59,4,4,0,0,0-3.24-1.41,3.77,3.77,0,0,0-3.1,1.41,5.53,5.53,0,0,0-1.14,3.59V57.3a5.59,5.59,0,0,0,1.14,3.63,3.8,3.8,0,0,0,3.12,1.41,4,4,0,0,0,3.23-1.41,5.41,5.41,0,0,0,1.18-3.63Z"/><path class="cls-8" d="M102.64,62.39a2.76,2.76,0,0,0,1.84-.63,2,2,0,0,0,.75-1.57h2.7l0,.07a3.81,3.81,0,0,1-1.51,3.15,5.73,5.73,0,0,1-3.8,1.33,5.57,5.57,0,0,1-4.5-1.86,7,7,0,0,1-1.56-4.69v-.42a7,7,0,0,1,1.56-4.68,5.57,5.57,0,0,1,4.5-1.86,5.5,5.5,0,0,1,3.88,1.36A4.35,4.35,0,0,1,108,56.06l0,.07h-2.71a2.51,2.51,0,0,0-.72-1.81,2.47,2.47,0,0,0-1.87-.75,2.53,2.53,0,0,0-2.38,1.2,5.89,5.89,0,0,0-.7,3v.41a6,6,0,0,0,.7,3A2.56,2.56,0,0,0,102.64,62.39Z"/><path class="cls-8" d="M114.05,48.3v3.17h2.38v2.16h-2.38v7.2a1.53,1.53,0,0,0,.36,1.14,1.3,1.3,0,0,0,.94.35,3.58,3.58,0,0,0,.48,0,2.83,2.83,0,0,0,.44-.12l.32,2.14a3.34,3.34,0,0,1-.91.32,4.86,4.86,0,0,1-1.09.12,3.45,3.45,0,0,1-2.57-.95,4,4,0,0,1-.94-3v-7.2h-2V51.47h2V48.3Z"/><path class="cls-8" d="M118.53,57.85a7,7,0,0,1,1.62-4.76,6.29,6.29,0,0,1,8.93,0,6.91,6.91,0,0,1,1.63,4.76v.26a7,7,0,0,1-1.63,4.79,6.31,6.31,0,0,1-8.93,0,7,7,0,0,1-1.62-4.77Zm3,.25a5.67,5.67,0,0,0,.76,3.1,2.91,2.91,0,0,0,4.69,0,5.59,5.59,0,0,0,.78-3.1v-.25a5.55,5.55,0,0,0-.78-3.07,2.62,2.62,0,0,0-2.36-1.21,2.6,2.6,0,0,0-2.33,1.21,5.66,5.66,0,0,0-.76,3.07Z"/><path class="cls-8" d="M145,58.41A7.28,7.28,0,0,1,143.62,63a4.58,4.58,0,0,1-3.83,1.74,4.46,4.46,0,0,1-2.15-.5,4.2,4.2,0,0,1-1.53-1.44l-.29,1.68h-2.51V45.71h3V53a4.17,4.17,0,0,1,1.47-1.28,4.24,4.24,0,0,1,2-.44,4.45,4.45,0,0,1,3.85,1.9,8.49,8.49,0,0,1,1.35,5Zm-3-.25a6.66,6.66,0,0,0-.71-3.29A2.43,2.43,0,0,0,139,53.62a2.82,2.82,0,0,0-2.72,1.64v5.46a2.89,2.89,0,0,0,1,1.21,3.17,3.17,0,0,0,1.7.42,2.48,2.48,0,0,0,2.24-1.06,5.16,5.16,0,0,0,.7-2.88Z"/><path class="cls-8" d="M153.24,64.74a5.84,5.84,0,0,1-4.5-1.82,6.57,6.57,0,0,1-1.67-4.64v-.49a6.79,6.79,0,0,1,1.66-4.7,5.3,5.3,0,0,1,4.17-1.86A5.23,5.23,0,0,1,157,52.82a6.18,6.18,0,0,1,1.43,4.28v1.72h-8.28l0,.06a4,4,0,0,0,.92,2.53,3,3,0,0,0,2.36,1,6.11,6.11,0,0,0,3.72-1.12l1,1.92a6.32,6.32,0,0,1-2,1.1A8.4,8.4,0,0,1,153.24,64.74Zm-.34-11.17a2.26,2.26,0,0,0-1.82.86,4.2,4.2,0,0,0-.88,2.18l0,.07h5.26v-.31a3.08,3.08,0,0,0-.64-2A2.38,2.38,0,0,0,152.9,53.57Z"/><path class="cls-8" d="M167.46,54.1l-1.28-.05a2.71,2.71,0,0,0-1.45.36,2.38,2.38,0,0,0-.9,1v9h-3v-13h2.72l.2,1.88a4.17,4.17,0,0,1,1.29-1.56,3,3,0,0,1,1.82-.56,2.78,2.78,0,0,1,.51,0l.42.1Z"/><rect id="Place_for_Month" class="cls-9" x="19.81" y="30.3" width="48.4" height="37.44"/><path class="cls-6" d="M37,61.31H35.22V41.43l-5.6.64V40.82L37,39.52Z"/><path class="cls-6" d="M60,52.81a9.91,9.91,0,0,1-1.85,6.45A6.28,6.28,0,0,1,53,61.52a6.3,6.3,0,0,1-5.14-2.27A9.85,9.85,0,0,1,46,52.81V48a10,10,0,0,1,1.84-6.45A6.26,6.26,0,0,1,53,39.27a6.28,6.28,0,0,1,5.15,2.27A9.92,9.92,0,0,1,60,48Zm-1.82-5.13a8.43,8.43,0,0,0-1.33-5.11,5,5,0,0,0-7.71,0,8.5,8.5,0,0,0-1.32,5.11v5.39a8.49,8.49,0,0,0,1.34,5.11,5,5,0,0,0,7.7,0,8.57,8.57,0,0,0,1.32-5.12Z"/><rect class="cls-1" x="224.56" y="409.79" width="47.98" height="35.42"/><path class="cls-2" d="M232.22,420.54h-1v-5.18h-1.25v-.76l2.28-.22Z"/><path class="cls-2" d="M235.75,417h.72a1,1,0,0,0,.72-.25,1.07,1.07,0,0,0,.22-.7.84.84,0,0,0-.94-.93,1,1,0,0,0-.68.24.77.77,0,0,0-.26.62h-1v0a1.45,1.45,0,0,1,.52-1.19,2.08,2.08,0,0,1,1.41-.48,2.18,2.18,0,0,1,1.44.46,1.6,1.6,0,0,1,.53,1.3,1.39,1.39,0,0,1-.24.76,1.54,1.54,0,0,1-.68.57,1.43,1.43,0,0,1,.77.56,1.55,1.55,0,0,1,.25.87,1.65,1.65,0,0,1-.58,1.33,2.28,2.28,0,0,1-1.49.49,2.25,2.25,0,0,1-1.43-.46,1.43,1.43,0,0,1-.56-1.26v0h1a.87.87,0,0,0,.27.66,1,1,0,0,0,.73.25,1,1,0,0,0,.75-.26.91.91,0,0,0,.28-.72,1,1,0,0,0-.25-.77,1.06,1.06,0,0,0-.78-.25h-.72Z"/><rect class="cls-1" x="173.83" y="409.79" width="47.98" height="35.42"/><path class="cls-2" d="M181.49,420.54h-1v-5.18h-1.25v-.76l2.28-.22Z"/><path class="cls-2" d="M187.92,420.54h-4.09v-.71l2-2.18a4.25,4.25,0,0,0,.67-.89,1.31,1.31,0,0,0,.19-.67,1,1,0,0,0-.24-.69.81.81,0,0,0-.65-.28,1,1,0,0,0-.81.3,1.26,1.26,0,0,0-.26.84h-1v0a1.85,1.85,0,0,1,.54-1.38,2.07,2.07,0,0,1,1.53-.56,2,2,0,0,1,1.4.49,1.69,1.69,0,0,1,.52,1.29,1.85,1.85,0,0,1-.3,1,8.61,8.61,0,0,1-.92,1.18l-1.37,1.44v0h2.77Z"/><rect class="cls-1" x="123.09" y="409.79" width="47.98" height="35.42"/><path class="cls-2" d="M130.75,420.54h-1v-5.18h-1.26v-.76l2.28-.22Z"/><path class="cls-2" d="M135.67,420.54h-1v-5.18H133.4v-.76l2.27-.22Z"/><rect class="cls-1" x="72.35" y="409.79" width="47.98" height="35.42"/><path class="cls-2" d="M80,420.54H79v-5.18H77.74v-.76l2.28-.22Z"/><path class="cls-2" d="M86.38,418.17a2.74,2.74,0,0,1-.54,1.83,1.84,1.84,0,0,1-1.47.63,1.86,1.86,0,0,1-1.48-.63,2.74,2.74,0,0,1-.54-1.83v-1.41a2.69,2.69,0,0,1,.54-1.83,1.81,1.81,0,0,1,1.47-.64,1.85,1.85,0,0,1,1.48.64,2.74,2.74,0,0,1,.54,1.83Zm-1-1.57a2,2,0,0,0-.26-1.12.84.84,0,0,0-.74-.36.85.85,0,0,0-.74.36,2.06,2.06,0,0,0-.25,1.12v1.71a2,2,0,0,0,.26,1.13.85.85,0,0,0,.74.36.84.84,0,0,0,.74-.36,2.08,2.08,0,0,0,.25-1.13Z"/><rect class="cls-1" x="21.62" y="409.79" width="47.98" height="35.42"/><path class="cls-2" d="M30.89,419.8a1.07,1.07,0,0,0,.89-.41,1.75,1.75,0,0,0,.34-1.18v-.28a1.45,1.45,0,0,1-1.16.57,1.77,1.77,0,0,1-1.39-.56,2.42,2.42,0,0,1,.06-3.05,1.87,1.87,0,0,1,1.42-.6,2,2,0,0,1,1.52.63,2.6,2.6,0,0,1,.57,1.81v1.44a2.51,2.51,0,0,1-.62,1.81,2.18,2.18,0,0,1-1.63.65,3.69,3.69,0,0,1-.65-.07,2.36,2.36,0,0,1-.62-.19l.13-.79a2,2,0,0,0,.53.17A2.9,2.9,0,0,0,30.89,419.8Zm.17-2.1a1.3,1.3,0,0,0,.65-.15,1,1,0,0,0,.41-.4v-.55a1.88,1.88,0,0,0-.27-1.1.91.91,0,0,0-.79-.38.83.83,0,0,0-.69.37,1.47,1.47,0,0,0-.28.93,1.57,1.57,0,0,0,.26.93A.83.83,0,0,0,31.06,417.7Z"/><rect class="cls-1" x="224.56" y="371.89" width="47.98" height="35.41"/><path class="cls-2" d="M234.52,376.39a2.73,2.73,0,0,1,.64.07,2.14,2.14,0,0,1,.54.18l-.19.79a3.16,3.16,0,0,0-.46-.16,2.06,2.06,0,0,0-.52-.06,1.17,1.17,0,0,0-1,.48,2,2,0,0,0-.38,1.29v0a1.71,1.71,0,0,1,.59-.36,2,2,0,0,1,.74-.13,1.58,1.58,0,0,1,1.3.58,2.47,2.47,0,0,1-.07,3,1.84,1.84,0,0,1-1.44.6,2,2,0,0,1-1.54-.66,2.63,2.63,0,0,1-.6-1.84V379a2.69,2.69,0,0,1,.68-1.93A2.24,2.24,0,0,1,234.52,376.39Zm-.28,2.93a1.51,1.51,0,0,0-.67.14,1.05,1.05,0,0,0-.41.37v.44a2,2,0,0,0,.32,1.2,1,1,0,0,0,.8.43.81.81,0,0,0,.71-.39,1.65,1.65,0,0,0,.26-.94,1.36,1.36,0,0,0-.28-.9A.88.88,0,0,0,234.24,379.32Z"/><rect class="cls-1" x="173.83" y="371.89" width="47.98" height="35.41"/><path class="cls-2" d="M181.57,379.88l.36-3.4h3.25v.88h-2.4l-.18,1.55a1.69,1.69,0,0,1,.42-.23,2.17,2.17,0,0,1,.54-.09,1.67,1.67,0,0,1,1.35.55,2.22,2.22,0,0,1,.49,1.53,2.16,2.16,0,0,1-.51,1.48,1.92,1.92,0,0,1-1.5.57,2.15,2.15,0,0,1-1.37-.45,1.47,1.47,0,0,1-.54-1.26v0l1,0a.89.89,0,0,0,.94.95.86.86,0,0,0,.73-.34,1.43,1.43,0,0,0,.26-.89,1.53,1.53,0,0,0-.26-.91.86.86,0,0,0-.74-.34,1.18,1.18,0,0,0-.63.13.85.85,0,0,0-.29.4Z"/><rect class="cls-1" x="123.09" y="371.89" width="47.98" height="35.41"/><path class="cls-2" d="M134.11,380.44h.78v.82h-.78v1.37h-1v-1.37h-2.64l0-.63,2.64-4.15h1.05Zm-2.68,0h1.66v-2.5h0l-.08.18Z"/><rect class="cls-1" x="72.35" y="371.89" width="47.98" height="35.41"/><path class="cls-2" d="M81.1,379.09h.71a.91.91,0,0,0,.72-.25,1,1,0,0,0,.22-.7,1,1,0,0,0-.24-.69.92.92,0,0,0-.69-.24,1,1,0,0,0-.69.24.83.83,0,0,0-.26.63h-1v0a1.41,1.41,0,0,1,.53-1.18,2.05,2.05,0,0,1,1.4-.48,2.18,2.18,0,0,1,1.44.45,1.62,1.62,0,0,1,.54,1.3,1.36,1.36,0,0,1-.24.76,1.56,1.56,0,0,1-.69.57,1.45,1.45,0,0,1,1,1.44,1.64,1.64,0,0,1-.58,1.33,2.53,2.53,0,0,1-2.92,0,1.44,1.44,0,0,1-.56-1.26v0h1a.84.84,0,0,0,.27.66,1.06,1.06,0,0,0,.74.26,1.09,1.09,0,0,0,.75-.26,1,1,0,0,0,.27-.73,1,1,0,0,0-.25-.77,1.1,1.1,0,0,0-.78-.24H81.1Z"/><rect class="cls-1" x="21.62" y="371.89" width="47.98" height="35.41"/><path class="cls-2" d="M33.26,382.63H29.18v-.71l2-2.18a5.13,5.13,0,0,0,.68-.88,1.47,1.47,0,0,0,.18-.68,1,1,0,0,0-.24-.69.84.84,0,0,0-.65-.28,1,1,0,0,0-.8.31,1.2,1.2,0,0,0-.26.83h-1v0a1.82,1.82,0,0,1,.54-1.38,2,2,0,0,1,1.53-.56,2,2,0,0,1,1.41.49,1.68,1.68,0,0,1,.51,1.28,1.88,1.88,0,0,1-.3,1,8.43,8.43,0,0,1-.92,1.17l-1.37,1.44v0h2.77Z"/><rect class="cls-5" x="224.56" y="356.24" width="47.98" height="12.6"/><path class="cls-6" d="M242,362.9h-2.32v2.26h-.88v-5.29h3.57v.71h-2.69v1.62H242Z"/><path class="cls-6" d="M244.84,362h-.38a.77.77,0,0,0-.42.11.63.63,0,0,0-.27.31v2.73h-.89v-3.93h.81l.06.57a1.2,1.2,0,0,1,.38-.47.88.88,0,0,1,.54-.18l.15,0,.13,0Z"/><path class="cls-6" d="M246.4,360.26h-.88v-.77h.88Zm0,4.9h-.88v-3.93h.88Z"/><path class="cls-6" d="M247.23,363.25a2.58,2.58,0,0,1,.4-1.52,1.32,1.32,0,0,1,1.13-.58,1.34,1.34,0,0,1,.58.13,1.37,1.37,0,0,1,.43.37v-2.16h.89v5.67h-.74l-.09-.49a1.22,1.22,0,0,1-.46.42,1.2,1.2,0,0,1-.61.15,1.35,1.35,0,0,1-1.13-.53,2.21,2.21,0,0,1-.4-1.39Zm.88.07a1.55,1.55,0,0,0,.21.87.73.73,0,0,0,.66.33.9.9,0,0,0,.48-.12.93.93,0,0,0,.31-.34v-1.72a.93.93,0,0,0-.31-.34.89.89,0,0,0-.47-.12.73.73,0,0,0-.67.38,2,2,0,0,0-.21,1Z"/><path class="cls-6" d="M254,365.16c0-.1-.06-.2-.08-.29s0-.19,0-.28a1.63,1.63,0,0,1-.48.46,1.22,1.22,0,0,1-.66.19,1.3,1.3,0,0,1-.94-.32,1.15,1.15,0,0,1-.33-.87,1,1,0,0,1,.45-.89,2.19,2.19,0,0,1,1.27-.31h.69v-.35a.62.62,0,0,0-.19-.48.83.83,0,0,0-1,0,.45.45,0,0,0-.18.37h-.86v0a1,1,0,0,1,.42-.82,1.76,1.76,0,0,1,1.15-.37,1.71,1.71,0,0,1,1.11.35,1.25,1.25,0,0,1,.42,1v1.75a3.44,3.44,0,0,0,0,.46,3.15,3.15,0,0,0,.11.44Zm-1.08-.63a1.13,1.13,0,0,0,.6-.17.86.86,0,0,0,.36-.38v-.58h-.71a.88.88,0,0,0-.6.19.61.61,0,0,0-.22.45.46.46,0,0,0,.15.36A.66.66,0,0,0,252.89,364.53Z"/><path class="cls-6" d="M256.9,363.58l.09.39h0l.86-2.74h1l-1.63,4.53a2,2,0,0,1-.44.7,1.09,1.09,0,0,1-.8.29.91.91,0,0,1-.23,0l-.25,0,.1-.69h.27a.49.49,0,0,0,.38-.16,1.6,1.6,0,0,0,.23-.38l.15-.36-1.43-3.88h1Z"/><rect class="cls-5" x="173.83" y="356.24" width="47.98" height="12.6"/><path class="cls-6" d="M186.43,360.58h-1.6v4.58H184v-4.58h-1.6v-.71h4.08Z"/><path class="cls-6" d="M187.88,361.74a1.31,1.31,0,0,1,.48-.43,1.3,1.3,0,0,1,.62-.16,1.23,1.23,0,0,1,1,.4,1.8,1.8,0,0,1,.35,1.21v2.4h-.89v-2.4a1,1,0,0,0-.18-.68.74.74,0,0,0-.55-.2.91.91,0,0,0-.47.11,1,1,0,0,0-.34.29v2.88H187v-5.67h.88Z"/><path class="cls-6" d="M193.67,364.59a1.41,1.41,0,0,1-.46.48,1.3,1.3,0,0,1-.66.17,1.26,1.26,0,0,1-1-.41,1.88,1.88,0,0,1-.35-1.25v-2.35h.88v2.36a1.2,1.2,0,0,0,.16.72.61.61,0,0,0,.51.21,1.07,1.07,0,0,0,.53-.12.77.77,0,0,0,.34-.33v-2.84h.89v3.93h-.77Z"/><path class="cls-6" d="M197.4,362H197a.81.81,0,0,0-.43.11.75.75,0,0,0-.27.31v2.73h-.88v-3.93h.81l.05.57a1.22,1.22,0,0,1,.39-.47.86.86,0,0,1,.54-.18l.15,0,.12,0Z"/><path class="cls-6" d="M200.23,364.09a.41.41,0,0,0-.18-.34,1.92,1.92,0,0,0-.65-.23,2.57,2.57,0,0,1-1.06-.43.88.88,0,0,1-.36-.74,1.1,1.1,0,0,1,.41-.85,1.69,1.69,0,0,1,1.1-.35,1.7,1.7,0,0,1,1.15.36,1.06,1.06,0,0,1,.4.88v0h-.85A.59.59,0,0,0,200,362a.73.73,0,0,0-.51-.18.69.69,0,0,0-.48.15.46.46,0,0,0-.17.35.38.38,0,0,0,.16.33,1.81,1.81,0,0,0,.64.22,2.65,2.65,0,0,1,1.1.43.89.89,0,0,1,.36.76,1,1,0,0,1-.44.86,1.88,1.88,0,0,1-1.16.33,1.78,1.78,0,0,1-1.21-.39,1.16,1.16,0,0,1-.42-.91v0h.82a.58.58,0,0,0,.25.5,1,1,0,0,0,.57.16,1,1,0,0,0,.52-.13A.41.41,0,0,0,200.23,364.09Z"/><path class="cls-6" d="M201.72,363.25a2.58,2.58,0,0,1,.41-1.52,1.31,1.31,0,0,1,1.13-.58,1.34,1.34,0,0,1,.58.13,1.37,1.37,0,0,1,.43.37v-2.16h.89v5.67h-.74l-.09-.49a1.22,1.22,0,0,1-.46.42,1.2,1.2,0,0,1-.61.15,1.34,1.34,0,0,1-1.13-.53,2.21,2.21,0,0,1-.41-1.39Zm.89.07a1.55,1.55,0,0,0,.21.87.73.73,0,0,0,.66.33.9.9,0,0,0,.48-.12.93.93,0,0,0,.31-.34v-1.72A.93.93,0,0,0,204,362a.89.89,0,0,0-.47-.12.73.73,0,0,0-.67.38,2,2,0,0,0-.21,1Z"/><path class="cls-6" d="M208.47,365.16c0-.1-.06-.2-.08-.29s0-.19,0-.28a1.63,1.63,0,0,1-.48.46,1.24,1.24,0,0,1-.66.19,1.3,1.3,0,0,1-.94-.32,1.15,1.15,0,0,1-.33-.87,1,1,0,0,1,.45-.89,2.19,2.19,0,0,1,1.27-.31h.69v-.35a.62.62,0,0,0-.19-.48.7.7,0,0,0-.52-.18.73.73,0,0,0-.48.15.44.44,0,0,0-.17.37h-.86v0a.94.94,0,0,1,.42-.82,1.76,1.76,0,0,1,1.15-.37,1.71,1.71,0,0,1,1.11.35,1.25,1.25,0,0,1,.42,1v1.75a3.44,3.44,0,0,0,0,.46,2.18,2.18,0,0,0,.11.44Zm-1.08-.63a1.13,1.13,0,0,0,.6-.17.86.86,0,0,0,.36-.38v-.58h-.71a.86.86,0,0,0-.6.19.58.58,0,0,0-.22.45.46.46,0,0,0,.15.36A.66.66,0,0,0,207.39,364.53Z"/><path class="cls-6" d="M211.4,363.58l.09.39h0l.86-2.74h1l-1.63,4.53a2,2,0,0,1-.44.7,1.09,1.09,0,0,1-.8.29l-.24,0-.24,0,.1-.69h.26a.5.5,0,0,0,.39-.16,1.6,1.6,0,0,0,.23-.38l.15-.36-1.43-3.88h1Z"/><rect class="cls-5" x="123.09" y="356.24" width="47.98" height="12.6"/><path class="cls-6" d="M129.63,363.75h0v0l1.06-3.87h.71l1.07,3.88v0l.84-3.87h.87l-1.26,5.29h-.8l-1.06-3.8h0l-1.06,3.8h-.81l-1.26-5.29h.88Z"/><path class="cls-6" d="M136.39,365.24a1.7,1.7,0,0,1-1.33-.55,2,2,0,0,1-.5-1.41v-.14a2.06,2.06,0,0,1,.49-1.42,1.56,1.56,0,0,1,1.23-.57,1.51,1.51,0,0,1,1.22.49,1.85,1.85,0,0,1,.43,1.29v.52h-2.46v0a1.19,1.19,0,0,0,.27.76.87.87,0,0,0,.7.3,1.82,1.82,0,0,0,.61-.09,2.06,2.06,0,0,0,.49-.25l.29.58a1.94,1.94,0,0,1-.59.33A2.48,2.48,0,0,1,136.39,365.24Zm-.11-3.38a.67.67,0,0,0-.53.26,1.31,1.31,0,0,0-.27.66v0h1.56v-.09a.93.93,0,0,0-.19-.61A.7.7,0,0,0,136.28,361.86Z"/><path class="cls-6" d="M138.48,363.25a2.58,2.58,0,0,1,.4-1.52,1.32,1.32,0,0,1,1.13-.58,1.34,1.34,0,0,1,.58.13,1.4,1.4,0,0,1,.44.37v-2.16h.88v5.67h-.74l-.09-.49a1.23,1.23,0,0,1-1.08.57,1.34,1.34,0,0,1-1.12-.53,2.21,2.21,0,0,1-.4-1.39Zm.88.07a1.55,1.55,0,0,0,.21.87.73.73,0,0,0,.66.33.9.9,0,0,0,.48-.12,1.16,1.16,0,0,0,.32-.34v-1.72a1.07,1.07,0,0,0-.33-.34.85.85,0,0,0-.46-.12.71.71,0,0,0-.66.38,1.91,1.91,0,0,0-.22,1Z"/><path class="cls-6" d="M143.66,361.23l0,.57a1.6,1.6,0,0,1,.49-.48,1.32,1.32,0,0,1,.66-.17,1.24,1.24,0,0,1,1,.38,1.66,1.66,0,0,1,.34,1.16v2.47h-.88V362.7a.88.88,0,0,0-.18-.63.75.75,0,0,0-.56-.19,1,1,0,0,0-.46.11,1,1,0,0,0-.34.32v2.85h-.88v-3.93Z"/><path class="cls-6" d="M148.76,365.24a1.76,1.76,0,0,1-1.34-.55,2,2,0,0,1-.49-1.41v-.14a2.06,2.06,0,0,1,.49-1.42,1.57,1.57,0,0,1,1.24-.57,1.53,1.53,0,0,1,1.22.49,1.89,1.89,0,0,1,.42,1.29v.52h-2.46v0a1.25,1.25,0,0,0,.27.76.87.87,0,0,0,.7.3,1.78,1.78,0,0,0,.61-.09,2.13,2.13,0,0,0,.5-.25l.28.58a1.94,1.94,0,0,1-.59.33A2.48,2.48,0,0,1,148.76,365.24Zm-.1-3.38a.67.67,0,0,0-.54.26,1.3,1.3,0,0,0-.26.66v0h1.56v-.09a.93.93,0,0,0-.19-.61A.68.68,0,0,0,148.66,361.86Z"/><path class="cls-6" d="M153.22,364.09a.42.42,0,0,0-.17-.34,2,2,0,0,0-.65-.23,2.62,2.62,0,0,1-1.07-.43.88.88,0,0,1-.36-.74,1.08,1.08,0,0,1,.42-.85,1.67,1.67,0,0,1,1.1-.35,1.69,1.69,0,0,1,1.14.36,1.07,1.07,0,0,1,.41.88v0h-.85A.58.58,0,0,0,153,362a.77.77,0,0,0-.51-.18.7.7,0,0,0-.49.15.46.46,0,0,0-.17.35.41.41,0,0,0,.16.33,1.81,1.81,0,0,0,.64.22,2.59,2.59,0,0,1,1.1.43.89.89,0,0,1,.36.76,1,1,0,0,1-.44.86,1.85,1.85,0,0,1-1.15.33,1.76,1.76,0,0,1-1.21-.39,1.1,1.1,0,0,1-.42-.91v0h.82a.6.6,0,0,0,.25.5,1.06,1.06,0,0,0,.57.16,1,1,0,0,0,.52-.13A.41.41,0,0,0,153.22,364.09Z"/><path class="cls-6" d="M154.72,363.25a2.58,2.58,0,0,1,.4-1.52,1.38,1.38,0,0,1,1.71-.45,1.4,1.4,0,0,1,.44.37v-2.16h.88v5.67h-.74l-.09-.49a1.2,1.2,0,0,1-.45.42,1.26,1.26,0,0,1-.62.15,1.35,1.35,0,0,1-1.13-.53,2.21,2.21,0,0,1-.4-1.39Zm.88.07a1.55,1.55,0,0,0,.21.87.73.73,0,0,0,.66.33.9.9,0,0,0,.48-.12,1,1,0,0,0,.32-.34v-1.72A1,1,0,0,0,157,362a.89.89,0,0,0-.47-.12.71.71,0,0,0-.66.38,1.91,1.91,0,0,0-.22,1Z"/><path class="cls-6" d="M161.47,365.16a1.82,1.82,0,0,1-.08-.29,1,1,0,0,1,0-.28,1.76,1.76,0,0,1-.48.46,1.28,1.28,0,0,1-.67.19,1.3,1.3,0,0,1-.94-.32,1.15,1.15,0,0,1-.33-.87,1,1,0,0,1,.45-.89,2.21,2.21,0,0,1,1.27-.31h.69v-.35a.62.62,0,0,0-.18-.48.84.84,0,0,0-1,0,.45.45,0,0,0-.18.37h-.85v0a1,1,0,0,1,.42-.82,1.78,1.78,0,0,1,1.15-.37,1.7,1.7,0,0,1,1.11.35,1.25,1.25,0,0,1,.42,1v1.75a3.44,3.44,0,0,0,0,.46,3.15,3.15,0,0,0,.11.44Zm-1.09-.63a1.11,1.11,0,0,0,.6-.17.86.86,0,0,0,.36-.38v-.58h-.7a.89.89,0,0,0-.61.19.61.61,0,0,0-.22.45.5.5,0,0,0,.15.36A.66.66,0,0,0,160.38,364.53Z"/><path class="cls-6" d="M164.4,363.58l.08.39h0l.86-2.74h1l-1.63,4.53a2,2,0,0,1-.44.7,1.07,1.07,0,0,1-.8.29l-.24,0-.24,0,.1-.69h.27a.48.48,0,0,0,.38-.16,1.63,1.63,0,0,0,.24-.38l.14-.36-1.43-3.88h1Z"/><rect class="cls-5" x="72.35" y="356.24" width="47.98" height="12.6"/><path class="cls-6" d="M86.52,360.58h-1.6v4.58H84v-4.58h-1.6v-.71h4.08Z"/><path class="cls-6" d="M89.29,364.59a1.35,1.35,0,0,1-.47.48,1.29,1.29,0,0,1-.65.17,1.26,1.26,0,0,1-1-.41,1.83,1.83,0,0,1-.36-1.25v-2.35h.88v2.36a1.19,1.19,0,0,0,.17.72.6.6,0,0,0,.5.21,1.11,1.11,0,0,0,.54-.12.83.83,0,0,0,.34-.33v-2.84h.88v3.93h-.77Z"/><path class="cls-6" d="M92.74,365.24a1.73,1.73,0,0,1-1.33-.55,2,2,0,0,1-.5-1.41v-.14a2.07,2.07,0,0,1,.5-1.42,1.56,1.56,0,0,1,1.23-.57,1.51,1.51,0,0,1,1.22.49,1.89,1.89,0,0,1,.43,1.29v.52H91.83v0a1.25,1.25,0,0,0,.28.76.87.87,0,0,0,.7.3,1.87,1.87,0,0,0,.61-.09,2.06,2.06,0,0,0,.49-.25l.28.58a1.72,1.72,0,0,1-.59.33A2.4,2.4,0,0,1,92.74,365.24Zm-.1-3.38a.67.67,0,0,0-.54.26,1.39,1.39,0,0,0-.26.66v0h1.56v-.09a.93.93,0,0,0-.19-.61A.7.7,0,0,0,92.64,361.86Z"/><path class="cls-6" d="M97.21,364.09a.41.41,0,0,0-.18-.34,1.92,1.92,0,0,0-.65-.23,2.62,2.62,0,0,1-1.07-.43.88.88,0,0,1-.36-.74,1.08,1.08,0,0,1,.42-.85,1.69,1.69,0,0,1,1.1-.35,1.74,1.74,0,0,1,1.15.36,1.06,1.06,0,0,1,.4.88v0h-.84A.55.55,0,0,0,97,362a.75.75,0,0,0-.51-.18A.74.74,0,0,0,96,362a.44.44,0,0,0-.16.35.38.38,0,0,0,.16.33,1.81,1.81,0,0,0,.64.22,2.65,2.65,0,0,1,1.1.43.91.91,0,0,1,.35.76,1,1,0,0,1-.43.86,1.88,1.88,0,0,1-1.16.33,1.78,1.78,0,0,1-1.21-.39,1.16,1.16,0,0,1-.42-.91v0h.82a.59.59,0,0,0,.24.5,1.06,1.06,0,0,0,.57.16,1,1,0,0,0,.53-.13A.44.44,0,0,0,97.21,364.09Z"/><path class="cls-6" d="M98.7,363.25a2.58,2.58,0,0,1,.41-1.52,1.31,1.31,0,0,1,1.13-.58,1.2,1.2,0,0,1,1,.5v-2.16h.89v5.67h-.75l-.08-.49a1.27,1.27,0,0,1-1.08.57,1.32,1.32,0,0,1-1.12-.53,2.21,2.21,0,0,1-.41-1.39Zm.89.07a1.55,1.55,0,0,0,.21.87.71.71,0,0,0,.66.33.9.9,0,0,0,.48-.12,1,1,0,0,0,.31-.34v-1.72a1,1,0,0,0-.32-.34.85.85,0,0,0-.46-.12.71.71,0,0,0-.67.38,2,2,0,0,0-.21,1Z"/><path class="cls-6" d="M105.45,365.16c0-.1-.06-.2-.08-.29s0-.19,0-.28a1.63,1.63,0,0,1-.48.46,1.24,1.24,0,0,1-.66.19,1.35,1.35,0,0,1-1-.32,1.18,1.18,0,0,1-.32-.87,1,1,0,0,1,.45-.89,2.19,2.19,0,0,1,1.27-.31h.68v-.35a.62.62,0,0,0-.18-.48.7.7,0,0,0-.52-.18.73.73,0,0,0-.48.15.45.45,0,0,0-.18.37h-.85v0a1,1,0,0,1,.41-.82,1.78,1.78,0,0,1,1.15-.37,1.7,1.7,0,0,1,1.11.35,1.23,1.23,0,0,1,.43,1v1.75a3.44,3.44,0,0,0,0,.46,2.16,2.16,0,0,0,.1.44Zm-1.08-.63a1.13,1.13,0,0,0,.6-.17.83.83,0,0,0,.35-.38v-.58h-.7a.86.86,0,0,0-.6.19.58.58,0,0,0-.22.45.46.46,0,0,0,.15.36A.62.62,0,0,0,104.37,364.53Z"/><path class="cls-6" d="M108.38,363.58l.09.39h0l.86-2.74h1l-1.63,4.53a2.19,2.19,0,0,1-.44.7,1.09,1.09,0,0,1-.8.29l-.24,0-.24,0,.1-.69h.26a.5.5,0,0,0,.39-.16,1.6,1.6,0,0,0,.23-.38l.15-.36-1.43-3.88h1Z"/><rect class="cls-5" x="21.62" y="356.24" width="47.98" height="12.6"/><path class="cls-6" d="M33.88,359.87l1.52,4.07h0L37,359.87h1.14v5.29h-.88v-1.8l.09-2.3h0l-1.57,4.1h-.59l-1.56-4.09h0l.09,2.28v1.8h-.88v-5.29Z"/><path class="cls-6" d="M39,363.16a2.12,2.12,0,0,1,.48-1.44,1.66,1.66,0,0,1,1.32-.57,1.64,1.64,0,0,1,1.33.57,2.12,2.12,0,0,1,.48,1.44v.07a2.15,2.15,0,0,1-.48,1.45,1.66,1.66,0,0,1-1.32.56,1.68,1.68,0,0,1-1.33-.56,2.17,2.17,0,0,1-.48-1.45Zm.89.07a1.77,1.77,0,0,0,.22.94.85.85,0,0,0,1.39,0,1.77,1.77,0,0,0,.23-.94v-.08a1.72,1.72,0,0,0-.23-.92.84.84,0,0,0-1.39,0,1.74,1.74,0,0,0-.22.92Z"/><path class="cls-6" d="M44.15,361.23l.05.57a1.49,1.49,0,0,1,.49-.48,1.3,1.3,0,0,1,.66-.17,1.24,1.24,0,0,1,1,.38,1.71,1.71,0,0,1,.34,1.16v2.47h-.88V362.7a.88.88,0,0,0-.18-.63.75.75,0,0,0-.56-.19,1,1,0,0,0-.47.11,1,1,0,0,0-.33.32v2.85h-.88v-3.93Z"/><path class="cls-6" d="M47.41,363.25a2.58,2.58,0,0,1,.4-1.52,1.32,1.32,0,0,1,1.13-.58,1.34,1.34,0,0,1,.58.13,1.4,1.4,0,0,1,.44.37v-2.16h.88v5.67H50.1l-.09-.49a1.23,1.23,0,0,1-1.08.57,1.34,1.34,0,0,1-1.12-.53,2.21,2.21,0,0,1-.4-1.39Zm.88.07a1.55,1.55,0,0,0,.21.87.73.73,0,0,0,.66.33.9.9,0,0,0,.48-.12,1.16,1.16,0,0,0,.32-.34v-1.72a1.07,1.07,0,0,0-.33-.34.85.85,0,0,0-.46-.12.71.71,0,0,0-.66.38,1.91,1.91,0,0,0-.22,1Z"/><path class="cls-6" d="M54.15,365.16c0-.1,0-.2-.07-.29a1.51,1.51,0,0,1,0-.28,1.72,1.72,0,0,1-.47.46,1.28,1.28,0,0,1-.67.19,1.3,1.3,0,0,1-.94-.32,1.15,1.15,0,0,1-.33-.87,1,1,0,0,1,.45-.89,2.19,2.19,0,0,1,1.27-.31H54v-.35a.62.62,0,0,0-.18-.48.7.7,0,0,0-.52-.18.73.73,0,0,0-.48.15.47.47,0,0,0-.18.37h-.84v0a1,1,0,0,1,.42-.82,1.76,1.76,0,0,1,1.15-.37,1.71,1.71,0,0,1,1.11.35,1.25,1.25,0,0,1,.42,1v1.75a3.44,3.44,0,0,0,0,.46,3.13,3.13,0,0,0,.1.44Zm-1.08-.63a1.13,1.13,0,0,0,.6-.17A.83.83,0,0,0,54,364v-.58h-.7a.88.88,0,0,0-.6.19.58.58,0,0,0-.22.45.46.46,0,0,0,.15.36A.66.66,0,0,0,53.07,364.53Z"/><path class="cls-6" d="M57.08,363.58l.09.39h0l.86-2.74h1l-1.63,4.53a2,2,0,0,1-.44.7,1.09,1.09,0,0,1-.8.29l-.24,0-.24,0,.1-.69H56a.48.48,0,0,0,.39-.16,1.6,1.6,0,0,0,.23-.38l.15-.36-1.43-3.88h1Z"/><path class="cls-8" d="M96.44,342.31h-3l-8-13.09-.07,0v13.07h-3V324.37h3l7.95,13.09.08,0V324.37h3Z"/><path class="cls-8" d="M99.43,335.52a7.29,7.29,0,0,1,1.62-4.88,6.24,6.24,0,0,1,9,0,7.22,7.22,0,0,1,1.64,4.88v.26a7.24,7.24,0,0,1-1.64,4.9,5.57,5.57,0,0,1-4.47,1.89,5.66,5.66,0,0,1-4.5-1.9,7.29,7.29,0,0,1-1.62-4.89Zm3,.25a5.94,5.94,0,0,0,.77,3.18,2.57,2.57,0,0,0,2.36,1.22,2.6,2.6,0,0,0,2.34-1.22,5.77,5.77,0,0,0,.79-3.18v-.25a5.67,5.67,0,0,0-.79-3.14,2.6,2.6,0,0,0-2.36-1.24,2.55,2.55,0,0,0-2.34,1.24,5.89,5.89,0,0,0-.77,3.14Z"/><path class="cls-8" d="M118.7,337.8l.23,1.08H119l.23-1.08,2.65-8.82H125l-4.73,13.33h-2.59L112.89,329H116Z"/><path class="cls-8" d="M132.4,342.57a5.81,5.81,0,0,1-4.52-1.86A6.8,6.8,0,0,1,126.2,336v-.49a7.07,7.07,0,0,1,1.67-4.82,5.79,5.79,0,0,1,8.32-.27,6.41,6.41,0,0,1,1.43,4.37v1.77h-8.31l0,.06a4.19,4.19,0,0,0,.93,2.59,3,3,0,0,0,2.37,1,6.29,6.29,0,0,0,2.07-.3,6.93,6.93,0,0,0,1.67-.85l1,2a6.21,6.21,0,0,1-2,1.13A8.45,8.45,0,0,1,132.4,342.57Zm-.35-11.43a2.23,2.23,0,0,0-1.82.88,4.34,4.34,0,0,0-.88,2.23l0,.07h5.28V334a3.13,3.13,0,0,0-.65-2.07A2.32,2.32,0,0,0,132.05,331.14Z"/><path class="cls-8" d="M142.77,329l.16,1.74a4.62,4.62,0,0,1,1.64-1.47,4.88,4.88,0,0,1,2.28-.51,4.07,4.07,0,0,1,2.24.59,3.54,3.54,0,0,1,1.4,1.77,4.71,4.71,0,0,1,1.63-1.74,4.35,4.35,0,0,1,2.36-.62,3.91,3.91,0,0,1,3.17,1.37,6.29,6.29,0,0,1,1.17,4.17v8h-3v-8.05a3.72,3.72,0,0,0-.58-2.38,2.16,2.16,0,0,0-1.75-.69,2.6,2.6,0,0,0-1.63.51,2.94,2.94,0,0,0-1,1.4c0,.12,0,.22,0,.32a2.18,2.18,0,0,1,0,.25v8.64h-3v-8.05a3.66,3.66,0,0,0-.6-2.35,2.14,2.14,0,0,0-1.75-.72,3.12,3.12,0,0,0-1.55.35,2.57,2.57,0,0,0-1,1v9.78h-3V329Z"/><path class="cls-8" d="M173.67,336.09a7.54,7.54,0,0,1-1.36,4.7,4.58,4.58,0,0,1-3.84,1.78,4.37,4.37,0,0,1-2.16-.51,4.24,4.24,0,0,1-1.53-1.48l-.3,1.73H162V323.09h3v7.41a4,4,0,0,1,3.49-1.76,4.42,4.42,0,0,1,3.86,1.94,8.79,8.79,0,0,1,1.36,5.15Zm-3-.26a6.81,6.81,0,0,0-.72-3.36,2.39,2.39,0,0,0-2.26-1.28,2.93,2.93,0,0,0-1.67.44,3.14,3.14,0,0,0-1.07,1.23v5.59a3,3,0,0,0,1.06,1.24,3.09,3.09,0,0,0,1.7.44A2.48,2.48,0,0,0,170,339a5.48,5.48,0,0,0,.7-3Z"/><path class="cls-8" d="M182,342.57a5.77,5.77,0,0,1-4.51-1.86,6.8,6.8,0,0,1-1.68-4.76v-.49a7.06,7.06,0,0,1,1.66-4.82,5.28,5.28,0,0,1,4.19-1.9,5.21,5.21,0,0,1,4.13,1.63,6.41,6.41,0,0,1,1.43,4.37v1.77h-8.31l0,.06a4.26,4.26,0,0,0,.94,2.59,2.91,2.91,0,0,0,2.36,1,6.39,6.39,0,0,0,2.08-.3,7.05,7.05,0,0,0,1.66-.85l1,2a6.21,6.21,0,0,1-2,1.13A8.45,8.45,0,0,1,182,342.57Zm-.34-11.43a2.25,2.25,0,0,0-1.83.88,4.34,4.34,0,0,0-.88,2.23l0,.07h5.29V334a3.18,3.18,0,0,0-.65-2.07A2.34,2.34,0,0,0,181.63,331.14Z"/><path class="cls-8" d="M196.25,331.68l-1.28-.05a2.64,2.64,0,0,0-1.46.37,2.4,2.4,0,0,0-.91,1.05v9.26h-3V329h2.73l.2,1.93a4.34,4.34,0,0,1,1.3-1.6,3.06,3.06,0,0,1,1.83-.57,2.6,2.6,0,0,1,.5,0l.43.1Z"/><rect id="Place_for_Month-2" data-name="Place_for_Month" class="cls-9" x="21.62" y="307.31" width="48.58" height="38.33"/><path class="cls-6" d="M39.37,339.06H37.54V318.71l-5.62.66v-1.28l7.45-1.34Z"/><path class="cls-6" d="M56.63,339.06H54.8V318.71l-5.62.66v-1.28l7.45-1.34Z"/><path class="cls-9" d="M100.93,222.69l-.35-1.47c-.55.16-1.18.32-1.88.48l-.25.8a.55.55,0,0,1-.44.42.16.16,0,0,1-.16-.1.31.31,0,0,1,0-.25q.22-.58,1.63-5.16c.06-.16.15-.23.29-.22a.44.44,0,0,1,.41.31q.28,1,1.27,5a.33.33,0,0,1-.19.4C101.08,223,101,222.9,100.93,222.69Zm-1.16-4.5c0,.13-.32,1.1-.88,2.93l1.55-.41C100.12,219.45,99.89,218.61,99.77,218.19Z"/><path class="cls-9" d="M104.65,219.52l-1.05.2c0,.2,0,.47,0,.8a15.72,15.72,0,0,0,0,1.63c0,.21.12.3.32.26a3,3,0,0,0,.78-.25.26.26,0,0,1,.26,0c.07,0,.1.12.08.24a.47.47,0,0,1-.28.35,2.5,2.5,0,0,1-1.11.25c-.38,0-.59-.25-.64-.76s0-1,0-1.82v-.27c0-.12,0-.21,0-.28l-.53.1a1.47,1.47,0,0,1-.5,0c-.08,0-.11-.11-.09-.26a.29.29,0,0,1,.28-.3,3.85,3.85,0,0,0,.46-.05l.38-.05c0-.43,0-.82,0-1.19,0-.09,0-.25-.08-.49a.6.6,0,0,1,0-.39.16.16,0,0,1,.18-.07c.28,0,.43.25.46.61,0,0,0,.2,0,.57s0,.65,0,.86c.51-.09.88-.16,1.1-.22s.28,0,.28.17A.49.49,0,0,1,104.65,219.52Z"/><path class="cls-9" d="M105.71,221.52a3.9,3.9,0,0,1,0-1.14,2,2,0,0,1,.41-.93A1.13,1.13,0,0,1,107,219a1.4,1.4,0,0,1,.66.09,1.21,1.21,0,0,1,.43.32,1.49,1.49,0,0,1,.24.49,2.65,2.65,0,0,1,.13.47c0,.12,0,.26,0,.41a2.7,2.7,0,0,1-.29,1.4,1.28,1.28,0,0,1-1,.74,1.13,1.13,0,0,1-1-.35A1.74,1.74,0,0,1,105.71,221.52Zm2.2-.69a2.33,2.33,0,0,0-.25-1,.56.56,0,0,0-.6-.29c-.61.06-.87.67-.78,1.82a1.24,1.24,0,0,0,.24.76.63.63,0,0,0,.6.2.81.81,0,0,0,.63-.53A2.24,2.24,0,0,0,107.91,220.83Z"/><path class="cls-9" d="M112.11,217.08q.33,0,.39.24a.85.85,0,0,1-.14.6l-2.21,4.26,1.15-.13,1.12-.13a.28.28,0,0,1,.21.05.18.18,0,0,1,.06.18.37.37,0,0,1-.33.33c-.18,0-.58.08-1.19.15s-1.06.1-1.33.11a.43.43,0,0,1-.37-.17.34.34,0,0,1,0-.4q.06-.13.66-1.26l1.09-2.07c.33-.64.52-1,.59-1.17-.84.08-1.49.16-2,.24a.4.4,0,0,1-.33,0,.32.32,0,0,1-.17-.21q-.06-.21.21-.27A23.5,23.5,0,0,1,112.11,217.08Z"/><path class="cls-9" d="M96.44,228.78c0,.5,0,1.23,0,2.18s0,1.68,0,2.19a1.15,1.15,0,0,1-.12.57c-.09.15-.17.22-.26.22s-.19-.12-.19-.35c0-1.9,0-3.36,0-4.37a2.28,2.28,0,0,1-.39.45.41.41,0,0,1-.22.08.34.34,0,0,1-.26-.05c-.12-.09-.09-.24.08-.43l.67-.78a.57.57,0,0,1,.37-.21.31.31,0,0,1,.27.13A.7.7,0,0,1,96.44,228.78Z"/><path class="cls-9" d="M102,229.42c-1.19.2-2.11.4-2.76.57l-.39.1-.3,0c-.12,0-.2,0-.24,0s-.07-.09-.07-.18.15-.33.43-.39c1.5-.35,2.65-.58,3.45-.7.13,0,.22,0,.25.1a.32.32,0,0,1-.07.3A.45.45,0,0,1,102,229.42Zm1.58,5.17V234c0-.32,0-.58,0-.78-1.79.36-3.24.7-4.34,1a1.15,1.15,0,0,1-.57.07c-.14,0-.2-.13-.2-.3s.14-.18.43-.26l1.52-.36a5.37,5.37,0,0,0-.08-1,.79.79,0,0,1-.9-.64,1.12,1.12,0,0,1,.57-1.45.86.86,0,0,1,.35-.09,1.22,1.22,0,0,1,1.24.66.88.88,0,0,1,0,.76,1.11,1.11,0,0,1-.62.6,7.27,7.27,0,0,1,.06,1l2.52-.56c0-2.4,0-3.91,0-4.52a2.2,2.2,0,0,0-.17-.69c0-.16,0-.27.05-.35a.4.4,0,0,1,.4,0c.26.12.39.47.39,1.07v6a1.23,1.23,0,0,1-.15.67c-.1.16-.2.22-.3.17S103.61,234.78,103.61,234.59ZM101,228.07c.19.13.23.25.12.37a.34.34,0,0,1-.37.12,2.6,2.6,0,0,1-1-.68c-.18-.17-.2-.32,0-.47s.13-.09.27-.08a.55.55,0,0,1,.37.2A3.06,3.06,0,0,0,101,228.07Zm.15,3a.62.62,0,0,0-.54-.34.45.45,0,0,0-.49.2.79.79,0,0,0-.08.67.36.36,0,0,0,.18.24.46.46,0,0,0,.37.05.83.83,0,0,0,.53-.32A.49.49,0,0,0,101.1,231.08Z"/><path class="cls-9" d="M107.34,233.06a1.22,1.22,0,0,1-.51.42c-.19.07-.3.06-.35,0s0-.18.06-.3a10.38,10.38,0,0,0,1.69-2.65,12.55,12.55,0,0,0-1.63.46.38.38,0,0,1-.45-.14c-.12-.16-.05-.29.2-.4a11.72,11.72,0,0,1,2-.56.44.44,0,0,1,.48.14.66.66,0,0,1,0,.6,8.08,8.08,0,0,1-.5.94,8.66,8.66,0,0,1,1,1.05.83.83,0,0,1,.19.51c0,.16,0,.25-.14.27s-.2,0-.32-.18a7.87,7.87,0,0,0-1-1.09C107.78,232.48,107.55,232.79,107.34,233.06Zm1.07-4.2c.2.1.24.21.12.34a.39.39,0,0,1-.41.13,4,4,0,0,1-1-.41.81.81,0,0,1-.19-.13.36.36,0,0,1-.09-.13.21.21,0,0,1,0-.2c0-.08.11-.14.25-.17a.56.56,0,0,1,.42.11A8.23,8.23,0,0,0,108.41,228.86Zm2.4,5c0-2.56,0-4.25-.06-5.05a2.2,2.2,0,0,0-.17-.69c0-.16,0-.27,0-.35a.4.4,0,0,1,.4,0c.26.12.39.47.39,1.07v1.89l1.46-.47a.3.3,0,0,1,.21,0,.15.15,0,0,1,.07.17.42.42,0,0,1-.28.45l-1.46.48v2a1.34,1.34,0,0,1-.14.67c-.11.16-.21.22-.31.17S110.81,234.06,110.81,233.87Z"/><path class="cls-9" d="M203.5,222.69l-.35-1.47c-.55.16-1.17.32-1.87.48l-.25.8a.56.56,0,0,1-.45.42.17.17,0,0,1-.16-.1.31.31,0,0,1,0-.25q.21-.58,1.63-5.16a.27.27,0,0,1,.29-.22.44.44,0,0,1,.4.31c.2.68.62,2.33,1.28,5a.33.33,0,0,1-.2.4C203.65,223,203.55,222.9,203.5,222.69Zm-1.15-4.5c0,.13-.32,1.1-.89,2.93.69-.17,1.21-.31,1.56-.41C202.69,219.45,202.47,218.61,202.35,218.19Z"/><path class="cls-9" d="M207.22,219.52l-1,.2c0,.2,0,.47,0,.8a13.05,13.05,0,0,0,0,1.63c0,.21.12.3.32.26a3,3,0,0,0,.79-.25.24.24,0,0,1,.25,0c.08,0,.11.12.08.24a.45.45,0,0,1-.28.35,2.5,2.5,0,0,1-1.11.25c-.38,0-.59-.25-.64-.76a16.21,16.21,0,0,1,0-1.82s0-.14,0-.27,0-.21,0-.28l-.52.1a1.52,1.52,0,0,1-.51,0c-.08,0-.1-.11-.08-.26a.28.28,0,0,1,.28-.3l.45-.05.38-.05c0-.43,0-.82,0-1.19,0-.09,0-.25-.07-.49a.56.56,0,0,1,0-.39.16.16,0,0,1,.18-.07c.29,0,.44.25.46.61,0,0,0,.2,0,.57s0,.65,0,.86c.51-.09.88-.16,1.1-.22s.28,0,.28.17A.51.51,0,0,1,207.22,219.52Z"/><path class="cls-9" d="M208.29,221.52a4.3,4.3,0,0,1,0-1.14,2.07,2.07,0,0,1,.41-.93,1.15,1.15,0,0,1,.82-.45,1.37,1.37,0,0,1,.65.09,1.13,1.13,0,0,1,.43.32,1.5,1.5,0,0,1,.25.49,2.49,2.49,0,0,1,.12.47,2.42,2.42,0,0,1,.05.41,2.81,2.81,0,0,1-.3,1.4,1.28,1.28,0,0,1-1,.74,1.13,1.13,0,0,1-1-.35A1.68,1.68,0,0,1,208.29,221.52Zm2.19-.69a2.52,2.52,0,0,0-.24-1,.58.58,0,0,0-.61-.29c-.61.06-.87.67-.78,1.82a1.24,1.24,0,0,0,.25.76.62.62,0,0,0,.59.2.79.79,0,0,0,.63-.53A2.11,2.11,0,0,0,210.48,220.83Z"/><path class="cls-9" d="M214.68,217.08q.34,0,.39.24a.89.89,0,0,1-.13.6l-2.21,4.26,1.14-.13,1.13-.13a.3.3,0,0,1,.21.05.16.16,0,0,1,0,.18.36.36,0,0,1-.32.33c-.19,0-.59.08-1.2.15s-1.05.1-1.32.11a.44.44,0,0,1-.38-.17.36.36,0,0,1,0-.4q.06-.13.66-1.26c.4-.75.77-1.44,1.09-2.07s.53-1,.59-1.17q-1.26.12-2,.24a.42.42,0,0,1-.34,0,.35.35,0,0,1-.17-.21c0-.14,0-.23.22-.27A22.9,22.9,0,0,1,214.68,217.08Z"/><path class="cls-9" d="M198.35,228.16a1.26,1.26,0,0,1,1,.26,1.34,1.34,0,0,1,.43.82,1.71,1.71,0,0,1-.23,1.11,7.28,7.28,0,0,1-.68,1l-.65.83a1.9,1.9,0,0,0-.39,1.12c.87-.07,1.51-.13,1.91-.18a.42.42,0,0,1,.26,0q.08,0,.06.21a.37.37,0,0,1-.14.21.51.51,0,0,1-.2.11q-.67.09-2,.18-.3,0-.39-.09a.51.51,0,0,1-.11-.35,2,2,0,0,1,.11-.7,2.38,2.38,0,0,1,.32-.72l.64-.84a7.61,7.61,0,0,0,.73-1.06,1.32,1.32,0,0,0,.15-.72.74.74,0,0,0-.22-.44.64.64,0,0,0-.49-.17.62.62,0,0,0-.42.16,2.59,2.59,0,0,0-.4.55s-.1.06-.21.07a.53.53,0,0,1-.27,0q-.23-.12-.06-.39A1.63,1.63,0,0,1,198.35,228.16Z"/><path class="cls-9" d="M204.6,229.42c-1.19.2-2.11.4-2.76.57l-.39.1-.3,0a.39.39,0,0,1-.24,0,.22.22,0,0,1-.06-.18c0-.2.15-.33.43-.39,1.49-.35,2.64-.58,3.44-.7.14,0,.22,0,.25.1a.32.32,0,0,1-.06.3A.5.5,0,0,1,204.6,229.42Zm1.59,5.17c0-.1,0-.31,0-.63s0-.58,0-.78c-1.79.36-3.24.7-4.34,1a1.15,1.15,0,0,1-.57.07c-.13,0-.2-.13-.2-.3s.15-.18.43-.26l1.53-.36a5.43,5.43,0,0,0-.09-1,.79.79,0,0,1-.9-.64,1.27,1.27,0,0,1,.27-1.24,1,1,0,0,1,.3-.21.9.9,0,0,1,.36-.09,1.21,1.21,0,0,1,1.23.66.88.88,0,0,1,0,.76,1.08,1.08,0,0,1-.62.6,7.27,7.27,0,0,1,.06,1l2.52-.56c0-2.4,0-3.91,0-4.52a2.53,2.53,0,0,0-.17-.69.29.29,0,0,1,0-.35.38.38,0,0,1,.39,0c.27.12.4.47.4,1.07v6a1.23,1.23,0,0,1-.15.67c-.1.16-.2.22-.31.17S206.19,234.78,206.19,234.59Zm-2.67-6.52c.19.13.24.25.13.37a.36.36,0,0,1-.38.12,2.51,2.51,0,0,1-1-.68c-.19-.17-.2-.32-.05-.47s.13-.09.28-.08a.6.6,0,0,1,.37.2A2.76,2.76,0,0,0,203.52,228.07Zm.16,3a.65.65,0,0,0-.54-.34.44.44,0,0,0-.49.2.83.83,0,0,0-.09.67.41.41,0,0,0,.19.24.44.44,0,0,0,.36.05.81.81,0,0,0,.53-.32A.47.47,0,0,0,203.68,231.08Z"/><path class="cls-9" d="M209.92,233.06a1.18,1.18,0,0,1-.52.42c-.18.07-.3.06-.35,0a.3.3,0,0,1,.06-.3,10.44,10.44,0,0,0,1.7-2.65,13.12,13.12,0,0,0-1.64.46.36.36,0,0,1-.44-.14c-.12-.16-.06-.29.19-.4a11.72,11.72,0,0,1,2-.56c.23,0,.39,0,.48.14a.63.63,0,0,1,0,.6,7.86,7.86,0,0,1-.49.94,9.58,9.58,0,0,1,.95,1.05.9.9,0,0,1,.19.51c0,.16-.05.25-.14.27a.43.43,0,0,1-.33-.18,7.87,7.87,0,0,0-1-1.09C210.35,232.48,210.13,232.79,209.92,233.06Zm1.07-4.2c.2.1.24.21.12.34a.39.39,0,0,1-.41.13,4,4,0,0,1-1-.41,1,1,0,0,1-.2-.13.26.26,0,0,1-.08-.13.21.21,0,0,1,0-.2.31.31,0,0,1,.25-.17.6.6,0,0,1,.43.11A6.62,6.62,0,0,0,211,228.86Zm2.4,5c0-2.56,0-4.25-.06-5.05a2.53,2.53,0,0,0-.17-.69.29.29,0,0,1,.05-.35.38.38,0,0,1,.39,0c.27.12.4.47.4,1.07v1.89l1.45-.47a.3.3,0,0,1,.21,0,.15.15,0,0,1,.08.17.44.44,0,0,1-.29.45l-1.45.48v2a1.23,1.23,0,0,1-.15.67c-.1.16-.2.22-.31.17S213.39,234.06,213.39,233.87Z"/><path class="cls-9" d="M100.93,262.12l-.35-1.46c-.55.16-1.18.32-1.88.48l-.25.79a.55.55,0,0,1-.44.42.15.15,0,0,1-.16-.1.3.3,0,0,1,0-.25q.22-.58,1.63-5.16c.06-.16.15-.23.29-.22a.45.45,0,0,1,.41.32q.28,1,1.27,4.95a.33.33,0,0,1-.19.4C101.08,262.39,101,262.33,100.93,262.12Zm-1.16-4.5c0,.13-.32,1.1-.88,2.93l1.55-.41C100.12,258.88,99.89,258,99.77,257.62Z"/><path class="cls-9" d="M104.65,259l-1.05.21c0,.2,0,.46,0,.79a15.72,15.72,0,0,0,0,1.63c0,.22.12.3.32.26a2.69,2.69,0,0,0,.78-.25.26.26,0,0,1,.26,0c.07,0,.1.12.08.25a.47.47,0,0,1-.28.34,2.51,2.51,0,0,1-1.11.26c-.38,0-.59-.26-.64-.77s0-1,0-1.81v-.27c0-.13,0-.22,0-.29l-.53.1a1.47,1.47,0,0,1-.5,0c-.08,0-.11-.11-.09-.25a.28.28,0,0,1,.28-.3l.46-.06.38-.05c0-.43,0-.82,0-1.19,0-.09,0-.25-.08-.49a.61.61,0,0,1,0-.39.17.17,0,0,1,.18-.07c.28.05.43.25.46.61,0,0,0,.2,0,.57s0,.65,0,.86l1.1-.21c.19,0,.28,0,.28.16A.49.49,0,0,1,104.65,259Z"/><path class="cls-9" d="M105.71,261a4,4,0,0,1,0-1.15,2,2,0,0,1,.41-.93,1.12,1.12,0,0,1,.81-.44,1.24,1.24,0,0,1,1.09.4,1.49,1.49,0,0,1,.24.49,2.9,2.9,0,0,1,.13.47c0,.12,0,.26,0,.41a2.7,2.7,0,0,1-.29,1.4,1.26,1.26,0,0,1-1,.74,1.12,1.12,0,0,1-1-.34A1.79,1.79,0,0,1,105.71,261Zm2.2-.7a2.33,2.33,0,0,0-.25-1,.57.57,0,0,0-.6-.29c-.61.06-.87.67-.78,1.82a1.3,1.3,0,0,0,.24.77.62.62,0,0,0,.6.19.8.8,0,0,0,.63-.53A2.24,2.24,0,0,0,107.91,260.26Z"/><path class="cls-9" d="M112.11,256.52c.22,0,.35.06.39.23a.89.89,0,0,1-.14.61l-2.21,4.26,1.15-.14c.6-.06,1-.1,1.12-.13a.28.28,0,0,1,.21,0,.18.18,0,0,1,.06.18.39.39,0,0,1-.33.34c-.18,0-.58.08-1.19.14s-1.06.1-1.33.11a.42.42,0,0,1-.37-.16.36.36,0,0,1,0-.41l.66-1.26,1.09-2.07c.33-.63.52-1,.59-1.17-.84.08-1.49.16-2,.24a.44.44,0,0,1-.33,0,.36.36,0,0,1-.17-.22c0-.14,0-.22.21-.26A19.25,19.25,0,0,1,112.11,256.52Z"/><path class="cls-9" d="M94.57,268.15a2.42,2.42,0,0,1,.68-.44,1.85,1.85,0,0,1,.77-.15,1,1,0,0,1,.73.38,1.07,1.07,0,0,1,.18.88,1.44,1.44,0,0,1-.57.94,1.47,1.47,0,0,1,.69.46,1.59,1.59,0,0,1,.27.76,2,2,0,0,1-.55,1.82,1.82,1.82,0,0,1-.9.49,1.47,1.47,0,0,1-1-.12,1.44,1.44,0,0,1-.68-.75c-.07-.15,0-.26.14-.33s.27-.06.33.05a1,1,0,0,0,.75.6,1.12,1.12,0,0,0,.94-.35,1.43,1.43,0,0,0,.33-1.32.93.93,0,0,0-.87-.9,1.58,1.58,0,0,0-.61.13.29.29,0,0,1-.38-.17c-.09-.18,0-.29.11-.33a3.43,3.43,0,0,0,.9-.36,1,1,0,0,0,.47-.66.78.78,0,0,0-.09-.47.38.38,0,0,0-.36-.18,1.42,1.42,0,0,0-.86.41c-.18.13-.32.13-.44,0S94.45,268.26,94.57,268.15Z"/><path class="cls-9" d="M102,268.85q-1.78.31-2.76.57l-.39.11-.3,0a.37.37,0,0,1-.24,0,.22.22,0,0,1-.07-.19c0-.2.15-.33.43-.38,1.5-.36,2.65-.59,3.45-.71.13,0,.22,0,.25.1a.32.32,0,0,1-.07.3A.45.45,0,0,1,102,268.85Zm1.58,5.17v-.62c0-.32,0-.58,0-.78-1.79.36-3.24.69-4.34,1a1,1,0,0,1-.57.07c-.13,0-.2-.13-.2-.3s.14-.18.43-.26l1.52-.36a5.37,5.37,0,0,0-.08-.95.79.79,0,0,1-.9-.63,1.15,1.15,0,0,1,.57-1.46.87.87,0,0,1,.36-.09,1.21,1.21,0,0,1,1.23.66.88.88,0,0,1,0,.76,1.16,1.16,0,0,1-.62.61,7.06,7.06,0,0,1,.06,1l2.52-.57c0-2.4,0-3.91,0-4.52a2.42,2.42,0,0,0-.16-.69c-.06-.16,0-.27,0-.34s.22-.08.4,0,.4.46.4,1.06v6a1.2,1.2,0,0,1-.16.68c-.09.15-.2.21-.3.16S103.61,274.21,103.61,274ZM101,267.5c.19.13.23.26.12.38a.34.34,0,0,1-.37.12,2.65,2.65,0,0,1-1-.69c-.18-.17-.2-.32,0-.47s.13-.09.27-.07a.54.54,0,0,1,.38.19A2.76,2.76,0,0,0,101,267.5Zm.16,3a.64.64,0,0,0-.54-.35.48.48,0,0,0-.5.2.79.79,0,0,0-.08.67.34.34,0,0,0,.19.24.44.44,0,0,0,.36.05.79.79,0,0,0,.53-.32A.48.48,0,0,0,101.11,270.52Z"/><path class="cls-9" d="M107.34,272.5a1.27,1.27,0,0,1-.51.41c-.19.07-.3.06-.35,0s0-.18.06-.3a10.38,10.38,0,0,0,1.69-2.65,12.55,12.55,0,0,0-1.63.46.37.37,0,0,1-.45-.14c-.12-.16-.05-.29.2-.4a11.08,11.08,0,0,1,2-.55.42.42,0,0,1,.48.13.66.66,0,0,1,0,.6,9,9,0,0,1-.5.95,7.94,7.94,0,0,1,1,1,.87.87,0,0,1,.19.51c0,.16,0,.25-.14.27s-.2,0-.32-.18a7.87,7.87,0,0,0-1-1.09C107.78,271.91,107.55,272.22,107.34,272.5Zm1.07-4.2q.3.13.12.33a.39.39,0,0,1-.41.13,4.48,4.48,0,0,1-1-.4,1.13,1.13,0,0,1-.19-.14.29.29,0,0,1-.09-.13.21.21,0,0,1,0-.2c0-.08.11-.14.25-.16a.51.51,0,0,1,.42.1A9.78,9.78,0,0,0,108.41,268.3Zm2.4,5c0-2.56,0-4.24-.06-5.05a2.2,2.2,0,0,0-.17-.69c0-.16,0-.27,0-.34s.22-.08.4,0,.39.46.39,1.06v1.89l1.46-.47a.3.3,0,0,1,.21,0c.06,0,.08.08.07.16a.42.42,0,0,1-.28.45l-1.46.48v2a1.41,1.41,0,0,1-.14.68c-.11.15-.21.21-.31.16S110.81,273.49,110.81,273.3Z"/><path class="cls-9" d="M203.5,262.12l-.35-1.46c-.55.16-1.17.32-1.87.48l-.25.79a.56.56,0,0,1-.45.42c-.07,0-.12,0-.16-.1a.31.31,0,0,1,0-.25q.21-.58,1.63-5.16a.27.27,0,0,1,.29-.22.44.44,0,0,1,.4.32c.2.67.62,2.32,1.28,4.95a.33.33,0,0,1-.2.4C203.65,262.39,203.55,262.33,203.5,262.12Zm-1.15-4.5c0,.13-.32,1.1-.89,2.93.69-.17,1.21-.31,1.56-.41C202.69,258.88,202.47,258,202.35,257.62Z"/><path class="cls-9" d="M207.22,259l-1,.21c0,.2,0,.46,0,.79a13.05,13.05,0,0,0,0,1.63c0,.22.12.3.32.26a2.67,2.67,0,0,0,.79-.25.24.24,0,0,1,.25,0c.08,0,.11.12.08.25a.45.45,0,0,1-.28.34,2.51,2.51,0,0,1-1.11.26c-.38,0-.59-.26-.64-.77a16,16,0,0,1,0-1.81c0-.06,0-.15,0-.27s0-.22,0-.29l-.52.1a1.52,1.52,0,0,1-.51,0c-.08,0-.1-.11-.08-.25a.27.27,0,0,1,.28-.3l.45-.06.38-.05c0-.43,0-.82,0-1.19,0-.09,0-.25-.07-.49a.56.56,0,0,1,0-.39.17.17,0,0,1,.18-.07c.29.05.44.25.46.61,0,0,0,.2,0,.57s0,.65,0,.86l1.1-.21c.18,0,.28,0,.28.16A.51.51,0,0,1,207.22,259Z"/><path class="cls-9" d="M208.29,261a4.37,4.37,0,0,1,0-1.15,2.07,2.07,0,0,1,.41-.93,1.14,1.14,0,0,1,.82-.44,1.16,1.16,0,0,1,.65.09,1.11,1.11,0,0,1,.43.31,1.5,1.5,0,0,1,.25.49,2.69,2.69,0,0,1,.12.47,2.42,2.42,0,0,1,.05.41,2.81,2.81,0,0,1-.3,1.4,1.26,1.26,0,0,1-1,.74,1.12,1.12,0,0,1-1-.34A1.73,1.73,0,0,1,208.29,261Zm2.19-.7a2.52,2.52,0,0,0-.24-1,.59.59,0,0,0-.61-.29c-.61.06-.87.67-.78,1.82a1.3,1.3,0,0,0,.25.77.61.61,0,0,0,.59.19.77.77,0,0,0,.63-.53A2.11,2.11,0,0,0,210.48,260.26Z"/><path class="cls-9" d="M214.68,256.52c.23,0,.36.06.39.23a.93.93,0,0,1-.13.61l-2.21,4.26,1.14-.14c.6-.06,1-.1,1.13-.13a.3.3,0,0,1,.21,0,.16.16,0,0,1,0,.18.38.38,0,0,1-.32.34c-.19,0-.59.08-1.2.14s-1.05.1-1.32.11A.44.44,0,0,1,212,262a.38.38,0,0,1,0-.41l.66-1.26c.4-.75.77-1.44,1.09-2.07s.53-1,.59-1.17q-1.26.12-2,.24a.47.47,0,0,1-.34,0,.4.4,0,0,1-.17-.22c0-.14,0-.22.22-.26A18.81,18.81,0,0,1,214.68,256.52Z"/><path class="cls-9" d="M199.72,271.15a.3.3,0,0,1,.2,0,.14.14,0,0,1,.06.16.46.46,0,0,1-.34.37c-.19,0-.38,0-.59.08v.8a1.11,1.11,0,0,1-.13.58c-.08.14-.17.21-.26.21s-.19-.11-.19-.35,0-.64,0-1.17c-.86.09-1.4.14-1.62.14s-.4-.06-.46-.21a.38.38,0,0,1,0-.42l.47-.84.87-1.54c.29-.52.48-.88.58-1.08a.38.38,0,0,1,.36-.22.34.34,0,0,1,.28.14.68.68,0,0,1,.09.37c0,.43,0,1.45,0,3.05Zm-2.68.29,1.42-.13c0-.5,0-1.33,0-2.5,0,.07-.26.48-.69,1.26S197.11,271.3,197,271.44Z"/><path class="cls-9" d="M204.6,268.85q-1.78.31-2.76.57l-.39.11-.3,0a.4.4,0,0,1-.24,0,.25.25,0,0,1-.06-.19c0-.2.15-.33.43-.38,1.5-.36,2.64-.59,3.44-.71.14,0,.22,0,.26.1a.32.32,0,0,1-.07.3A.5.5,0,0,1,204.6,268.85Zm1.59,5.17c0-.1,0-.3,0-.62v-.78c-1.8.36-3.24.69-4.35,1a1,1,0,0,1-.57.07c-.13,0-.2-.13-.2-.3s.15-.18.43-.26l1.53-.36a6.52,6.52,0,0,0-.08-.95.8.8,0,0,1-.91-.63,1.31,1.31,0,0,1,.27-1.25,1.18,1.18,0,0,1,.31-.21.86.86,0,0,1,.35-.09,1.21,1.21,0,0,1,1.23.66.85.85,0,0,1,0,.76,1.11,1.11,0,0,1-.61.61,7.15,7.15,0,0,1,.05,1l2.53-.57c0-2.4,0-3.91-.05-4.52a2.53,2.53,0,0,0-.17-.69c-.06-.16,0-.27,0-.34s.22-.08.39,0,.4.46.4,1.06v6a1.29,1.29,0,0,1-.15.68c-.1.15-.2.21-.31.16S206.19,274.21,206.19,274Zm-2.67-6.52c.2.13.24.26.13.38a.35.35,0,0,1-.38.12,2.62,2.62,0,0,1-1-.69c-.18-.17-.2-.32-.05-.47s.13-.09.28-.07a.52.52,0,0,1,.37.19A2.76,2.76,0,0,0,203.52,267.5Zm.16,3a.64.64,0,0,0-.54-.35.45.45,0,0,0-.49.2.83.83,0,0,0-.09.67.41.41,0,0,0,.19.24.44.44,0,0,0,.36.05.77.77,0,0,0,.53-.32A.46.46,0,0,0,203.68,270.52Z"/><path class="cls-9" d="M209.92,272.5a1.23,1.23,0,0,1-.52.41c-.18.07-.3.06-.35,0a.3.3,0,0,1,.06-.3,10.44,10.44,0,0,0,1.7-2.65,13.12,13.12,0,0,0-1.64.46.35.35,0,0,1-.44-.14c-.12-.16-.06-.29.19-.4a11.08,11.08,0,0,1,2-.55c.23-.05.39,0,.48.13a.63.63,0,0,1,0,.6,8.75,8.75,0,0,1-.49.95,8.72,8.72,0,0,1,.95,1,1,1,0,0,1,.19.51c0,.16-.05.25-.14.27s-.21,0-.33-.18a7.87,7.87,0,0,0-1-1.09C210.35,271.91,210.13,272.22,209.92,272.5Zm1.07-4.2q.3.13.12.33a.39.39,0,0,1-.41.13,4.48,4.48,0,0,1-1-.4l-.2-.14a.22.22,0,0,1-.08-.13.21.21,0,0,1,0-.2.28.28,0,0,1,.25-.16.54.54,0,0,1,.43.1A7.58,7.58,0,0,0,211,268.3Zm2.4,5c0-2.56,0-4.24-.06-5.05a2.53,2.53,0,0,0-.17-.69c-.06-.16,0-.27.05-.34s.22-.08.39,0,.4.46.4,1.06v1.89l1.45-.47a.3.3,0,0,1,.21,0,.14.14,0,0,1,.08.16.44.44,0,0,1-.29.45l-1.45.48v2a1.29,1.29,0,0,1-.15.68c-.1.15-.2.21-.31.16S213.39,273.49,213.39,273.3Z"/><path class="cls-9" d="M103.76,389.55l-.35-1.46c-.55.16-1.17.32-1.87.48l-.25.79a.56.56,0,0,1-.45.42c-.07,0-.12,0-.16-.1a.31.31,0,0,1,0-.25q.21-.58,1.63-5.16a.27.27,0,0,1,.29-.22.43.43,0,0,1,.4.32c.2.67.62,2.32,1.28,4.95a.33.33,0,0,1-.2.4C103.92,389.82,103.81,389.76,103.76,389.55Zm-1.15-4.5c0,.13-.32,1.1-.89,2.93.69-.17,1.21-.31,1.56-.41C103,386.31,102.73,385.47,102.61,385.05Z"/><path class="cls-9" d="M107.48,386.38l-1,.21c0,.2,0,.46,0,.79a13.05,13.05,0,0,0,0,1.63c0,.22.12.3.33.26a2.69,2.69,0,0,0,.78-.25.24.24,0,0,1,.25,0c.08,0,.11.12.08.25a.43.43,0,0,1-.28.34,2.51,2.51,0,0,1-1.11.26c-.38,0-.59-.26-.64-.77a16,16,0,0,1,0-1.81c0-.06,0-.15,0-.27v-.29l-.53.1a1.52,1.52,0,0,1-.51,0c-.08,0-.1-.11-.08-.25a.27.27,0,0,1,.28-.3l.45-.06.39-.05c0-.43,0-.82,0-1.19,0-.09,0-.25-.07-.49a.63.63,0,0,1,0-.39A.19.19,0,0,1,106,384c.28,0,.43.25.45.61,0,0,0,.2,0,.57s0,.65,0,.86l1.1-.21c.18,0,.28,0,.28.16A.51.51,0,0,1,107.48,386.38Z"/><path class="cls-9" d="M108.55,388.39a4.37,4.37,0,0,1,0-1.15,2.07,2.07,0,0,1,.41-.93,1.14,1.14,0,0,1,.82-.44,1.16,1.16,0,0,1,.65.09,1.11,1.11,0,0,1,.43.31,1.5,1.5,0,0,1,.25.49,2.69,2.69,0,0,1,.12.47,2.42,2.42,0,0,1,0,.41,2.81,2.81,0,0,1-.3,1.4,1.25,1.25,0,0,1-1,.74,1.12,1.12,0,0,1-1-.34A1.73,1.73,0,0,1,108.55,388.39Zm2.19-.7a2.52,2.52,0,0,0-.24-1,.59.59,0,0,0-.61-.29c-.61.06-.87.67-.78,1.82a1.3,1.3,0,0,0,.25.77.61.61,0,0,0,.59.19.77.77,0,0,0,.63-.53A2.11,2.11,0,0,0,110.74,387.69Z"/><path class="cls-9" d="M114.94,384c.23,0,.36.06.39.23a.93.93,0,0,1-.13.61L113,389.05l1.14-.14c.6-.06,1-.1,1.13-.13a.3.3,0,0,1,.21.05.16.16,0,0,1,0,.18.38.38,0,0,1-.32.34c-.19,0-.59.08-1.2.14s-1,.1-1.32.11a.44.44,0,0,1-.38-.16.38.38,0,0,1,0-.41l.66-1.26c.4-.75.77-1.44,1.09-2.07s.53-1,.59-1.17q-1.26.12-1.95.24a.47.47,0,0,1-.34,0,.4.4,0,0,1-.17-.22c0-.14,0-.22.22-.26A18.81,18.81,0,0,1,114.94,384Z"/><path class="cls-9" d="M97.4,395.58a2.42,2.42,0,0,1,.68-.44,1.88,1.88,0,0,1,.77-.15,1,1,0,0,1,.74.38,1.11,1.11,0,0,1,.17.88,1.42,1.42,0,0,1-.56.94,1.38,1.38,0,0,1,.68.46,1.7,1.7,0,0,1,.28.76,2,2,0,0,1-.55,1.82,1.89,1.89,0,0,1-.91.49,1.44,1.44,0,0,1-1-.12,1.41,1.41,0,0,1-.69-.75.23.23,0,0,1,.15-.33c.16-.07.26-.06.32.05a1,1,0,0,0,.76.6,1.11,1.11,0,0,0,.93-.35,1.46,1.46,0,0,0,.34-1.32.93.93,0,0,0-.88-.9,1.61,1.61,0,0,0-.61.13c-.16.06-.28,0-.37-.17s-.06-.29.11-.33a3.75,3.75,0,0,0,.9-.36,1,1,0,0,0,.46-.66.78.78,0,0,0-.08-.47.38.38,0,0,0-.36-.18,1.37,1.37,0,0,0-.86.41c-.18.13-.33.13-.45,0S97.29,395.69,97.4,395.58Z"/><path class="cls-9" d="M104.86,396.28q-1.78.32-2.76.57l-.39.11-.3,0a.4.4,0,0,1-.24,0,.25.25,0,0,1-.06-.19c0-.2.15-.33.43-.38,1.5-.36,2.64-.59,3.44-.71.14,0,.22,0,.26.1a.32.32,0,0,1-.07.3A.5.5,0,0,1,104.86,396.28Zm1.59,5.17c0-.1,0-.3,0-.62v-.78c-1.8.36-3.24.69-4.35,1a1,1,0,0,1-.57.07c-.13,0-.2-.13-.2-.3s.15-.18.44-.26l1.52-.36a6.52,6.52,0,0,0-.08-.95.78.78,0,0,1-.9-.63,1.28,1.28,0,0,1,.26-1.25,1.18,1.18,0,0,1,.31-.21.86.86,0,0,1,.35-.09,1.23,1.23,0,0,1,1.24.66.88.88,0,0,1,0,.76,1.11,1.11,0,0,1-.61.61,7.06,7.06,0,0,1,.06,1l2.52-.57c0-2.4,0-3.91,0-4.52a2.53,2.53,0,0,0-.17-.69c-.06-.16,0-.27,0-.34s.22-.08.39,0,.4.46.4,1.06v6a1.29,1.29,0,0,1-.15.68c-.1.15-.2.21-.31.16S106.45,401.64,106.45,401.45Zm-2.67-6.52c.2.13.24.26.13.38a.35.35,0,0,1-.38.12,2.62,2.62,0,0,1-1-.69c-.18-.17-.2-.32,0-.47s.13-.09.28-.07a.52.52,0,0,1,.37.19A2.76,2.76,0,0,0,103.78,394.93Zm.16,3a.64.64,0,0,0-.54-.35.45.45,0,0,0-.49.2.83.83,0,0,0-.09.67.41.41,0,0,0,.19.24.46.46,0,0,0,.37.05.77.77,0,0,0,.52-.32A.46.46,0,0,0,103.94,398Z"/><path class="cls-9" d="M110.18,399.93a1.23,1.23,0,0,1-.52.41c-.18.07-.3.06-.35,0s0-.18.07-.3a10.66,10.66,0,0,0,1.69-2.65,13.12,13.12,0,0,0-1.64.46.35.35,0,0,1-.44-.14c-.12-.16-.06-.29.19-.4a11.08,11.08,0,0,1,2-.55c.23-.05.39,0,.48.13a.6.6,0,0,1,0,.6,8.75,8.75,0,0,1-.49.95,8.72,8.72,0,0,1,1,1,1,1,0,0,1,.19.51c0,.16,0,.25-.14.27s-.21,0-.33-.18a7.87,7.87,0,0,0-1-1.09C110.61,399.34,110.39,399.65,110.18,399.93Zm1.07-4.2q.3.13.12.33a.39.39,0,0,1-.41.13,4.48,4.48,0,0,1-1-.4l-.2-.14a.22.22,0,0,1-.08-.13.21.21,0,0,1,0-.2.28.28,0,0,1,.25-.16.54.54,0,0,1,.43.1A7.58,7.58,0,0,0,111.25,395.73Zm2.4,5c0-2.56-.05-4.24-.06-5.05a2.53,2.53,0,0,0-.17-.69c-.06-.16,0-.27,0-.34s.22-.08.39,0,.4.46.4,1.06v1.89l1.45-.47a.3.3,0,0,1,.21,0,.14.14,0,0,1,.08.16.44.44,0,0,1-.29.45l-1.45.48v2a1.29,1.29,0,0,1-.15.68c-.1.15-.2.21-.31.16S113.65,400.92,113.65,400.73Z"/><path class="cls-9" d="M206.33,389.55l-.34-1.46c-.56.16-1.18.32-1.88.48l-.25.79a.55.55,0,0,1-.44.42.15.15,0,0,1-.16-.1.3.3,0,0,1,0-.25c.14-.39.69-2.11,1.63-5.16.06-.16.15-.23.29-.22a.46.46,0,0,1,.41.32q.28,1,1.27,4.95a.33.33,0,0,1-.19.4C206.49,389.82,206.38,389.76,206.33,389.55Zm-1.15-4.5c0,.13-.32,1.1-.89,2.93.69-.17,1.21-.31,1.56-.41C205.53,386.31,205.3,385.47,205.18,385.05Z"/><path class="cls-9" d="M210.05,386.38l-1,.21c0,.2,0,.46,0,.79a15.72,15.72,0,0,0,0,1.63c0,.22.12.3.32.26a2.69,2.69,0,0,0,.78-.25.26.26,0,0,1,.26,0c.07,0,.1.12.08.25a.47.47,0,0,1-.28.34,2.52,2.52,0,0,1-1.12.26c-.37,0-.58-.26-.63-.77s-.05-1,0-1.81V387c0-.13,0-.22,0-.29l-.53.1a1.47,1.47,0,0,1-.5,0c-.08,0-.11-.11-.09-.25a.27.27,0,0,1,.28-.3l.46-.06.38-.05c0-.43,0-.82,0-1.19,0-.09,0-.25-.08-.49a.72.72,0,0,1,0-.39.19.19,0,0,1,.19-.07c.28,0,.43.25.46.61,0,0,0,.2,0,.57s0,.65,0,.86l1.1-.21c.19,0,.28,0,.28.16A.48.48,0,0,1,210.05,386.38Z"/><path class="cls-9" d="M211.12,388.39a4,4,0,0,1,0-1.15,2,2,0,0,1,.41-.93,1.12,1.12,0,0,1,.81-.44,1.24,1.24,0,0,1,1.09.4,1.49,1.49,0,0,1,.24.49,2.9,2.9,0,0,1,.13.47c0,.12,0,.26,0,.41a2.7,2.7,0,0,1-.29,1.4,1.26,1.26,0,0,1-1,.74,1.12,1.12,0,0,1-1-.34A1.79,1.79,0,0,1,211.12,388.39Zm2.2-.7a2.33,2.33,0,0,0-.25-1,.57.57,0,0,0-.6-.29c-.61.06-.87.67-.78,1.82a1.3,1.3,0,0,0,.24.77.62.62,0,0,0,.6.19.8.8,0,0,0,.63-.53A2.24,2.24,0,0,0,213.32,387.69Z"/><path class="cls-9" d="M217.52,384c.22,0,.35.06.39.23a.94.94,0,0,1-.14.61l-2.21,4.26,1.15-.14c.59-.06,1-.1,1.12-.13a.28.28,0,0,1,.21.05.16.16,0,0,1,.05.18.38.38,0,0,1-.32.34c-.18,0-.58.08-1.19.14s-1.06.1-1.33.11a.42.42,0,0,1-.37-.16.36.36,0,0,1,0-.41l.66-1.26,1.09-2.07c.33-.63.52-1,.59-1.17-.84.08-1.5.16-2,.24a.47.47,0,0,1-.34,0,.38.38,0,0,1-.16-.22c0-.14,0-.22.21-.26A19.25,19.25,0,0,1,217.52,384Z"/><path class="cls-9" d="M202.55,398.58a.34.34,0,0,1,.21,0,.14.14,0,0,1,.06.16.36.36,0,0,1-.13.25.35.35,0,0,1-.22.12c-.18,0-.38,0-.59.08v.8a1.22,1.22,0,0,1-.12.58c-.09.14-.17.21-.26.21s-.19-.11-.19-.35,0-.64,0-1.17c-.86.09-1.4.14-1.62.14s-.39-.06-.46-.21a.4.4,0,0,1,0-.42l.48-.84.86-1.54c.29-.52.49-.88.58-1.08a.4.4,0,0,1,.36-.22.32.32,0,0,1,.28.14.67.67,0,0,1,.1.37c0,.43,0,1.45,0,3.05Zm-2.67.29,1.41-.13c0-.5,0-1.33,0-2.5,0,.07-.26.48-.69,1.26S200,398.73,199.88,398.87Z"/><path class="cls-9" d="M207.44,396.28q-1.78.32-2.76.57l-.39.11-.3,0a.37.37,0,0,1-.24,0,.22.22,0,0,1-.07-.19c0-.2.15-.33.43-.38,1.5-.36,2.65-.59,3.45-.71.13,0,.22,0,.25.1a.32.32,0,0,1-.07.3A.45.45,0,0,1,207.44,396.28Zm1.58,5.17v-.62c0-.32,0-.58,0-.78-1.79.36-3.24.69-4.34,1a1,1,0,0,1-.57.07c-.14,0-.2-.13-.2-.3s.14-.18.43-.26l1.52-.36a5.37,5.37,0,0,0-.08-.95.79.79,0,0,1-.9-.63,1.31,1.31,0,0,1,.26-1.25,1.66,1.66,0,0,1,.31-.21.86.86,0,0,1,.35-.09,1.22,1.22,0,0,1,1.24.66.88.88,0,0,1,0,.76,1.16,1.16,0,0,1-.62.61,7.06,7.06,0,0,1,.06,1l2.52-.57c0-2.4,0-3.91,0-4.52a2.2,2.2,0,0,0-.17-.69c0-.16,0-.27.05-.34s.22-.08.4,0,.39.46.39,1.06v6a1.29,1.29,0,0,1-.15.68c-.1.15-.2.21-.3.16S209,401.64,209,401.45Zm-2.66-6.52c.19.13.23.26.12.38a.34.34,0,0,1-.37.12,2.65,2.65,0,0,1-1-.69c-.18-.17-.2-.32,0-.47s.13-.09.27-.07a.5.5,0,0,1,.37.19A3.06,3.06,0,0,0,206.36,394.93Zm.15,3a.61.61,0,0,0-.54-.35.46.46,0,0,0-.49.2.79.79,0,0,0-.08.67.36.36,0,0,0,.18.24.46.46,0,0,0,.37.05.79.79,0,0,0,.53-.32A.48.48,0,0,0,206.51,398Z"/><path class="cls-9" d="M212.75,399.93a1.27,1.27,0,0,1-.51.41c-.19.07-.3.06-.35,0s0-.18.06-.3a10.38,10.38,0,0,0,1.69-2.65,12.55,12.55,0,0,0-1.63.46.36.36,0,0,1-.45-.14c-.12-.16-.05-.29.2-.4a11.08,11.08,0,0,1,2-.55.42.42,0,0,1,.48.13.66.66,0,0,1,0,.6,9,9,0,0,1-.5.95,7.94,7.94,0,0,1,.95,1,.87.87,0,0,1,.19.51c0,.16,0,.25-.14.27s-.2,0-.32-.18a7.4,7.4,0,0,0-1-1.09C213.19,399.34,213,399.65,212.75,399.93Zm1.07-4.2q.3.13.12.33a.39.39,0,0,1-.41.13,4.48,4.48,0,0,1-1-.4,1.13,1.13,0,0,1-.19-.14.29.29,0,0,1-.09-.13.21.21,0,0,1,0-.2c0-.08.11-.14.25-.16a.52.52,0,0,1,.42.1A9.78,9.78,0,0,0,213.82,395.73Zm2.4,5c0-2.56,0-4.24-.06-5.05A2.2,2.2,0,0,0,216,395c-.05-.16,0-.27,0-.34s.22-.08.4,0,.39.46.39,1.06v1.89l1.46-.47a.3.3,0,0,1,.21,0,.14.14,0,0,1,.07.16.42.42,0,0,1-.28.45l-1.46.48v2a1.29,1.29,0,0,1-.15.68c-.1.15-.2.21-.3.16S216.22,400.92,216.22,400.73Z"/></svg>