<svg id="레이어_1" data-name="레이어 1" xmlns="http://www.w3.org/2000/svg" viewBox="0 0 281.19 449.35"><defs><style>.cls-1{fill:#edeaf5;}.cls-2{fill:#5e53a1;}.cls-3{fill:#fff;}.cls-4{fill:#040000;}.cls-5{fill:none;stroke:#fff;stroke-miterlimit:10;}</style></defs><rect class="cls-1" x="9.57" y="79.05" width="261.85" height="342.35"/><rect class="cls-2" x="9.57" y="54.57" width="261.85" height="24.3"/><path class="cls-3" d="M63.73,64.06a2.63,2.63,0,0,1,1-2.17,3.33,3.33,0,0,1,2-.62,3.37,3.37,0,0,1,2,.62,2.82,2.82,0,0,1,0,4.34,3.24,3.24,0,0,1-2,.63,3.21,3.21,0,0,1-2-.63A2.63,2.63,0,0,1,63.73,64.06Zm9.37,6.69H66.38v.6h6.86v1.41H64.52V69.37h6.72v-.64H64.52V67.32H73.1Zm-7.58-6.69a1.27,1.27,0,0,0,.42,1,1.13,1.13,0,0,0,.82.3,1.17,1.17,0,0,0,.84-.3,1.33,1.33,0,0,0,.41-1,1.34,1.34,0,0,0-.41-1,1.21,1.21,0,0,0-.84-.3,1.18,1.18,0,0,0-.82.3A1.28,1.28,0,0,0,65.52,64.06Zm7.58-2.72v5.53H71.24V61.34Z"/><path class="cls-3" d="M75.64,63V61.46h6V63H79.53c0,1.91.83,2.67,2.29,3v1.58A4.7,4.7,0,0,1,78.65,66a5.1,5.1,0,0,1-3.23,1.74V66.11c1.44-.29,2.27-1.15,2.27-3.08Zm.5,7.38a2,2,0,0,1,1-1.74,8.39,8.39,0,0,1,7,0,2,2,0,0,1,1,1.74,2,2,0,0,1-1,1.75,6.71,6.71,0,0,1-3.49.74,6.68,6.68,0,0,1-3.49-.74A2,2,0,0,1,76.14,70.41Zm1.86,0a.64.64,0,0,0,.36.56,4.89,4.89,0,0,0,2.27.38A4.77,4.77,0,0,0,82.88,71a.62.62,0,0,0,.37-.56.63.63,0,0,0-.37-.57,4.9,4.9,0,0,0-2.25-.38,5,5,0,0,0-2.27.38A.66.66,0,0,0,78,70.41Zm6.85-9.07v6.44H83V65.16H81V63.62h2V61.34Z"/><path class="cls-4" d="M66.12,102.1V95.73l-1.79.8v-.76l1.9-.85h.67v7.18Z"/><path class="cls-4" d="M69.69,98.33A1.7,1.7,0,0,1,70.31,97a2.49,2.49,0,0,1,2.94,0,1.75,1.75,0,0,1,0,2.67,2.32,2.32,0,0,1-1.11.46v1.36h1.11a3.33,3.33,0,0,0,2.09-.52V94.39h.74v8.21h-.74v-1a3.7,3.7,0,0,1-2.36.53H69.3v-.64h2.11v-1.36a2.38,2.38,0,0,1-1.1-.46A1.69,1.69,0,0,1,69.69,98.33Zm2.44-4.19v1h2v.64H69.44v-.64h2v-1Zm-1.71,4.19a1.1,1.1,0,0,0,.37.84,1.49,1.49,0,0,0,1,.35,1.45,1.45,0,0,0,1-.35,1.13,1.13,0,0,0,0-1.69,1.41,1.41,0,0,0-1-.35,1.44,1.44,0,0,0-1,.35A1.09,1.09,0,0,0,70.42,98.33Z"/><path class="cls-4" d="M78,95.5H79.8V94.14h.74V95.5h1.84v.64H80.54v1.63a3.6,3.6,0,0,0,1.92,3.58V102a4,4,0,0,1-2.28-2.3,4,4,0,0,1-2.29,2.3v-.68a3.62,3.62,0,0,0,1.91-3.58V96.14H78Zm6.48-1.11v3.45H85.8v.64H84.46v4.12h-.73V94.39Z"/><path class="cls-4" d="M33,113.12v-6.38l-1.79.8v-.76l1.9-.85h.67v7.19Z"/><path class="cls-4" d="M39.85,112.58a2.32,2.32,0,0,1-3.24,0c-.48-.58-.71-1.41-.71-3.06s.23-2.47.71-3a2.32,2.32,0,0,1,3.24,0c.48.58.7,1.4.7,3S40.33,112,39.85,112.58ZM39.32,107a1.3,1.3,0,0,0-1.09-.49,1.33,1.33,0,0,0-1.09.49,4.28,4.28,0,0,0-.46,2.55,4.22,4.22,0,0,0,.46,2.56,1.32,1.32,0,0,0,1.09.49,1.29,1.29,0,0,0,1.09-.49,4.3,4.3,0,0,0,.46-2.56A4.28,4.28,0,0,0,39.32,107Z"/><path class="cls-4" d="M42.67,113.12h-.88V112h.88Z"/><path class="cls-4" d="M47.67,109.63l-2.48,2.82h3.28v.67h-4.3v-.62l2.88-3.27a1.85,1.85,0,0,0,.54-1.29,1.38,1.38,0,1,0-2.75,0v.2h-.78v-.21a2.16,2.16,0,0,1,4.32,0A2.3,2.3,0,0,1,47.67,109.63Z"/><path class="cls-4" d="M53.25,112.58a2.32,2.32,0,0,1-3.24,0c-.48-.58-.71-1.41-.71-3.06s.23-2.47.71-3a2.32,2.32,0,0,1,3.24,0c.48.58.7,1.4.7,3S53.73,112,53.25,112.58ZM52.72,107a1.46,1.46,0,0,0-2.18,0,4.28,4.28,0,0,0-.46,2.55,4.22,4.22,0,0,0,.46,2.56,1.46,1.46,0,0,0,2.18,0,4.3,4.3,0,0,0,.46-2.56A4.28,4.28,0,0,0,52.72,107Z"/><path class="cls-4" d="M56.06,113.12h-.87V112h.87Z"/><path class="cls-4" d="M59.8,104.91v.66c-1,0-1.42.55-1.42,4s.43,4,1.42,4v.66c-1.49,0-2.19-.73-2.19-4.66S58.31,104.91,59.8,104.91Z"/><path class="cls-4" d="M60.92,109.34a1.65,1.65,0,0,1,.54-1.28,2.3,2.3,0,0,1,3,0,1.79,1.79,0,0,1,0,2.56,2,2,0,0,1-1.12.51v1.36h1.2a3,3,0,0,0,1.9-.52v-6.56h.74v3.44h1.33v.65H67.14v4.1H66.4v-1a3.16,3.16,0,0,1-2,.54H60.55v-.65h2v-1.36a2,2,0,0,1-1.11-.51A1.67,1.67,0,0,1,60.92,109.34Zm2.37-4.19v1h1.89v.65H60.67v-.65h1.88v-1Zm-1.64,4.19a1.17,1.17,0,0,0,.33.83,1.45,1.45,0,0,0,1.91,0,1.22,1.22,0,0,0,0-1.67,1.45,1.45,0,0,0-1.91,0A1.18,1.18,0,0,0,61.65,109.34Z"/><path class="cls-4" d="M68.56,114.22v-.66c1,0,1.42-.54,1.42-4s-.43-4-1.42-4v-.66c1.48,0,2.18.72,2.18,4.65S70,114.22,68.56,114.22Z"/><path class="cls-4" d="M76.77,113.12v-6.38l-1.79.8v-.76l1.9-.85h.66v7.19Z"/><path class="cls-4" d="M82,109.63h-.73V109H82a1.16,1.16,0,0,0,1.22-1.23A1.2,1.2,0,0,0,82,106.48a1.18,1.18,0,0,0-1.27,1.25v.1h-.78v-.17a2.06,2.06,0,0,1,4.09,0,1.58,1.58,0,0,1-1.11,1.63,1.76,1.76,0,0,1,1.33,1.84A2.06,2.06,0,0,1,82,113.24a2.08,2.08,0,0,1-2.26-2.16V111h.76v.06a1.42,1.42,0,0,0,1.5,1.52,1.4,1.4,0,0,0,1.49-1.47A1.36,1.36,0,0,0,82,109.63Z"/><path class="cls-4" d="M87.6,110.68A3.74,3.74,0,0,1,85.23,113v-.67c1-.47,2-1.4,2-3.66V105.5H88v3.21c0,2.26,1,3.16,2,3.66V113A3.9,3.9,0,0,1,87.6,110.68Zm4.53-5.27v8.19h-.74v-8.19Z"/><path class="cls-4" d="M93.65,109.43h3v.68h-3Z"/><path class="cls-4" d="M100,113.12v-6.38l-1.79.8v-.76l1.9-.85h.66v7.19Z"/><path class="cls-4" d="M102.8,111.16a1.8,1.8,0,0,1,1.39-1.85,1.67,1.67,0,0,1-1.18-1.64,2.17,2.17,0,0,1,4.3,0,1.66,1.66,0,0,1-1.16,1.64,1.8,1.8,0,0,1,1.38,1.85,2.38,2.38,0,0,1-4.73,0Zm2.37,1.41a1.47,1.47,0,1,0,0-2.93,1.47,1.47,0,1,0,0,2.93Zm0-6.09a1.26,1.26,0,1,0,1.37,1.25A1.24,1.24,0,0,0,105.17,106.48Z"/><path class="cls-4" d="M110.79,110.68a3.74,3.74,0,0,1-2.37,2.36v-.67c1-.47,2-1.4,2-3.66V105.5h.73v3.21c0,2.26,1,3.16,2,3.66V113A3.9,3.9,0,0,1,110.79,110.68Zm4.53-5.27v8.19h-.74v-8.19Z"/><path class="cls-4" d="M66,206.81h-.73v-.67H66a1.16,1.16,0,0,0,1.22-1.24,1.28,1.28,0,0,0-2.55,0v.1h-.77v-.17a2.06,2.06,0,0,1,4.09,0,1.6,1.6,0,0,1-1.11,1.64,1.75,1.75,0,0,1,1.33,1.83,2.06,2.06,0,0,1-2.26,2.11,2.09,2.09,0,0,1-2.27-2.15v-.1h.77v.06a1.42,1.42,0,0,0,1.5,1.52,1.39,1.39,0,0,0,1.48-1.47A1.35,1.35,0,0,0,66,206.81Z"/><path class="cls-4" d="M69.69,206.51a1.71,1.71,0,0,1,.62-1.34,2.53,2.53,0,0,1,2.94,0,1.71,1.71,0,0,1,.62,1.34,1.68,1.68,0,0,1-.62,1.33,2.14,2.14,0,0,1-1.11.46v1.37h1.11a3.27,3.27,0,0,0,2.09-.53v-6.56h.74v8.21h-.74v-1a3.77,3.77,0,0,1-2.36.53H69.3v-.64h2.11V208.3a2.19,2.19,0,0,1-1.1-.46A1.68,1.68,0,0,1,69.69,206.51Zm2.44-4.19v1.05h2V204H69.44v-.64h2v-1.05Zm-1.71,4.19a1.12,1.12,0,0,0,.37.85,1.49,1.49,0,0,0,1,.34,1.45,1.45,0,0,0,1-.34,1.13,1.13,0,0,0,.38-.85,1.09,1.09,0,0,0-.38-.84,1.41,1.41,0,0,0-1-.36,1.45,1.45,0,0,0-1,.36A1.09,1.09,0,0,0,70.42,206.51Z"/><path class="cls-4" d="M78,203.69H79.8v-1.37h.74v1.37h1.84v.63H80.54V206a3.63,3.63,0,0,0,1.92,3.59v.68a4,4,0,0,1-2.28-2.3,4.08,4.08,0,0,1-2.29,2.3v-.68A3.64,3.64,0,0,0,79.8,206v-1.63H78Zm6.48-1.11V206H85.8v.64H84.46v4.12h-.73v-8.21Z"/><path class="cls-4" d="M37.31,221.3v-6.37l-1.79.8V215l1.9-.86h.67v7.19Z"/><path class="cls-4" d="M44.14,220.76a2.32,2.32,0,0,1-3.24,0c-.48-.58-.71-1.4-.71-3s.23-2.48.71-3.05a2.32,2.32,0,0,1,3.24,0c.48.57.7,1.4.7,3.05S44.62,220.18,44.14,220.76Zm-.53-5.6a1.31,1.31,0,0,0-1.09-.5,1.34,1.34,0,0,0-1.09.5,7.33,7.33,0,0,0,0,5.11,1.31,1.31,0,0,0,1.09.48,1.28,1.28,0,0,0,1.09-.48,4.32,4.32,0,0,0,.46-2.56A4.26,4.26,0,0,0,43.61,215.16Z"/><path class="cls-4" d="M47,221.3h-.88v-1.09H47Z"/><path class="cls-4" d="M52,217.82l-2.48,2.81h3.28v.67h-4.3v-.61l2.88-3.27a1.86,1.86,0,0,0,.54-1.3,1.38,1.38,0,1,0-2.75,0v.2h-.78v-.21a2.16,2.16,0,0,1,4.32,0A2.32,2.32,0,0,1,52,217.82Z"/><path class="cls-4" d="M53.78,214.11h4.29v.61l-2.5,6.58h-.82l2.54-6.52H53.78Z"/><path class="cls-4" d="M60.35,221.3h-.87v-1.09h.87Z"/><path class="cls-4" d="M64.09,213.1v.66c-1,0-1.42.55-1.42,4s.43,4,1.42,4v.66c-1.49,0-2.19-.72-2.19-4.65S62.6,213.1,64.09,213.1Z"/><path class="cls-4" d="M65.21,217.53a1.66,1.66,0,0,1,.54-1.29,2.33,2.33,0,0,1,3,0,1.8,1.8,0,0,1,0,2.57,2,2,0,0,1-1.12.5v1.37h1.2a3,3,0,0,0,1.9-.52v-6.57h.74V217h1.33v.64H71.43v4.11h-.74v-1a3.09,3.09,0,0,1-2,.54H64.84v-.64h2v-1.37a2,2,0,0,1-1.11-.5A1.67,1.67,0,0,1,65.21,217.53Zm2.37-4.2v1h1.89V215H65v-.64h1.88v-1Zm-1.64,4.2a1.17,1.17,0,0,0,.33.83,1.45,1.45,0,0,0,1.91,0,1.22,1.22,0,0,0,0-1.67,1.42,1.42,0,0,0-1.91,0A1.16,1.16,0,0,0,65.94,217.53Z"/><path class="cls-4" d="M72.85,222.4v-.66c1,0,1.42-.54,1.42-4s-.43-4-1.42-4v-.66c1.48,0,2.18.72,2.18,4.65S74.33,222.4,72.85,222.4Z"/><path class="cls-4" d="M81.05,221.3v-6.37l-1.78.8V215l1.9-.86h.66v7.19Z"/><path class="cls-4" d="M86.29,217.82h-.73v-.67h.74a1.16,1.16,0,0,0,1.22-1.24,1.28,1.28,0,0,0-2.55,0v.1H84.2v-.16a2.06,2.06,0,0,1,4.09,0,1.59,1.59,0,0,1-1.11,1.63,1.74,1.74,0,0,1,1.32,1.83,2,2,0,0,1-2.25,2.11A2.09,2.09,0,0,1,84,219.27v-.09h.77v0a1.42,1.42,0,0,0,1.5,1.52,1.39,1.39,0,0,0,1.48-1.46A1.35,1.35,0,0,0,86.29,217.82Z"/><path class="cls-4" d="M89.36,217.62h3v.68h-3Z"/><path class="cls-4" d="M95.66,221.3v-6.37l-1.78.8V215l1.89-.86h.67v7.19Z"/><path class="cls-4" d="M98.51,219.34a1.8,1.8,0,0,1,1.39-1.84,1.67,1.67,0,0,1-1.18-1.64,2.17,2.17,0,0,1,4.3,0,1.66,1.66,0,0,1-1.16,1.64,1.8,1.8,0,0,1,1.38,1.84,2.38,2.38,0,0,1-4.73,0Zm2.37,1.41a1.43,1.43,0,0,0,1.59-1.45,1.6,1.6,0,1,0-1.59,1.45Zm0-6.09a1.26,1.26,0,1,0,1.37,1.26A1.25,1.25,0,0,0,100.88,214.66Z"/><path class="cls-4" d="M106.5,218.86a3.73,3.73,0,0,1-2.37,2.37v-.68c1-.47,2-1.39,2-3.66v-3.21h.73v3.21c0,2.27,1,3.17,2,3.66v.68A3.89,3.89,0,0,1,106.5,218.86Zm4.53-5.27v8.2h-.74v-8.2Z"/><path class="cls-4" d="M66.05,383.36a2.13,2.13,0,0,1,2.16,2.39A2.18,2.18,0,0,1,66,388.14a2,2,0,0,1-2-1.24,5.23,5.23,0,0,1-.29-2,6.64,6.64,0,0,1,.56-3.32,1.81,1.81,0,0,1,1.71-.88A1.89,1.89,0,0,1,68,382.48h-.81a1.15,1.15,0,0,0-1.26-1.1c-1,0-1.43.85-1.47,2.83A1.64,1.64,0,0,1,66.05,383.36ZM66,387.47c.89,0,1.47-.63,1.47-1.72S66.86,384,66,384s-1.47.65-1.47,1.72S65.08,387.47,66,387.47Z"/><path class="cls-4" d="M69.69,384.25a1.7,1.7,0,0,1,.62-1.34,2.49,2.49,0,0,1,2.94,0,1.75,1.75,0,0,1,0,2.67,2.18,2.18,0,0,1-1.11.45v1.37h1.11a3.33,3.33,0,0,0,2.09-.52v-6.57h.74v8.21h-.74v-1A3.77,3.77,0,0,1,73,388H69.3v-.64h2.11V386a2.32,2.32,0,0,1-1.1-.45A1.71,1.71,0,0,1,69.69,384.25Zm2.44-4.2v1.05h2v.64H69.44v-.64h2v-1.05Zm-1.71,4.2a1.12,1.12,0,0,0,.37.84,1.49,1.49,0,0,0,1,.35,1.45,1.45,0,0,0,1-.35,1.13,1.13,0,0,0,.38-.84,1.1,1.1,0,0,0-.38-.85,1.41,1.41,0,0,0-1-.36,1.45,1.45,0,0,0-1,.36A1.09,1.09,0,0,0,70.42,384.25Z"/><path class="cls-4" d="M78,381.42H79.8v-1.37h.74v1.37h1.84v.63H80.54v1.64a3.61,3.61,0,0,0,1.92,3.58V388a4,4,0,0,1-2.28-2.3,4,4,0,0,1-2.29,2.3v-.68a3.62,3.62,0,0,0,1.91-3.58v-1.64H78Zm6.48-1.11v3.45H85.8v.64H84.46v4.12h-.73v-8.21Z"/><path class="cls-4" d="M40,399v-6.38l-1.79.8v-.76l1.9-.85h.67V399Z"/><path class="cls-4" d="M45.42,399v-6.38l-1.79.8v-.76l1.9-.85h.67V399Z"/><path class="cls-4" d="M49.66,399h-.87v-1.1h.87Z"/><path class="cls-4" d="M52.07,395.81H51.3l.18-4h3.58v.67H52.21l-.12,2.5a1.47,1.47,0,0,1,1.29-.64c1.23,0,2.07.82,2.07,2.4a2.1,2.1,0,0,1-2.2,2.37,2.05,2.05,0,0,1-2.2-2h.78a1.34,1.34,0,0,0,1.42,1.36c.9,0,1.43-.61,1.43-1.73s-.53-1.71-1.43-1.71A1.22,1.22,0,0,0,52.07,395.81Z"/><path class="cls-4" d="M57.65,399h-.87v-1.1h.87Z"/><path class="cls-4" d="M61.38,390.83v.66c-1,0-1.42.55-1.42,4s.43,4,1.42,4v.66c-1.48,0-2.18-.73-2.18-4.66S59.9,390.83,61.38,390.83Z"/><path class="cls-4" d="M68.9,394.26H66.12v1.22h3.34v.63H62.07v-.63h3.31v-1.22H62.63v-2.84H68.9Zm-.74,5.41v-1.83h-5.6v-.63H68.9v2.46Zm0-6v-1.58h-4.8v1.58Z"/><path class="cls-4" d="M70.15,400.14v-.66c1,0,1.41-.54,1.41-4s-.42-4-1.41-4v-.66c1.48,0,2.17.72,2.17,4.65S71.63,400.14,70.15,400.14Z"/><path class="cls-4" d="M78.35,399v-6.38l-1.79.8v-.76l1.9-.85h.67V399Z"/><path class="cls-4" d="M83.58,395.55h-.72v-.67h.74a1.16,1.16,0,0,0,1.22-1.24,1.28,1.28,0,0,0-2.55,0v.1h-.78v-.16a2.06,2.06,0,0,1,4.1,0,1.58,1.58,0,0,1-1.12,1.63,1.75,1.75,0,0,1,1.33,1.84,2,2,0,0,1-2.25,2.1A2.09,2.09,0,0,1,81.28,397v-.09h.77v0a1.41,1.41,0,0,0,1.5,1.53A1.39,1.39,0,0,0,85,397,1.36,1.36,0,0,0,83.58,395.55Z"/><path class="cls-4" d="M86.66,395.35h3V396h-3Z"/><path class="cls-4" d="M93,399v-6.38l-1.79.8v-.76l1.9-.85h.67V399Z"/><path class="cls-4" d="M95.81,397.07a1.8,1.8,0,0,1,1.38-1.84A1.67,1.67,0,0,1,96,393.59a2.17,2.17,0,0,1,4.3,0,1.66,1.66,0,0,1-1.16,1.64,1.8,1.8,0,0,1,1.38,1.84,2.38,2.38,0,0,1-4.73,0Zm2.36,1.42A1.47,1.47,0,1,0,96.58,397,1.44,1.44,0,0,0,98.17,398.49Zm0-6.09a1.26,1.26,0,1,0,1.38,1.25A1.24,1.24,0,0,0,98.17,392.4Z"/><path class="cls-4" d="M103.8,396.6a3.75,3.75,0,0,1-2.38,2.36v-.68c1-.46,2-1.39,2-3.66v-3.2h.74v3.2c0,2.27,1,3.17,2,3.66V399A3.9,3.9,0,0,1,103.8,396.6Zm4.53-5.28v8.2h-.74v-8.2Z"/><path class="cls-4" d="M64.78,321.62H64l.18-4h3.58v.67H64.92l-.12,2.51a1.47,1.47,0,0,1,1.29-.65c1.23,0,2.07.83,2.07,2.41A2.1,2.1,0,0,1,66,325a2.05,2.05,0,0,1-2.2-2h.78A1.34,1.34,0,0,0,66,324.29c.9,0,1.43-.6,1.43-1.72s-.53-1.72-1.43-1.72A1.23,1.23,0,0,0,64.78,321.62Z"/><path class="cls-4" d="M69.69,321.06a1.69,1.69,0,0,1,.62-1.33,2.49,2.49,0,0,1,2.94,0,1.74,1.74,0,0,1,0,2.66,2.14,2.14,0,0,1-1.11.46v1.37h1.11a3.33,3.33,0,0,0,2.09-.52v-6.57h.74v8.21h-.74v-1a3.77,3.77,0,0,1-2.36.53H69.3v-.64h2.11v-1.37a2.19,2.19,0,0,1-1.1-.46A1.68,1.68,0,0,1,69.69,321.06Zm2.44-4.19v1.05h2v.64H69.44v-.64h2v-1.05Zm-1.71,4.19a1.12,1.12,0,0,0,.37.85,1.49,1.49,0,0,0,1,.35,1.45,1.45,0,0,0,1-.35,1.13,1.13,0,0,0,.38-.85,1.09,1.09,0,0,0-.38-.84,1.41,1.41,0,0,0-1-.36,1.45,1.45,0,0,0-1,.36A1.09,1.09,0,0,0,70.42,321.06Z"/><path class="cls-4" d="M78,318.24H79.8v-1.37h.74v1.37h1.84v.63H80.54v1.64a3.61,3.61,0,0,0,1.92,3.58v.68a4,4,0,0,1-2.28-2.3,4,4,0,0,1-2.29,2.3v-.68a3.62,3.62,0,0,0,1.91-3.58v-1.64H78Zm6.48-1.11v3.45H85.8v.64H84.46v4.12h-.73v-8.21Z"/><path class="cls-4" d="M40,335.86v-6.38l-1.79.8v-.76l1.9-.85h.67v7.19Z"/><path class="cls-4" d="M45.42,335.86v-6.38l-1.79.8v-.76l1.9-.85h.67v7.19Z"/><path class="cls-4" d="M49.66,335.86h-.87v-1.1h.87Z"/><path class="cls-4" d="M53.24,332.37h-.73v-.67h.74a1.16,1.16,0,0,0,1.22-1.24,1.28,1.28,0,0,0-2.55,0v.1h-.78v-.16a2.06,2.06,0,0,1,4.1,0A1.58,1.58,0,0,1,54.13,332a1.75,1.75,0,0,1,1.32,1.84A2,2,0,0,1,53.2,336a2.09,2.09,0,0,1-2.27-2.15v-.09h.77v0a1.42,1.42,0,0,0,1.5,1.53,1.39,1.39,0,0,0,1.48-1.47A1.35,1.35,0,0,0,53.24,332.37Z"/><path class="cls-4" d="M57.65,335.86h-.87v-1.1h.87Z"/><path class="cls-4" d="M61.38,327.65v.66c-1,0-1.42.55-1.42,4s.43,4,1.42,4V337c-1.48,0-2.18-.73-2.18-4.66S59.9,327.65,61.38,327.65Z"/><path class="cls-4" d="M62.5,332.08a1.7,1.7,0,0,1,.55-1.29,2.06,2.06,0,0,1,1.47-.53,2.12,2.12,0,0,1,1.49.53,1.72,1.72,0,0,1,.54,1.29,1.7,1.7,0,0,1-.54,1.28,2.08,2.08,0,0,1-1.12.51v1.36h1.2a3,3,0,0,0,1.9-.52v-6.57h.73v3.45h1.34v.64H68.72v4.11H68v-1a3.11,3.11,0,0,1-2,.54H62.14v-.64h2v-1.36a2,2,0,0,1-1.11-.51A1.67,1.67,0,0,1,62.5,332.08Zm2.38-4.19v1h1.89v.64H62.26v-.64h1.88v-1Zm-1.64,4.19a1.17,1.17,0,0,0,.33.83,1.45,1.45,0,0,0,1.91,0,1.22,1.22,0,0,0,0-1.67,1.45,1.45,0,0,0-1.91,0A1.16,1.16,0,0,0,63.24,332.08Z"/><path class="cls-4" d="M70.15,337v-.66c1,0,1.41-.54,1.41-4s-.42-4-1.41-4v-.66c1.48,0,2.17.72,2.17,4.65S71.63,337,70.15,337Z"/><path class="cls-4" d="M78.35,335.86v-6.38l-1.79.8v-.76l1.9-.85h.67v7.19Z"/><path class="cls-4" d="M83.58,332.37h-.72v-.67h.74a1.16,1.16,0,0,0,1.22-1.24,1.28,1.28,0,0,0-2.55,0v.1h-.78v-.16a2.06,2.06,0,0,1,4.1,0A1.58,1.58,0,0,1,84.47,332a1.75,1.75,0,0,1,1.33,1.84,2,2,0,0,1-2.25,2.1,2.09,2.09,0,0,1-2.27-2.15v-.09h.77v0a1.41,1.41,0,0,0,1.5,1.53A1.39,1.39,0,0,0,85,333.84,1.36,1.36,0,0,0,83.58,332.37Z"/><path class="cls-4" d="M86.66,332.17h3v.68h-3Z"/><path class="cls-4" d="M93,335.86v-6.38l-1.79.8v-.76l1.9-.85h.67v7.19Z"/><path class="cls-4" d="M95.81,333.89a1.8,1.8,0,0,1,1.38-1.84A1.67,1.67,0,0,1,96,330.41a2.17,2.17,0,0,1,4.3,0,1.66,1.66,0,0,1-1.16,1.64,1.8,1.8,0,0,1,1.38,1.84,2.38,2.38,0,0,1-4.73,0Zm2.36,1.42a1.47,1.47,0,1,0-1.59-1.46A1.44,1.44,0,0,0,98.17,335.31Zm0-6.09a1.26,1.26,0,1,0,1.38,1.25A1.24,1.24,0,0,0,98.17,329.22Z"/><path class="cls-4" d="M103.8,333.42a3.75,3.75,0,0,1-2.38,2.36v-.68c1-.46,2-1.39,2-3.66v-3.2h.74v3.2c0,2.27,1,3.17,2,3.66v.68A3.9,3.9,0,0,1,103.8,333.42Zm4.53-5.28v8.2h-.74v-8.2Z"/><path class="cls-4" d="M68.32,266.41h-.89V268h-.78v-1.6H63.6v-.67l3-4.92h.85v4.92h.89Zm-1.67-.67V262.1l-2.2,3.64Z"/><path class="cls-4" d="M69.69,264.23a1.71,1.71,0,0,1,.62-1.34,2.53,2.53,0,0,1,2.94,0,1.71,1.71,0,0,1,.62,1.34,1.68,1.68,0,0,1-.62,1.33,2.14,2.14,0,0,1-1.11.46v1.37h1.11a3.33,3.33,0,0,0,2.09-.52V260.3h.74v8.21h-.74v-1A3.77,3.77,0,0,1,73,268H69.3v-.64h2.11V266a2.19,2.19,0,0,1-1.1-.46A1.68,1.68,0,0,1,69.69,264.23ZM72.13,260v1h2v.64H69.44v-.64h2v-1Zm-1.71,4.19a1.12,1.12,0,0,0,.37.85,1.49,1.49,0,0,0,1,.35,1.45,1.45,0,0,0,1-.35,1.13,1.13,0,0,0,.38-.85,1.09,1.09,0,0,0-.38-.84,1.41,1.41,0,0,0-1-.36,1.45,1.45,0,0,0-1,.36A1.09,1.09,0,0,0,70.42,264.23Z"/><path class="cls-4" d="M78,261.41H79.8V260h.74v1.37h1.84V262H80.54v1.63a3.63,3.63,0,0,0,1.92,3.59v.68a4,4,0,0,1-2.28-2.3,4.08,4.08,0,0,1-2.29,2.3v-.68a3.64,3.64,0,0,0,1.91-3.59V262H78Zm6.48-1.11v3.45H85.8v.64H84.46v4.12h-.73V260.3Z"/><path class="cls-4" d="M37.31,279v-6.37l-1.79.8v-.76l1.9-.86h.67V279Z"/><path class="cls-4" d="M44.14,278.48a2.32,2.32,0,0,1-3.24,0c-.48-.57-.71-1.4-.71-3.05s.23-2.48.71-3.05a2.32,2.32,0,0,1,3.24,0c.48.57.7,1.4.7,3.05S44.62,277.91,44.14,278.48Zm-.53-5.6a1.31,1.31,0,0,0-1.09-.5,1.34,1.34,0,0,0-1.09.5,7.33,7.33,0,0,0,0,5.11,1.31,1.31,0,0,0,1.09.48,1.28,1.28,0,0,0,1.09-.48,7.33,7.33,0,0,0,0-5.11Z"/><path class="cls-4" d="M47,279h-.88v-1.09H47Z"/><path class="cls-4" d="M52,275.54l-2.48,2.81h3.28V279h-4.3v-.61l2.88-3.27a1.86,1.86,0,0,0,.54-1.3,1.38,1.38,0,1,0-2.75,0v.2h-.78v-.21a2.16,2.16,0,0,1,4.32,0A2.32,2.32,0,0,1,52,275.54Z"/><path class="cls-4" d="M55.79,276.49a2.13,2.13,0,0,1-2.16-2.38,2.17,2.17,0,0,1,2.24-2.39,2,2,0,0,1,2,1.24,5.21,5.21,0,0,1,.29,2,6.53,6.53,0,0,1-.57,3.33,1.77,1.77,0,0,1-1.69.87,1.87,1.87,0,0,1-2.06-1.76h.81a1.15,1.15,0,0,0,1.26,1.09c1,0,1.43-.84,1.47-2.82A1.65,1.65,0,0,1,55.79,276.49Zm.08-4.11c-.89,0-1.47.64-1.47,1.73s.58,1.71,1.47,1.71,1.47-.63,1.47-1.71S56.75,272.38,55.87,272.38Z"/><path class="cls-4" d="M60.35,279h-.87v-1.09h.87Z"/><path class="cls-4" d="M64.09,270.82v.66c-1,0-1.42.55-1.42,4s.43,4,1.42,4v.66c-1.49,0-2.19-.72-2.19-4.65S62.6,270.82,64.09,270.82Z"/><path class="cls-4" d="M71.6,274.25H68.82v1.22h3.34v.63H64.77v-.63h3.31v-1.22H65.33V271.4H71.6Zm-.73,5.41v-1.83H65.26v-.63H71.6v2.46Zm0-6V272H66.06v1.58Z"/><path class="cls-4" d="M72.85,280.12v-.66c1,0,1.42-.54,1.42-4s-.43-4-1.42-4v-.66c1.48,0,2.18.72,2.18,4.65S74.33,280.12,72.85,280.12Z"/><path class="cls-4" d="M81.05,279v-6.37l-1.78.8v-.76l1.9-.86h.66V279Z"/><path class="cls-4" d="M86.29,275.54h-.73v-.67h.74a1.16,1.16,0,0,0,1.22-1.24,1.28,1.28,0,0,0-2.55,0v.1H84.2v-.16a2.06,2.06,0,0,1,4.09,0,1.59,1.59,0,0,1-1.11,1.63A1.74,1.74,0,0,1,88.5,277a2,2,0,0,1-2.25,2.11A2.09,2.09,0,0,1,84,277v-.09h.77V277a1.42,1.42,0,0,0,1.5,1.52A1.39,1.39,0,0,0,87.73,277,1.35,1.35,0,0,0,86.29,275.54Z"/><path class="cls-4" d="M89.36,275.34h3V276h-3Z"/><path class="cls-4" d="M95.66,279v-6.37l-1.78.8v-.76l1.89-.86h.67V279Z"/><path class="cls-4" d="M98.51,277.06a1.8,1.8,0,0,1,1.39-1.84,1.67,1.67,0,0,1-1.18-1.64,2.17,2.17,0,0,1,4.3,0,1.66,1.66,0,0,1-1.16,1.64,1.8,1.8,0,0,1,1.38,1.84,2.38,2.38,0,0,1-4.73,0Zm2.37,1.41a1.43,1.43,0,0,0,1.59-1.45,1.6,1.6,0,1,0-1.59,1.45Zm0-6.09a1.26,1.26,0,1,0,1.37,1.26A1.25,1.25,0,0,0,100.88,272.38Z"/><path class="cls-4" d="M106.5,276.58a3.73,3.73,0,0,1-2.37,2.37v-.68c1-.47,2-1.39,2-3.66V271.4h.73v3.21c0,2.27,1,3.17,2,3.66V279A3.89,3.89,0,0,1,106.5,276.58Zm4.53-5.27v8.2h-.74v-8.2Z"/><path class="cls-4" d="M67.38,152.32l-2.49,2.81h3.28v.67h-4.3v-.61l2.88-3.28a1.78,1.78,0,0,0,.54-1.29,1.38,1.38,0,1,0-2.75,0v.2h-.78v-.21a2.16,2.16,0,0,1,4.32,0A2.33,2.33,0,0,1,67.38,152.32Z"/><path class="cls-4" d="M69.69,152a1.69,1.69,0,0,1,.62-1.33,2.49,2.49,0,0,1,2.94,0,1.74,1.74,0,0,1,0,2.66,2.14,2.14,0,0,1-1.11.46v1.37h1.11a3.33,3.33,0,0,0,2.09-.52v-6.57h.74v8.21h-.74v-1a3.77,3.77,0,0,1-2.36.53H69.3v-.64h2.11v-1.37a2.19,2.19,0,0,1-1.1-.46A1.68,1.68,0,0,1,69.69,152Zm2.44-4.19v1h2v.64H69.44v-.64h2v-1ZM70.42,152a1.12,1.12,0,0,0,.37.85,1.49,1.49,0,0,0,1,.35,1.45,1.45,0,0,0,1-.35,1.13,1.13,0,0,0,.38-.85,1.09,1.09,0,0,0-.38-.84,1.41,1.41,0,0,0-1-.36,1.45,1.45,0,0,0-1,.36A1.09,1.09,0,0,0,70.42,152Z"/><path class="cls-4" d="M78,149.2H79.8v-1.37h.74v1.37h1.84v.63H80.54v1.64a3.61,3.61,0,0,0,1.92,3.58v.68a4,4,0,0,1-2.28-2.3,4,4,0,0,1-2.29,2.3v-.68a3.62,3.62,0,0,0,1.91-3.58v-1.64H78Zm6.48-1.11v3.45H85.8v.64H84.46v4.12h-.73v-8.21Z"/><path class="cls-4" d="M37.31,166.82v-6.38l-1.79.8v-.76l1.9-.85h.67v7.19Z"/><path class="cls-4" d="M44.14,166.27a2.32,2.32,0,0,1-3.24,0c-.48-.57-.71-1.4-.71-3.05s.23-2.47.71-3.05a2.32,2.32,0,0,1,3.24,0c.48.58.7,1.4.7,3.05S44.62,165.7,44.14,166.27Zm-.53-5.6a1.3,1.3,0,0,0-1.09-.49,1.33,1.33,0,0,0-1.09.49,7.33,7.33,0,0,0,0,5.11,1.32,1.32,0,0,0,1.09.49,1.29,1.29,0,0,0,1.09-.49,7.33,7.33,0,0,0,0-5.11Z"/><path class="cls-4" d="M47,166.82h-.88v-1.1H47Z"/><path class="cls-4" d="M52,163.33l-2.48,2.82h3.28v.67h-4.3v-.62l2.88-3.27a1.86,1.86,0,0,0,.54-1.3,1.38,1.38,0,1,0-2.75,0v.21h-.78v-.21a2.16,2.16,0,0,1,4.32,0A2.3,2.3,0,0,1,52,163.33Z"/><path class="cls-4" d="M57.37,163.33l-2.49,2.82h3.29v.67h-4.3v-.62l2.88-3.27a1.86,1.86,0,0,0,.54-1.3,1.38,1.38,0,1,0-2.75,0v.21h-.78v-.21a2.16,2.16,0,0,1,4.32,0A2.3,2.3,0,0,1,57.37,163.33Z"/><path class="cls-4" d="M60.35,166.82h-.87v-1.1h.87Z"/><path class="cls-4" d="M64.09,158.61v.66c-1,0-1.42.55-1.42,4s.43,4,1.42,4v.66c-1.49,0-2.19-.73-2.19-4.66S62.6,158.61,64.09,158.61Z"/><path class="cls-4" d="M71.6,162H68.82v1.22h3.34v.63H64.77v-.63h3.31V162H65.33V159.2H71.6Zm-.73,5.41v-1.83H65.26V165H71.6v2.46Zm0-6v-1.58H66.06v1.58Z"/><path class="cls-4" d="M72.85,167.92v-.66c1,0,1.42-.54,1.42-4s-.43-4-1.42-4v-.66c1.48,0,2.18.72,2.18,4.65S74.33,167.92,72.85,167.92Z"/><path class="cls-4" d="M81.05,166.82v-6.38l-1.78.8v-.76l1.9-.85h.66v7.19Z"/><path class="cls-4" d="M86.29,163.33h-.73v-.67h.74a1.16,1.16,0,0,0,1.22-1.24,1.28,1.28,0,0,0-2.55,0v.1H84.2v-.16a2.06,2.06,0,0,1,4.09,0A1.58,1.58,0,0,1,87.18,163a1.75,1.75,0,0,1,1.32,1.84,2,2,0,0,1-2.25,2.1A2.09,2.09,0,0,1,84,164.78v-.09h.77v.05a1.42,1.42,0,0,0,1.5,1.53,1.39,1.39,0,0,0,1.48-1.47A1.35,1.35,0,0,0,86.29,163.33Z"/><path class="cls-4" d="M89.36,163.13h3v.68h-3Z"/><path class="cls-4" d="M95.66,166.82v-6.38l-1.78.8v-.76l1.89-.85h.67v7.19Z"/><path class="cls-4" d="M98.51,164.85A1.8,1.8,0,0,1,99.9,163a1.67,1.67,0,0,1-1.18-1.64,2.17,2.17,0,0,1,4.3,0,1.66,1.66,0,0,1-1.16,1.64,1.8,1.8,0,0,1,1.38,1.84,2.38,2.38,0,0,1-4.73,0Zm2.37,1.42a1.47,1.47,0,1,0-1.6-1.46A1.44,1.44,0,0,0,100.88,166.27Zm0-6.09a1.26,1.26,0,1,0,1.37,1.25A1.24,1.24,0,0,0,100.88,160.18Z"/><path class="cls-4" d="M106.5,164.38a3.74,3.74,0,0,1-2.37,2.36v-.68c1-.46,2-1.39,2-3.66v-3.2h.73v3.2c0,2.27,1,3.17,2,3.66v.68A3.9,3.9,0,0,1,106.5,164.38ZM111,159.1v8.2h-.74v-8.2Z"/><path class="cls-3" d="M179.89,70.59V65.77h1.83v4.82h3.55v1.58H175.19V70.59H177V65.77h1.82v4.82Zm3-4.7V63.11h-7.17V61.53h9v4a19.78,19.78,0,0,1-.31,3.62h-1.86A17.8,17.8,0,0,0,182.85,65.89Z"/><path class="cls-3" d="M194.87,67.91V69h1.51v3.8h-1.86V70.55h-7V69h1.59V67.91h-2.21V66.38h10.2v1.53Zm-7.49-4.27a1.77,1.77,0,0,1,.78-1.52,9.79,9.79,0,0,1,7.66,0,1.79,1.79,0,0,1,.78,1.52,1.73,1.73,0,0,1-.78,1.5,9.57,9.57,0,0,1-7.66,0A1.71,1.71,0,0,1,187.38,63.64Zm1.84,0a.55.55,0,0,0,.32.45,9,9,0,0,0,4.89,0,.5.5,0,0,0,0-.92,9,9,0,0,0-4.89,0A.56.56,0,0,0,189.22,63.64ZM193,69V67.91H190.9V69Z"/><path class="cls-3" d="M201.93,71.89h-3V61.46h1.78v8.89h1.47A2.92,2.92,0,0,0,204,70V61.4h1.74v4.23h.88V61.34h1.76V72.63h-1.76V67.21h-.88v5.33H204V71.45A3.4,3.4,0,0,1,201.93,71.89Z"/><path class="cls-3" d="M210.87,63.58a1.71,1.71,0,0,1,.71-1.46,10.14,10.14,0,0,1,7.8,0,1.82,1.82,0,0,1,0,2.9,2.92,2.92,0,0,1-1,.47v.93h2.17v1.51H210.37V66.42h2.23V65.5a3.32,3.32,0,0,1-1-.48A1.7,1.7,0,0,1,210.87,63.58Zm0,7.12a1.74,1.74,0,0,1,.93-1.59,10.77,10.77,0,0,1,7.37,0,1.82,1.82,0,0,1,0,3.18,10.77,10.77,0,0,1-7.37,0A1.73,1.73,0,0,1,210.87,70.7Zm1.85-7.12a.46.46,0,0,0,.21.38,5.55,5.55,0,0,0,2.56.35A5.48,5.48,0,0,0,218,64a.46.46,0,0,0,.21-.38.45.45,0,0,0-.21-.39,5.34,5.34,0,0,0-2.54-.35,5.42,5.42,0,0,0-2.56.35A.45.45,0,0,0,212.72,63.58Zm0,7.12a.47.47,0,0,0,.29.44,5.91,5.91,0,0,0,2.48.31,5.8,5.8,0,0,0,2.45-.31.47.47,0,0,0,.3-.44.51.51,0,0,0-.3-.45,6.13,6.13,0,0,0-2.45-.28,6.25,6.25,0,0,0-2.48.28A.52.52,0,0,0,212.72,70.7Zm3.87-4.92c-.36,0-.73,0-1.1,0s-.73,0-1.07,0v.63h2.17Z"/><path class="cls-4" d="M159.79,95.67A3.77,3.77,0,0,1,157.41,98v-.68c1-.46,2-1.39,2-3.66v-3.2h.74v3.2c0,2.27,1,3.17,2,3.66V98A3.86,3.86,0,0,1,159.79,95.67Zm4.37-5.28v3.45h1.34v.64h-1.34V98.6h-.73V90.39Z"/><path class="cls-4" d="M166.55,94.33a1.7,1.7,0,0,1,.62-1.34,2.49,2.49,0,0,1,2.94,0,1.67,1.67,0,0,1,.62,1.34,1.65,1.65,0,0,1-.62,1.33,2.19,2.19,0,0,1-1.11.46v1.36h1.11A3.33,3.33,0,0,0,172.2,97V90.39h.74V98.6h-.74v-1a3.7,3.7,0,0,1-2.36.53h-3.68v-.64h2.11V96.12a2.28,2.28,0,0,1-1.1-.46A1.68,1.68,0,0,1,166.55,94.33ZM169,90.14v1h2v.64H166.3v-.64h2v-1Zm-1.71,4.19a1.1,1.1,0,0,0,.37.84,1.49,1.49,0,0,0,1,.35,1.45,1.45,0,0,0,1-.35,1.13,1.13,0,0,0,0-1.69,1.41,1.41,0,0,0-1-.35,1.44,1.44,0,0,0-1,.35A1.11,1.11,0,0,0,167.28,94.33Z"/><path class="cls-4" d="M174.63,91.67v-.62h2v-.91h.72v.91h1.92v.62Zm.25,2.18a1.34,1.34,0,0,1,.6-1.11,3,3,0,0,1,3,0,1.33,1.33,0,0,1,0,2.22,3,3,0,0,1-3,0A1.33,1.33,0,0,1,174.88,93.85Zm5.94,4.89v-2h-5.47v-.64h6.2v2.63Zm-5.22-4.89a.76.76,0,0,0,.33.63,1.94,1.94,0,0,0,2.07,0,.76.76,0,0,0,0-1.25,1.94,1.94,0,0,0-2.07,0A.75.75,0,0,0,175.6,93.85Zm3.74-1v-.61h1.48V90.39h.73v5h-.73v-.93h-1.48v-.6h1.48v-1Z"/><path class="cls-4" d="M185.89,90.44V91.9a2.58,2.58,0,0,0,2,2.55v.66a3.65,3.65,0,0,1-2.32-1.71,3.46,3.46,0,0,1-2.32,1.81v-.67a2.69,2.69,0,0,0,2-2.64V90.44Zm4.4,8.2H184V96h.75V98h5.51Zm-.16-2.53h-.73V90.39h.73Z"/><path class="cls-4" d="M193.19,93.58h.74v3.9h1.92a3,3,0,0,0,1.9-.52V90.39h.73v3.45h1.34v.64h-1.34v4.11h-.73v-1a3.11,3.11,0,0,1-2,.54H191.9v-.64h1.29Zm2.32.11V91.18h-3.32v-.64h4.05v3a11.75,11.75,0,0,1-.2,2.29h-.72A11.87,11.87,0,0,0,195.51,93.69Z"/><path class="cls-4" d="M203,91.15h1.72v-1h.73v1h1.72v.65h-1.72v.11a2.29,2.29,0,0,0,1.87,2.34v.66a3.26,3.26,0,0,1-2.22-1.56A3.2,3.2,0,0,1,202.87,95v-.66a2.37,2.37,0,0,0,1.86-2.45V91.8H203Zm.37,6A1.32,1.32,0,0,1,204,96a6.41,6.41,0,0,1,5.06,0,1.29,1.29,0,0,1,.63,1.14,1.26,1.26,0,0,1-.63,1.13,6.53,6.53,0,0,1-5.06,0A1.29,1.29,0,0,1,203.38,97.16Zm.74,0a.72.72,0,0,0,.35.61,5.48,5.48,0,0,0,4.16,0,.72.72,0,0,0,0-1.22,5.48,5.48,0,0,0-4.16,0A.72.72,0,0,0,204.12,97.16Zm5.38-6.77v2h1.26V93H209.5v2.16h-.73V90.39Z"/><path class="cls-4" d="M218.29,98.6h-.75v-1a3.69,3.69,0,0,1-2.35.53H211.5v-.64h3.95a3.33,3.33,0,0,0,2.09-.52V90.39h.75ZM211.79,93a2.59,2.59,0,0,1,.76-2,2.37,2.37,0,0,1,2.94,0,2.59,2.59,0,0,1,.76,2,2.62,2.62,0,0,1-.76,2,2.41,2.41,0,0,1-2.94,0A2.62,2.62,0,0,1,211.79,93Zm.75,0A2.07,2.07,0,0,0,213,94.5a1.41,1.41,0,0,0,1,.35,1.38,1.38,0,0,0,1-.35,2.51,2.51,0,0,0,0-3.06,1.34,1.34,0,0,0-1-.35,1.36,1.36,0,0,0-1,.35A2.07,2.07,0,0,0,212.54,93Z"/><path class="cls-4" d="M220,91.67v-.62h2v-.91h.72v.91h1.92v.62Zm.26,2.18a1.36,1.36,0,0,1,.59-1.11,2.65,2.65,0,0,1,1.49-.39,2.62,2.62,0,0,1,1.48.39,1.33,1.33,0,0,1,0,2.22,2.54,2.54,0,0,1-1.48.4,2.58,2.58,0,0,1-1.49-.4A1.34,1.34,0,0,1,220.23,93.85Zm5.93,4.89v-2h-5.47v-.64h6.2v2.63Zm-5.22-4.89a.76.76,0,0,0,.33.63,1.71,1.71,0,0,0,1,.3,1.66,1.66,0,0,0,1-.3.76.76,0,0,0,0-1.25,1.66,1.66,0,0,0-1-.3,1.71,1.71,0,0,0-1,.3A.75.75,0,0,0,220.94,93.85Zm3.74-1v-.61h1.48V90.39h.73v5h-.73v-.93h-1.48v-.6h1.48v-1Z"/><path class="cls-4" d="M231.24,90.44V91.9a2.58,2.58,0,0,0,1.94,2.55v.66a3.7,3.7,0,0,1-2.32-1.71,3.46,3.46,0,0,1-2.32,1.81v-.67a2.69,2.69,0,0,0,2-2.64V90.44Zm4.39,8.2h-6.25V96h.74V98h5.51Zm-.16-2.53h-.73V90.39h.73Z"/><path class="cls-4" d="M168.19,102.9h2.49v-1.4h.72v4.17h-3.93V101.5h.72Zm-.35,5.27a1.29,1.29,0,0,1,.64-1.13,6.3,6.3,0,0,1,5.06,0,1.33,1.33,0,0,1,0,2.26,6.41,6.41,0,0,1-5.06,0A1.28,1.28,0,0,1,167.84,108.17Zm2.84-3.13v-1.51h-2.49V105Zm-2.1,3.13a.72.72,0,0,0,.35.61,5.48,5.48,0,0,0,4.16,0,.71.71,0,0,0,.34-.61.72.72,0,0,0-.34-.61,5.61,5.61,0,0,0-4.16,0A.73.73,0,0,0,168.58,108.17Zm5.38-6.76v2h1.26V104H174v2.16h-.73v-4.76Z"/><path class="cls-4" d="M176.88,102.85h2.48V101.5h.72v1.71h2v-1.8h.73v4.4H182v-2h-2v1.66h-3.92v-4h.72Zm5.16,4.53v-1h.73v3.34h-6.1v-3.34h.75v1Zm-2.68-2.5v-1.4h-2.48v1.4ZM182,108h-4.62v1.06H182Z"/><path class="cls-4" d="M185.76,103.7v1h5.59v.62h-2.83v1h3.34V107h-7.4v-.62h3.32v-1H185v-2.21h5.54v-1H185v-.62h6.28v2.2Zm0,3.92V109h5.7v.62H185v-2Z"/><path class="cls-4" d="M195.73,105.29a5.19,5.19,0,0,1,.74-3.31,1.73,1.73,0,0,1,1.36-.57,1.76,1.76,0,0,1,1.37.57c.56.63.73,1.76.73,3.31a5.16,5.16,0,0,1-.73,3.3,1.72,1.72,0,0,1-1.37.56,1.7,1.7,0,0,1-1.36-.56A5.21,5.21,0,0,1,195.73,105.29Zm3.47,0a4.89,4.89,0,0,0-.54-2.88,1,1,0,0,0-.83-.36,1.1,1.1,0,0,0-.83.36,5.07,5.07,0,0,0-.53,2.88,5.08,5.08,0,0,0,.53,2.87,1.07,1.07,0,0,0,.83.36,1,1,0,0,0,.83-.36A4.89,4.89,0,0,0,199.2,105.29Zm3.15-3.88v8.19h-.75v-8.19Z"/><path class="cls-4" d="M204.18,103.06v-.65h1.4v-1.26h.74v1.26h1.36v.65Zm.18,3.46a3,3,0,0,1,.72-2.39,1.44,1.44,0,0,1,.88-.28,1.39,1.39,0,0,1,.87.28,4.29,4.29,0,0,1,0,4.79,1.33,1.33,0,0,1-.87.27,1.38,1.38,0,0,1-.88-.27A3,3,0,0,1,204.36,106.52Zm.71,0a2.74,2.74,0,0,0,.42,1.86.63.63,0,0,0,.47.2.61.61,0,0,0,.46-.2,2.74,2.74,0,0,0,.42-1.86,2.71,2.71,0,0,0-.42-1.85.57.57,0,0,0-.46-.19.59.59,0,0,0-.47.19A2.71,2.71,0,0,0,205.07,106.52Zm6,3.09h-.7v-4.18h-1.1v4.09h-.7v-8.07h.7v3.34h1.1v-3.38h.7Z"/><path class="cls-4" d="M214.54,101.15h.74v1.26h2v.65h-4.72v-.65h2Zm-1.62,5.39a2.93,2.93,0,0,1,.76-2.23,2.06,2.06,0,0,1,2.52,0,2.93,2.93,0,0,1,.76,2.23,2.9,2.9,0,0,1-.76,2.23,2.1,2.1,0,0,1-2.52,0A2.9,2.9,0,0,1,212.92,106.54Zm.74,0a2.44,2.44,0,0,0,.48,1.73,1.22,1.22,0,0,0,1.6,0,2.44,2.44,0,0,0,.48-1.73,2.38,2.38,0,0,0-.48-1.71,1.19,1.19,0,0,0-1.6,0A2.38,2.38,0,0,0,213.66,106.54Zm5.64-5.13v3.44h1.34v.65H219.3v4.11h-.73v-8.2Z"/><path class="cls-4" d="M224.69,103.29v-1.1h-3.11v-.64h3.85v1.66c0,3.11-1.21,5.18-3.91,5.89v-.69C223.66,107.77,224.69,106,224.69,103.29Zm3.4-1.88v8.19h-.75v-8.19Z"/><path class="cls-4" d="M185.28,114.46v.22h-.77v-.2a1.05,1.05,0,0,0-2.1,0,1.68,1.68,0,0,0,.63,1.26l2.37,2.53a4.9,4.9,0,0,0,.34-1.71h.78a5.1,5.1,0,0,1-.57,2.3l1.21,1.27h-1l-.68-.71a2.74,2.74,0,0,1-2.1.83,2.07,2.07,0,0,1-2.33-2.06,2.4,2.4,0,0,1,1.29-2.11,2.15,2.15,0,0,1-.76-1.6,1.64,1.64,0,0,1,1.83-1.66A1.63,1.63,0,0,1,185.28,114.46Zm-.25,4.42-2.21-2.33a1.89,1.89,0,0,0-.95,1.63,1.41,1.41,0,0,0,1.56,1.4A1.92,1.92,0,0,0,185,118.88Z"/><path class="cls-4" d="M191.07,114.38h3V115h-3v1.28H194a3.86,3.86,0,0,0,2.24-.46v-3.4H197v4.87h-.74v-.87a3.16,3.16,0,0,1-2,.48h-3.84v-4.39h3.9v.62h-3.16Zm-.22,6.34v-2.78H197v2.78Zm5.36-2.14h-4.62v1.5h4.62Z"/><path class="cls-4" d="M199.64,113.72h2.47v-1.21h.73v3.72h-3.93v-3.72h.73Zm.53,5.48v.92h5.47v.6h-6.21v-2.11h5.36v-.92h-5.36v-.59h6.1v2.1Zm1.94-3.57v-1.3h-2.47v1.3Zm3.42.8h-.74v-4h.74Z"/><path class="cls-4" d="M211.33,116.48h-3.84v-4h3.93v.65h-3.19v2.68h3.27a3.06,3.06,0,0,0,1.87-.45v-3h.74v4.67h-.74V116A3.19,3.19,0,0,1,211.33,116.48Zm-.25,4.35a4.79,4.79,0,0,1-2.52-.53,1.35,1.35,0,0,1,0-2.34,4.79,4.79,0,0,1,2.52-.54,4.85,4.85,0,0,1,2.53.54,1.35,1.35,0,0,1,0,2.34A4.85,4.85,0,0,1,211.08,120.83Zm0-2.77a4.22,4.22,0,0,0-2.07.41.81.81,0,0,0-.39.66.78.78,0,0,0,.39.65,5.31,5.31,0,0,0,4.14,0,.76.76,0,0,0,.41-.65.79.79,0,0,0-.41-.66A4.19,4.19,0,0,0,211.08,118.06Z"/><path class="cls-4" d="M139.19,209.36v-.61h1.46v-.92h.73v.92h1.43v.61Zm.15,2.17a1.43,1.43,0,0,1,.54-1.13A1.73,1.73,0,0,1,141,210a1.71,1.71,0,0,1,1.12.39,1.46,1.46,0,0,1,0,2.27,1.71,1.71,0,0,1-1.12.39,1.73,1.73,0,0,1-1.12-.39A1.44,1.44,0,0,1,139.34,211.53Zm6,4.9v-2h-5.52v-.64h6.27v2.63Zm-5.36-4.9a.9.9,0,0,0,.29.69,1,1,0,0,0,.68.25,1,1,0,0,0,.68-.25.9.9,0,0,0,.29-.69.91.91,0,0,0-.29-.68,1,1,0,0,0-.68-.24,1,1,0,0,0-.68.24A.91.91,0,0,0,140,211.53Zm6.11,1.52h-.72v-2.22h-1.21V213h-.7v-4.87h.7v2.05h1.21v-2.1h.72Z"/><path class="cls-4" d="M150.35,208.13v1.07a2.56,2.56,0,0,0,2,2.54v.66a3.6,3.6,0,0,1-2.32-1.7,3.48,3.48,0,0,1-2.32,1.81v-.67a2.69,2.69,0,0,0,2-2.64v-1.07Zm-1.86,8.25v-3.07h6.1v3.07Zm5.37-2.44h-4.63v1.81h4.63Zm.73-1.29h-.73v-4.57h.73Z"/><path class="cls-4" d="M156.53,212a5.18,5.18,0,0,1,.73-3.3,1.91,1.91,0,0,1,2.74,0c.56.63.73,1.76.73,3.3s-.17,2.67-.73,3.31a2,2,0,0,1-2.74,0A5.24,5.24,0,0,1,156.53,212Zm3.47,0a4.87,4.87,0,0,0-.54-2.87,1.06,1.06,0,0,0-.83-.36,1.09,1.09,0,0,0-.83.36,7.92,7.92,0,0,0,0,5.75,1.05,1.05,0,0,0,.83.36,1,1,0,0,0,.83-.36A4.91,4.91,0,0,0,160,212Zm3.14-3.88v8.2h-.74v-8.2Z"/><path class="cls-4" d="M164.91,214.14v-.65h7.3v.65h-1.65v2.27h-.73v-2.27h-2.52v2.27h-.72v-2.27Zm3.64-4.07a4.59,4.59,0,0,1-3.5,2.05v-.65c1.81-.35,3.12-1.29,3.12-2.92v-.42h.75v.42c0,1.63,1.33,2.56,3.13,2.92v.65A4.63,4.63,0,0,1,168.55,210.07Z"/><path class="cls-4" d="M176.16,208.18h4.16v.64h-1.71v.59a2.26,2.26,0,0,0,1.86,2.33v.66a3.14,3.14,0,0,1-2.21-1.56,3.2,3.2,0,0,1-2.24,1.67v-.66a2.33,2.33,0,0,0,1.85-2.44v-.59h-1.71Zm3.59,8.31a4.76,4.76,0,0,1-2.53-.53,1.32,1.32,0,0,1-.68-1.16,1.37,1.37,0,0,1,.68-1.18,6.2,6.2,0,0,1,5.06,0,1.38,1.38,0,0,1,.67,1.18,1.34,1.34,0,0,1-.67,1.16A4.78,4.78,0,0,1,179.75,216.49Zm0-2.77a4.12,4.12,0,0,0-2.08.42.77.77,0,0,0-.38.66.79.79,0,0,0,.38.65,4.24,4.24,0,0,0,2.08.41,4.19,4.19,0,0,0,2.07-.41.79.79,0,0,0,.4-.65.77.77,0,0,0-.4-.66A4.08,4.08,0,0,0,179.75,213.72Zm3-1H182v-2.23h-1.85v-.65H182v-1.79h.73Z"/><path class="cls-4" d="M191.32,216.29h-.74v-1a3.7,3.7,0,0,1-2.36.54h-3.68v-.65h4a3.33,3.33,0,0,0,2.09-.52v-6.57h.74Zm-6.49-5.63a2.59,2.59,0,0,1,.76-2,2.37,2.37,0,0,1,2.94,0,2.59,2.59,0,0,1,.76,2,2.62,2.62,0,0,1-.76,2,2.41,2.41,0,0,1-2.94,0A2.62,2.62,0,0,1,184.83,210.66Zm.74,0a2.08,2.08,0,0,0,.5,1.53,1.41,1.41,0,0,0,1,.35,1.38,1.38,0,0,0,1-.35,2.55,2.55,0,0,0,0-3.06,1.34,1.34,0,0,0-1-.35,1.36,1.36,0,0,0-1,.35A2.08,2.08,0,0,0,185.57,210.66Z"/><path class="cls-4" d="M195.76,212.05v-3.87h3.93v3.87Zm3.54,3.17a4.21,4.21,0,0,1-3.28,1.16v-.63c1.51,0,2.9-.57,2.9-1.47v0h-2.66v-.64h2.66v-.92h.74v.92h2.71v.64h-2.71v0c0,.9,1.42,1.44,2.94,1.47v.63A4.25,4.25,0,0,1,199.3,215.22Zm-.34-6.4h-2.47v2.59H199Zm3.41,3.85h-.73v-4.59h.73Z"/><path class="cls-4" d="M213.34,211h-2.78v1.22h3.34v.63h-7.39v-.63h3.31V211h-2.75v-2.84h6.27Zm-.73,5.41v-1.82H207V214h6.34v2.46Zm0-6v-1.59H207.8v1.59Z"/><path class="cls-4" d="M220.57,212.17h1.57v.64h-1.42v2.47h1.71v.65h-7.3v-.65h1.77v-2.47h-1.48v-.64h1.27v-3.3h-1.12v-.64H222v.64h-1.12v1.41A5.22,5.22,0,0,1,220.57,212.17Zm-3.14-3.3v3.3h2.43a5.2,5.2,0,0,0,.27-1.82v-1.48Zm2.55,3.94h-2.35v2.47H220Z"/><path class="cls-4" d="M226.32,208.13v.71a2.42,2.42,0,0,0,1.94,2.39v.66a3.6,3.6,0,0,1-2.32-1.63,3.38,3.38,0,0,1-2.32,1.72v-.65a2.54,2.54,0,0,0,1.95-2.49v-.71Zm-1.12,6.7v1h5.46v.59h-6.2v-2.16h5.36v-.95h-5.36v-.61h6.09v2.17Zm5.35-2.78h-.73v-2h-1.93v-.64h1.93v-1.32h.73Z"/><path class="cls-4" d="M232.52,208.18h4.17v.64H235v.59a2.26,2.26,0,0,0,1.86,2.33v.66a3.16,3.16,0,0,1-2.21-1.56,3.18,3.18,0,0,1-2.24,1.67v-.66a2.34,2.34,0,0,0,1.86-2.44v-.59h-1.72Zm3.59,8.31a4.7,4.7,0,0,1-2.52-.53,1.3,1.3,0,0,1-.68-1.16,1.35,1.35,0,0,1,.68-1.18,4.88,4.88,0,0,1,2.52-.54,5,5,0,0,1,2.53.54,1.39,1.39,0,0,1,.68,1.18,1.35,1.35,0,0,1-.68,1.16A4.76,4.76,0,0,1,236.11,216.49Zm0-2.77a4.05,4.05,0,0,0-2.07.42.78.78,0,0,0-.39.66.81.81,0,0,0,.39.65,5.43,5.43,0,0,0,4.14,0,.77.77,0,0,0,.4-.65.75.75,0,0,0-.4-.66A4.08,4.08,0,0,0,236.11,213.72Zm3-1h-.73v-2.23h-1.84v-.65h1.84v-1.79h.73Z"/><path class="cls-4" d="M242.73,207.83h.73v1.26h2v.65h-4.71v-.65h2Zm-1.63,5.39a2.92,2.92,0,0,1,.76-2.23,2.06,2.06,0,0,1,2.52,0,3.65,3.65,0,0,1,0,4.46,2.1,2.1,0,0,1-2.52,0A2.9,2.9,0,0,1,241.1,213.22Zm.74,0a2.41,2.41,0,0,0,.48,1.72,1.19,1.19,0,0,0,1.6,0,2.41,2.41,0,0,0,.48-1.72,2.38,2.38,0,0,0-.48-1.71,1.19,1.19,0,0,0-1.6,0A2.38,2.38,0,0,0,241.84,213.22Zm5.65-5.14v3.45h1.33v.65h-1.33v4.11h-.74v-8.21Z"/><path class="cls-4" d="M252.87,210v-1.09h-3.11v-.64h3.85v1.66c0,3.11-1.21,5.17-3.91,5.89v-.69C251.84,214.45,252.87,212.66,252.87,210Zm3.4-1.88v8.2h-.75v-8.2Z"/><path class="cls-4" d="M163,385.86v.71a2.42,2.42,0,0,0,1.95,2.39v.66a3.52,3.52,0,0,1-2.32-1.63,3.38,3.38,0,0,1-2.32,1.72v-.65a2.55,2.55,0,0,0,1.95-2.49v-.71Zm-1.12,6.7v1h5.47v.6H161.1V392h5.36V391H161.1v-.61h6.1v2.17Zm5.36-2.83h-.74v-3.91h.74Z"/><path class="cls-4" d="M169,387v-.6h1.46v-.87h.73v.87h1.43v.6Zm.15,2.1a1.44,1.44,0,0,1,.56-1.17,1.74,1.74,0,0,1,1.1-.34,1.72,1.72,0,0,1,1.1.34,1.5,1.5,0,0,1,0,2.34,1.78,1.78,0,0,1-1.1.34,1.8,1.8,0,0,1-1.1-.34A1.43,1.43,0,0,1,169.11,389.13Zm.42,3.6a1.14,1.14,0,0,1,.65-1,7.34,7.34,0,0,1,5.22,0,1.14,1.14,0,0,1,0,2.05,7.48,7.48,0,0,1-5.22,0A1.14,1.14,0,0,1,169.53,392.73Zm.27-3.6a.94.94,0,0,0,.3.69,1.11,1.11,0,0,0,.67.23,1.06,1.06,0,0,0,.67-.23.94.94,0,0,0,.3-.69.92.92,0,0,0-.3-.69,1,1,0,0,0-.67-.23,1,1,0,0,0-.67.23A.92.92,0,0,0,169.8,389.13Zm.47,3.6a.6.6,0,0,0,.36.52,4.86,4.86,0,0,0,2.16.35,4.8,4.8,0,0,0,2.16-.35.57.57,0,0,0,.35-.52.6.6,0,0,0-.35-.52,5,5,0,0,0-2.16-.35,5,5,0,0,0-2.16.35A.63.63,0,0,0,170.27,392.73Zm5.64-1.92h-.72v-2.26H174v2.11h-.7v-4.8h.7v2.05h1.21v-2.09h.72Z"/><path class="cls-4" d="M180,388.42v-1.81h-2.19V386h2.92v1.87H182v-2h.71v8.07H182v-2.64h-1.44v-.64H182v-2.17h-1.27c0,2.65-1,4.42-3,5v-.71C179.1,392.3,180,390.82,180,388.42Zm4.49,5.6h-.71v-8.2h.71Z"/><path class="cls-4" d="M186.44,388.59a.91.91,0,0,1,.37-.74,3,3,0,0,1,1.78-.45,2.94,2.94,0,0,1,1.77.45.92.92,0,0,1,.38.74.91.91,0,0,1-.38.74,2.59,2.59,0,0,1-1.44.44v.78h1.5a3.47,3.47,0,0,0,1.79-.41v-4.32h.73v5.66h-.73v-.77a3.14,3.14,0,0,1-2,.45H186v-.61h2.17v-.79a2.54,2.54,0,0,1-1.38-.43A.9.9,0,0,1,186.44,388.59Zm2.52-3v.79h2v.58h-4.72v-.58h2v-.79Zm3.25,8.6V392.7h-5.47v-.6h6.2v2.06Zm-5.08-5.57a.48.48,0,0,0,.2.35,2.1,2.1,0,0,0,1.26.29,2.16,2.16,0,0,0,1.27-.29.45.45,0,0,0,.18-.35.44.44,0,0,0-.18-.35,2.24,2.24,0,0,0-1.27-.29,2.18,2.18,0,0,0-1.26.29A.46.46,0,0,0,187.13,388.59Z"/><path class="cls-4" d="M197.12,391.87v-.65h7.3v.65h-3.29v2.29h-.75v-2.29Zm3.64-4.07a4.57,4.57,0,0,1-3.5,2.05v-.65c1.81-.35,3.12-1.28,3.12-2.91v-.43h.75v.43c0,1.62,1.34,2.55,3.13,2.91v.65A4.63,4.63,0,0,1,200.76,387.8Z"/><path class="cls-4" d="M209.76,390.11h-3.83v-2.42h3.16v-1.16h-3.16v-.62h3.9v2.39h-3.17v1.2h3.27a3.06,3.06,0,0,0,1.88-.45v-3.23h.73v4.58h-.73v-.77A3.26,3.26,0,0,1,209.76,390.11Zm2.05,1.78v-.95h.73v3.18h-6.1v-3.18h.74v.95Zm0,.62h-4.63v1h4.63Z"/><path class="cls-4" d="M216.13,385.56h.74v1.27h2v.64h-4.71v-.64h2ZM214.51,391a2.91,2.91,0,0,1,.76-2.23,2,2,0,0,1,2.51,0,2.91,2.91,0,0,1,.76,2.23,2.86,2.86,0,0,1-.76,2.23,2.09,2.09,0,0,1-2.51,0A2.86,2.86,0,0,1,214.51,391Zm.73,0a2.43,2.43,0,0,0,.49,1.73,1.16,1.16,0,0,0,.8.3,1.14,1.14,0,0,0,.79-.3,2.43,2.43,0,0,0,.49-1.73,2.39,2.39,0,0,0-.49-1.71,1.14,1.14,0,0,0-.79-.3,1.16,1.16,0,0,0-.8.3A2.39,2.39,0,0,0,215.24,391Zm5.65-5.13v3.45h1.34v.64h-1.34V394h-.73v-8.2Z"/><path class="cls-4" d="M226.28,387.7v-1.09h-3.12V386H227v1.66c0,3.11-1.21,5.18-3.9,5.89v-.69C225.25,392.18,226.28,390.39,226.28,387.7Zm3.39-1.88V394h-.74v-8.2Z"/><path class="cls-4" d="M235,390l-2.48,2.82h3.28v.67h-4.3v-.61l2.88-3.28a1.83,1.83,0,0,0,.54-1.29,1.38,1.38,0,1,0-2.75,0v.2h-.78v-.21a2.16,2.16,0,0,1,4.32,0A2.3,2.3,0,0,1,235,390Z"/><path class="cls-4" d="M147.15,312.31h2.11V313h-1.35v7.67h1.35v.66h-2.11Z"/><path class="cls-4" d="M150.14,317.86v-.64h7.4v.64Zm6.1,3.12v-1.57h-5.6v-.62H157V321Zm-4.8-6.16v.89H157v.6H150.7v-3.58H157v.61h-5.54v.88h5.44v.6Z"/><path class="cls-4" d="M162,313.37h-3.14v-.64h3.89v.47c0,2.54-1.62,3.68-4.1,3.94v-.64C160.74,316.29,162,315.26,162,313.37Zm-2.77,6a1.33,1.33,0,0,1,.61-1.12,4.6,4.6,0,0,1,2.56-.59,4.54,4.54,0,0,1,2.55.59,1.33,1.33,0,0,1,.61,1.12,1.36,1.36,0,0,1-.61,1.13,4.63,4.63,0,0,1-2.55.57,4.69,4.69,0,0,1-2.56-.57A1.36,1.36,0,0,1,159.26,319.35Zm.74,0a.8.8,0,0,0,.39.66,3.79,3.79,0,0,0,2,.4,3.84,3.84,0,0,0,2-.4.79.79,0,0,0,.38-.66.77.77,0,0,0-.38-.66,3.82,3.82,0,0,0-2-.41,3.78,3.78,0,0,0-2,.41A.79.79,0,0,0,160,319.35Zm5.38-6.71v1.91h1.26v.65h-1.26v2.11h-.73v-4.67Z"/><path class="cls-4" d="M169.11,321.3H167v-.66h1.35V313H167v-.66h2.11Z"/><path class="cls-4" d="M179.5,312.64v2.17h1.26v.65H179.5v2.16h-.74v-1a3.31,3.31,0,0,1-1.95.43h-4v-.63h1.45v-1.76H175v1.76h2a3.51,3.51,0,0,0,1.78-.4v-3.38Zm-3,1.58v-.85h-3.34v-.64h4.08v1.48a7.52,7.52,0,0,1-.14,1.39h-.73A6.74,6.74,0,0,0,176.53,314.22Zm-3.16,5.32a1.18,1.18,0,0,1,.67-1.05,7.05,7.05,0,0,1,5,0,1.17,1.17,0,0,1,.66,1.05,1.15,1.15,0,0,1-.66,1,7.05,7.05,0,0,1-5,0A1.16,1.16,0,0,1,173.37,319.54Zm.74,0a.62.62,0,0,0,.37.54,6.41,6.41,0,0,0,4.12,0,.61.61,0,0,0,.36-.54.63.63,0,0,0-.36-.54,6.59,6.59,0,0,0-4.12,0A.64.64,0,0,0,174.11,319.54Z"/><path class="cls-4" d="M181.46,318.69V318h7.3v.65h-3.29V321h-.74v-2.29Zm.44-5.31v-.65h6.41v.65h-2.84v.24c0,1.46,1.45,2.34,2.92,2.59v.66a4.56,4.56,0,0,1-3.29-1.93,4.58,4.58,0,0,1-3.3,1.93v-.66c1.46-.24,2.93-1.13,2.93-2.59v-.24Z"/><path class="cls-4" d="M192.28,317.91a3.8,3.8,0,0,1-2.37,2.37v-.68c1-.47,2-1.4,2-3.66v-3.21h.75v3.21c0,2.26,1,3.16,2,3.66v.68A3.92,3.92,0,0,1,192.28,317.91Zm4.38-5.27v3.45H198v.64h-1.33v4.12h-.74v-8.21Z"/><path class="cls-4" d="M199.05,316.57a1.69,1.69,0,0,1,.61-1.34,2.4,2.4,0,0,1,1.48-.47,2.3,2.3,0,0,1,1.46.47,1.68,1.68,0,0,1,.63,1.34,1.66,1.66,0,0,1-.63,1.33,2.07,2.07,0,0,1-1.11.46v1.37h1.11a3.31,3.31,0,0,0,2.1-.53v-6.56h.74v8.21h-.74v-1a3.79,3.79,0,0,1-2.36.53h-3.69v-.64h2.11v-1.37a2.23,2.23,0,0,1-1.1-.46A1.67,1.67,0,0,1,199.05,316.57Zm2.44-4.19v1.05h2v.64H198.8v-.64h1.95v-1.05Zm-1.72,4.19a1.15,1.15,0,0,0,.38.85,1.45,1.45,0,0,0,1,.34,1.49,1.49,0,0,0,1-.34,1.14,1.14,0,0,0,.37-.85,1.07,1.07,0,0,0-.37-.84,1.45,1.45,0,0,0-1-.36,1.41,1.41,0,0,0-1,.36A1.08,1.08,0,0,0,199.77,316.57Z"/><path class="cls-4" d="M207.12,313.91v-.61h2v-.92h.73v.92h1.91v.61Zm.26,2.19A1.34,1.34,0,0,1,208,315a3,3,0,0,1,3,0,1.34,1.34,0,0,1,.59,1.11,1.32,1.32,0,0,1-.59,1.1,2.91,2.91,0,0,1-3,0A1.32,1.32,0,0,1,207.38,316.1Zm5.93,4.88v-2h-5.46v-.64H214V321Zm-5.22-4.88a.78.78,0,0,0,.33.63,2,2,0,0,0,2.08,0,.77.77,0,0,0,0-1.26,2,2,0,0,0-2.08,0A.78.78,0,0,0,208.09,316.1Zm3.74-1v-.6h1.48v-1.88H214v5h-.73v-.92h-1.48v-.61h1.48v-1Z"/><path class="cls-4" d="M218.39,312.68v1.46a2.58,2.58,0,0,0,1.94,2.55v.66a3.65,3.65,0,0,1-2.32-1.7,3.45,3.45,0,0,1-2.32,1.8v-.67a2.69,2.69,0,0,0,2-2.64v-1.46Zm4.39,8.2h-6.25V318.2h.74v2.05h5.51Zm-.15-2.53h-.74v-5.71h.74Z"/><path class="cls-4" d="M224.32,316.6V316h7.39v.62Zm5.59-2.09h1.41v.6h-6.61v-.6H226v-1.17h-1.11v-.61h6.27v.61H230v.51A1.39,1.39,0,0,1,229.91,314.51Zm-4.3,5v.82h5.74v.6h-6.47v-2h5.54v-.83h-5.54v-.6h6.27v2Zm1.11-6.18v1.17h2.47a1.49,1.49,0,0,0,.12-.64v-.53Z"/><path class="cls-4" d="M235.53,317.31h-2.41V314.7h2.26v-1.36h-2.26v-.61h3v2.59h-2.26v1.39h1.88a2.72,2.72,0,0,0,1.58-.4v-3.63h.7v2h1.21v-2h.71v5.29h-.71v-2.62H238v2.28h-.7v-.69A2.89,2.89,0,0,1,235.53,317.31Zm1.09,2.21a4.75,4.75,0,0,1-3.36,1.42v-.64c1.56-.14,3-.85,3-2V318H237v.3c0,1.12,1.38,1.8,3,2v.64A4.85,4.85,0,0,1,236.62,319.52Z"/><path class="cls-4" d="M247,314.87h1.44v.61h-2.95v1.09h3.34v.63h-7.39v-.63h3.31v-1.09h-2.92v-.61h1.28v-1.51H242v-.63h6.27v.63H247.2v.69A1.82,1.82,0,0,1,247,314.87Zm1.27,6.07H242v-2.73h6.27Zm-.73-.63v-1.46h-4.81v1.46Zm-3.7-6.95v1.51h2.44a2,2,0,0,0,.15-.77v-.74Z"/><path class="cls-4" d="M163,334.71v.7a2.44,2.44,0,0,0,1.95,2.4v.66a3.55,3.55,0,0,1-2.32-1.63,3.41,3.41,0,0,1-2.32,1.72v-.65a2.56,2.56,0,0,0,1.95-2.5v-.7Zm-1.12,6.69v1h5.47V343H161.1V340.8h5.36v-1H161.1v-.6h6.1v2.16Zm5.36-2.82h-.74v-3.92h.74Z"/><path class="cls-4" d="M169,335.87v-.59h1.46v-.87h.73v.87h1.43v.59Zm.15,2.1a1.42,1.42,0,0,1,.56-1.16,1.74,1.74,0,0,1,1.1-.34,1.72,1.72,0,0,1,1.1.34,1.42,1.42,0,0,1,.56,1.16,1.45,1.45,0,0,1-.56,1.18,1.78,1.78,0,0,1-1.1.34,1.8,1.8,0,0,1-1.1-.34A1.45,1.45,0,0,1,169.11,338Zm.42,3.61a1.14,1.14,0,0,1,.65-1,7.2,7.2,0,0,1,5.22,0,1.13,1.13,0,0,1,0,2,7.48,7.48,0,0,1-5.22,0A1.13,1.13,0,0,1,169.53,341.58Zm.27-3.61a.91.91,0,0,0,.3.69,1.06,1.06,0,0,0,.67.24,1,1,0,0,0,.67-.24.91.91,0,0,0,.3-.69.92.92,0,0,0-.3-.68,1,1,0,0,0-.67-.23,1,1,0,0,0-.67.23A.92.92,0,0,0,169.8,338Zm.47,3.61a.61.61,0,0,0,.36.52,4.86,4.86,0,0,0,2.16.35,4.8,4.8,0,0,0,2.16-.35.58.58,0,0,0,.35-.52.62.62,0,0,0-.35-.53,5.13,5.13,0,0,0-2.16-.34,5.19,5.19,0,0,0-2.16.34A.65.65,0,0,0,170.27,341.58Zm5.64-1.93h-.72V337.4H174v2.1h-.7v-4.79h.7v2h1.21v-2.09h.72Z"/><path class="cls-4" d="M180,337.27v-1.82h-2.19v-.64h2.92v1.86H182v-2h.71v8.07H182v-2.64h-1.44v-.64H182v-2.18h-1.27c0,2.65-1,4.42-3,5v-.72C179.1,341.15,180,339.66,180,337.27Zm4.49,5.59h-.71v-8.2h.71Z"/><path class="cls-4" d="M186.44,337.43a.9.9,0,0,1,.37-.73,3,3,0,0,1,1.78-.45,2.94,2.94,0,0,1,1.77.45.9.9,0,0,1,0,1.47,2.59,2.59,0,0,1-1.44.45v.77h1.5a3.37,3.37,0,0,0,1.79-.41v-4.32h.73v5.67h-.73v-.77a3.21,3.21,0,0,1-2,.45H186v-.62h2.17v-.78a2.54,2.54,0,0,1-1.38-.44A.9.9,0,0,1,186.44,337.43Zm2.52-3v.78h2v.58h-4.72v-.58h2v-.78Zm3.25,8.6v-1.46h-5.47v-.61h6.2V343Zm-5.08-5.58a.48.48,0,0,0,.2.36,2.19,2.19,0,0,0,1.26.28,2.25,2.25,0,0,0,1.27-.28.45.45,0,0,0,.18-.36.44.44,0,0,0-.18-.35,2.25,2.25,0,0,0-1.27-.28,2.19,2.19,0,0,0-1.26.28A.46.46,0,0,0,187.13,337.43Z"/><path class="cls-4" d="M197.12,340.72v-.66h7.3v.66h-3.29V343h-.75v-2.29Zm3.64-4.08a4.6,4.6,0,0,1-3.5,2.06v-.65c1.81-.35,3.12-1.29,3.12-2.92v-.42h.75v.42c0,1.62,1.34,2.56,3.13,2.92v.65A4.63,4.63,0,0,1,200.76,336.64Z"/><path class="cls-4" d="M209.76,339h-3.83v-2.42h3.16v-1.15h-3.16v-.63h3.9v2.4h-3.17v1.2h3.27a3.06,3.06,0,0,0,1.88-.46v-3.23h.73v4.59h-.73v-.77A3.27,3.27,0,0,1,209.76,339Zm2.05,1.78v-.94h.73V343h-6.1v-3.17h.74v.94Zm0,.63h-4.63v1h4.63Z"/><path class="cls-4" d="M216.13,334.41h.74v1.26h2v.64h-4.71v-.64h2Zm-1.62,5.39a2.88,2.88,0,0,1,.76-2.23,2,2,0,0,1,2.51,0,3.65,3.65,0,0,1,0,4.46,2.09,2.09,0,0,1-2.51,0A2.88,2.88,0,0,1,214.51,339.8Zm.73,0a2.42,2.42,0,0,0,.49,1.72,1.16,1.16,0,0,0,.8.3,1.14,1.14,0,0,0,.79-.3,3.26,3.26,0,0,0,0-3.44,1.14,1.14,0,0,0-.79-.3,1.16,1.16,0,0,0-.8.3A2.41,2.41,0,0,0,215.24,339.8Zm5.65-5.14v3.45h1.34v.64h-1.34v4.12h-.73v-8.21Z"/><path class="cls-4" d="M226.28,336.54v-1.09h-3.12v-.64H227v1.66c0,3.11-1.21,5.17-3.9,5.89v-.69C225.25,341,226.28,339.24,226.28,336.54Zm3.39-1.88v8.2h-.74v-8.2Z"/><path class="cls-4" d="M233.7,342.37V336l-1.79.8V336l1.9-.85h.67v7.18Z"/><path class="cls-4" d="M144.16,263.93h-3.54v-7.48h3.87v.64h-3.14v6.21h2.93a2.85,2.85,0,0,0,2-.63V256.3H147v3.45h1.34v.64H147v4.12h-.74v-1.22A3,3,0,0,1,144.16,263.93Z"/><path class="cls-4" d="M149,258.37a2,2,0,0,1,.66-1.64,2.15,2.15,0,0,1,1.46-.49,2.17,2.17,0,0,1,1.47.49,2.38,2.38,0,0,1,0,3.29,2.22,2.22,0,0,1-1.47.49,2.2,2.2,0,0,1-1.46-.49A2.05,2.05,0,0,1,149,258.37Zm.46,4.64a1.32,1.32,0,0,1,.62-1.12,4.57,4.57,0,0,1,2.56-.59,4.48,4.48,0,0,1,2.54.59,1.32,1.32,0,0,1,.62,1.12,1.35,1.35,0,0,1-.62,1.13,4.57,4.57,0,0,1-2.54.57,4.67,4.67,0,0,1-2.56-.57A1.35,1.35,0,0,1,149.45,263Zm.25-4.64a1.58,1.58,0,0,0,.42,1.15,1.45,1.45,0,0,0,1,.35,1.39,1.39,0,0,0,1-.35,1.74,1.74,0,0,0,0-2.29,1.34,1.34,0,0,0-1-.34,1.4,1.4,0,0,0-1,.34A1.59,1.59,0,0,0,149.7,258.37Zm.5,4.64a.78.78,0,0,0,.39.66,3.75,3.75,0,0,0,2,.41,3.85,3.85,0,0,0,2-.41.76.76,0,0,0,0-1.32,4,4,0,0,0-2-.41,3.85,3.85,0,0,0-2,.41A.78.78,0,0,0,150.2,263Zm5.38-5.74h1.21v.64h-1.21v1.27h1.21v.65h-1.21V261h-.74V256.3h.74Z"/><path class="cls-4" d="M157.37,257.62V257h2v-1h.73v1H162v.61Zm.26,2.33a1.41,1.41,0,0,1,.58-1.18,2.4,2.4,0,0,1,1.49-.44,2.46,2.46,0,0,1,1.51.44,1.5,1.5,0,0,1,0,2.35,2.46,2.46,0,0,1-1.51.44,2.4,2.4,0,0,1-1.49-.44A1.42,1.42,0,0,1,157.63,260Zm1.25,2.25v1.71h5.43v.63h-6.17V262.2Zm-.54-2.25a.9.9,0,0,0,.34.7,1.8,1.8,0,0,0,2,0,.9.9,0,0,0,.34-.7.92.92,0,0,0-.34-.71,1.8,1.8,0,0,0-2,0A.92.92,0,0,0,158.34,260Zm5.82-3.65v2.42h1.26v.65h-1.26v2.89h-.74v-6Z"/><path class="cls-4" d="M168.77,260.18a5.17,5.17,0,0,1,.73-3.3,1.91,1.91,0,0,1,2.74,0,7.82,7.82,0,0,1,0,6.6,2,2,0,0,1-2.74,0A5.2,5.2,0,0,1,168.77,260.18Zm3.47,0a4.74,4.74,0,0,0-.55-2.87,1,1,0,0,0-.82-.37,1.06,1.06,0,0,0-.83.37,4.91,4.91,0,0,0-.54,2.87,5,5,0,0,0,.54,2.88,1,1,0,0,0,.83.35,1,1,0,0,0,.82-.35A4.86,4.86,0,0,0,172.24,260.18Zm3.14-3.88v8.2h-.74v-8.2Z"/><path class="cls-4" d="M177.21,258v-.64h1.41V256h.74v1.27h1.35V258Zm.19,3.47a3,3,0,0,1,.72-2.4,1.41,1.41,0,0,1,.87-.28,1.37,1.37,0,0,1,.87.28,4.25,4.25,0,0,1,0,4.79,1.31,1.31,0,0,1-.87.27,1.35,1.35,0,0,1-.87-.27A3,3,0,0,1,177.4,261.42Zm.7,0a2.76,2.76,0,0,0,.42,1.85.61.61,0,0,0,.47.2.6.6,0,0,0,.47-.2,2.76,2.76,0,0,0,.42-1.85,2.8,2.8,0,0,0-.42-1.86.63.63,0,0,0-.47-.19.64.64,0,0,0-.47.19A2.8,2.8,0,0,0,178.1,261.42Zm6,3.09h-.71v-4.19h-1.1v4.09h-.69v-8.07h.69v3.34h1.1V256.3h.71Z"/><path class="cls-4" d="M192.34,256.3v2.49h1.27v.64h-1.27v2.73h-.73v-1.48a3.27,3.27,0,0,1-2,.43h-4v-.65h1.45v-2h.74v2h2a3.42,3.42,0,0,0,1.78-.39V256.3Zm-3,1.71v-1H186v-.65h4.08V258a7,7,0,0,1-.14,1.49h-.73A7.64,7.64,0,0,0,189.38,258Zm3.12,6.59h-6.18v-2.47h.74V264h5.44Z"/><path class="cls-4" d="M196.75,258.9v-1.81h-2.19v-.64h2.92v1.86h1.27v-2h.71v8.07h-.71v-2.64h-1.44v-.64h1.44V259h-1.27c0,2.65-1,4.42-3,5v-.71C195.89,262.78,196.75,261.3,196.75,258.9Zm4.49,5.6h-.71v-8.2h.71Z"/><path class="cls-4" d="M203,256.45h4.4v.64h-1.84v2.58a3.63,3.63,0,0,0,1.92,3.59v.68a4,4,0,0,1-2.28-2.3,4.08,4.08,0,0,1-2.29,2.3v-.68a3.64,3.64,0,0,0,1.91-3.59v-2.58H203Zm6.48-.15v3.45h1.34v.64H209.5v4.12h-.73V256.3Z"/><path class="cls-4" d="M211.72,258.76a2.52,2.52,0,0,1,.73-1.93,2.16,2.16,0,0,1,1.44-.49,2.23,2.23,0,0,1,1.46.49,2.93,2.93,0,0,1,0,3.85,2,2,0,0,1-1.1.47v2.24h1.2a3.07,3.07,0,0,0,1.9-.52V256.3h.73v3.45h1.34v.64h-1.34v4.11h-.73v-1a3.11,3.11,0,0,1-2,.54H211.5v-.64h2v-2.25a1.9,1.9,0,0,1-1.06-.46A2.5,2.5,0,0,1,211.72,258.76Zm.73,0a2,2,0,0,0,.45,1.4,1.36,1.36,0,0,0,1,.38,1.33,1.33,0,0,0,1-.38,2.36,2.36,0,0,0,0-2.8,1.35,1.35,0,0,0-1-.36,1.39,1.39,0,0,0-1,.36A2,2,0,0,0,212.45,258.76Z"/><path class="cls-4" d="M222.32,257.52v-.61h2V256H225v.87H227v.61Zm.25,2.06a1.28,1.28,0,0,1,.48-1,2.55,2.55,0,0,1,1.59-.46,2.61,2.61,0,0,1,1.61.46,1.28,1.28,0,0,1,.48,1,1.26,1.26,0,0,1-.48,1,2.61,2.61,0,0,1-1.61.48,2.55,2.55,0,0,1-1.59-.48A1.26,1.26,0,0,1,222.57,259.58Zm.51,5v-2.74h6v2.74Zm.21-5a.7.7,0,0,0,.25.55,1.63,1.63,0,0,0,1.1.34,1.6,1.6,0,0,0,1.11-.34.71.71,0,0,0,0-1.1,1.65,1.65,0,0,0-1.11-.34,1.68,1.68,0,0,0-1.1.34A.7.7,0,0,0,223.29,259.58Zm5.08,2.92h-4.55V264h4.55Zm.73-6.2v2.1h1.26V259H229.1v2.16h-.73v-4.9Z"/><path class="cls-4" d="M234.72,256.45v3.18h1v-3.29h.7v8.07h-.7v-4.13h-1v.57c0,1.9-.58,3-1.8,3.43v-.68c.68-.39,1.09-1.18,1.09-2.79v-3.72h-1.08v3.27c0,1.92-.53,2.92-1.81,3.45v-.69c.76-.41,1.1-1.15,1.1-2.8v-3.23h-1v-.64Zm3.36,8.05h-.71v-8.2h.71Z"/><path class="cls-4" d="M241.5,256h.74v1.27h2V258h-4.71v-.64h2Zm-1.62,5.39a2.87,2.87,0,0,1,.76-2.22,2,2,0,0,1,2.51,0,3.64,3.64,0,0,1,0,4.45,2.09,2.09,0,0,1-2.51,0A2.86,2.86,0,0,1,239.88,261.43Zm.73,0a2.43,2.43,0,0,0,.49,1.73,1.16,1.16,0,0,0,.8.3,1.14,1.14,0,0,0,.79-.3,2.43,2.43,0,0,0,.49-1.73,2.39,2.39,0,0,0-.49-1.71,1.14,1.14,0,0,0-.79-.3,1.16,1.16,0,0,0-.8.3A2.39,2.39,0,0,0,240.61,261.43Zm5.65-5.13v3.45h1.34v.64h-1.34v4.12h-.73V256.3Z"/><path class="cls-4" d="M248.18,261.1v-.65h7.4v.65Zm1.3-4.76v2.13h5.59v.64h-6.33v-2.77Zm0,5.67v1.9h5.7v.63h-6.44V262Z"/><path class="cls-4" d="M158.54,269.77a1.91,1.91,0,0,1,2.13,1.77h-.77a1.24,1.24,0,0,0-1.36-1.14c-1.07,0-1.45.78-1.45,2.06s.38,2.05,1.45,2.05a1.24,1.24,0,0,0,1.36-1.14h.77a1.91,1.91,0,0,1-2.13,1.77c-1.5,0-2.21-1-2.21-2.68S157,269.77,158.54,269.77Z"/><path class="cls-4" d="M163.42,275.14c-1.5,0-2.21-1-2.21-2.68s.71-2.69,2.21-2.69,2.22,1,2.22,2.69S164.92,275.14,163.42,275.14Zm0-4.74c-1.06,0-1.45.78-1.45,2.06s.39,2.05,1.45,2.05,1.46-.77,1.46-2.05S164.48,270.4,163.42,270.4Z"/><path class="cls-4" d="M166.33,271.34h3V272h-3Z"/><path class="cls-4" d="M172.26,269.77a1.91,1.91,0,0,1,2.13,1.77h-.77a1.24,1.24,0,0,0-1.36-1.14c-1.07,0-1.45.78-1.45,2.06s.38,2.05,1.45,2.05a1.24,1.24,0,0,0,1.36-1.14h.77a1.91,1.91,0,0,1-2.13,1.77c-1.5,0-2.21-1-2.21-2.68S170.76,269.77,172.26,269.77Z"/><path class="cls-4" d="M175.93,272.41V275h-.76v-5.13h.76v.91a1.39,1.39,0,0,1,1.48-1,1.37,1.37,0,0,1,.39,0v.62l-.4,0C176.52,270.41,175.93,271.07,175.93,272.41Z"/><path class="cls-4" d="M182.35,273.51a1.9,1.9,0,0,1-2.08,1.63c-1.52,0-2.23-1-2.23-2.68s.71-2.69,2.21-2.69,2.21,1,2.21,2.69v.22h-3.67c0,1.16.47,1.83,1.48,1.83a1.22,1.22,0,0,0,1.3-1Zm-.66-1.41c-.06-1.07-.49-1.7-1.44-1.7s-1.39.63-1.45,1.7Z"/><path class="cls-4" d="M185,275.14c-1.22,0-2-.6-2-1.63s.76-1.63,2-1.63a1.66,1.66,0,0,1,1.57.66v-.87a1.17,1.17,0,0,0-1.3-1.27c-.81,0-1.2.39-1.27,1h-.78c.09-1,.77-1.6,2-1.6a1.8,1.8,0,0,1,2.05,1.91v2.64a2.37,2.37,0,0,0,.12.7h-.77a1.41,1.41,0,0,1-.1-.54C186.38,274.9,185.84,275.14,185,275.14Zm.18-2.63c-.93,0-1.4.39-1.4,1s.47,1,1.4,1,1.39-.38,1.39-1S186.12,272.51,185.2,272.51Z"/><path class="cls-4" d="M189.36,273.55c0,.74.31.91,1,.91h.51v.62c-.19,0-.43,0-.63,0-1.12,0-1.63-.34-1.63-1.43v-3.15h-.76v-.63h.76v-1.46h.76v1.46h1.5v.63h-1.5Z"/><path class="cls-4" d="M191.62,268.83v-1h.76v1Zm0,6.19v-5.13h.76V275Z"/><path class="cls-4" d="M195.44,275.14c-1.5,0-2.21-1-2.21-2.68s.71-2.69,2.21-2.69,2.22,1,2.22,2.69S196.93,275.14,195.44,275.14Zm0-4.74c-1.06,0-1.45.78-1.45,2.06s.39,2.05,1.45,2.05,1.46-.77,1.46-2.05S196.5,270.4,195.44,270.4Z"/><path class="cls-4" d="M202.67,275h-.75v-3c0-1.15-.43-1.62-1.23-1.62s-1.48.72-1.48,2V275h-.76v-5.13h.76v.91a1.63,1.63,0,0,1,1.66-1c1.17,0,1.8.76,1.8,2.06Z"/><path class="cls-4" d="M206.46,272.88v2.64h-.73v-2.64h-1.92v-.64h3.75a5.38,5.38,0,0,0,1.71-.27v.61a4.14,4.14,0,0,1-1.74.3Zm-2.29-3.47a2,2,0,0,1,.66-1.57,2.71,2.71,0,0,1,3.08,0,2.16,2.16,0,0,1,0,3.13,2.71,2.71,0,0,1-3.08,0A2,2,0,0,1,204.17,269.41Zm.73,0a1.38,1.38,0,0,0,.39,1,1.55,1.55,0,0,0,1.08.37,1.51,1.51,0,0,0,1.07-.37,1.54,1.54,0,0,0,0-2.07,1.55,1.55,0,0,0-1.07-.36,1.6,1.6,0,0,0-1.08.36A1.37,1.37,0,0,0,204.9,269.41Zm5.79-2.1v8.2H210v-1.05h-2v-.64h2v-6.51Z"/><path class="cls-4" d="M212.36,275.15v-.64h7.3v.64Zm6.11-4a12.9,12.9,0,0,1-2.72.23H212.8v-.65h2.95a13.23,13.23,0,0,0,2.73-.22V268.1H212.8v-.64h6.41v3.11a15.8,15.8,0,0,1-.23,2.83h-.72A15.15,15.15,0,0,0,218.47,271.12Z"/><path class="cls-4" d="M220.9,271.77v-.63h1.82V270h.73v1.11h2.32V270h.74v1.11h1.78v.63Zm3.67-3a5.3,5.3,0,0,1-3.44,1.53v-.65c1.47-.18,3.08-.88,3.08-2v-.2H225v.2c0,1.16,1.55,1.82,3.09,2v.65A5.44,5.44,0,0,1,224.57,268.72Zm-3.11,3.71h.73v.91H227v-.91h.74v3.18h-6.27ZM227,275v-1h-4.8v1Z"/><path class="cls-4" d="M229.48,271.27v-.62h7.39v.62Zm.39-2.68a.92.92,0,0,1,.4-.79,5.61,5.61,0,0,1,2.91-.49,5.54,5.54,0,0,1,2.9.49.93.93,0,0,1,.41.79.92.92,0,0,1-.41.77,5.52,5.52,0,0,1-2.9.5,5.59,5.59,0,0,1-2.91-.5A.91.91,0,0,1,229.87,268.59Zm.9,5.6V275h5.74v.6H230v-2h5.53v-.83H230v-.6h6.27v2Zm-.16-5.6a.41.41,0,0,0,.21.35,9.14,9.14,0,0,0,4.72,0,.41.41,0,0,0,.21-.35.46.46,0,0,0-.21-.38,9.43,9.43,0,0,0-4.72,0A.46.46,0,0,0,230.61,268.59Z"/><path class="cls-4" d="M164.31,280.44v.85h5.59v.58h-2.83v.86h3.33v.6H163v-.6h3.31v-.86h-2.75v-3.45h6.27v.6h-5.53v.84h5.43v.58Zm-.9,5a1,1,0,0,1,.67-.93,8.51,8.51,0,0,1,5.28,0,1,1,0,0,1,0,1.87,8.7,8.7,0,0,1-5.28,0A1,1,0,0,1,163.41,285.43Zm.74,0a.48.48,0,0,0,.3.42,5.34,5.34,0,0,0,2.27.33,5.2,5.2,0,0,0,2.25-.33.47.47,0,0,0,.32-.42A.5.5,0,0,0,169,285a5.4,5.4,0,0,0-2.25-.32,5.54,5.54,0,0,0-2.27.32A.51.51,0,0,0,164.15,285.43Z"/><path class="cls-4" d="M171.46,279.64V279h2v-1h.72v1h2v.6Zm.26,2.33a1.44,1.44,0,0,1,.58-1.18,2.48,2.48,0,0,1,1.49-.44,2.53,2.53,0,0,1,1.51.44,1.49,1.49,0,0,1,0,2.36,2.53,2.53,0,0,1-1.51.44,2.48,2.48,0,0,1-1.49-.44A1.44,1.44,0,0,1,171.72,282Zm1.25,2.25v1.72h5.44v.63h-6.18v-2.35Zm-.53-2.25a.87.87,0,0,0,.34.71,1.62,1.62,0,0,0,1,.31,1.68,1.68,0,0,0,1-.31.9.9,0,0,0,.34-.71.88.88,0,0,0-.34-.7,1.62,1.62,0,0,0-1-.32,1.57,1.57,0,0,0-1,.32A.85.85,0,0,0,172.44,282Zm5.81-3.65v2.42h1.26v.66h-1.26v2.88h-.73v-6Z"/><path class="cls-4" d="M182.79,282.2c0-1.54.17-2.67.73-3.3a1.91,1.91,0,0,1,2.74,0,7.82,7.82,0,0,1,0,6.6,2,2,0,0,1-2.74,0C183,284.87,182.79,283.73,182.79,282.2Zm3.47,0a4.87,4.87,0,0,0-.54-2.87,1.05,1.05,0,0,0-.83-.36,1,1,0,0,0-.83.36,7.92,7.92,0,0,0,0,5.75,1,1,0,0,0,.83.36,1.05,1.05,0,0,0,.83-.36A4.91,4.91,0,0,0,186.26,282.2Zm3-3.88v3.45h1.34v.64h-1.34v4.12h-.73v-8.21Z"/><path class="cls-4" d="M191.44,282.2a5.18,5.18,0,0,1,.74-3.3,1.73,1.73,0,0,1,1.36-.58,1.76,1.76,0,0,1,1.37.58c.56.63.73,1.76.73,3.3s-.17,2.67-.73,3.3a1.69,1.69,0,0,1-1.37.56,1.65,1.65,0,0,1-1.36-.56A5.2,5.2,0,0,1,191.44,282.2Zm3.47,0a4.87,4.87,0,0,0-.54-2.87,1,1,0,0,0-.83-.36,1.05,1.05,0,0,0-.83.36,8.06,8.06,0,0,0,0,5.75,1.05,1.05,0,0,0,.83.36,1,1,0,0,0,.83-.36A4.91,4.91,0,0,0,194.91,282.2Zm3.14-3.88v8.2h-.74v-8.2Z"/><path class="cls-4" d="M203.77,286h-3.65v-7.48H204v.64h-3.15v6.21h3.05a3,3,0,0,0,2-.61v-6.39h.74v8.2h-.74v-1.2A3.07,3.07,0,0,1,203.77,286Z"/><path class="cls-4" d="M208.6,282.2a5.18,5.18,0,0,1,.74-3.3,1.73,1.73,0,0,1,1.36-.58,1.76,1.76,0,0,1,1.37.58,4.44,4.44,0,0,1,.72,2.8h1.68v-3.38h.74v8.21h-.74v-4.2H212.8a5,5,0,0,1-.73,3.17,1.69,1.69,0,0,1-1.37.56,1.65,1.65,0,0,1-1.36-.56A5.2,5.2,0,0,1,208.6,282.2Zm3.47,0a4.87,4.87,0,0,0-.54-2.87,1,1,0,0,0-.83-.36,1.05,1.05,0,0,0-.83.36,8.06,8.06,0,0,0,0,5.75,1.05,1.05,0,0,0,.83.36,1,1,0,0,0,.83-.36A4.91,4.91,0,0,0,212.07,282.2Z"/><path class="cls-4" d="M223.83,279.11h-5.68v3.19h5.75V283H221v2.57h3.26v.64H217v-.64h3.29V283h-2.85v-4.48h6.41Z"/><path class="cls-4" d="M225.52,282.49v-.62h7.39v.62h-3.34v.83h2.78v1.95h-5.54V286h5.74v.58h-6.47v-1.93h5.53v-.77h-5.53v-.6h2.75v-.83Zm.56-3.1v-.61h2.75V278h.74v.77h2.78v.61H229.6c.22.78,1.69,1.2,2.85,1.25v.62a5,5,0,0,1-3.25-1.19,4.86,4.86,0,0,1-3.25,1.19v-.62c1.15-.05,2.63-.45,2.85-1.25Z"/><path class="cls-4" d="M137.12,158.87a3.81,3.81,0,0,1-2.38,2.37v-.68c1-.47,2-1.4,2-3.66v-3.21h.74v3.21c0,2.26,1,3.16,2,3.66v.68A3.9,3.9,0,0,1,137.12,158.87Zm4.37-5.27v3.45h1.34v.64h-1.34v4.11h-.73v-8.2Z"/><path class="cls-4" d="M145.69,161.23h-2v-4.1h2v-2.74h-2v-.65h2.71v4h-2v2.82h1.29a3.72,3.72,0,0,0,1.48-.22V161A3.77,3.77,0,0,1,145.69,161.23Zm2.95.48h-.72v-2.78h-1.13v-.66h1.13v-2.09h-1.13v-.65h1.13v-1.89h.72Zm1.75.09h-.71v-8.2h.71Z"/><path class="cls-4" d="M153.21,156.62v1.62H159v.63h-2.93v1.93h3.27v.64H152v-.64h3.29v-1.93h-2.85V156h5.68v-1.6h-5.68v-.65h6.41v2.88Z"/><path class="cls-4" d="M164.23,155.47h5v-1.73h.73v4.92h-2.82v2.14h3.27v.64h-7.3v-.64h3.29v-2.14H163.5v-4.92h.73Zm5,2.54v-1.89h-5V158Z"/><path class="cls-4" d="M171.59,158.39v-.64H179v.64Zm1.3-4.75v2.13h5.59v.64h-6.33v-2.77Zm0,5.67v1.9h5.7v.63h-6.44v-2.53Z"/><path class="cls-4" d="M182.66,161.44v-.64h3.26v-2.62h.75v2.62H190v.64Zm.44-7.05v-.65h6.41v.65h-2.84v.48c0,1.63,1.37,2.59,2.91,2.89v.66a4.66,4.66,0,0,1-3.28-2.06,4.67,4.67,0,0,1-3.3,2.06v-.66c1.51-.3,2.92-1.25,2.92-2.89v-.48Z"/><path class="cls-4" d="M193.48,158.87a3.79,3.79,0,0,1-2.38,2.37v-.68c1-.47,2-1.4,2-3.66v-3.21h.75v3.21c0,2.26,1,3.16,2,3.66v.68A3.9,3.9,0,0,1,193.48,158.87Zm4.37-5.27v3.45h1.34v.64h-1.34v4.11h-.73v-8.2Z"/><path class="cls-4" d="M203.24,155.48v-1.09h-3.12v-.65H204v1.66c0,3.11-1.22,5.18-3.91,5.89v-.69C202.21,160,203.24,158.17,203.24,155.48Zm3.39-1.88v8.2h-.74v-8.2Z"/><path class="cls-4" d="M209.36,155h2.47v-1.35h.73v1.71h1.95v-1.8h.73V158h-.73v-2h-1.95v1.67h-3.93v-4h.73Zm5.15,4.53v-1h.73v3.34h-6.1v-3.34h.75v1Zm-2.68-2.5v-1.4h-2.47v1.4Zm2.68,3.13h-4.62v1.06h4.62Z"/><path class="cls-4" d="M218.3,156.79H219v3.9H221a3,3,0,0,0,1.9-.53V153.6h.73v3.45h1.34v.64h-1.34v4.11h-.73v-1a3.16,3.16,0,0,1-2,.54H217v-.64h1.29Zm2.32.1v-2.5H217.3v-.65h4.06v3a11.61,11.61,0,0,1-.21,2.29h-.72A11.87,11.87,0,0,0,220.62,156.89Z"/><path class="cls-4" d="M228,161.44v-.64h3.27v-2.62H232v2.62h3.29v.64Zm.44-7.05v-.65h6.41v.65H232v.48c0,1.63,1.38,2.59,2.92,2.89v.66a4.66,4.66,0,0,1-3.29-2.06,4.65,4.65,0,0,1-3.3,2.06v-.66c1.52-.3,2.93-1.25,2.93-2.89v-.48Z"/><path class="cls-4" d="M238.82,158.87a3.8,3.8,0,0,1-2.37,2.37v-.68c1-.47,2-1.4,2-3.66v-3.21h.75v3.21c0,2.26,1,3.16,2,3.66v.68A3.92,3.92,0,0,1,238.82,158.87Zm4.38-5.27v3.45h1.33v.64H243.2v4.11h-.74v-8.2Z"/><path class="cls-4" d="M247.77,153.64v.71a2.42,2.42,0,0,0,1.94,2.39v.66a3.57,3.57,0,0,1-2.32-1.63,3.38,3.38,0,0,1-2.32,1.72v-.65a2.54,2.54,0,0,0,2-2.49v-.71Zm-1.12,6.7v1h5.46v.6h-6.2v-2.17h5.36v-.95h-5.36v-.61H252v2.17Zm5.35-2.83h-.73V153.6H252Z"/><path class="cls-4" d="M253.7,157.93v-.63h7.39v.63Zm3.68-2.92a5.3,5.3,0,0,1-3.45,1.52v-.65c1.47-.17,3.08-.87,3.08-2v-.2h.74v.2c0,1.17,1.55,1.83,3.09,2v.65A5.33,5.33,0,0,1,257.38,155Zm-3.12,3.7H255v.91h4.81v-.91h.73v3.19h-6.27Zm5.54,2.56v-1H255v1Z"/><line class="cls-5" x1="9.57" y1="133.6" x2="271.42" y2="133.6"/><line class="cls-5" x1="9.57" y1="183.95" x2="271.42" y2="183.95"/><line class="cls-5" x1="9.57" y1="242.47" x2="271.42" y2="242.47"/><line class="cls-5" x1="9.57" y1="300.07" x2="271.42" y2="300.07"/><line class="cls-5" x1="9.57" y1="361.07" x2="271.42" y2="361.07"/></svg>