<svg id="레이어_1" data-name="레이어 1" xmlns="http://www.w3.org/2000/svg" viewBox="0 0 263.45 255.1"><defs><style>.cls-1{fill:#edeaf5;}.cls-2{fill:#5e53a1;}.cls-3{fill:#fff;}.cls-4{fill:#040000;}.cls-5{fill:none;stroke:#fff;stroke-miterlimit:10;}</style></defs><rect class="cls-1" x="13.8" y="59.38" width="232.1" height="189.28"/><rect class="cls-2" x="13.8" y="35.07" width="232.1" height="24.13"/><path class="cls-3" d="M57.8,41.63a3.21,3.21,0,0,1,1.2.2,2.58,2.58,0,0,1,.89.55,2.4,2.4,0,0,1,.56.82,2.78,2.78,0,0,1,.19,1,2.74,2.74,0,0,1-.19,1,2.22,2.22,0,0,1-.56.82,2.46,2.46,0,0,1-.89.56,3.21,3.21,0,0,1-1.2.21,3.18,3.18,0,0,1-1.18-.21,2.46,2.46,0,0,1-.89-.56,2.25,2.25,0,0,1-.57-.82,2.55,2.55,0,0,1-.2-1,2.59,2.59,0,0,1,.2-1,2.43,2.43,0,0,1,.57-.82,2.58,2.58,0,0,1,.89-.55A3.18,3.18,0,0,1,57.8,41.63Zm0,4a1.63,1.63,0,0,0,.59-.11,1.75,1.75,0,0,0,.48-.32,1.39,1.39,0,0,0,.32-.48,1.48,1.48,0,0,0,.12-.59,1.32,1.32,0,0,0-.12-.57,1.39,1.39,0,0,0-.32-.48,1.72,1.72,0,0,0-.48-.31,1.64,1.64,0,0,0-1.18,0,1.47,1.47,0,0,0-.48.31,1.57,1.57,0,0,0-.41,1.05,1.67,1.67,0,0,0,.11.59,1.36,1.36,0,0,0,.78.8A1.63,1.63,0,0,0,57.79,45.67Zm-1.24,3.57H62c.13,0,.19-.1.19-.32v-.44h-5.6V47.4h6.39a.5.5,0,0,1,.57.56v.64c0,1.13-.29,1.7-.87,1.7H57.9v.56a.24.24,0,0,0,.27.26h5.31c.17,0,.25.11.25.35,0,.48-.16.73-.49.73H57.71a1,1,0,0,1-1.16-1.12Zm7-3.75c0,.92-.26,1.39-.8,1.39h-.19a.33.33,0,0,1-.37-.36v-5.1h1.36Z"/><path class="cls-3" d="M66,41.86h5.14c.17,0,.26.12.26.36,0,.5-.17.76-.49.76H69.37v.21a1.73,1.73,0,0,0,.17.73,2.58,2.58,0,0,0,.46.72,6.36,6.36,0,0,0,.69.68,7.53,7.53,0,0,0,.84.61.39.39,0,0,1,.19.33.53.53,0,0,1-.06.24,1.3,1.3,0,0,1-.15.23,1.07,1.07,0,0,1-.19.18.38.38,0,0,1-.18.06.4.4,0,0,1-.21-.07,6.76,6.76,0,0,1-1.25-.8,4.89,4.89,0,0,1-1-1,6.31,6.31,0,0,1-2.2,2,.53.53,0,0,1-.2.06.38.38,0,0,1-.18-.06.75.75,0,0,1-.19-.17,1.77,1.77,0,0,1-.16-.22.66.66,0,0,1-.06-.27.27.27,0,0,1,.08-.21A1.64,1.64,0,0,1,66,46a7.34,7.34,0,0,0,.79-.64,5.52,5.52,0,0,0,.6-.71,3.77,3.77,0,0,0,.4-.73,2.14,2.14,0,0,0,.14-.73V43H66ZM71,47.58a5.16,5.16,0,0,1,1.48.19,3.63,3.63,0,0,1,1.1.53,2.4,2.4,0,0,1,.68.78,2,2,0,0,1,.24.94,1.93,1.93,0,0,1-.24.94,2.54,2.54,0,0,1-.68.79,3.62,3.62,0,0,1-1.1.52,5.16,5.16,0,0,1-1.48.19,5.06,5.06,0,0,1-1.46-.19,3.62,3.62,0,0,1-1.1-.52,2.37,2.37,0,0,1-.7-.79,1.93,1.93,0,0,1-.24-.94,2,2,0,0,1,.24-.94,2.25,2.25,0,0,1,.7-.78,3.63,3.63,0,0,1,1.1-.53A5.06,5.06,0,0,1,71,47.58Zm0,3.78a3.35,3.35,0,0,0,.85-.11,2.49,2.49,0,0,0,.68-.29,1.63,1.63,0,0,0,.47-.43.87.87,0,0,0,0-1,1.79,1.79,0,0,0-.47-.43,2.48,2.48,0,0,0-.68-.28,3.36,3.36,0,0,0-.85-.1,3.41,3.41,0,0,0-.87.1,2.24,2.24,0,0,0-.68.28,1.43,1.43,0,0,0-.45.43.91.91,0,0,0,0,1,1.33,1.33,0,0,0,.45.43,2.25,2.25,0,0,0,.68.29A3.4,3.4,0,0,0,71,51.36Zm.45-7.62h1.75V41.43h1.36v4.66a2.91,2.91,0,0,1-.18,1.15.63.63,0,0,1-.62.4h-.19c-.25,0-.37-.12-.37-.35V44.86H71.41Z"/><path class="cls-4" d="M55.71,79.69a4,4,0,0,0,.83-.35,4.27,4.27,0,0,0,.73-.5H58V85.2H56.87V80.07a2.29,2.29,0,0,1-.47.24,4.2,4.2,0,0,1-.51.16Z"/><path class="cls-4" d="M60,79.17h1.67v-.83h1v.83h1.55c.13,0,.2.09.2.28,0,.37-.13.56-.38.56h-.64l.08.06.08.07a1.33,1.33,0,0,1,.38.55,2,2,0,0,1,.12.7,1.72,1.72,0,0,1-.28,1A1.88,1.88,0,0,1,63,83l-.14,0-.14,0v1.09h1.95c.12,0,.19.09.19.28,0,.37-.12.56-.37.56H59.63v-.84h2V83.1l-.15,0-.15,0a1.88,1.88,0,0,1-.83-.64,1.72,1.72,0,0,1-.29-1,2,2,0,0,1,.13-.7,1.43,1.43,0,0,1,.38-.55,1.09,1.09,0,0,1,.17-.13H60Zm2.17,3.15a.81.81,0,0,0,.37-.09.89.89,0,0,0,.29-.22.79.79,0,0,0,.2-.33,1,1,0,0,0,0-.8.83.83,0,0,0-.2-.32.89.89,0,0,0-.29-.22.8.8,0,0,0-.37-.08.81.81,0,0,0-.38.08.89.89,0,0,0-.29.22,1.16,1.16,0,0,0-.2.32,1.11,1.11,0,0,0,.2,1.13.89.89,0,0,0,.29.22A.82.82,0,0,0,62.18,82.32Zm4.07,3.18c0,.69-.2,1-.6,1H65.5c-.18,0-.27-.08-.27-.26V78.39h1Z"/><path class="cls-4" d="M67.86,79.32h1.52v-.95h1v.95h1.44c.12,0,.19.09.19.28,0,.37-.12.56-.37.56H70.41v.3a3.18,3.18,0,0,0,.43,1.6,4.69,4.69,0,0,0,1.33,1.39.29.29,0,0,1,.11.22.31.31,0,0,1,0,.18.52.52,0,0,1-.12.17.79.79,0,0,1-.15.12.26.26,0,0,1-.15,0,.28.28,0,0,1-.15,0l-.15-.09a5.49,5.49,0,0,1-.94-.78,3.55,3.55,0,0,1-.67-.93,4.27,4.27,0,0,1-.7,1,4.88,4.88,0,0,1-.93.77.24.24,0,0,1-.17.07.34.34,0,0,1-.14,0A.48.48,0,0,1,67.8,84a.61.61,0,0,1-.12-.16.3.3,0,0,1-.05-.17.21.21,0,0,1,.05-.16.92.92,0,0,1,.17-.15A4.78,4.78,0,0,0,69,82a3.29,3.29,0,0,0,.4-1.56v-.3H67.86Zm6.19,6.18c0,.68-.2,1-.6,1h-.14a.25.25,0,0,1-.28-.27V78.4h1v2.52h1.08c.13,0,.2.1.2.28,0,.4-.13.6-.38.6h-.9Z"/><path class="cls-4" d="M27,90.83a8.21,8.21,0,0,0,.75-.42,6.67,6.67,0,0,0,.68-.48h.31v6.2h-.59v-5.4a2.25,2.25,0,0,1-.47.26l-.55.21Z"/><path class="cls-4" d="M31.47,90.83a8.33,8.33,0,0,0,.76-.42,6.47,6.47,0,0,0,.67-.48h.31v6.2h-.58v-5.4a2.25,2.25,0,0,1-.47.26l-.55.21Z"/><path class="cls-4" d="M35.07,95.37a.38.38,0,0,1,.11-.25.37.37,0,0,1,.27-.11.39.39,0,0,1,.28.11.38.38,0,0,1,.11.25.36.36,0,0,1-.11.25.39.39,0,0,1-.28.11.37.37,0,0,1-.27-.11A.36.36,0,0,1,35.07,95.37Z"/><path class="cls-4" d="M37.83,90.83a8.33,8.33,0,0,0,.76-.42,6.47,6.47,0,0,0,.67-.48h.31v6.2H39v-5.4a2.25,2.25,0,0,1-.47.26L38,91.2Z"/><path class="cls-4" d="M42.2,92.69l.39,0a1.13,1.13,0,0,0,.3-.06,1.89,1.89,0,0,0,.41-.17,3.91,3.91,0,0,0,.41-.3,2,2,0,0,0,.32-.39.9.9,0,0,0,.13-.45,1,1,0,0,0-.25-.76,1.25,1.25,0,0,0-.8-.21,1.63,1.63,0,0,0-.35,0,2.29,2.29,0,0,0-.37.12,3,3,0,0,0-.36.16,2.48,2.48,0,0,0-.29.17.29.29,0,0,1,0-.08l-.06-.11-.06-.11,0-.06a1.66,1.66,0,0,1,.31-.21,3.73,3.73,0,0,1,.4-.2l.43-.14a2.18,2.18,0,0,1,.43,0,1.82,1.82,0,0,1,1.17.36,1.32,1.32,0,0,1,.44,1,1.41,1.41,0,0,1-.29.85,1.89,1.89,0,0,1-.94.64,1.37,1.37,0,0,1,.56.15,1.85,1.85,0,0,1,.48.35,1.82,1.82,0,0,1,.34.48,1.4,1.4,0,0,1,.13.57,1.67,1.67,0,0,1-.2.83,1.7,1.7,0,0,1-.52.58,2.39,2.39,0,0,1-.72.34,3.48,3.48,0,0,1-.85.11,3,3,0,0,1-.74-.1,1.66,1.66,0,0,1-.6-.27s0,0-.06-.08a.27.27,0,0,1,0-.15.14.14,0,0,1,.08-.1.08.08,0,0,1,.07,0,1.87,1.87,0,0,0,.63.21,5.34,5.34,0,0,0,.69,0,3.89,3.89,0,0,0,.54-.1,1.69,1.69,0,0,0,.51-.23,1.32,1.32,0,0,0,.38-.4,1.15,1.15,0,0,0,.15-.61,1.24,1.24,0,0,0-.13-.58,1.41,1.41,0,0,0-.32-.4,1.39,1.39,0,0,0-.41-.23,1.59,1.59,0,0,0-.37-.1,2.59,2.59,0,0,0-.48,0,3.41,3.41,0,0,0-.46,0Z"/><path class="cls-4" d="M45.87,95.37a.38.38,0,0,1,.11-.25.39.39,0,0,1,.54,0,.34.34,0,0,1,.11.25.32.32,0,0,1-.11.25.39.39,0,0,1-.54,0A.36.36,0,0,1,45.87,95.37Z"/><path class="cls-4" d="M49.91,97.24a4.53,4.53,0,0,1-.85-.75,5,5,0,0,1-.7-1,5.73,5.73,0,0,1-.48-1.14,4.52,4.52,0,0,1-.17-1.2,4.28,4.28,0,0,1,.18-1.24,5.35,5.35,0,0,1,.49-1.12,5.18,5.18,0,0,1,.7-1,4.91,4.91,0,0,1,.84-.75.3.3,0,0,0,.08.07l.08.06a5.8,5.8,0,0,0-.67.78,5.23,5.23,0,0,0-.57.94,6.53,6.53,0,0,0-.4,1.07,4.45,4.45,0,0,0,0,2.29,6,6,0,0,0,.41,1.09,5.62,5.62,0,0,0,.56,1,5.44,5.44,0,0,0,.65.74Z"/><path class="cls-4" d="M58,92.71c.08,0,.11.06.11.17s-.07.33-.21.33H50.78v-.5Zm-.94,3.75c0,.57-.13.85-.41.85H52.32c-.33,0-.49-.16-.49-.5V94.29h5a.22.22,0,0,1,.25.25ZM51.87,90v-.5h5c.16,0,.24.08.24.25v.38a7.51,7.51,0,0,1-.31,2,.19.19,0,0,1-.22.16h-.35a8.43,8.43,0,0,0,.31-2.13V90Zm4.51,6.83c.09,0,.14-.08.14-.26V94.79H52.4v1.87c0,.1.05.15.16.15Z"/><path class="cls-4" d="M58.71,97.11a4.8,4.8,0,0,0,.64-.74,5.69,5.69,0,0,0,.58-1,6.72,6.72,0,0,0,.39-1.09,4.45,4.45,0,0,0,0-2.29A6.5,6.5,0,0,0,59.93,91a6.71,6.71,0,0,0-.57-.94,6.63,6.63,0,0,0-.67-.78l.08-.06a.3.3,0,0,0,.08-.07,5.8,5.8,0,0,1,.84.75,5.18,5.18,0,0,1,.7,1,5.93,5.93,0,0,1,.49,1.12,4.28,4.28,0,0,1,.18,1.24,4.16,4.16,0,0,1-.18,1.2,5.17,5.17,0,0,1-.47,1.14,5,5,0,0,1-.7,1,4.53,4.53,0,0,1-.85.75Z"/><path class="cls-4" d="M65.49,90.83a7.06,7.06,0,0,0,.75-.42,6.67,6.67,0,0,0,.68-.48h.31v6.2h-.59v-5.4a2.25,2.25,0,0,1-.47.26l-.55.21Z"/><path class="cls-4" d="M70.79,89.9a1.68,1.68,0,0,1,.74.15,1.79,1.79,0,0,1,.54.37,2.18,2.18,0,0,1,.35.54,3.33,3.33,0,0,1,.23.65,5.52,5.52,0,0,1,.11.71c0,.24,0,.48,0,.71a7.49,7.49,0,0,1-.09,1.17,3.26,3.26,0,0,1-.31,1,1.77,1.77,0,0,1-.61.71,1.69,1.69,0,0,1-1,.27,1.67,1.67,0,0,1-1-.27,1.77,1.77,0,0,1-.61-.71,3.56,3.56,0,0,1-.32-1A7.49,7.49,0,0,1,68.8,93a5.74,5.74,0,0,1,0-.71,4.2,4.2,0,0,1,.11-.71,3.31,3.31,0,0,1,.22-.65,2.25,2.25,0,0,1,.37-.54,1.54,1.54,0,0,1,.53-.37A1.66,1.66,0,0,1,70.79,89.9Zm0,5.77a1,1,0,0,0,1-.52,4.73,4.73,0,0,0,.29-.83A5.59,5.59,0,0,0,72.21,93a5.41,5.41,0,0,0-.15-1.39,3.39,3.39,0,0,0-.29-.77,1.06,1.06,0,0,0-1-.5,1.09,1.09,0,0,0-1,.5,3.48,3.48,0,0,0-.28.77A5.41,5.41,0,0,0,69.39,93a5.11,5.11,0,0,0,.14,1.31,4.88,4.88,0,0,0,.28.83A1,1,0,0,0,70.8,95.67Z"/><path class="cls-4" d="M75.36,89.71H76v1.48a3.31,3.31,0,0,0,.62,2.07A4.51,4.51,0,0,0,78,94.54c.09.07.09.17,0,.31s-.17.19-.27.13a4.9,4.9,0,0,1-1.66-1.43,3.15,3.15,0,0,1-.42-.74,4,4,0,0,1-.42.79,4.71,4.71,0,0,1-1.66,1.47c-.11.06-.2,0-.28-.13s-.07-.25,0-.31a4.32,4.32,0,0,0,1.42-1.32,3.58,3.58,0,0,0,.61-2.12Zm4.49,7.08c0,.41-.11.62-.33.62h-.09a.14.14,0,0,1-.16-.16V89.39h.58Z"/><path class="cls-4" d="M84.35,92.76v.4H81.2v-.4Z"/><path class="cls-4" d="M86.27,90.83a8.33,8.33,0,0,0,.76-.42,6.47,6.47,0,0,0,.67-.48H88v6.2h-.58v-5.4A2.11,2.11,0,0,1,87,91l-.54.21Z"/><path class="cls-4" d="M91.56,96.18a2.14,2.14,0,0,1-1.38-.41,1.57,1.57,0,0,1-.1-2.2,2.5,2.5,0,0,1,1-.67,2.44,2.44,0,0,1-.9-.62,1.27,1.27,0,0,1-.34-.89,1.38,1.38,0,0,1,.13-.62,1.26,1.26,0,0,1,.35-.47,1.57,1.57,0,0,1,.54-.3,2.19,2.19,0,0,1,1.34,0,1.72,1.72,0,0,1,.54.32,1.51,1.51,0,0,1,.36.47,1.44,1.44,0,0,1,.13.58,1.48,1.48,0,0,1-.31.88,1.82,1.82,0,0,1-.88.66,2.8,2.8,0,0,1,1,.68,1.41,1.41,0,0,1,.38,1,1.52,1.52,0,0,1-.07.39,1.41,1.41,0,0,1-.26.52,1.73,1.73,0,0,1-.58.47A2.08,2.08,0,0,1,91.56,96.18Zm0-.43a1.91,1.91,0,0,0,.54-.1,1.34,1.34,0,0,0,.43-.26,1.21,1.21,0,0,0,.28-.39,1.25,1.25,0,0,0,.1-.51.93.93,0,0,0-.12-.46,2.06,2.06,0,0,0-.33-.4,3.41,3.41,0,0,0-.44-.3,3.61,3.61,0,0,0-.44-.22,2.45,2.45,0,0,0-.48.2,1.9,1.9,0,0,0-.45.31,1.42,1.42,0,0,0-.32.41,1.06,1.06,0,0,0-.12.5,1.21,1.21,0,0,0,.1.52,1.06,1.06,0,0,0,.29.37,1.37,1.37,0,0,0,.43.24A2.17,2.17,0,0,0,91.56,95.75Zm-1.17-4.39a1.17,1.17,0,0,0,.11.52,1.2,1.2,0,0,0,.29.38,1.51,1.51,0,0,0,.39.27,2.26,2.26,0,0,0,.43.17,1.49,1.49,0,0,0,.43-.19,1.76,1.76,0,0,0,.37-.29,1.41,1.41,0,0,0,.27-.37,1,1,0,0,0,.1-.42,1,1,0,0,0-.11-.47,1.09,1.09,0,0,0-.28-.36,1.33,1.33,0,0,0-.38-.23,1.36,1.36,0,0,0-.44-.08,1.31,1.31,0,0,0-.44.07,1.28,1.28,0,0,0-.38.21,1.14,1.14,0,0,0-.26.35A.92.92,0,0,0,90.39,91.36Z"/><path class="cls-4" d="M96.15,89.71h.59v1.48a3.37,3.37,0,0,0,.62,2.07,4.62,4.62,0,0,0,1.42,1.28c.09.07.1.17,0,.31s-.18.19-.27.13a4.9,4.9,0,0,1-1.66-1.43,2.58,2.58,0,0,1-.42-.74,3.57,3.57,0,0,1-.43.79,4.71,4.71,0,0,1-1.66,1.47c-.1.06-.19,0-.27-.13s-.07-.25,0-.31a4.39,4.39,0,0,0,1.41-1.32,3.59,3.59,0,0,0,.62-2.12Zm4.48,7.08c0,.41-.11.62-.33.62h-.09a.14.14,0,0,1-.15-.16V89.39h.57Z"/><path class="cls-4" d="M54.81,146.07a1.48,1.48,0,0,1,.35-.28,4,4,0,0,1,.46-.25,2.78,2.78,0,0,1,.51-.17,2.48,2.48,0,0,1,.54-.06,2.94,2.94,0,0,1,.65.07,1.82,1.82,0,0,1,.59.23,1.51,1.51,0,0,1,.45.42,1.33,1.33,0,0,1,.25.62,2.13,2.13,0,0,1,0,.83,2.88,2.88,0,0,1-.4.91c-.21.31-.9,1.16-2.08,2.54h2.48c.18,0,.26.08.26.23a.65.65,0,0,1-.12.46.56.56,0,0,1-.37.11H55.2a.37.37,0,0,1-.31-.11.63.63,0,0,1-.07-.35,1,1,0,0,1,.26-.62l1.3-1.58a8.84,8.84,0,0,0,1.12-1.5,1.65,1.65,0,0,0,.08-.46.92.92,0,0,0-.1-.46.86.86,0,0,0-.25-.31,1,1,0,0,0-.36-.15,2.09,2.09,0,0,0-.43,0,1.39,1.39,0,0,0-.32,0l-.35.12a2.26,2.26,0,0,0-.35.17,2.45,2.45,0,0,0-.29.18Z"/><path class="cls-4" d="M60,145.71h1.67v-.83h1v.83h1.55c.13,0,.2.09.2.27,0,.38-.13.56-.38.56h-.64l.08.06a.27.27,0,0,0,.08.07,1.4,1.4,0,0,1,.38.55,2,2,0,0,1,.12.7,1.72,1.72,0,0,1-.28,1,1.81,1.81,0,0,1-.83.64.48.48,0,0,1-.14,0l-.14,0v1.1h1.95c.12,0,.19.09.19.27,0,.38-.12.57-.37.57H59.63v-.84h2v-1.1l-.15,0a.44.44,0,0,1-.15,0,1.81,1.81,0,0,1-.83-.64,1.72,1.72,0,0,1-.29-1,2,2,0,0,1,.13-.7,1.51,1.51,0,0,1,.38-.55,1.09,1.09,0,0,1,.17-.13H60Zm2.17,3.14a1,1,0,0,0,.37-.08.92.92,0,0,0,.29-.23.79.79,0,0,0,.2-.33,1.1,1.1,0,0,0,.08-.4,1,1,0,0,0-.08-.39.79.79,0,0,0-.2-.33,1.06,1.06,0,0,0-.29-.22,1,1,0,0,0-.37-.08,1,1,0,0,0-.38.08,1.06,1.06,0,0,0-.29.22,1.08,1.08,0,0,0-.2.33,1,1,0,0,0-.07.39,1.07,1.07,0,0,0,.27.73.92.92,0,0,0,.29.23A1,1,0,0,0,62.18,148.85ZM66.25,152c0,.69-.2,1-.6,1H65.5a.24.24,0,0,1-.27-.26v-7.89h1Z"/><path class="cls-4" d="M67.86,145.85h1.52v-.95h1v.95h1.44c.12,0,.19.1.19.29,0,.37-.12.55-.37.55H70.41v.3a3.18,3.18,0,0,0,.43,1.6,4.72,4.72,0,0,0,1.33,1.4.28.28,0,0,1,.11.22.35.35,0,0,1,0,.18.48.48,0,0,1-.12.16l-.15.13a.37.37,0,0,1-.15,0,.3.3,0,0,1-.15,0l-.15-.09a5.94,5.94,0,0,1-.94-.77,3.91,3.91,0,0,1-.67-.93,4.49,4.49,0,0,1-.7,1,5.29,5.29,0,0,1-.93.77.24.24,0,0,1-.17.06.34.34,0,0,1-.14,0,.61.61,0,0,1-.16-.12.66.66,0,0,1-.12-.17.3.3,0,0,1-.05-.17.21.21,0,0,1,.05-.16.66.66,0,0,1,.17-.14A4.82,4.82,0,0,0,69,148.55a3.29,3.29,0,0,0,.4-1.56v-.3H67.86ZM74.05,152c0,.69-.2,1-.6,1h-.14c-.18,0-.28-.09-.28-.26v-7.87h1v2.53h1.08c.13,0,.2.09.2.28,0,.39-.13.59-.38.59h-.9Z"/><path class="cls-4" d="M30.84,157.36a7.06,7.06,0,0,0,.75-.42,5.71,5.71,0,0,0,.68-.47h.31v6.19H32v-5.4a2,2,0,0,1-.48.27l-.54.2Z"/><path class="cls-4" d="M35.28,157.36a7.06,7.06,0,0,0,.75-.42,6.67,6.67,0,0,0,.68-.47H37v6.19h-.59v-5.4a1.88,1.88,0,0,1-.47.27l-.55.2Z"/><path class="cls-4" d="M38.88,161.91a.35.35,0,0,1,.1-.25.38.38,0,0,1,.28-.12.34.34,0,0,1,.27.12.36.36,0,0,1,.11.25.38.38,0,0,1-.38.35.37.37,0,0,1-.28-.11A.33.33,0,0,1,38.88,161.91Z"/><path class="cls-4" d="M40.73,157.05a2.65,2.65,0,0,1,1.59-.58,2,2,0,0,1,1.3.39A1.41,1.41,0,0,1,44.1,158a2.66,2.66,0,0,1-.45,1.33,34.26,34.26,0,0,1-2.22,2.91h2.78s.08,0,.08.09a.31.31,0,0,1-.07.21.24.24,0,0,1-.21.1H40.94a.14.14,0,0,1-.13-.06.28.28,0,0,1,0-.18.8.8,0,0,1,.19-.51q.2-.22,1.17-1.5a12.26,12.26,0,0,0,1.16-1.71,1.77,1.77,0,0,0,.2-.68,1.28,1.28,0,0,0-.11-.55,1.07,1.07,0,0,0-.29-.34,1.26,1.26,0,0,0-.42-.16,4.07,4.07,0,0,0-.5,0,1.77,1.77,0,0,0-.3,0l-.33.11-.34.14-.3.17Z"/><path class="cls-4" d="M46.94,156.43a2.07,2.07,0,0,1,.74.15,2,2,0,0,1,.53.37,2,2,0,0,1,.36.54,3.58,3.58,0,0,1,.23.65,5.68,5.68,0,0,1,.11.72c0,.24,0,.48,0,.71a7.27,7.27,0,0,1-.09,1.16,3.26,3.26,0,0,1-.31,1,1.87,1.87,0,0,1-.61.72,1.76,1.76,0,0,1-1,.26,1.74,1.74,0,0,1-1-.26,1.87,1.87,0,0,1-.61-.72,3.26,3.26,0,0,1-.32-1,7.27,7.27,0,0,1-.09-1.16c0-.23,0-.47,0-.71a5.69,5.69,0,0,1,.12-.72,3.55,3.55,0,0,1,.22-.65,2.25,2.25,0,0,1,.37-.54,1.86,1.86,0,0,1,.53-.37A2,2,0,0,1,46.94,156.43Zm0,5.78a1,1,0,0,0,1-.53,4,4,0,0,0,.28-.82,5.13,5.13,0,0,0,.15-1.31,5.41,5.41,0,0,0-.15-1.39,3.32,3.32,0,0,0-.29-.78,1.05,1.05,0,0,0-1-.49,1.08,1.08,0,0,0-1,.49,3.41,3.41,0,0,0-.28.78,5.41,5.41,0,0,0-.15,1.39,5.16,5.16,0,0,0,.14,1.31,4.71,4.71,0,0,0,.28.82A1.05,1.05,0,0,0,47,162.21Z"/><path class="cls-4" d="M49.67,161.91a.39.39,0,0,1,.38-.37.36.36,0,0,1,.28.12.36.36,0,0,1,.11.25.34.34,0,0,1-.11.24.36.36,0,0,1-.28.11.35.35,0,0,1-.27-.11A.34.34,0,0,1,49.67,161.91Z"/><path class="cls-4" d="M53.71,163.78a4.53,4.53,0,0,1-.85-.75,5.36,5.36,0,0,1-.7-1,4.9,4.9,0,0,1-.47-1.13,4.28,4.28,0,0,1-.18-1.21,4,4,0,0,1,.19-1.24,4.88,4.88,0,0,1,.49-1.12,5.91,5.91,0,0,1,.69-1,5.18,5.18,0,0,1,.84-.74.23.23,0,0,1,.08.07l.08.06a6.49,6.49,0,0,0-.67.77,6.83,6.83,0,0,0-.57.95,6.18,6.18,0,0,0-.39,1.07,4.35,4.35,0,0,0-.15,1.14,4.54,4.54,0,0,0,.15,1.15,5.57,5.57,0,0,0,.4,1.08,6.4,6.4,0,0,0,.57,1,6.24,6.24,0,0,0,.64.75Z"/><path class="cls-4" d="M61.84,159.25c.07,0,.11.05.11.16s-.07.34-.21.34H54.58v-.5ZM60.9,163c0,.57-.14.86-.42.86H56.12a.44.44,0,0,1-.49-.5v-2.53h5a.23.23,0,0,1,.26.25Zm-5.22-6.48V156h5c.15,0,.23.09.23.26v.37a7.58,7.58,0,0,1-.31,2,.18.18,0,0,1-.21.15h-.36a8,8,0,0,0,.31-2.12v-.16Zm4.51,6.84c.09,0,.13-.09.13-.27v-1.76H56.21v1.87c0,.11,0,.16.15.16Z"/><path class="cls-4" d="M62.51,163.65a5.48,5.48,0,0,0,.65-.75,6.4,6.4,0,0,0,.57-1,5.57,5.57,0,0,0,.4-1.08,4.54,4.54,0,0,0,.15-1.15,4.35,4.35,0,0,0-.15-1.14,5.48,5.48,0,0,0-.4-1.07,5.32,5.32,0,0,0-.57-.95,5.7,5.7,0,0,0-.67-.77l.08-.06.09-.07a4.74,4.74,0,0,1,.83.74,6,6,0,0,1,.71,1,5.33,5.33,0,0,1,.48,1.12,4.33,4.33,0,0,1,.18,1.24,4.65,4.65,0,0,1-.17,1.21,4.93,4.93,0,0,1-.48,1.13,5.36,5.36,0,0,1-.7,1,4.48,4.48,0,0,1-.84.75Z"/><path class="cls-4" d="M69.29,157.36a8.33,8.33,0,0,0,.76-.42,6.47,6.47,0,0,0,.67-.47H71v6.19h-.58v-5.4a1.78,1.78,0,0,1-.48.27l-.54.2Z"/><path class="cls-4" d="M74.59,156.43a2,2,0,0,1,.74.15,1.91,1.91,0,0,1,.54.37,2.54,2.54,0,0,1,.36.54,3.55,3.55,0,0,1,.22.65,4.33,4.33,0,0,1,.12.72c0,.24,0,.48,0,.71a7.27,7.27,0,0,1-.09,1.16,3.56,3.56,0,0,1-.31,1,1.89,1.89,0,0,1-.62.72,1.74,1.74,0,0,1-1,.26,1.61,1.61,0,0,1-1.58-1,3.26,3.26,0,0,1-.32-1,7.27,7.27,0,0,1-.09-1.16c0-.23,0-.47,0-.71a5.68,5.68,0,0,1,.11-.72,3.58,3.58,0,0,1,.23-.65,2,2,0,0,1,.36-.54,1.72,1.72,0,0,1,1.25-.52Zm0,5.78a1.05,1.05,0,0,0,1-.53,4.71,4.71,0,0,0,.28-.82,5.16,5.16,0,0,0,.14-1.31,5.41,5.41,0,0,0-.15-1.39,3.41,3.41,0,0,0-.28-.78,1.07,1.07,0,0,0-1-.49,1.05,1.05,0,0,0-1,.49,3.32,3.32,0,0,0-.29.78,5.41,5.41,0,0,0-.15,1.39,5.13,5.13,0,0,0,.15,1.31,4,4,0,0,0,.28.82A1,1,0,0,0,74.6,162.21Z"/><path class="cls-4" d="M80.54,159.29v.4H77.4v-.4Z"/><path class="cls-4" d="M82.47,157.36a8.21,8.21,0,0,0,.75-.42,6.67,6.67,0,0,0,.68-.47h.31v6.19h-.59v-5.4a1.88,1.88,0,0,1-.47.27l-.55.2Z"/><path class="cls-4" d="M87.76,162.71a2.12,2.12,0,0,1-1.38-.41,1.41,1.41,0,0,1-.51-1.17,1.48,1.48,0,0,1,.41-1,2.46,2.46,0,0,1,1-.67,2.49,2.49,0,0,1-.9-.62,1.29,1.29,0,0,1-.34-.88,1.61,1.61,0,0,1,.13-.63,1.51,1.51,0,0,1,.36-.47,1.6,1.6,0,0,1,.53-.29,2.15,2.15,0,0,1,.68-.11,1.76,1.76,0,0,1,.66.12,1.59,1.59,0,0,1,.54.31,1.51,1.51,0,0,1,.36.47,1.34,1.34,0,0,1,.13.59,1.55,1.55,0,0,1-.3.88,1.94,1.94,0,0,1-.88.66,2.89,2.89,0,0,1,1,.68,1.39,1.39,0,0,1,.37,1,1.85,1.85,0,0,1-.06.39,1.53,1.53,0,0,1-.26.53,1.78,1.78,0,0,1-.59.47A2.16,2.16,0,0,1,87.76,162.71Zm0-.43a1.51,1.51,0,0,0,.53-.1,1.36,1.36,0,0,0,.44-.25,1.41,1.41,0,0,0,.27-.4,1.23,1.23,0,0,0,.11-.51.87.87,0,0,0-.13-.46,1.49,1.49,0,0,0-.33-.39,2.24,2.24,0,0,0-.43-.31,2.49,2.49,0,0,0-.44-.21,1.92,1.92,0,0,0-.48.19,1.8,1.8,0,0,0-.45.31,1.38,1.38,0,0,0-.32.41,1,1,0,0,0-.13.5,1.17,1.17,0,0,0,.11.52,1,1,0,0,0,.28.37,1.22,1.22,0,0,0,.43.24A1.91,1.91,0,0,0,87.76,162.28Zm-1.18-4.38a1.21,1.21,0,0,0,.11.52,1.19,1.19,0,0,0,.3.37,1.46,1.46,0,0,0,.38.27,4.07,4.07,0,0,0,.44.18,2,2,0,0,0,.42-.19,2.92,2.92,0,0,0,.38-.29,1.55,1.55,0,0,0,.26-.37A.94.94,0,0,0,89,158a1,1,0,0,0-.1-.46,1.44,1.44,0,0,0-.28-.37,1.5,1.5,0,0,0-.39-.22,1.07,1.07,0,0,0-.43-.09,1.32,1.32,0,0,0-.44.08,1,1,0,0,0-.38.21,1.13,1.13,0,0,0-.27.34A1.1,1.1,0,0,0,86.58,157.9Z"/><path class="cls-4" d="M92.34,156.24h.6v1.49a3.37,3.37,0,0,0,.61,2.07A4.66,4.66,0,0,0,95,161.08c.09.06.09.16,0,.3s-.17.2-.27.14a5.13,5.13,0,0,1-1.66-1.43,3.37,3.37,0,0,1-.42-.74,3.66,3.66,0,0,1-.42.78,4.85,4.85,0,0,1-1.66,1.48c-.11.06-.2,0-.28-.14s-.07-.24,0-.31a4.32,4.32,0,0,0,1.42-1.32,3.55,3.55,0,0,0,.61-2.11Zm4.49,7.08c0,.41-.11.62-.33.62h-.09a.14.14,0,0,1-.16-.16v-7.86h.58Z"/><path class="cls-4" d="M56.14,212.38a1.32,1.32,0,0,0,.36-.06,1.55,1.55,0,0,0,.7-.4,1.27,1.27,0,0,0,.24-.33.82.82,0,0,0,.1-.4.62.62,0,0,0-.28-.59,1.31,1.31,0,0,0-.71-.17,1.22,1.22,0,0,0-.32,0l-.34.11a2.14,2.14,0,0,0-.3.17,2.93,2.93,0,0,0-.26.19,1.7,1.7,0,0,0-.2-.29,2.93,2.93,0,0,1-.21-.27,2.22,2.22,0,0,1,.31-.26,2.45,2.45,0,0,1,.42-.25,3.54,3.54,0,0,1,.49-.18,1.86,1.86,0,0,1,.52-.07,2.48,2.48,0,0,1,.73.1,1.59,1.59,0,0,1,.61.3,1.49,1.49,0,0,1,.43.5,1.53,1.53,0,0,1,.16.69,1.35,1.35,0,0,1-.23.75,1.6,1.6,0,0,1-.64.56,1.63,1.63,0,0,1,.47.25,1.8,1.8,0,0,1,.36.37,2,2,0,0,1,.23.47,1.82,1.82,0,0,1,.08.52,1.92,1.92,0,0,1-.21.92,2,2,0,0,1-.56.62,2.65,2.65,0,0,1-.8.36,3.93,3.93,0,0,1-.92.11,3,3,0,0,1-.49,0,3.81,3.81,0,0,1-.51-.12,1.42,1.42,0,0,1-.41-.19.3.3,0,0,1-.17-.25.56.56,0,0,1,.12-.36c.08-.09.15-.14.21-.14l.11,0a1.55,1.55,0,0,0,.57.2,4.48,4.48,0,0,0,.64.05,3,3,0,0,0,.48-.08,1.86,1.86,0,0,0,.46-.19,1,1,0,0,0,.33-.33.87.87,0,0,0,.14-.5,1,1,0,0,0-.11-.49,1,1,0,0,0-.29-.33,1.13,1.13,0,0,0-.38-.19,1.86,1.86,0,0,0-.37-.1l-.3,0H56l-.31,0v-.71A3.78,3.78,0,0,0,56.14,212.38Z"/><path class="cls-4" d="M60,210h1.67v-.82h1V210h1.54c.14,0,.21.1.21.28,0,.37-.13.56-.38.56h-.65l.09.06.08.07a1.51,1.51,0,0,1,.38.55,2,2,0,0,1,.12.7,1.72,1.72,0,0,1-.28,1,1.88,1.88,0,0,1-.83.64l-.14.05-.14,0v1.1h1.95c.12,0,.19.09.19.27,0,.38-.13.56-.37.56H59.63v-.83h2V214l-.15,0-.15-.05a1.88,1.88,0,0,1-.83-.64,1.72,1.72,0,0,1-.29-1,2,2,0,0,1,.13-.7,1.51,1.51,0,0,1,.38-.55,1.09,1.09,0,0,1,.17-.13H60Zm2.17,3.15a1,1,0,0,0,.37-.08.92.92,0,0,0,.29-.23.91.91,0,0,0,.2-.33,1,1,0,0,0,0-.8,1,1,0,0,0-.2-.32,1.06,1.06,0,0,0-.29-.22,1,1,0,0,0-.37-.08,1,1,0,0,0-.38.08,1.06,1.06,0,0,0-.29.22,1.16,1.16,0,0,0-.2.32,1.11,1.11,0,0,0,.2,1.13.92.92,0,0,0,.29.23A1,1,0,0,0,62.18,213.18Zm4.07,3.18c0,.69-.2,1-.6,1H65.5a.24.24,0,0,1-.27-.27v-7.88h1Z"/><path class="cls-4" d="M67.85,210.18h1.53v-1h1v1h1.44c.12,0,.19.09.19.28,0,.37-.12.56-.37.56H70.41v.3a3.18,3.18,0,0,0,.43,1.6,4.6,4.6,0,0,0,1.33,1.4.26.26,0,0,1,.11.22.3.3,0,0,1,0,.17.52.52,0,0,1-.12.17L72,215a.37.37,0,0,1-.15.05.3.3,0,0,1-.15-.05l-.15-.09a5.49,5.49,0,0,1-.94-.78,3.55,3.55,0,0,1-.67-.93,4.27,4.27,0,0,1-.7,1,4.54,4.54,0,0,1-.93.77.22.22,0,0,1-.17.07A.34.34,0,0,1,68,215a.83.83,0,0,1-.28-.29.3.3,0,0,1-.05-.17.21.21,0,0,1,.05-.16.79.79,0,0,1,.16-.14A4.83,4.83,0,0,0,69,212.88a3.29,3.29,0,0,0,.4-1.56V211H67.85Zm6.2,6.18c0,.68-.2,1-.6,1h-.14c-.19,0-.28-.09-.28-.27v-7.86h1v2.52h1.08c.13,0,.2.1.2.29,0,.39-.13.59-.38.59h-.9Z"/><path class="cls-4" d="M30.84,221.69a7.06,7.06,0,0,0,.75-.42c.26-.16.48-.32.68-.47h.31V227H32v-5.4a2,2,0,0,1-.48.26l-.55.21Z"/><path class="cls-4" d="M35.28,221.69a8.21,8.21,0,0,0,.75-.42c.26-.16.48-.32.68-.47H37V227h-.59v-5.4a1.87,1.87,0,0,1-.47.26l-.55.21Z"/><path class="cls-4" d="M38.87,226.24A.34.34,0,0,1,39,226a.38.38,0,0,1,.28-.12.39.39,0,0,1,.38.37.38.38,0,0,1-.38.35.37.37,0,0,1-.28-.11A.34.34,0,0,1,38.87,226.24Z"/><path class="cls-4" d="M40.72,221.38a2.73,2.73,0,0,1,.72-.42,2.52,2.52,0,0,1,.88-.16,2,2,0,0,1,1.3.39,1.4,1.4,0,0,1,.48,1.16,2.62,2.62,0,0,1-.46,1.33,33.37,33.37,0,0,1-2.21,2.91h2.78s.08,0,.08.09a.38.38,0,0,1-.07.21.24.24,0,0,1-.21.1H40.94a.14.14,0,0,1-.13-.06.3.3,0,0,1,0-.18.75.75,0,0,1,.19-.51q.2-.23,1.17-1.5A12.26,12.26,0,0,0,43.29,223a1.81,1.81,0,0,0,.2-.68,1.28,1.28,0,0,0-.11-.55,1,1,0,0,0-.3-.34,1.13,1.13,0,0,0-.41-.16,2.12,2.12,0,0,0-.51,0,1.11,1.11,0,0,0-.29,0,2.13,2.13,0,0,0-.33.11l-.34.14-.3.17Z"/><path class="cls-4" d="M48.13,221.32H45.06v-.47h3.77c-.41,1-.8,2-1.17,3s-.75,2-1.17,3h0c-.05.11-.21.17-.48.17h-.17Z"/><path class="cls-4" d="M49.67,226.24a.39.39,0,0,1,.38-.37.36.36,0,0,1,.28.12.34.34,0,0,1,.11.25.34.34,0,0,1-.11.24.36.36,0,0,1-.28.11.38.38,0,0,1-.38-.35Z"/><path class="cls-4" d="M53.71,228.1a4.85,4.85,0,0,1-.85-.74,5.36,5.36,0,0,1-.7-1,5.17,5.17,0,0,1-.47-1.14,4.16,4.16,0,0,1-.18-1.2,4.33,4.33,0,0,1,.18-1.24,5.38,5.38,0,0,1,.5-1.12,5.5,5.5,0,0,1,.69-.95,5.18,5.18,0,0,1,.84-.74l.08.06a.21.21,0,0,0,.08.06,7.55,7.55,0,0,0-.67.78,6.83,6.83,0,0,0-.57,1,6.18,6.18,0,0,0-.39,1.07A4.35,4.35,0,0,0,52.1,224a4.46,4.46,0,0,0,.15,1.14,6.19,6.19,0,0,0,1,2,5.44,5.44,0,0,0,.64.75Z"/><path class="cls-4" d="M61.84,223.58c.07,0,.11,0,.11.16s-.07.34-.21.34H54.58v-.5Zm-.94,3.74c0,.57-.14.86-.42.86H56.12a.44.44,0,0,1-.49-.5v-2.53h5c.17,0,.26.08.26.25Zm-5.22-6.48v-.5h5c.15,0,.23.09.23.26V221a7.45,7.45,0,0,1-.31,2c0,.11-.09.16-.22.16h-.35a8,8,0,0,0,.31-2.12v-.16Zm4.51,6.84c.09,0,.13-.09.13-.27v-1.76H56.2v1.87a.15.15,0,0,0,.16.16Z"/><path class="cls-4" d="M62.51,228a6.26,6.26,0,0,0,.65-.75,6.19,6.19,0,0,0,1-2,4.46,4.46,0,0,0,.15-1.14,4.35,4.35,0,0,0-.15-1.14,6.21,6.21,0,0,0-.4-1.07,5.32,5.32,0,0,0-.57-1,6.5,6.5,0,0,0-.67-.78.21.21,0,0,0,.08-.06l.09-.06a4.74,4.74,0,0,1,.83.74,6.19,6.19,0,0,1,.71.95,5.33,5.33,0,0,1,.48,1.12,4.33,4.33,0,0,1,.18,1.24,4.52,4.52,0,0,1-.17,1.2,5.73,5.73,0,0,1-.48,1.14,5.36,5.36,0,0,1-.7,1,4.8,4.8,0,0,1-.84.74Z"/><path class="cls-4" d="M69.29,221.69a8.33,8.33,0,0,0,.76-.42c.25-.16.48-.32.67-.47H71V227h-.58v-5.4a2,2,0,0,1-.48.26l-.54.21Z"/><path class="cls-4" d="M74.59,220.76a2,2,0,0,1,.74.15,1.73,1.73,0,0,1,.54.37,2.54,2.54,0,0,1,.36.54,3.31,3.31,0,0,1,.22.65,4.2,4.2,0,0,1,.11.71,5.85,5.85,0,0,1,0,.71,7.4,7.4,0,0,1-.09,1.17,3.92,3.92,0,0,1-.31,1,1.87,1.87,0,0,1-.62.71,1.67,1.67,0,0,1-1,.27,1.65,1.65,0,0,1-1.58-1,3,3,0,0,1-.32-1,7.4,7.4,0,0,1-.09-1.17c0-.23,0-.46,0-.71a5.52,5.52,0,0,1,.11-.71,4.13,4.13,0,0,1,.22-.65,2.25,2.25,0,0,1,.37-.54,1.8,1.8,0,0,1,.53-.37A2,2,0,0,1,74.59,220.76Zm0,5.78a1.05,1.05,0,0,0,1-.53,4.58,4.58,0,0,0,.28-.83,5.57,5.57,0,0,0,.14-1.3,5.36,5.36,0,0,0-.15-1.39,3.41,3.41,0,0,0-.28-.78,1.07,1.07,0,0,0-1-.49,1.05,1.05,0,0,0-1,.49,3.32,3.32,0,0,0-.29.78,5.36,5.36,0,0,0-.15,1.39,5,5,0,0,0,.15,1.3,3.91,3.91,0,0,0,.28.83A1,1,0,0,0,74.6,226.54Z"/><path class="cls-4" d="M80.54,223.62v.4H77.4v-.4Z"/><path class="cls-4" d="M82.46,221.69a7.18,7.18,0,0,0,.76-.42c.26-.16.48-.32.68-.47h.31V227h-.59v-5.4a1.87,1.87,0,0,1-.47.26l-.55.21Z"/><path class="cls-4" d="M87.76,227a2.17,2.17,0,0,1-1.39-.41,1.44,1.44,0,0,1-.5-1.17,1.48,1.48,0,0,1,.41-1,2.46,2.46,0,0,1,1-.67,2.52,2.52,0,0,1-.9-.62,1.32,1.32,0,0,1-.34-.89,1.56,1.56,0,0,1,.13-.62,1.29,1.29,0,0,1,.36-.47,1.62,1.62,0,0,1,.53-.3,2.11,2.11,0,0,1,.68-.1,2,2,0,0,1,.66.11,1.61,1.61,0,0,1,.54.32,1.51,1.51,0,0,1,.36.47,1.29,1.29,0,0,1,.13.58,1.51,1.51,0,0,1-.3.88,1.92,1.92,0,0,1-.88.66,3,3,0,0,1,1,.68,1.4,1.4,0,0,1,.37,1,1.85,1.85,0,0,1-.06.39,1.3,1.3,0,0,1-.27.52,1.75,1.75,0,0,1-.58.48A2.16,2.16,0,0,1,87.76,227Zm0-.43a1.78,1.78,0,0,0,.53-.1,1.24,1.24,0,0,0,.43-.26,1.21,1.21,0,0,0,.28-.39,1.26,1.26,0,0,0,.11-.51.94.94,0,0,0-.13-.46,1.71,1.71,0,0,0-.33-.39,2.61,2.61,0,0,0-.43-.31,2.88,2.88,0,0,0-.44-.21,2.15,2.15,0,0,0-.49.19,1.94,1.94,0,0,0-.44.31,1.61,1.61,0,0,0-.33.41,1.08,1.08,0,0,0-.12.5,1.21,1.21,0,0,0,.11.52,1,1,0,0,0,.28.37,1.29,1.29,0,0,0,.43.24A2.17,2.17,0,0,0,87.76,226.61Zm-1.18-4.38a1.21,1.21,0,0,0,.11.52,1.32,1.32,0,0,0,.29.37,1.7,1.7,0,0,0,.39.27,3.93,3.93,0,0,0,.43.18,1.86,1.86,0,0,0,.43-.2,1.82,1.82,0,0,0,.38-.29,1.37,1.37,0,0,0,.26-.37.87.87,0,0,0,.1-.42,1,1,0,0,0-.1-.46,1.29,1.29,0,0,0-.28-.37,1.54,1.54,0,0,0-.39-.23,1.31,1.31,0,0,0-.43-.08,1.62,1.62,0,0,0-.44.07,1.17,1.17,0,0,0-.38.21,1.31,1.31,0,0,0-.27.35A1.06,1.06,0,0,0,86.58,222.23Z"/><path class="cls-4" d="M92.34,220.57h.59v1.48a3.38,3.38,0,0,0,.62,2.08A4.79,4.79,0,0,0,95,225.41c.09.06.09.16,0,.3s-.17.2-.27.13a4.9,4.9,0,0,1-1.66-1.43,3.3,3.3,0,0,1-.42-.73,3.5,3.5,0,0,1-.43.78,4.82,4.82,0,0,1-1.65,1.48c-.11.06-.2,0-.28-.14s-.07-.24,0-.31a4.42,4.42,0,0,0,1.42-1.32,3.56,3.56,0,0,0,.61-2.12Zm4.49,7.08c0,.41-.11.62-.33.62h-.09a.14.14,0,0,1-.16-.16v-7.86h.58Z"/><path class="cls-3" d="M159.42,45.93v3.24h1.49V45.93h1.36v3.24h3.56q.27,0,.27.39c0,.51-.17.77-.5.77h-9.84V49.17h2.3V45.93Zm3.51,1.48a20.31,20.31,0,0,0,.46-4v-.33h-6V41.93h6.84a.5.5,0,0,1,.57.56v1.07a10.54,10.54,0,0,1-.13,1.61c-.09.58-.21,1.21-.37,1.9,0,.23-.2.34-.47.34Z"/><path class="cls-3" d="M174.11,49.73H168.2V48.61h1.16V47.37h-2.65V46.26h10.06c.18,0,.27.12.27.37,0,.5-.17.74-.5.74h-2.15v1.24h.51a.5.5,0,0,1,.57.56v1.64c0,.93-.27,1.39-.8,1.39h-.2a.32.32,0,0,1-.36-.36Zm-2.24-8.42a7.91,7.91,0,0,1,1.61.16,4.5,4.5,0,0,1,1.21.45,2.21,2.21,0,0,1,.76.68,1.51,1.51,0,0,1,.26.84,1.47,1.47,0,0,1-.26.82,2.27,2.27,0,0,1-.76.66,4.49,4.49,0,0,1-1.21.46,7.23,7.23,0,0,1-1.61.17,7.11,7.11,0,0,1-1.59-.17,4.37,4.37,0,0,1-1.21-.46,2.26,2.26,0,0,1-.78-.66,1.33,1.33,0,0,1-.26-.82,1.37,1.37,0,0,1,.26-.84,2.27,2.27,0,0,1,.78-.67,4.37,4.37,0,0,1,1.21-.45A7.11,7.11,0,0,1,171.87,41.31Zm0,3.15a5.83,5.83,0,0,0,1-.08,3.4,3.4,0,0,0,.78-.23,1.55,1.55,0,0,0,.52-.33.57.57,0,0,0,.2-.39.63.63,0,0,0-.21-.41,1.71,1.71,0,0,0-.52-.32,4.44,4.44,0,0,0-.77-.22,5.83,5.83,0,0,0-1-.08,6,6,0,0,0-1,.08,4,4,0,0,0-.77.22,1.71,1.71,0,0,0-.52.32.59.59,0,0,0-.18.41.58.58,0,0,0,.18.39,1.55,1.55,0,0,0,.52.33,2.92,2.92,0,0,0,.77.23A6,6,0,0,0,171.87,44.46ZM173,47.37h-2.29v1.24H173Z"/><path class="cls-3" d="M178.33,42h1.38v5.45c0,.24.12.35.36.35h2.73c.18,0,.26.12.26.36,0,.5-.17.75-.5.75h-3.07c-.77,0-1.16-.37-1.16-1.11Zm9,8.93c0,.92-.27,1.38-.8,1.38h-.17c-.25,0-.38-.12-.38-.35V46h-1v4.78c0,.91-.26,1.37-.79,1.37H184c-.25,0-.37-.12-.37-.35V41.42H185V44.8h1V41.42h1.35Z"/><path class="cls-3" d="M193.74,41.31a7.73,7.73,0,0,1,1.6.16,4.44,4.44,0,0,1,1.22.45,2.3,2.3,0,0,1,.76.68,1.51,1.51,0,0,1,.26.84,1.47,1.47,0,0,1-.26.82,2.23,2.23,0,0,1-.75.66,2,2,0,0,1-.36.18v1.35h2.43c.17,0,.26.13.26.38,0,.49-.16.74-.49.74h-9.83V46.45h2.69V45.1a1.67,1.67,0,0,1-.35-.18,2.17,2.17,0,0,1-.76-.66,1.47,1.47,0,0,1-.26-.82,1.37,1.37,0,0,1,.26-.84,2.23,2.23,0,0,1,.77-.67,4.57,4.57,0,0,1,1.22-.45A7.11,7.11,0,0,1,193.74,41.31Zm0,6.83a6.36,6.36,0,0,1,1.52.17,4.06,4.06,0,0,1,1.15.46,2.21,2.21,0,0,1,.71.68,1.59,1.59,0,0,1,0,1.68,2,2,0,0,1-.71.69,4.06,4.06,0,0,1-1.15.46,6.84,6.84,0,0,1-3,0,4,4,0,0,1-1.14-.46,2.08,2.08,0,0,1-.72-.69,1.54,1.54,0,0,1,0-1.68,2.25,2.25,0,0,1,.72-.68,4,4,0,0,1,1.14-.46A6.34,6.34,0,0,1,193.74,48.14Zm0-3.68a5.61,5.61,0,0,0,.95-.08,3.34,3.34,0,0,0,.79-.23,1.55,1.55,0,0,0,.52-.33.55.55,0,0,0,.19-.39A.57.57,0,0,0,196,43a1.77,1.77,0,0,0-.53-.32,4,4,0,0,0-.77-.22,5.61,5.61,0,0,0-.95-.08,6,6,0,0,0-1,.08,4,4,0,0,0-.77.22,1.71,1.71,0,0,0-.52.32.52.52,0,0,0,0,.8,1.55,1.55,0,0,0,.52.33,2.92,2.92,0,0,0,.77.23A6,6,0,0,0,193.74,44.46Zm0,6.91a5,5,0,0,0,.89-.08,3.38,3.38,0,0,0,.74-.24,1.47,1.47,0,0,0,.48-.34.67.67,0,0,0,.17-.42.62.62,0,0,0-.17-.41,1.47,1.47,0,0,0-.48-.34,2.93,2.93,0,0,0-.74-.23,4.19,4.19,0,0,0-.89-.09,4.42,4.42,0,0,0-.92.09,2.65,2.65,0,0,0-.72.23,1.29,1.29,0,0,0-.48.34.61.61,0,0,0-.16.41.65.65,0,0,0,.16.42,1.29,1.29,0,0,0,.48.34,3,3,0,0,0,.72.24A5.25,5.25,0,0,0,193.74,51.37Zm0-5.82a7.68,7.68,0,0,1-1.11-.07v1h2.21v-1A7.82,7.82,0,0,1,193.74,45.55Z"/><path class="cls-4" d="M133.38,81.83h1.05V78H135v3.8h1.44V78H137v3.8h1.23c.08,0,.11,0,.11.16s-.07.34-.21.34h-4.76Zm.19-4.76h4.29c.07,0,.11.06.11.17s-.07.33-.21.33h-4.19Zm4.3,2.19h1.53v-2.6H140v7.4c0,.42-.12.62-.34.62h-.08c-.11,0-.16-.05-.16-.15V79.76h-1.53Z"/><path class="cls-4" d="M143.05,76.89h.6v.67a2.09,2.09,0,0,0,.61,1.45,4.82,4.82,0,0,0,1.42,1.08q.15.09,0,.3c-.09.15-.18.2-.28.14a5.61,5.61,0,0,1-1.66-1.23,3.15,3.15,0,0,1-.42-.58,3.08,3.08,0,0,1-.42.62,5.18,5.18,0,0,1-1.67,1.28c-.1.06-.19,0-.26-.14s-.08-.24,0-.31a4.85,4.85,0,0,0,1.42-1.11,2.26,2.26,0,0,0,.61-1.5Zm-.49,5.77h4.32c.06,0,.08,0,.08-.16v-.74h-4.4v-.5h4.74a.22.22,0,0,1,.24.25v.85c0,.52-.13.78-.38.78h-4V84c0,.08,0,.12.11.12h4.28c.07,0,.11.05.11.15s-.07.34-.21.34h-4.38a.44.44,0,0,1-.49-.5Zm5-2.56c0,.41-.11.62-.34.62h-.08a.14.14,0,0,1-.16-.16v-3.9h.58Z"/><path class="cls-4" d="M149.06,79.52h3.12c.06,0,.09-.06.09-.16V77.57h-3.21v-.5h3.54a.22.22,0,0,1,.24.25v1.89c0,.52-.12.79-.37.79h-2.84v1.88c0,.08,0,.12.11.12h3.67c.06,0,.1.06.1.16s-.07.34-.21.34h-3.76q-.48,0-.48-.51Zm6.08,4.54c0,.42-.12.62-.34.62h-.08a.14.14,0,0,1-.16-.15V76.66h.58Z"/><path class="cls-4" d="M156.48,77.07h2.94c.08,0,.12.06.12.16s-.07.34-.21.34h-2.28v1.94h2.18q.12,0,.12.15c0,.23-.07.35-.21.35h-2.09v1.83c0,.1,0,.15.16.15h2.7c.07,0,.1.06.1.17s-.07.34-.21.34H157c-.32,0-.47-.17-.47-.51Zm3.34,2.19h1v-2.6h.58v7.22c0,.41-.12.62-.34.62H161c-.11,0-.16,0-.16-.15V79.76h-1Zm3.16,4.8c0,.42-.11.62-.33.62h-.09a.13.13,0,0,1-.15-.15V76.66H163Z"/><path class="cls-4" d="M166.11,76.89a1.57,1.57,0,0,1,.79.22,2.11,2.11,0,0,1,.61.58,2.62,2.62,0,0,1,.37.88,4.18,4.18,0,0,1,.13,1.07,4.23,4.23,0,0,1-.13,1.09,2.62,2.62,0,0,1-.37.88,2,2,0,0,1-.61.59,1.47,1.47,0,0,1-.79.22,1.43,1.43,0,0,1-.79-.22,2.14,2.14,0,0,1-.61-.59,2.45,2.45,0,0,1-.39-.88,4.23,4.23,0,0,1-.13-1.09,4.18,4.18,0,0,1,.13-1.07,2.45,2.45,0,0,1,.39-.88,2.24,2.24,0,0,1,.61-.58A1.51,1.51,0,0,1,166.11,76.89Zm0,5a.89.89,0,0,0,.51-.17,1.62,1.62,0,0,0,.44-.49,2.61,2.61,0,0,0,.28-.75,3.7,3.7,0,0,0,.11-.87,3.66,3.66,0,0,0-.11-.88,2.59,2.59,0,0,0-.28-.73,1.62,1.62,0,0,0-.44-.46.84.84,0,0,0-.51-.18.88.88,0,0,0-.54.18,1.47,1.47,0,0,0-.43.46,2.32,2.32,0,0,0-.27.73,3.88,3.88,0,0,0,0,1.75,2.35,2.35,0,0,0,.27.75,1.48,1.48,0,0,0,.43.49A.94.94,0,0,0,166.1,81.92Zm4.25,2.14c0,.42-.11.62-.33.62h-.09a.13.13,0,0,1-.15-.15V76.66h.57Z"/><path class="cls-4" d="M173.45,76.89h.6v.85a2.46,2.46,0,0,0,.61,1.62,5,5,0,0,0,1.4,1.19c.1.06.1.16,0,.3s-.18.19-.27.13a5.36,5.36,0,0,1-1.66-1.34,4.09,4.09,0,0,1-.4-.62,3.18,3.18,0,0,1-.41.67,5,5,0,0,1-1.65,1.38c-.1.06-.19,0-.26-.13s-.08-.25,0-.31a4.62,4.62,0,0,0,1.39-1.23,2.67,2.67,0,0,0,.6-1.66Zm-.41,7.2V81.9h.58v2a.14.14,0,0,0,.15.16H178q.12,0,.12.15c0,.24-.07.35-.21.35h-4.38A.44.44,0,0,1,173,84.09Zm2.87-4.8h1.53V78.15h-1.53v-.5h1.53v-1H178v4.9c0,.41-.11.62-.33.62h-.09a.15.15,0,0,1-.16-.16V79.79h-1.53Z"/><path class="cls-4" d="M180.9,76.89a1.36,1.36,0,0,1,.73.22,2.07,2.07,0,0,1,.56.58,2.61,2.61,0,0,1,.34.88,5,5,0,0,1,.11.69h1v-2.6h.58v7.22c0,.41-.12.62-.34.62h-.08c-.11,0-.16,0-.16-.15V79.76h-1a6.1,6.1,0,0,1-.13,1,2.64,2.64,0,0,1-.34.87,1.83,1.83,0,0,1-.56.58,1.22,1.22,0,0,1-.73.23,1.26,1.26,0,0,1-.74-.22,2,2,0,0,1-.56-.59,2.62,2.62,0,0,1-.36-.88,4.23,4.23,0,0,1-.13-1.09,4.18,4.18,0,0,1,.13-1.07,2.62,2.62,0,0,1,.36-.88,2.07,2.07,0,0,1,.56-.58A1.34,1.34,0,0,1,180.9,76.89Zm0,5a.72.72,0,0,0,.45-.17,1.51,1.51,0,0,0,.39-.49,3,3,0,0,0,.26-.75,4.28,4.28,0,0,0,.09-.87,4.24,4.24,0,0,0-.09-.88,3,3,0,0,0-.26-.73,1.49,1.49,0,0,0-.39-.46.68.68,0,0,0-.45-.18.76.76,0,0,0-.49.18A1.46,1.46,0,0,0,180,78a2.6,2.6,0,0,0-.25.73,4.24,4.24,0,0,0-.09.88,4.28,4.28,0,0,0,.09.87,2.64,2.64,0,0,0,.25.75,1.49,1.49,0,0,0,.38.49A.81.81,0,0,0,180.89,81.92Zm4.92,2.14c0,.42-.11.62-.33.62h-.09a.14.14,0,0,1-.16-.15V76.66h.58Z"/><path class="cls-4" d="M189.46,77.07h3c.07,0,.11.06.11.16s-.07.34-.21.34H190v4c0,.11.05.16.15.16h2.75c.07,0,.11.05.11.16s-.07.34-.21.34h-2.9c-.32,0-.48-.17-.48-.5Zm6.46,7c0,.42-.11.62-.32.62h-.08a.13.13,0,0,1-.15-.15V79.8H194.2v4.08c0,.41-.11.62-.32.62h-.08c-.11,0-.16,0-.16-.15V76.66h.56v2.62h1.17V76.66h.55Z"/><path class="cls-4" d="M196.9,77.26h1.94v-.82h.57v.82h1.82c.08,0,.11,0,.11.15s-.07.34-.21.34H200a2.36,2.36,0,0,1,.46.33,1.78,1.78,0,0,1,.37.61,2.34,2.34,0,0,1,.12.74,2.37,2.37,0,0,1-.12.76,2,2,0,0,1-.36.6,1.87,1.87,0,0,1-.61.41,1.93,1.93,0,0,1-2.14-.41,1.71,1.71,0,0,1-.38-.6,2.38,2.38,0,0,1-.13-.76,2.35,2.35,0,0,1,.13-.74,1.66,1.66,0,0,1,.38-.61,3.17,3.17,0,0,1,.46-.33H196.9Zm2.21,3.59a1.12,1.12,0,0,0,.51-.11,1,1,0,0,0,.4-.32,2.09,2.09,0,0,0,.28-.49,1.7,1.7,0,0,0,0-1.15,1.84,1.84,0,0,0-.28-.48,1.2,1.2,0,0,0-.4-.3,1.13,1.13,0,0,0-.51-.12,1.18,1.18,0,0,0-.53.12,1.36,1.36,0,0,0-.41.3,1.38,1.38,0,0,0-.26.48,1.88,1.88,0,0,0,0,1.15,1.53,1.53,0,0,0,.26.49,1.14,1.14,0,0,0,.41.32A1.17,1.17,0,0,0,199.11,80.85Zm-.87,3.24V82h.58v1.94a.14.14,0,0,0,.15.16h4.14c.07,0,.11,0,.11.15s-.07.35-.21.35h-4.27A.44.44,0,0,1,198.24,84.09Zm4.89-2.44c0,.41-.11.62-.34.62h-.08a.14.14,0,0,1-.16-.16V76.66h.58v2h1.22c.08,0,.12,0,.12.16s-.07.34-.21.34h-1.13Z"/><path class="cls-4" d="M209.16,76.89a1.54,1.54,0,0,1,.79.22,2,2,0,0,1,.61.58,2.63,2.63,0,0,1,.38.88,4.55,4.55,0,0,1,0,2.16,2.63,2.63,0,0,1-.38.88,1.91,1.91,0,0,1-.61.59,1.45,1.45,0,0,1-.79.22,1.43,1.43,0,0,1-.79-.22,2.14,2.14,0,0,1-.61-.59,2.64,2.64,0,0,1-.39-.88,4.23,4.23,0,0,1-.13-1.09,4.18,4.18,0,0,1,.13-1.07,2.64,2.64,0,0,1,.39-.88,2.24,2.24,0,0,1,.61-.58A1.51,1.51,0,0,1,209.16,76.89Zm0,5a1,1,0,0,0,.52-.17,1.6,1.6,0,0,0,.43-.49,2.61,2.61,0,0,0,.29-.75,3.88,3.88,0,0,0,0-1.75,2.59,2.59,0,0,0-.29-.73,1.59,1.59,0,0,0-.43-.46.89.89,0,0,0-.52-.18.92.92,0,0,0-.54.18,1.33,1.33,0,0,0-.42.46,2.1,2.1,0,0,0-.28.73,3.88,3.88,0,0,0,0,1.75,2.13,2.13,0,0,0,.28.75,1.35,1.35,0,0,0,.42.49A1,1,0,0,0,209.15,81.92Zm4.26,2.14c0,.42-.12.62-.34.62H213c-.11,0-.16-.05-.16-.15V76.66h.58Z"/><path class="cls-4" d="M214.5,77.71h1.66v-1h.57v1h1.53c.08,0,.12.05.12.16s-.07.34-.22.34H214.5Zm1.93,1.14a1.6,1.6,0,0,1,.7.15,1.47,1.47,0,0,1,.54.4A1.69,1.69,0,0,1,218,80a2.65,2.65,0,0,1,.11.74,2.68,2.68,0,0,1-.11.76,1.73,1.73,0,0,1-.32.6,1.41,1.41,0,0,1-.54.42,1.69,1.69,0,0,1-1.39,0,1.54,1.54,0,0,1-.53-.42,2,2,0,0,1-.34-.6,2.68,2.68,0,0,1-.11-.76,2.65,2.65,0,0,1,.11-.74,1.89,1.89,0,0,1,.34-.61,1.61,1.61,0,0,1,.53-.4A1.58,1.58,0,0,1,216.43,78.85Zm0,3.33a.93.93,0,0,0,.44-.11,1,1,0,0,0,.35-.31,2.06,2.06,0,0,0,.23-.47,1.61,1.61,0,0,0,.09-.54,1.76,1.76,0,0,0-.09-.55,1.8,1.8,0,0,0-.23-.46,1.17,1.17,0,0,0-.35-.28.94.94,0,0,0-.88,0,1.06,1.06,0,0,0-.35.28,1.31,1.31,0,0,0-.22.46,2.09,2.09,0,0,0-.08.55,1.91,1.91,0,0,0,.08.54,1.45,1.45,0,0,0,.22.47.94.94,0,0,0,.35.31A.93.93,0,0,0,216.42,82.18Zm4.84,1.88c0,.42-.1.62-.32.62h-.08a.13.13,0,0,1-.15-.15V79.8h-1.17v4.08c0,.41-.11.62-.32.62h-.08a.14.14,0,0,1-.16-.15V76.66h.56v2.62h1.17V76.66h.55Z"/><path class="cls-4" d="M133.77,95.76v1.3h2.5c.08,0,.12,0,.12.16s-.07.34-.21.34h-5.25v-.5h2.27v-1.3Zm-2.51-4.08h1.94v-.82h.57v.82h1.82c.08,0,.11,0,.11.16s-.07.34-.21.34h-1a1.5,1.5,0,0,1,.7.81,2.07,2.07,0,0,1,0,1.39,1.58,1.58,0,0,1-.36.56,1.86,1.86,0,0,1-.6.38,1.92,1.92,0,0,1-.77.14,1.89,1.89,0,0,1-.77-.14,1.76,1.76,0,0,1-.6-.38,1.51,1.51,0,0,1-.38-.56,1.92,1.92,0,0,1,0-1.39,1.45,1.45,0,0,1,.37-.56,2,2,0,0,1,.34-.25h-1.18Zm2.2,3.28a1.25,1.25,0,0,0,.51-.1,1,1,0,0,0,.41-.29,1.68,1.68,0,0,0,.27-.45,1.34,1.34,0,0,0,.11-.51,1.36,1.36,0,0,0-.11-.53,1.48,1.48,0,0,0-.27-.44,1,1,0,0,0-.41-.27,1.25,1.25,0,0,0-.51-.1,1.27,1.27,0,0,0-.52.1,1,1,0,0,0-.41.27,1.28,1.28,0,0,0-.26.44,1.55,1.55,0,0,0-.09.53,1.52,1.52,0,0,0,.09.51,1.43,1.43,0,0,0,.26.45,1,1,0,0,0,.41.29A1.27,1.27,0,0,0,133.46,95Zm3.88,3.53c0,.41-.11.62-.33.62h-.09c-.1,0-.15,0-.15-.16V91.09h.57Z"/><path class="cls-4" d="M143.88,96.79c.08,0,.11,0,.11.16s-.07.34-.2.34h-5.25v-.5ZM141,91.23a2.12,2.12,0,0,1,.83.16,2.09,2.09,0,0,1,.64.42,1.72,1.72,0,0,1,.39.62,2.24,2.24,0,0,1,0,1.56,1.68,1.68,0,0,1-.39.63,2.11,2.11,0,0,1-.64.43,2.31,2.31,0,0,1-.83.16,2.19,2.19,0,0,1-.83-.16,2.11,2.11,0,0,1-.64-.43,1.6,1.6,0,0,1-.41-.63,2.24,2.24,0,0,1,0-1.56,1.64,1.64,0,0,1,.41-.62,2.09,2.09,0,0,1,.64-.42A2,2,0,0,1,141,91.23Zm0,3.48a1.3,1.3,0,0,0,.55-.12,1.23,1.23,0,0,0,.46-.32,1.52,1.52,0,0,0,.31-.49,1.54,1.54,0,0,0,.12-.58,1.59,1.59,0,0,0-.43-1,1.49,1.49,0,0,0-.46-.31,1.46,1.46,0,0,0-.55-.11,1.58,1.58,0,0,0-.58.11,1.49,1.49,0,0,0-.46.31,1.17,1.17,0,0,0-.29.48,1.63,1.63,0,0,0-.1.57,1.73,1.73,0,0,0,.1.58,1.21,1.21,0,0,0,.29.49,1.23,1.23,0,0,0,.46.32A1.4,1.4,0,0,0,141,94.71ZM145,98.49c0,.41-.11.62-.34.62h-.08c-.1,0-.15,0-.15-.16V91.09H145Z"/><path class="cls-4" d="M147.07,99.06a.18.18,0,0,1,0,.09.28.28,0,0,1-.23,0l-.12-.06c-.05,0-.06-.07,0-.14.21-.66.44-1.32.67-2s.47-1.37.71-2,.47-1.37.7-2l.68-2,.21.05.15,0Z"/><path class="cls-4" d="M156.71,95.37c.07,0,.11.06.11.17s-.07.33-.21.33H154v2.44c0,.41-.11.62-.33.62h-.09c-.11,0-.16-.06-.16-.17V95.87h-2.05v-.5Zm-2.86-4.19a2.23,2.23,0,0,1,.83.15,2.49,2.49,0,0,1,.65.35,1.5,1.5,0,0,1,.39.54,1.7,1.7,0,0,1,0,1.35,1.5,1.5,0,0,1-.39.54,2.5,2.5,0,0,1-.65.36,2.37,2.37,0,0,1-1.66,0,2.54,2.54,0,0,1-.63-.36,1.34,1.34,0,0,1-.41-.54,1.7,1.7,0,0,1,0-1.35,1.34,1.34,0,0,1,.41-.54,2.52,2.52,0,0,1,.63-.35A2.23,2.23,0,0,1,153.85,91.18Zm0,2.94a1.5,1.5,0,0,0,.56-.1,1.23,1.23,0,0,0,.46-.26,1.38,1.38,0,0,0,.31-.4,1.19,1.19,0,0,0,.11-.47,1.12,1.12,0,0,0-.11-.47,1.38,1.38,0,0,0-.31-.4,1.56,1.56,0,0,0-.46-.25,1.73,1.73,0,0,0-.56-.09,1.79,1.79,0,0,0-.57.09,1.44,1.44,0,0,0-.46.25,1.08,1.08,0,0,0-.3.4,1.28,1.28,0,0,0-.1.47,1.37,1.37,0,0,0,.1.47,1.08,1.08,0,0,0,.3.4,1.15,1.15,0,0,0,.46.26A1.56,1.56,0,0,0,153.84,94.12Zm1.45,2.67h1.92v-5.7h.57v7.4c0,.41-.11.62-.34.62h-.09c-.09,0-.14,0-.14-.16V97.29h-1.92Z"/><path class="cls-4" d="M165.89,96.87c.07,0,.11,0,.11.16s-.07.36-.21.36h-7.15v-.52Zm-6.06-3.19h4.43c.05-.57.08-1.11.08-1.61v-.16h-4.61v-.5h4.93c.16,0,.24.08.24.25V92a24.16,24.16,0,0,1-.4,3.82.2.2,0,0,1-.22.15H164c.1-.64.19-1.25.25-1.83h-4.38Z"/><path class="cls-4" d="M168.87,93.79V95H171V93.79h.58V95h1.95c.07,0,.11,0,.11.16s-.07.32-.21.32h-7.15V95h2.05V93.79Zm.76-2.7h.6v.12a1.52,1.52,0,0,0,.79,1.21,5.79,5.79,0,0,0,1.85.82c.1,0,.12.14.06.29s-.14.22-.25.18a6.55,6.55,0,0,1-2.16-1,2.23,2.23,0,0,1-.59-.6,2.49,2.49,0,0,1-.61.6,6.4,6.4,0,0,1-2.15,1c-.11,0-.19,0-.25-.18s0-.25.08-.3a5.64,5.64,0,0,0,1.83-.81,1.53,1.53,0,0,0,.8-1.21Zm-1.76,5V97H172v-.91h.57v2.1c0,.57-.14.86-.41.86h-4.37a.44.44,0,0,1-.49-.5V96.06Zm.15,2.46h3.84c.08,0,.13-.09.13-.27v-.78h-4.12v.89C167.87,98.47,167.92,98.52,168,98.52Z"/><path class="cls-4" d="M183.61,97c.07,0,.11.05.11.16s-.07.36-.21.36h-7.15V97Zm-6.44-2.5h1.15V92.28h.57v2.18h2.3V92.28h.57v2.18h1.14c.07,0,.1.06.1.17s-.07.33-.21.33h-5.62Zm.19-3h5.35c.07,0,.1,0,.1.16s-.07.34-.21.34h-5.24Z"/><path class="cls-4" d="M187.93,95.78v1.45h3.29c.07,0,.11.06.11.17s-.07.35-.21.35H184v-.52h3.39V95.78Zm-2.87-2.61h4.51c.06,0,.08,0,.08-.16V91.9h-4.59v-.49H190c.16,0,.24.08.24.25v1.21c0,.52-.12.78-.37.78h-4.23v1.2c0,.08,0,.12.11.12h4.48c.07,0,.11,0,.11.16s-.07.33-.21.33h-4.58c-.32,0-.48-.16-.48-.5Z"/><path class="cls-4" d="M193.3,91.41h.57v1.3a4.18,4.18,0,0,0,.47,2.08,4.76,4.76,0,0,0,1.31,1.47c.08.07.07.17,0,.3s-.19.17-.27.1a5.12,5.12,0,0,1-1.49-1.59,3.2,3.2,0,0,1-.26-.56,6.65,6.65,0,0,1-.27.61,4.8,4.8,0,0,1-1.48,1.63c-.1.07-.19,0-.28-.1s-.11-.24,0-.31a4.84,4.84,0,0,0,1.28-1.51,4.43,4.43,0,0,0,.47-2.12Zm1.78,2.1h1.24V91.09h.58v7.22c0,.41-.11.62-.34.62h-.08a.14.14,0,0,1-.16-.16V94h-1.24Zm3.45,5c0,.41-.11.62-.34.62h-.09c-.1,0-.15,0-.15-.16V91.09h.58Z"/><path class="cls-4" d="M206.44,97c.07,0,.11.05.11.16s-.07.36-.21.36h-7.16V97Zm-3.88-5.64h.61v.48a2.17,2.17,0,0,0,.79,1.62,5.23,5.23,0,0,0,1.85,1.1c.1,0,.12.14.06.29s-.14.21-.25.17a5.94,5.94,0,0,1-2.16-1.27,2.93,2.93,0,0,1-.59-.77,3.27,3.27,0,0,1-.61.77A5.9,5.9,0,0,1,200.11,95c-.11,0-.19,0-.25-.17s0-.25.08-.3a5.15,5.15,0,0,0,1.83-1.09,2.17,2.17,0,0,0,.79-1.62Z"/><path class="cls-4" d="M211.75,91.32a1.45,1.45,0,0,1,.79.22,1.88,1.88,0,0,1,.61.58,2.63,2.63,0,0,1,.38.88,4.68,4.68,0,0,1,.12,1.07,4.79,4.79,0,0,1-.12,1.09,2.72,2.72,0,0,1-.38.88,1.91,1.91,0,0,1-.61.59,1.45,1.45,0,0,1-.79.22,1.43,1.43,0,0,1-.79-.22,2.14,2.14,0,0,1-.61-.59,2.73,2.73,0,0,1-.39-.88,4.28,4.28,0,0,1-.13-1.09A4.18,4.18,0,0,1,210,93a2.64,2.64,0,0,1,.39-.88,2.1,2.1,0,0,1,.61-.58A1.43,1.43,0,0,1,211.75,91.32Zm0,5a1,1,0,0,0,.52-.17,1.6,1.6,0,0,0,.43-.49,2.61,2.61,0,0,0,.29-.75,3.88,3.88,0,0,0,0-1.75,2.59,2.59,0,0,0-.29-.73,1.63,1.63,0,0,0-.43-.47,1,1,0,0,0-.52-.17,1,1,0,0,0-.54.17,1.5,1.5,0,0,0-.43.47,2.32,2.32,0,0,0-.27.73,3.88,3.88,0,0,0,0,1.75,2.35,2.35,0,0,0,.27.75,1.48,1.48,0,0,0,.43.49A1,1,0,0,0,211.74,96.35ZM216,98.49c0,.41-.12.62-.34.62h-.08a.14.14,0,0,1-.16-.16V91.09H216Z"/><path class="cls-4" d="M217.09,92.14h1.66v-1h.57v1h1.53q.12,0,.12.15c0,.23-.07.35-.22.35h-3.66ZM219,93.28a1.6,1.6,0,0,1,.7.15,1.78,1.78,0,0,1,.54.39,1.74,1.74,0,0,1,.32.62,2.65,2.65,0,0,1,.11.74,2.56,2.56,0,0,1-.11.75,1.69,1.69,0,0,1-.32.61,1.55,1.55,0,0,1-.54.41,1.6,1.6,0,0,1-.7.15,1.52,1.52,0,0,1-.69-.15,1.43,1.43,0,0,1-.53-.41,1.72,1.72,0,0,1-.34-.61,2.27,2.27,0,0,1-.12-.75,2.34,2.34,0,0,1,.12-.74,1.77,1.77,0,0,1,.34-.62,1.62,1.62,0,0,1,.53-.39A1.52,1.52,0,0,1,219,93.28Zm0,3.32a.87.87,0,0,0,.78-.42,1.54,1.54,0,0,0,.24-.46,1.9,1.9,0,0,0,0-1.09,1.54,1.54,0,0,0-.24-.46,1.05,1.05,0,0,0-.34-.29,1,1,0,0,0-.44-.1,1,1,0,0,0-.45.1,1.17,1.17,0,0,0-.34.29,1.31,1.31,0,0,0-.22.46,1.7,1.7,0,0,0-.08.55,1.68,1.68,0,0,0,.08.54,1.31,1.31,0,0,0,.22.46,1,1,0,0,0,.34.32A1,1,0,0,0,219,96.6Zm4.84,1.89c0,.41-.11.62-.32.62h-.08a.14.14,0,0,1-.16-.16V94.23h-1.16v4.08c0,.41-.11.62-.32.62h-.08a.14.14,0,0,1-.16-.16V91.09h.56v2.62h1.16V91.09h.56Z"/><path class="cls-4" d="M134.4,147.38a1.5,1.5,0,0,1,.79.22,2.1,2.1,0,0,1,.61.58,2.89,2.89,0,0,1,.37.87,4.59,4.59,0,0,1,0,2.17,3.07,3.07,0,0,1-.37.88,2.14,2.14,0,0,1-.61.59,1.6,1.6,0,0,1-.79.22,1.52,1.52,0,0,1-.8-.22,2.14,2.14,0,0,1-.61-.59,2.83,2.83,0,0,1-.39-.88,4.79,4.79,0,0,1-.13-1.09,4.84,4.84,0,0,1,.13-1.08,2.68,2.68,0,0,1,.39-.87,2.1,2.1,0,0,1,.61-.58A1.44,1.44,0,0,1,134.4,147.38Zm0,5a.88.88,0,0,0,.51-.18,1.35,1.35,0,0,0,.43-.48,2.55,2.55,0,0,0,.29-.75,3.84,3.84,0,0,0,.11-.87,3.66,3.66,0,0,0-.11-.88,2.32,2.32,0,0,0-.29-.73,1.5,1.5,0,0,0-.43-.47.94.94,0,0,0-.51-.17,1,1,0,0,0-.55.17,1.61,1.61,0,0,0-.42.47,2.59,2.59,0,0,0-.28.73,4.24,4.24,0,0,0-.09.88,4.43,4.43,0,0,0,.09.87,2.86,2.86,0,0,0,.28.75,1.43,1.43,0,0,0,.42.48A.93.93,0,0,0,134.39,152.41Zm4.11,2.14c0,.41-.12.62-.34.62h-.08a.14.14,0,0,1-.16-.16v-7.86h.58v2.61h1.23c.07,0,.11.06.11.17s-.08.35-.21.35H138.5Z"/><path class="cls-4" d="M142,147.38a1.51,1.51,0,0,1,.8.22,2.1,2.1,0,0,1,.61.58,3.17,3.17,0,0,1,.37.87,4.84,4.84,0,0,1,.13,1.08,4.79,4.79,0,0,1-.13,1.09,3.38,3.38,0,0,1-.37.88,2.14,2.14,0,0,1-.61.59,1.6,1.6,0,0,1-.8.22,1.51,1.51,0,0,1-.79-.22,2.14,2.14,0,0,1-.61-.59,2.83,2.83,0,0,1-.39-.88,4.79,4.79,0,0,1-.13-1.09,4.84,4.84,0,0,1,.13-1.08,2.68,2.68,0,0,1,.39-.87,2.1,2.1,0,0,1,.61-.58A1.43,1.43,0,0,1,142,147.38Zm0,5a.89.89,0,0,0,.52-.18,1.35,1.35,0,0,0,.43-.48,2.86,2.86,0,0,0,.29-.75,3.81,3.81,0,0,0,.1-.87,3.65,3.65,0,0,0-.1-.88,2.59,2.59,0,0,0-.29-.73,1.5,1.5,0,0,0-.43-.47,1,1,0,0,0-.52-.17,1,1,0,0,0-.54.17,1.48,1.48,0,0,0-.42.47,2.32,2.32,0,0,0-.28.73,4.24,4.24,0,0,0-.09.88,4.43,4.43,0,0,0,.09.87,2.55,2.55,0,0,0,.28.75,1.33,1.33,0,0,0,.42.48A.92.92,0,0,0,142,152.41Zm4.11,2.14c0,.41-.11.62-.33.62h-.09c-.1,0-.15,0-.15-.16v-7.86h.57v2.61h1.23c.08,0,.11.06.11.17s-.07.35-.21.35H146.1Z"/><path class="cls-4" d="M147.85,147.56h3.43q.12,0,.12.15c0,.24-.07.35-.21.35h-2.76V152a.13.13,0,0,0,.15.15h3.57c.07,0,.1.06.1.17s-.07.34-.2.34h-3.71c-.33,0-.49-.17-.49-.51Zm6,7c0,.41-.12.62-.34.62h-.08a.14.14,0,0,1-.16-.16v-7.86h.58Z"/><path class="cls-4" d="M157.25,147.38a1.47,1.47,0,0,1,.79.22,2,2,0,0,1,.61.58,2.89,2.89,0,0,1,.37.87,4.59,4.59,0,0,1,0,2.17,3.07,3.07,0,0,1-.37.88,2,2,0,0,1-.61.59,1.57,1.57,0,0,1-.79.22,1.52,1.52,0,0,1-.8-.22,2.28,2.28,0,0,1-.61-.59,2.82,2.82,0,0,1-.38-.88,4.59,4.59,0,0,1,0-2.17,2.67,2.67,0,0,1,.38-.87,2.24,2.24,0,0,1,.61-.58A1.44,1.44,0,0,1,157.25,147.38Zm0,5a.84.84,0,0,0,.51-.18,1.47,1.47,0,0,0,.44-.48,2.86,2.86,0,0,0,.28-.75,3.84,3.84,0,0,0,.11-.87,3.66,3.66,0,0,0-.11-.88,2.59,2.59,0,0,0-.28-.73,1.66,1.66,0,0,0-.44-.47.89.89,0,0,0-.51-.17.94.94,0,0,0-.54.17,1.5,1.5,0,0,0-.43.47,2.32,2.32,0,0,0-.27.73,3.65,3.65,0,0,0-.1.88,3.81,3.81,0,0,0,.1.87,2.54,2.54,0,0,0,.27.75,1.35,1.35,0,0,0,.43.48A.88.88,0,0,0,157.24,152.41Zm2.3-2.66H161v-2.6h.58v7.4c0,.41-.11.62-.34.62h-.08A.14.14,0,0,1,161,155v-4.76h-1.42Z"/><path class="cls-4" d="M166.08,147.47v1.21h2.68v-1.21h.57v2.66c0,.57-.14.86-.41.86H166q-.48,0-.48-.51v-3Zm.15,3h2.4c.08,0,.13-.08.13-.26v-1h-2.68v1.15A.13.13,0,0,0,166.23,150.48Zm.32,2.71h4.23c.05,0,.08-.05.08-.15v-.71h-4.31v-.49h4.65c.15,0,.23.08.23.25v.79c0,.53-.12.79-.37.79h-3.94v.8c0,.08,0,.12.11.12h4.19c.07,0,.11,0,.11.15s-.07.34-.21.34H167c-.32,0-.48-.17-.48-.5Zm4.88-2.6c0,.41-.11.61-.33.61H171a.13.13,0,0,1-.15-.15v-3.9h.57v1.64h1.23c.07,0,.11.05.11.16s-.07.34-.21.34h-1.13Z"/><path class="cls-4" d="M172.85,147.74h1.85v-.82h.57v.82H177c.08,0,.11,0,.11.16s-.07.33-.21.33h-1a2.38,2.38,0,0,1,.43.34,1.58,1.58,0,0,1,.34.61,2.3,2.3,0,0,1,.12.74,2.27,2.27,0,0,1-.12.75,1.58,1.58,0,0,1-.34.61,1.69,1.69,0,0,1-1.3.56,1.73,1.73,0,0,1-.73-.15,1.8,1.8,0,0,1-.56-.41,1.62,1.62,0,0,1-.36-.61,2,2,0,0,1-.13-.75,2.06,2.06,0,0,1,.13-.74,1.6,1.6,0,0,1,.35-.61,1.91,1.91,0,0,1,.44-.34h-1.26Zm2.11,3.6a1.12,1.12,0,0,0,.47-.11,1.19,1.19,0,0,0,.38-.33,1.8,1.8,0,0,0,.25-.48,1.93,1.93,0,0,0,.09-.57,2,2,0,0,0-.09-.59,1.9,1.9,0,0,0-.25-.47,1.26,1.26,0,0,0-.38-.31,1.12,1.12,0,0,0-.47-.11,1.14,1.14,0,0,0-.49.11,1.26,1.26,0,0,0-.38.31,1.6,1.6,0,0,0-.24.47,2.33,2.33,0,0,0-.08.59,2.3,2.3,0,0,0,.08.57,1.54,1.54,0,0,0,.24.48,1.19,1.19,0,0,0,.38.33A1.14,1.14,0,0,0,175,151.34Zm-.66,3.24v-2.1h.57v1.93c0,.11,0,.17.14.17h4.23q.12,0,.12.15c0,.23-.07.35-.21.35h-4.37C174.46,155.08,174.3,154.91,174.3,154.58Zm2.77-4h1.63v-1.32h-1.63v-.5h1.63v-1.62h.57v5c0,.42-.11.62-.34.62h-.09c-.1,0-.14-.05-.14-.15v-1.5h-1.63Z"/><path class="cls-4" d="M187,150c0,.57-.14.85-.41.85h-2.87a.44.44,0,0,1-.5-.5v-2.84h3.54a.21.21,0,0,1,.24.24Zm-.71.35c.09,0,.14-.09.14-.26V148h-2.63v2.19a.13.13,0,0,0,.15.15Zm-2,2h2.23v-.91h.57v.91h2q.12,0,.12.15c0,.23-.07.35-.21.35h-2a1.41,1.41,0,0,0,.77,1.17,6.06,6.06,0,0,0,1.57.7c.11.05.14.15.08.3s-.14.21-.25.17a6.75,6.75,0,0,1-1.9-.89,2.31,2.31,0,0,1-.57-.55,2.31,2.31,0,0,1-.57.55,6.75,6.75,0,0,1-1.9.89c-.11,0-.19,0-.25-.17s0-.25.08-.3a5.91,5.91,0,0,0,1.57-.7,1.42,1.42,0,0,0,.78-1.17h-2.22Zm5-1.44c0,.41-.11.62-.34.62h-.08c-.1,0-.15,0-.15-.16v-4.17h.57Z"/><path class="cls-4" d="M198.38,152.85c.08,0,.12.05.12.16s-.07.34-.21.34H193v-.5Zm-2.87-5.56a2.12,2.12,0,0,1,.83.16,2.09,2.09,0,0,1,.64.42,1.89,1.89,0,0,1,.4.62,2.4,2.4,0,0,1,0,1.56,1.84,1.84,0,0,1-.4.63,2.09,2.09,0,0,1-.64.42,2.12,2.12,0,0,1-.83.17,2,2,0,0,1-.83-.17,2.22,2.22,0,0,1-.64-.42,1.6,1.6,0,0,1-.41-.63,2.24,2.24,0,0,1,0-1.56,1.64,1.64,0,0,1,.41-.62,2.22,2.22,0,0,1,.64-.42A2,2,0,0,1,195.51,147.29Zm0,3.48a1.3,1.3,0,0,0,.55-.12,1.23,1.23,0,0,0,.46-.32,1.52,1.52,0,0,0,.31-.49,1.54,1.54,0,0,0,.12-.58,1.59,1.59,0,0,0-.43-1,1.49,1.49,0,0,0-.46-.31,1.46,1.46,0,0,0-.55-.11,1.58,1.58,0,0,0-.58.11,1.49,1.49,0,0,0-.46.31,1.29,1.29,0,0,0-.29.48,1.63,1.63,0,0,0-.1.57,1.73,1.73,0,0,0,.1.58,1.33,1.33,0,0,0,.29.49,1.23,1.23,0,0,0,.46.32A1.4,1.4,0,0,0,195.5,150.77Zm3.95,3.78c0,.41-.11.62-.33.62H199c-.1,0-.15,0-.15-.16v-7.86h.57Z"/><path class="cls-4" d="M202.41,151.36a4.91,4.91,0,0,1-1.65,1.48c-.1.06-.19,0-.27-.14s-.07-.24,0-.31a4.36,4.36,0,0,0,1.4-1.32,3.63,3.63,0,0,0,.6-2.12v-1.48h.6V149a3.44,3.44,0,0,0,.6,2.08,4.58,4.58,0,0,0,1.4,1.28c.1.06.1.16,0,.3s-.17.2-.26.13a4.81,4.81,0,0,1-1.66-1.43,2.9,2.9,0,0,1-.4-.71A4.28,4.28,0,0,1,202.41,151.36Zm4.49,3.19c0,.41-.11.62-.34.62h-.09c-.1,0-.15,0-.15-.16v-7.86h.58v2.61h1.22c.08,0,.12.06.12.17s-.08.35-.22.35H206.9Z"/><path class="cls-4" d="M212.32,148a2.51,2.51,0,0,1-1,2,6.24,6.24,0,0,1-2.57,1.17c-.11,0-.19,0-.22-.21s0-.25.1-.29a5.09,5.09,0,0,0,2.19-.95,2,2,0,0,0,.89-1.57V148h-3v-.5h3.3a.22.22,0,0,1,.25.25Zm-2.59,5.15h4.32s.08-.06.08-.16v-.75h-4.4v-.49h4.74c.16,0,.24.08.24.25v.85c0,.52-.13.78-.38.78h-4v.84c0,.08,0,.12.11.12h4.28c.07,0,.11,0,.11.15s-.08.34-.22.34h-4.38c-.32,0-.48-.17-.48-.5Zm2.78-3.53h1.62v-.9H212.7v-.5h1.43v-1.07h.58v3.44c0,.41-.12.61-.34.61h-.08c-.11,0-.16,0-.16-.15v-.93h-1.62Z"/><path class="cls-4" d="M216.18,147.47h3.9q.12,0,.12.15c0,.23-.07.35-.21.35h-1.54v.21a2.13,2.13,0,0,0,.58,1.48,5.77,5.77,0,0,0,1.38,1.1c.1.06.1.16,0,.3s-.17.2-.27.14a6,6,0,0,1-1.63-1.25,2.78,2.78,0,0,1-.38-.54,2.89,2.89,0,0,1-.38.58,5.56,5.56,0,0,1-1.62,1.3c-.11.06-.2,0-.28-.14s-.06-.24,0-.31a5.17,5.17,0,0,0,1.37-1.13,2.3,2.3,0,0,0,.58-1.53V148h-1.68Zm3.6,4.42a3.87,3.87,0,0,1,1.05.13,2.89,2.89,0,0,1,.79.36,1.45,1.45,0,0,1,.49.53,1.4,1.4,0,0,1,.17.65,1.42,1.42,0,0,1-.17.67,1.48,1.48,0,0,1-.49.54,2.89,2.89,0,0,1-.79.35,3.86,3.86,0,0,1-1.05.14,3.74,3.74,0,0,1-1-.14,3.11,3.11,0,0,1-.8-.35,1.51,1.51,0,0,1-.5-.54,1.32,1.32,0,0,1-.18-.67,1.3,1.3,0,0,1,.18-.65,1.48,1.48,0,0,1,.5-.53,3.12,3.12,0,0,1,.8-.36A3.75,3.75,0,0,1,219.78,151.89Zm0,2.87a3.1,3.1,0,0,0,.76-.09,2.07,2.07,0,0,0,.62-.26,1.4,1.4,0,0,0,.41-.39.81.81,0,0,0,.15-.46.84.84,0,0,0-.15-.46,1.34,1.34,0,0,0-.41-.37,2.06,2.06,0,0,0-.62-.25,3.1,3.1,0,0,0-.76-.09,3.21,3.21,0,0,0-.78.09,2,2,0,0,0-.61.25,1.3,1.3,0,0,0-.4.37.91.91,0,0,0-.14.46.88.88,0,0,0,.14.46,1.36,1.36,0,0,0,.4.39,2,2,0,0,0,.61.26A3.21,3.21,0,0,0,219.76,154.76Zm.46-5.77h1.53v-1.84h.57v4.07c0,.42-.11.62-.33.62h-.09a.13.13,0,0,1-.15-.15v-2.2h-1.53Z"/><path class="cls-4" d="M139,158.4h3.58c.07,0,.11,0,.11.16s-.07.34-.21.34h-2.9v2.56a.13.13,0,0,0,.15.15h3.71c.07,0,.11.06.11.16s-.07.34-.21.34h-3.85a.44.44,0,0,1-.49-.5Zm1,7.11v-2.19h.57v2a.14.14,0,0,0,.16.16h4.13c.08,0,.11.05.11.16s-.07.34-.21.34h-4.27A.44.44,0,0,1,140,165.51Zm4.88-2.53c0,.41-.11.62-.34.62h-.08c-.1,0-.15,0-.15-.16v-5.36h.57v2h1.22c.08,0,.12,0,.12.16s-.07.34-.21.34h-1.13Z"/><path class="cls-4" d="M149.24,162h1.45V160.2h-1.26a3.68,3.68,0,0,1-.8,1.78,6,6,0,0,1-2.12,1.65c-.1.06-.19,0-.26-.13s-.08-.25,0-.31a5.68,5.68,0,0,0,1.88-1.5,3.62,3.62,0,0,0,.79-2.39V159h-2.48v-.51h2.83c.16,0,.24.09.24.26v.36a5.68,5.68,0,0,1,0,.59h1.19v-1.62h.56v7.22c0,.41-.11.62-.32.62h-.08c-.11,0-.16,0-.16-.15v-3.28h-1.45Zm3.64,3.49c0,.42-.11.62-.32.62h-.08c-.11,0-.16,0-.16-.15v-7.87h.56Z"/><path class="cls-4" d="M159.17,163.78c.08,0,.12.05.12.16s-.07.34-.21.34h-5.24v-.5Zm-2.87-5.56a2.05,2.05,0,0,1,.83.17,2,2,0,0,1,.65.41,1.68,1.68,0,0,1,.39.63,2.19,2.19,0,0,1,.14.77,2.3,2.3,0,0,1-.14.79,1.72,1.72,0,0,1-.39.62,2,2,0,0,1-.65.43,2,2,0,0,1-.83.16,2,2,0,0,1-.82-.16,2,2,0,0,1-.64-.43,1.64,1.64,0,0,1-.41-.62,2.3,2.3,0,0,1-.14-.79,2.19,2.19,0,0,1,.14-.77,1.6,1.6,0,0,1,.41-.63,1.9,1.9,0,0,1,.64-.41A2,2,0,0,1,156.3,158.22Zm0,3.48a1.5,1.5,0,0,0,.55-.11,1.39,1.39,0,0,0,.46-.33,1.58,1.58,0,0,0,.31-.49,1.44,1.44,0,0,0,0-1.15,2,2,0,0,0-.31-.48,1.31,1.31,0,0,0-.46-.3,1.33,1.33,0,0,0-.55-.12,1.4,1.4,0,0,0-.58.12,1.23,1.23,0,0,0-.46.3,1.5,1.5,0,0,0-.3.48,1.88,1.88,0,0,0,0,1.15,1.27,1.27,0,0,0,.3.49,1.29,1.29,0,0,0,.46.33A1.58,1.58,0,0,0,156.3,161.7Zm3.95,3.78c0,.42-.11.62-.34.62h-.08a.13.13,0,0,1-.15-.15v-7.87h.57Z"/><path class="cls-4" d="M164.71,164.31h4.6c.06,0,.09-.05.09-.16v-.52h-4.69v-.49h2.34v-.85h-3.39v-.48h7.25c.07,0,.11.06.11.17s-.07.31-.21.31h-3.19v.85h2.11c.16,0,.24.08.24.25V164c0,.52-.12.78-.37.78h-4.32v.61c0,.08,0,.12.11.12H170c.07,0,.1,0,.1.15s-.07.34-.21.34h-4.66c-.32,0-.48-.17-.48-.5Zm-.05-6.13h5.24q.12,0,.12.15c0,.23-.07.34-.21.34h-4.58v.67h4.48c.08,0,.12,0,.12.16s-.07.33-.21.33h-4.39v.57a.14.14,0,0,0,.16.15H170c.07,0,.1.06.1.17s-.07.33-.21.33h-4.77c-.31,0-.47-.17-.47-.51Z"/><path class="cls-4" d="M174.07,158.68H176v-.82h.58v.82h1.82c.07,0,.11,0,.11.15s-.07.34-.21.34h-1a2,2,0,0,1,.33.25,1.41,1.41,0,0,1,.37.56,2.09,2.09,0,0,1,.12.69,2,2,0,0,1-.12.7,1.58,1.58,0,0,1-.36.56,1.83,1.83,0,0,1-.6.39,2.19,2.19,0,0,1-.77.14,2.11,2.11,0,0,1-.77-.14,1.83,1.83,0,0,1-.6-.39,1.51,1.51,0,0,1-.38-.56,1.82,1.82,0,0,1-.13-.7,1.87,1.87,0,0,1,.13-.69,1.43,1.43,0,0,1,.38-.56,1.68,1.68,0,0,1,.33-.25h-1.19Zm2.22,3.28a1.44,1.44,0,0,0,.5-.1,1.22,1.22,0,0,0,.41-.29,1.6,1.6,0,0,0,.27-.46,1.34,1.34,0,0,0,.11-.51,1.4,1.4,0,0,0-.11-.53,1.62,1.62,0,0,0-.27-.44,1.33,1.33,0,0,0-.41-.27,1.24,1.24,0,0,0-.5-.1,1.29,1.29,0,0,0-.53.1,1.33,1.33,0,0,0-.41.27,1.25,1.25,0,0,0-.27.44,1.6,1.6,0,0,0-.09.53,1.52,1.52,0,0,0,.09.51,1.24,1.24,0,0,0,.27.46,1.22,1.22,0,0,0,.41.29A1.47,1.47,0,0,0,176.29,162Zm3.45,1.87h-4.22v-.51h4.55c.16,0,.23.09.23.26v1.9c0,.42-.11.62-.33.62h-.08c-.1,0-.15,0-.15-.16Zm.56-1.67c0,.41-.11.62-.33.62h-.09c-.1,0-.15-.05-.15-.16v-4.54h.57v1.83h1.23c.07,0,.11.05.11.16s-.07.34-.21.34H180.3Z"/><path class="cls-4" d="M188.63,161.63c.08,0,.11.05.11.16s-.07.33-.21.33h-7.15v-.49Zm-3.87-3.55h.6v.12a1.54,1.54,0,0,0,.79,1.21,5.67,5.67,0,0,0,1.85.82c.1.05.12.14.07.3s-.15.21-.26.17a6.73,6.73,0,0,1-2.16-1,2.56,2.56,0,0,1-.59-.6,2.62,2.62,0,0,1-.6.6,6.58,6.58,0,0,1-2.15,1c-.11,0-.2,0-.26-.17s0-.26.09-.3a5.65,5.65,0,0,0,1.83-.82,1.52,1.52,0,0,0,.79-1.21Zm-1.76,5V164h4.12v-.91h.57v2.11c0,.57-.13.85-.41.85h-4.37c-.32,0-.48-.17-.48-.5v-2.46Zm.16,2.46H187c.09,0,.13-.09.13-.26v-.79H183v.9C183,165.46,183.05,165.51,183.16,165.51Z"/><path class="cls-4" d="M195.89,160.89c0,.57-.14.86-.42.86H192.6a.44.44,0,0,1-.5-.5V158.4h3.54a.23.23,0,0,1,.25.25Zm-.72.36c.1,0,.14-.09.14-.27V158.9h-2.63v2.19a.14.14,0,0,0,.15.16Zm-2,2h2.23v-.91H196v.91h2.05c.08,0,.12.05.12.16s-.07.34-.21.34H196a1.39,1.39,0,0,0,.77,1.17,5.74,5.74,0,0,0,1.57.7c.11.05.14.15.08.3s-.14.22-.25.18a6.45,6.45,0,0,1-1.89-.9,2.34,2.34,0,0,1-.58-.54,2.48,2.48,0,0,1-.57.54,6.28,6.28,0,0,1-1.9.9q-.17.06-.24-.18c-.06-.15,0-.25.07-.3a5.66,5.66,0,0,0,1.58-.7,1.39,1.39,0,0,0,.77-1.17h-2.22Zm5-1.44c0,.42-.11.62-.34.62h-.08a.13.13,0,0,1-.15-.15v-4.18h.57Z"/><path class="cls-4" d="M203.83,158.31h.59V159a2.13,2.13,0,0,0,.62,1.46,5,5,0,0,0,1.42,1.07c.09.06.1.16,0,.3s-.17.2-.27.14a5.65,5.65,0,0,1-1.67-1.23,2.84,2.84,0,0,1-.42-.58,3.08,3.08,0,0,1-.42.62A5,5,0,0,1,202,162c-.1.06-.19,0-.27-.14s-.07-.24,0-.31a4.53,4.53,0,0,0,1.41-1.11,2.21,2.21,0,0,0,.62-1.5Zm-.49,5.77h4.32c.05,0,.08-.05.08-.15v-.75h-4.4v-.49h4.74c.16,0,.23.08.23.24v.85c0,.52-.12.78-.37.78h-4v.84c0,.08,0,.12.11.12h4.29c.07,0,.11,0,.11.15s-.08.34-.21.34h-4.39c-.32,0-.48-.17-.48-.5Zm5-2.56c0,.41-.11.62-.33.62h-.08a.14.14,0,0,1-.16-.16v-3.9h.57Z"/><path class="cls-4" d="M216.47,161.63c.07,0,.11.05.11.16s-.07.33-.21.33h-7.15v-.49Zm-3.87-3.55h.6v.12a1.52,1.52,0,0,0,.79,1.21,5.67,5.67,0,0,0,1.85.82c.1.05.12.14.06.3s-.14.21-.25.17a6.63,6.63,0,0,1-2.16-1,2.38,2.38,0,0,1-.59-.6,2.84,2.84,0,0,1-.6.6,6.58,6.58,0,0,1-2.15,1c-.11,0-.2,0-.26-.17s0-.26.08-.3a5.47,5.47,0,0,0,1.83-.82,1.53,1.53,0,0,0,.8-1.21Zm-1.76,5V164H215v-.91h.57v2.11c0,.57-.14.85-.41.85h-4.37a.44.44,0,0,1-.49-.5v-2.46Zm.15,2.46h3.84c.08,0,.13-.09.13-.26v-.79h-4.12v.9A.13.13,0,0,0,211,165.51Z"/><path class="cls-4" d="M124.08,213.55h.59v.67a2.13,2.13,0,0,0,.62,1.46,5.06,5.06,0,0,0,1.41,1.07q.15.09,0,.3c-.08.15-.17.2-.27.14a5.36,5.36,0,0,1-1.67-1.23,2.84,2.84,0,0,1-.42-.58,3.08,3.08,0,0,1-.42.62,5,5,0,0,1-1.66,1.28c-.1.06-.19,0-.27-.14s-.07-.24,0-.31a4.39,4.39,0,0,0,1.41-1.11,2.26,2.26,0,0,0,.62-1.5Zm-.49,5.77h4.32s.08,0,.08-.15v-.75h-4.4v-.49h4.74a.21.21,0,0,1,.23.24V219c0,.52-.12.78-.37.78h-4v.84c0,.08,0,.12.11.12h4.28c.08,0,.11.05.11.16s-.07.33-.21.33h-4.38c-.32,0-.48-.16-.48-.5Zm5-2.56c0,.41-.11.62-.33.62h-.09c-.1,0-.15,0-.15-.16v-3.89h.57Z"/><path class="cls-4" d="M129.58,213.92h1.74v-.82h.58v.82h1.53q.12,0,.12.15c0,.23-.07.34-.21.34h-.85a2.13,2.13,0,0,1,.32.26,1.57,1.57,0,0,1,.33.58,2.45,2.45,0,0,1,.11.71,2.35,2.35,0,0,1-.11.71,1.71,1.71,0,0,1-.32.58,1.46,1.46,0,0,1-.53.39,1.63,1.63,0,0,1-.7.15,1.6,1.6,0,0,1-.7-.15,1.38,1.38,0,0,1-.53-.39,1.59,1.59,0,0,1-.34-.58,2.08,2.08,0,0,1-.12-.71,2.16,2.16,0,0,1,.12-.71,1.59,1.59,0,0,1,.34-.58,2,2,0,0,1,.31-.26h-1.09Zm2,3.37a1,1,0,0,0,.43-.11,1,1,0,0,0,.34-.3,1.54,1.54,0,0,0,.24-.46,2,2,0,0,0,.08-.53,2,2,0,0,0-.08-.55,1.37,1.37,0,0,0-.24-.45,1,1,0,0,0-.34-.28,1,1,0,0,0-.43-.11,1,1,0,0,0-.46.11,1,1,0,0,0-.33.28,1.2,1.2,0,0,0-.23.45,1.86,1.86,0,0,0,0,1.08,1.33,1.33,0,0,0,.23.46.94.94,0,0,0,.33.3A1,1,0,0,0,131.58,217.29Zm2.19,1a4.64,4.64,0,0,1,1.08.12,3.05,3.05,0,0,1,.83.34,1.55,1.55,0,0,1,.51.51,1.13,1.13,0,0,1,.17.61,1.15,1.15,0,0,1-.17.63,1.77,1.77,0,0,1-.51.51,3.05,3.05,0,0,1-.83.34,4.64,4.64,0,0,1-1.08.12,4.46,4.46,0,0,1-1.08-.12,3.27,3.27,0,0,1-.84-.34,1.85,1.85,0,0,1-.53-.51,1.16,1.16,0,0,1-.18-.63,1.14,1.14,0,0,1,.18-.61,1.62,1.62,0,0,1,.53-.51,3.27,3.27,0,0,1,.84-.34A4.46,4.46,0,0,1,133.77,218.25Zm0,2.68a3.5,3.5,0,0,0,.8-.08,2.09,2.09,0,0,0,.65-.24,1.53,1.53,0,0,0,.43-.36.74.74,0,0,0,.16-.42.71.71,0,0,0-.16-.42,1.35,1.35,0,0,0-.43-.35,2.37,2.37,0,0,0-.65-.23,3.5,3.5,0,0,0-.8-.08,3.57,3.57,0,0,0-.82.08,2.19,2.19,0,0,0-.64.23,1.13,1.13,0,0,0-.42.35.7.7,0,0,0-.15.42.72.72,0,0,0,.15.42,1.25,1.25,0,0,0,.42.36,1.94,1.94,0,0,0,.64.24A3.57,3.57,0,0,0,133.75,220.93Zm2.66-3.35c0,.41-.11.62-.32.62H136c-.11,0-.16,0-.16-.15v-2.5h-1.12v1.57c0,.42-.1.62-.32.62h-.08a.13.13,0,0,1-.15-.15v-4.26h.55V215h1.12v-1.7h.56Z"/><path class="cls-4" d="M140.38,217.23h1.45v-1.79h-1.26a3.68,3.68,0,0,1-.8,1.78,6,6,0,0,1-2.12,1.65c-.1.07-.19,0-.27-.13s-.07-.25,0-.31a5.78,5.78,0,0,0,1.88-1.5,3.62,3.62,0,0,0,.79-2.39v-.3H137.6v-.5h2.83c.16,0,.23.08.23.25v.36a5.62,5.62,0,0,1,0,.59h1.19v-1.61h.56v7.21c0,.41-.11.62-.32.62H142c-.11,0-.16,0-.16-.15v-3.27h-1.45Zm3.64,3.49c0,.42-.11.62-.32.62h-.08c-.11,0-.16-.05-.16-.15v-7.86H144Z"/><path class="cls-4" d="M145.3,213.74h1.94V213h.58v.73h1.81q.12,0,.12.15c0,.23-.07.34-.21.34h-.88a1.57,1.57,0,0,1,.23.13,1.14,1.14,0,0,1,.37.45,1.27,1.27,0,0,1,0,1.08,1.18,1.18,0,0,1-.37.44,1.69,1.69,0,0,1-.6.3,2.46,2.46,0,0,1-.47.1v.91h2.49c.08,0,.12.06.12.17s-.07.34-.21.34H145v-.51h2.27v-.91a2.77,2.77,0,0,1-.5-.1,1.93,1.93,0,0,1-.59-.3,1.28,1.28,0,0,1-.37-.44,1.19,1.19,0,0,1,0-1.08,1.23,1.23,0,0,1,.37-.45l.22-.13H145.3Zm2.21,2.5a1.7,1.7,0,0,0,.51-.07,1.44,1.44,0,0,0,.41-.21,1,1,0,0,0,.27-.32.74.74,0,0,0,.1-.37.75.75,0,0,0-.1-.38,1.14,1.14,0,0,0-.27-.31,1.63,1.63,0,0,0-.92-.26,1.79,1.79,0,0,0-.53.07,1.35,1.35,0,0,0-.4.19.88.88,0,0,0-.27.31.85.85,0,0,0-.09.38.84.84,0,0,0,.09.37.83.83,0,0,0,.27.32,1.17,1.17,0,0,0,.4.21A1.79,1.79,0,0,0,147.51,216.24Zm3.36,3.28h-4.32V219h4.65c.16,0,.23.09.23.26v1.44c0,.42-.11.62-.33.62H151c-.1,0-.15-.05-.15-.16Zm.52-1.57c0,.41-.11.61-.34.61H151a.13.13,0,0,1-.15-.15v-5.08h.58Z"/><path class="cls-4" d="M155.43,213.64H159c.07,0,.1.06.1.16s-.06.35-.2.35H156v2.55a.13.13,0,0,0,.15.15h3.71c.07,0,.11.06.11.17s-.07.33-.21.33h-3.85c-.33,0-.49-.16-.49-.5Zm1,7.11v-2.19H157v2a.14.14,0,0,0,.16.16h4.13c.07,0,.11.05.11.16s-.07.34-.21.34h-4.27C156.6,221.25,156.44,221.09,156.44,220.75Zm4.88-2.53c0,.41-.11.62-.34.62h-.08c-.1,0-.15-.05-.15-.16v-5.35h.57v2h1.22c.08,0,.12,0,.12.16s-.07.34-.21.34h-1.13Z"/><path class="cls-4" d="M165.71,217.23h1.45v-1.79H165.9a3.68,3.68,0,0,1-.8,1.78,6,6,0,0,1-2.12,1.65c-.1.07-.19,0-.27-.13s-.07-.25,0-.31a5.78,5.78,0,0,0,1.88-1.5,3.62,3.62,0,0,0,.79-2.39v-.3h-2.48v-.5h2.83c.16,0,.23.08.23.25v.36a5.62,5.62,0,0,1,0,.59h1.19v-1.61h.56v7.21c0,.41-.11.62-.32.62h-.08c-.11,0-.16,0-.16-.15v-3.27h-1.45Zm3.64,3.49c0,.42-.11.62-.32.62H169c-.11,0-.16-.05-.16-.15v-7.86h.56Z"/><path class="cls-4" d="M175.64,219c.08,0,.12.06.12.16s-.07.34-.21.34H170.3V219Zm-2.87-5.56a2.05,2.05,0,0,1,.83.17,2,2,0,0,1,.65.42,1.64,1.64,0,0,1,.39.62,2.23,2.23,0,0,1,.14.77,2.3,2.3,0,0,1-.14.79,1.72,1.72,0,0,1-.39.62,2,2,0,0,1-.65.43,2.23,2.23,0,0,1-1.66,0,2,2,0,0,1-.63-.43,1.53,1.53,0,0,1-.41-.62,2.09,2.09,0,0,1-.14-.79,2,2,0,0,1,.14-.77,1.47,1.47,0,0,1,.41-.62,2,2,0,0,1,.63-.42A2.05,2.05,0,0,1,172.77,213.46Zm0,3.48a1.38,1.38,0,0,0,1-.43,1.77,1.77,0,0,0,.31-.5,1.65,1.65,0,0,0,.11-.57,1.56,1.56,0,0,0-.11-.57,1.86,1.86,0,0,0-.31-.49,1.31,1.31,0,0,0-.46-.3,1.39,1.39,0,0,0-1.13,0,1.23,1.23,0,0,0-.46.3,1.44,1.44,0,0,0-.3.49,1.8,1.8,0,0,0-.1.57,1.9,1.9,0,0,0,.1.57,1.36,1.36,0,0,0,.76.82A1.52,1.52,0,0,0,172.76,216.94Zm4,3.78c0,.42-.11.62-.34.62h-.08a.14.14,0,0,1-.16-.15v-7.86h.58Z"/><path class="cls-4" d="M181.17,219.55h4.61c.06,0,.09-.05.09-.16v-.52h-4.7v-.49h2.35v-.85h-3.39v-.48h7.25c.07,0,.11.06.11.17s-.07.31-.21.31h-3.19v.85h2.11c.16,0,.24.08.24.25v.62c0,.52-.12.78-.37.78h-4.32v.61c0,.08,0,.12.11.12h4.57c.07,0,.1.05.1.16s-.07.33-.21.33h-4.66a.44.44,0,0,1-.49-.5Zm0-6.13h5.24q.12,0,.12.15c0,.23-.07.34-.21.34H181.7v.67h4.48c.08,0,.12,0,.12.16s-.07.33-.21.33H181.7v.57a.14.14,0,0,0,.16.15h4.62c.06,0,.1.06.1.17s-.07.33-.21.33H181.6c-.31,0-.47-.17-.47-.5Z"/><path class="cls-4" d="M190.54,213.92h1.94v-.82h.58v.82h1.82c.07,0,.11.05.11.15s-.07.34-.21.34h-1a2,2,0,0,1,.33.25,1.41,1.41,0,0,1,.37.56,2.09,2.09,0,0,1,.12.69,2,2,0,0,1-.12.7,1.5,1.5,0,0,1-.36.56,1.83,1.83,0,0,1-.6.39,2.21,2.21,0,0,1-.78.14,2.1,2.1,0,0,1-.76-.14,1.83,1.83,0,0,1-.6-.39,1.43,1.43,0,0,1-.38-.56,1.82,1.82,0,0,1-.13-.7,1.87,1.87,0,0,1,.13-.69,1.43,1.43,0,0,1,.38-.56,1.68,1.68,0,0,1,.33-.25h-1.19Zm2.22,3.28a1.44,1.44,0,0,0,.5-.1,1.22,1.22,0,0,0,.41-.29,1.6,1.6,0,0,0,.27-.46,1.34,1.34,0,0,0,.11-.51,1.4,1.4,0,0,0-.11-.53,1.62,1.62,0,0,0-.27-.44,1.33,1.33,0,0,0-.41-.27,1.24,1.24,0,0,0-.5-.1,1.25,1.25,0,0,0-.53.1,1.33,1.33,0,0,0-.41.27,1.25,1.25,0,0,0-.27.44,1.6,1.6,0,0,0-.09.53,1.52,1.52,0,0,0,.09.51,1.24,1.24,0,0,0,.27.46,1.22,1.22,0,0,0,.41.29A1.43,1.43,0,0,0,192.76,217.2Zm3.45,1.87H192v-.51h4.55c.16,0,.23.09.23.26v1.9c0,.42-.11.62-.33.62h-.08c-.1,0-.15-.05-.15-.16Zm.56-1.67c0,.41-.11.62-.33.62h-.09c-.1,0-.15-.05-.15-.16v-4.53h.57v1.82H198c.07,0,.11,0,.11.16s-.07.34-.21.34h-1.13Z"/><path class="cls-4" d="M205.1,216.87c.07,0,.11,0,.11.16s-.07.33-.21.33h-7.15v-.49Zm-3.87-3.54h.6v.11a1.54,1.54,0,0,0,.79,1.21,5.9,5.9,0,0,0,1.85.83c.1,0,.12.14.07.29s-.15.21-.26.17a6.52,6.52,0,0,1-2.16-1,2.56,2.56,0,0,1-.59-.6,2.84,2.84,0,0,1-.6.6,6.38,6.38,0,0,1-2.15,1c-.11,0-.2,0-.26-.17s0-.26.09-.3a5.65,5.65,0,0,0,1.83-.82,1.52,1.52,0,0,0,.79-1.21Zm-1.76,5v.91h4.12v-.91h.57v2.11c0,.57-.13.85-.41.85h-4.37c-.32,0-.48-.16-.48-.5v-2.46Zm.16,2.46h3.83c.09,0,.13-.09.13-.26v-.79h-4.12v.9C199.47,220.7,199.52,220.75,199.63,220.75Z"/><path class="cls-4" d="M212.35,216.13c0,.57-.14.86-.41.86h-2.87a.44.44,0,0,1-.5-.5v-2.85h3.54a.22.22,0,0,1,.24.25Zm-.71.36c.09,0,.14-.09.14-.27v-2.07h-2.63v2.18c0,.11,0,.16.15.16Zm-2,2h2.23v-.91h.57v.91h2.05c.08,0,.12.06.12.16s-.07.34-.21.34h-1.95a1.38,1.38,0,0,0,.77,1.17,5.74,5.74,0,0,0,1.57.7c.11,0,.14.15.08.3s-.14.22-.25.18a6.51,6.51,0,0,1-1.9-.9,2.48,2.48,0,0,1-.57-.54,2.48,2.48,0,0,1-.57.54,6.39,6.39,0,0,1-1.9.9c-.11,0-.19,0-.25-.18s0-.25.08-.3a5.61,5.61,0,0,0,1.57-.7,1.39,1.39,0,0,0,.78-1.17h-2.22Zm5-1.44c0,.42-.11.62-.34.62h-.08a.13.13,0,0,1-.15-.15v-4.17h.57Z"/><path class="cls-4" d="M220.3,213.55h.59v.67a2.13,2.13,0,0,0,.62,1.46,5.06,5.06,0,0,0,1.41,1.07q.15.09,0,.3c-.08.15-.17.2-.27.14A5.36,5.36,0,0,1,221,216a2.84,2.84,0,0,1-.42-.58,3.08,3.08,0,0,1-.42.62,5,5,0,0,1-1.66,1.28c-.1.06-.19,0-.27-.14s-.07-.24,0-.31a4.39,4.39,0,0,0,1.41-1.11,2.26,2.26,0,0,0,.62-1.5Zm-.49,5.77h4.32c.05,0,.08,0,.08-.15v-.75h-4.4v-.49h4.74a.21.21,0,0,1,.23.24V219c0,.52-.12.78-.37.78h-4v.84c0,.08,0,.12.11.12h4.28c.08,0,.11.05.11.16s-.07.33-.21.33h-4.38c-.32,0-.48-.16-.48-.5Zm5-2.56c0,.41-.11.62-.33.62h-.09c-.1,0-.15,0-.15-.16v-3.89h.57Z"/><path class="cls-4" d="M232.94,216.87c.07,0,.11,0,.11.16s-.07.33-.21.33h-7.15v-.49Zm-3.87-3.54h.6v.11a1.52,1.52,0,0,0,.79,1.21,5.8,5.8,0,0,0,1.85.83c.1,0,.12.14.06.29s-.14.21-.25.17a6.34,6.34,0,0,1-2.16-1,2.38,2.38,0,0,1-.59-.6,2.68,2.68,0,0,1-.61.6,6.2,6.2,0,0,1-2.15,1c-.1,0-.19,0-.25-.17s0-.26.08-.3a5.65,5.65,0,0,0,1.83-.82,1.53,1.53,0,0,0,.8-1.21Zm-1.76,5v.91h4.12v-.91H232v2.11c0,.57-.14.85-.41.85h-4.37c-.33,0-.49-.16-.49-.5v-2.46Zm.15,2.46h3.84c.08,0,.13-.09.13-.26v-.79h-4.12v.9A.13.13,0,0,0,227.46,220.75Z"/><path class="cls-4" d="M126.28,224.58H130c.08,0,.11,0,.11.15s-.07.34-.21.34h-3.09v1.13h3c.07,0,.11.05.11.16s-.07.32-.21.32h-2.9v1a.14.14,0,0,0,.16.16h3.71c.07,0,.11,0,.11.16s-.07.33-.21.33h-3.86c-.32,0-.48-.17-.48-.5Zm6.08,6.75c0,.57-.14.86-.41.86h-4.08a.44.44,0,0,1-.49-.5v-2.37h4.74c.16,0,.24.08.24.25Zm-.7.36c.09,0,.13-.09.13-.28v-1.59H128v1.7c0,.11,0,.17.15.17Zm.7-3.54c0,.41-.11.62-.34.62h-.08a.14.14,0,0,1-.16-.15v-4.36h.58Z"/><path class="cls-4" d="M134.46,224.58v1.21H137v-1.21h.57v2.66c0,.57-.13.86-.41.86h-2.75c-.31,0-.47-.17-.47-.51v-3Zm.16,3h2.2c.09,0,.13-.08.13-.26v-1h-2.49v1.15C134.46,227.54,134.51,227.59,134.62,227.59Zm.42,2.71h4.31q.09,0,.09-.15v-.71H135V229h4.73c.16,0,.24.08.24.25v.8c0,.52-.12.78-.37.78h-4v.8c0,.08,0,.12.1.12H140c.07,0,.1.05.1.15s-.07.34-.21.34h-4.38c-.32,0-.47-.17-.47-.5Zm2.87-3.75h1.53v-.91h-1.53v-.5h1.53v-.88H140v3.44c0,.41-.11.61-.34.61h-.08a.13.13,0,0,1-.15-.15v-1.11h-1.53Z"/><path class="cls-4" d="M149.06,228.54c.08,0,.12.06.12.17s-.07.33-.21.33h-2.58v2.44c0,.41-.11.62-.33.62H146c-.1,0-.15-.06-.15-.17V229h-2v-.5Zm-2.85-4.19a2.27,2.27,0,0,1,.83.15,2.17,2.17,0,0,1,.64.35,1.52,1.52,0,0,1,.4.54,1.67,1.67,0,0,1,.13.67,1.72,1.72,0,0,1-.13.68,1.52,1.52,0,0,1-.4.54,2.43,2.43,0,0,1-.64.36,2.27,2.27,0,0,1-.83.15,2.19,2.19,0,0,1-.83-.15,2.61,2.61,0,0,1-.64-.36,1.44,1.44,0,0,1-.41-.54,1.72,1.72,0,0,1-.14-.68,1.67,1.67,0,0,1,.14-.67,1.44,1.44,0,0,1,.41-.54,2.3,2.3,0,0,1,.64-.35A2.19,2.19,0,0,1,146.21,224.35Zm0,2.93a1.77,1.77,0,0,0,.56-.09,1.26,1.26,0,0,0,.45-.26,1.23,1.23,0,0,0,.31-.4,1.06,1.06,0,0,0,.12-.47,1,1,0,0,0-.12-.47,1.23,1.23,0,0,0-.31-.4,1.63,1.63,0,0,0-.45-.25,1.77,1.77,0,0,0-.56-.09,1.81,1.81,0,0,0-.58.09,1.56,1.56,0,0,0-.46.25,1.06,1.06,0,0,0-.29.4,1.1,1.1,0,0,0-.1.47,1.17,1.17,0,0,0,.1.47,1.06,1.06,0,0,0,.29.4,1.23,1.23,0,0,0,.46.26A1.81,1.81,0,0,0,146.2,227.28Zm1.45,2.67h1.91v-5.69h.58v7.4c0,.41-.12.62-.34.62h-.09c-.1,0-.15-.05-.15-.16v-1.66h-1.91Z"/><path class="cls-4" d="M158.25,230c.07,0,.1.05.1.16s-.07.36-.21.36H151V230Zm-6.06-3.19h4.42a15.51,15.51,0,0,0,.09-1.62v-.15h-4.61v-.5H157c.16,0,.24.08.24.25v.38a23,23,0,0,1-.4,3.82c0,.1-.1.15-.22.15h-.32c.11-.64.19-1.25.26-1.83h-4.38Z"/><path class="cls-4" d="M161.22,227v1.15h2.11V227h.57v1.15h1.95c.07,0,.11.06.11.17s-.07.32-.21.32H158.6v-.49h2.05V227Zm.76-2.7h.6v.12a1.54,1.54,0,0,0,.79,1.21,5.89,5.89,0,0,0,1.85.82c.1,0,.12.14.07.29s-.15.22-.26.17a6.52,6.52,0,0,1-2.16-1,2.56,2.56,0,0,1-.59-.6,2.84,2.84,0,0,1-.6.6,6.38,6.38,0,0,1-2.15,1c-.11,0-.2,0-.26-.17s0-.25.09-.3a5.86,5.86,0,0,0,1.83-.81,1.52,1.52,0,0,0,.79-1.21Zm-1.76,5v.91h4.12v-.91h.57v2.1c0,.57-.13.86-.41.86h-4.37c-.32,0-.48-.17-.48-.5v-2.46Zm.16,2.46h3.83c.09,0,.13-.09.13-.27v-.78h-4.12v.89A.14.14,0,0,0,160.38,231.69Z"/><path class="cls-4" d="M172,228.17h1.45v-1.8h-1.26a3.68,3.68,0,0,1-.8,1.78,6.14,6.14,0,0,1-2.12,1.66c-.1.06-.19,0-.27-.14s-.07-.24,0-.31a5.78,5.78,0,0,0,1.88-1.5,3.61,3.61,0,0,0,.79-2.39v-.3h-2.48v-.5h2.83c.15,0,.23.08.23.26v.36a5.52,5.52,0,0,1,0,.58h1.19v-1.61H174v7.22c0,.41-.11.62-.32.62h-.08a.14.14,0,0,1-.16-.16v-3.27H172Zm3.64,3.49c0,.41-.11.62-.32.62h-.08a.14.14,0,0,1-.16-.16v-7.86h.56Z"/><path class="cls-4" d="M176.94,224.67h1.94v-.73h.58v.73h1.81q.12,0,.12.15c0,.23-.07.34-.21.34h-.88a1.28,1.28,0,0,1,.23.14,1.11,1.11,0,0,1,.37.44,1.41,1.41,0,0,1,.11.54,1.33,1.33,0,0,1-.11.54,1.21,1.21,0,0,1-.37.45,2.1,2.1,0,0,1-.6.3,2.46,2.46,0,0,1-.47.1v.91H182c.08,0,.12,0,.12.16s-.07.34-.21.34h-5.25v-.5h2.27v-.91a2.77,2.77,0,0,1-.5-.1,2.51,2.51,0,0,1-.59-.3,1.31,1.31,0,0,1-.37-.45,1.08,1.08,0,0,1-.13-.54,1.13,1.13,0,0,1,.13-.54,1.2,1.2,0,0,1,.37-.44,1.64,1.64,0,0,1,.22-.14h-1.07Zm2.21,2.51a1.7,1.7,0,0,0,.51-.08,1.44,1.44,0,0,0,.41-.21,1,1,0,0,0,.27-.31.77.77,0,0,0,.1-.38.71.71,0,0,0-.1-.37,1,1,0,0,0-.27-.31,1.4,1.4,0,0,0-.41-.19,1.7,1.7,0,0,0-.51-.08,1.78,1.78,0,0,0-.53.08,1.14,1.14,0,0,0-.4.19.84.84,0,0,0-.36.68.88.88,0,0,0,.09.38.8.8,0,0,0,.27.31,1.17,1.17,0,0,0,.4.21A1.78,1.78,0,0,0,179.15,227.18Zm3.36,3.28h-4.32V230h4.65c.16,0,.23.09.23.26v1.45c0,.41-.11.62-.33.62h-.08c-.1,0-.15-.06-.15-.17Zm.52-1.58c0,.41-.11.62-.34.62h-.09c-.1,0-.15-.05-.15-.16v-5.08H183Z"/><path class="cls-4" d="M193.69,228.85c.07,0,.11.06.11.17s-.07.35-.21.35h-3.17v2.29c0,.41-.12.62-.35.62H190c-.1,0-.15-.06-.15-.17v-2.74h-3.38v-.52Zm-3.87-4.45h.6v.3a1.91,1.91,0,0,0,.79,1.39,5.53,5.53,0,0,0,1.85,1c.1,0,.12.14.06.29s-.14.22-.25.17a6.16,6.16,0,0,1-2.16-1.23,2.85,2.85,0,0,1-.59-.7,3.45,3.45,0,0,1-.6.7,6.21,6.21,0,0,1-2.15,1.23c-.11.05-.2,0-.26-.17s0-.25.08-.3a5.42,5.42,0,0,0,1.83-1,1.93,1.93,0,0,0,.8-1.39Z"/><path class="cls-4" d="M194.66,226.16h3.22c.06,0,.08-.06.08-.16v-.93h-3.3v-.49h3.64a.21.21,0,0,1,.24.24v1c0,.52-.13.79-.38.79h-2.92v1c0,.08,0,.12.11.12h3.75c.07,0,.11.05.11.15s-.07.34-.21.34h-3.85a.44.44,0,0,1-.49-.5Zm1.68,2.93v1h3.83v-1h.57v2.24c0,.57-.13.86-.41.86h-4.09c-.32,0-.47-.17-.47-.5v-2.6Zm.16,2.6H200c.09,0,.13-.09.13-.27v-.83h-3.83v.94A.14.14,0,0,0,196.5,231.69Zm4.24-3.77c0,.42-.11.62-.34.62h-.08a.13.13,0,0,1-.15-.15v-4.13h.57Z"/><path class="cls-4" d="M208.55,227.07c0,.57-.14.85-.42.85h-2.87c-.33,0-.49-.16-.49-.5v-2.84h3.53c.17,0,.25.08.25.24Zm-.71.35c.09,0,.14-.09.14-.26v-2.08h-2.64v2.19c0,.1,0,.15.16.15Zm-2,2h2.23v-.91h.58v.91h2q.12,0,.12.15c0,.23-.07.35-.21.35h-1.95a1.39,1.39,0,0,0,.76,1.17,6.12,6.12,0,0,0,1.58.7c.11.05.13.15.07.3s-.14.21-.24.17a6.75,6.75,0,0,1-1.9-.89,2.31,2.31,0,0,1-.57-.55,2.36,2.36,0,0,1-.58.55,6.56,6.56,0,0,1-1.89.89c-.11,0-.2,0-.25-.17s0-.25.07-.3a6,6,0,0,0,1.58-.7,1.39,1.39,0,0,0,.77-1.17h-2.22Zm5-1.44c0,.41-.12.62-.34.62h-.08a.14.14,0,0,1-.16-.16v-4.17h.58Z"/><path class="cls-4" d="M215.44,224.58v1.21h2.68v-1.21h.57v2.66c0,.57-.14.86-.41.86h-2.94q-.48,0-.48-.51v-3Zm.15,3H218c.09,0,.13-.08.13-.26v-1h-2.68v1.15A.13.13,0,0,0,215.59,227.59Zm.32,2.71h4.23c.06,0,.08-.05.08-.15v-.71h-4.31V229h4.65c.16,0,.24.08.24.25V230c0,.53-.13.79-.38.79h-3.93v.8c0,.08,0,.12.11.12h4.19c.06,0,.1.05.1.15s-.07.34-.21.34H216.4a.44.44,0,0,1-.49-.5Zm4.89-2.6c0,.41-.12.61-.34.61h-.08c-.11,0-.16-.05-.16-.15v-3.9h.58v1.64H222c.08,0,.12,0,.12.16s-.07.34-.21.34H220.8Z"/><path class="cls-4" d="M224.51,228.5v1.72h2.1V228.5h.57v1.72h1.95c.08,0,.11.05.11.16s-.07.36-.21.36h-7.15v-.52h2.05V228.5Zm-1.82-.87h1.15v-2.19h.57v2.19h2.3v-2.19h.57v2.19h1.14c.07,0,.1.06.1.17s-.07.33-.21.33h-5.62Zm.19-3h5.35c.07,0,.1,0,.1.16s-.07.34-.21.34h-5.24Z"/><line class="cls-5" x1="13.8" y1="123.82" x2="245.89" y2="123.82"/><line class="cls-5" x1="13.8" y1="189.47" x2="245.89" y2="189.47"/></svg>