<svg id="레이어_1" data-name="레이어 1" xmlns="http://www.w3.org/2000/svg" viewBox="0 0 284.02 267.42"><defs><style>.cls-1{fill:#456581;}.cls-2{fill:#fff;}.cls-3{fill:#575956;}.cls-4{fill:#e76069;}.cls-5{fill:#fafbfc;}.cls-6{fill:#585b56;}</style></defs><rect class="cls-1" x="220.78" y="79.67" width="48.58" height="12.75"/><path class="cls-2" d="M238.43,86.42h-2.36V88.7h-.89V83.34h3.62v.72h-2.73V85.7h2.36Z"/><path class="cls-2" d="M241.32,85.52h-.38a.84.84,0,0,0-.44.11.74.74,0,0,0-.27.31V88.7h-.89v-4h.81l.06.58a1.18,1.18,0,0,1,.39-.48.89.89,0,0,1,.55-.18l.15,0,.13,0Z"/><path class="cls-2" d="M242.9,83.74H242V83h.89Zm0,5H242v-4h.89Z"/><path class="cls-2" d="M243.73,86.76a2.64,2.64,0,0,1,.41-1.53,1.34,1.34,0,0,1,1.15-.59,1.21,1.21,0,0,1,.58.14,1.31,1.31,0,0,1,.45.37V83h.89V88.7h-.75l-.09-.49a1.31,1.31,0,0,1-.46.42,1.24,1.24,0,0,1-.62.15,1.39,1.39,0,0,1-1.15-.53,2.29,2.29,0,0,1-.41-1.41Zm.9.08a1.61,1.61,0,0,0,.21.88.75.75,0,0,0,.68.33.89.89,0,0,0,.47-.12.93.93,0,0,0,.33-.35V85.84a1,1,0,0,0-.33-.34.89.89,0,0,0-.47-.12.72.72,0,0,0-.67.38,2,2,0,0,0-.22,1Z"/><path class="cls-2" d="M250.57,88.7c0-.1-.06-.2-.08-.29a2.93,2.93,0,0,1-.05-.29,1.66,1.66,0,0,1-.48.47,1.28,1.28,0,0,1-.67.19,1.33,1.33,0,0,1-.95-.32,1.14,1.14,0,0,1-.34-.88,1,1,0,0,1,.46-.9,2.15,2.15,0,0,1,1.28-.32h.7V86a.61.61,0,0,0-.19-.49.7.7,0,0,0-.52-.18.75.75,0,0,0-.49.15.46.46,0,0,0-.18.38h-.86v0a1,1,0,0,1,.42-.83,1.81,1.81,0,0,1,1.16-.37,1.7,1.7,0,0,1,1.13.36,1.24,1.24,0,0,1,.42,1v1.76a2.45,2.45,0,0,0,0,.48,2.16,2.16,0,0,0,.1.44Zm-1.1-.64a1.14,1.14,0,0,0,.61-.17.83.83,0,0,0,.36-.39v-.58h-.71a.88.88,0,0,0-.61.19.58.58,0,0,0-.22.45.51.51,0,0,0,.14.37A.65.65,0,0,0,249.47,88.06Z"/><path class="cls-2" d="M253.53,87.1l.09.4h0l.87-2.78h1l-1.65,4.58a1.9,1.9,0,0,1-.44.71,1.06,1.06,0,0,1-.81.3,1,1,0,0,1-.24,0l-.25,0,.1-.7h.27a.48.48,0,0,0,.39-.16,1.7,1.7,0,0,0,.24-.39l.14-.36-1.44-3.93h1Z"/><rect class="cls-1" x="169.41" y="79.67" width="48.58" height="12.75"/><path class="cls-2" d="M182.17,84.06h-1.62V88.7h-.89V84.06H178v-.72h4.13Z"/><path class="cls-2" d="M183.64,85.23a1.44,1.44,0,0,1,.49-.43,1.34,1.34,0,0,1,.63-.16,1.29,1.29,0,0,1,1,.4,1.86,1.86,0,0,1,.35,1.23V88.7h-.9V86.27a1,1,0,0,0-.18-.68.72.72,0,0,0-.56-.21,1,1,0,0,0-.82.41V88.7h-.89V83h.89Z"/><path class="cls-2" d="M189.51,88.12a1.41,1.41,0,0,1-.48.49,1.3,1.3,0,0,1-.66.17,1.28,1.28,0,0,1-1-.41A1.89,1.89,0,0,1,187,87.1V84.72h.89v2.39a1.22,1.22,0,0,0,.17.73.61.61,0,0,0,.51.21,1.08,1.08,0,0,0,.54-.12.8.8,0,0,0,.35-.33V84.72h.89v4h-.78Z"/><path class="cls-2" d="M193.28,85.52h-.38a.84.84,0,0,0-.44.11.74.74,0,0,0-.27.31V88.7h-.89v-4h.81l.06.58a1.18,1.18,0,0,1,.39-.48.89.89,0,0,1,.55-.18l.15,0,.13,0Z"/><path class="cls-2" d="M196.14,87.62a.46.46,0,0,0-.17-.35,2.09,2.09,0,0,0-.66-.23,2.82,2.82,0,0,1-1.08-.43.92.92,0,0,1-.37-.76,1.1,1.1,0,0,1,.42-.85,1.69,1.69,0,0,1,1.12-.36,1.75,1.75,0,0,1,1.16.36,1.06,1.06,0,0,1,.41.89v0h-.86a.58.58,0,0,0-.18-.42.73.73,0,0,0-.52-.18.72.72,0,0,0-.49.15.46.46,0,0,0-.17.36.41.41,0,0,0,.16.33,1.88,1.88,0,0,0,.65.22,2.78,2.78,0,0,1,1.11.43.94.94,0,0,1,.37.77,1,1,0,0,1-.45.87,1.93,1.93,0,0,1-1.17.34,1.73,1.73,0,0,1-1.22-.4,1.14,1.14,0,0,1-.43-.91v0h.83a.59.59,0,0,0,.25.5A1.14,1.14,0,0,0,196,88,.43.43,0,0,0,196.14,87.62Z"/><path class="cls-2" d="M197.66,86.76a2.64,2.64,0,0,1,.41-1.53,1.32,1.32,0,0,1,1.15-.59,1.21,1.21,0,0,1,.58.14,1.28,1.28,0,0,1,.44.37V83h.89V88.7h-.74l-.09-.49a1.31,1.31,0,0,1-.46.42,1.28,1.28,0,0,1-.63.15,1.36,1.36,0,0,1-1.14-.53,2.29,2.29,0,0,1-.41-1.41Zm.9.08a1.61,1.61,0,0,0,.21.88.73.73,0,0,0,.67.33.84.84,0,0,0,.8-.47V85.84a1,1,0,0,0-.32-.34.89.89,0,0,0-.47-.12.74.74,0,0,0-.68.38,2.09,2.09,0,0,0-.21,1Z"/><path class="cls-2" d="M204.49,88.7c0-.1-.06-.2-.08-.29a2.89,2.89,0,0,1,0-.29,1.66,1.66,0,0,1-.48.47,1.3,1.3,0,0,1-.67.19,1.34,1.34,0,0,1-1-.32,1.17,1.17,0,0,1-.33-.88,1,1,0,0,1,.45-.9,2.2,2.2,0,0,1,1.29-.32h.69V86a.64.64,0,0,0-.18-.49.86.86,0,0,0-1,0,.46.46,0,0,0-.18.38h-.86v0a1,1,0,0,1,.41-.83,1.82,1.82,0,0,1,1.17-.37,1.67,1.67,0,0,1,1.12.36,1.22,1.22,0,0,1,.43,1v1.76a3.64,3.64,0,0,0,0,.48,3.15,3.15,0,0,0,.11.44Zm-1.09-.64a1.13,1.13,0,0,0,.6-.17.78.78,0,0,0,.36-.39v-.58h-.71a.89.89,0,0,0-.61.19.61.61,0,0,0-.22.45.48.48,0,0,0,.15.37A.61.61,0,0,0,203.4,88.06Z"/><path class="cls-2" d="M207.46,87.1l.09.4h0l.87-2.78h1l-1.65,4.58a1.9,1.9,0,0,1-.44.71,1.09,1.09,0,0,1-.82.3l-.23,0-.25,0,.1-.7h.27a.46.46,0,0,0,.38-.16A1.41,1.41,0,0,0,207,89l.15-.36-1.44-3.93h1Z"/><rect class="cls-1" x="118.04" y="79.67" width="48.58" height="12.75"/><path class="cls-2" d="M124.66,87.27h0v0l1.08-3.92h.71l1.08,3.93v0l.85-3.92h.87L128,88.7h-.81l-1.07-3.85h0L125,88.7h-.81l-1.28-5.36h.88Z"/><path class="cls-2" d="M131.5,88.78a1.73,1.73,0,0,1-1.35-.56,2,2,0,0,1-.5-1.42v-.15a2.14,2.14,0,0,1,.5-1.44,1.59,1.59,0,0,1,1.25-.57,1.57,1.57,0,0,1,1.23.49,1.9,1.9,0,0,1,.43,1.31V87h-2.48v0a1.17,1.17,0,0,0,.28.77.89.89,0,0,0,.71.3,1.82,1.82,0,0,0,.61-.09,2.13,2.13,0,0,0,.5-.25l.29.58a1.72,1.72,0,0,1-.6.34A2.5,2.5,0,0,1,131.5,88.78Zm-.1-3.42a.65.65,0,0,0-.54.27,1.19,1.19,0,0,0-.27.66v0h1.57v-.09a1,1,0,0,0-.19-.62A.7.7,0,0,0,131.4,85.36Z"/><path class="cls-2" d="M133.62,86.76a2.56,2.56,0,0,1,.41-1.53,1.31,1.31,0,0,1,1.14-.59,1.21,1.21,0,0,1,.58.14,1.31,1.31,0,0,1,.45.37V83h.89V88.7h-.75l-.09-.49a1.31,1.31,0,0,1-.46.42,1.28,1.28,0,0,1-.63.15,1.35,1.35,0,0,1-1.13-.53,2.23,2.23,0,0,1-.41-1.41Zm.89.08a1.61,1.61,0,0,0,.21.88.74.74,0,0,0,.67.33,1,1,0,0,0,.49-.12,1.09,1.09,0,0,0,.32-.35V85.84a1.07,1.07,0,0,0-.33-.34.89.89,0,0,0-.47-.12.72.72,0,0,0-.67.38,2,2,0,0,0-.22,1Z"/><path class="cls-2" d="M138.86,84.72l0,.57a1.46,1.46,0,0,1,.49-.47,1.27,1.27,0,0,1,.67-.18,1.25,1.25,0,0,1,1,.38,1.7,1.7,0,0,1,.35,1.18v2.5h-.89V86.21a.9.9,0,0,0-.19-.64.76.76,0,0,0-.57-.19,1,1,0,0,0-.46.11,1,1,0,0,0-.34.32V88.7H138v-4Z"/><path class="cls-2" d="M144,88.78a1.72,1.72,0,0,1-1.35-.56,2,2,0,0,1-.51-1.42v-.15a2.1,2.1,0,0,1,.51-1.44,1.72,1.72,0,0,1,2.48-.08,2,2,0,0,1,.43,1.31V87H143.1v0a1.17,1.17,0,0,0,.28.77.87.87,0,0,0,.7.3,1.89,1.89,0,0,0,.62-.09,2.13,2.13,0,0,0,.5-.25l.28.58a1.58,1.58,0,0,1-.59.34A2.5,2.5,0,0,1,144,88.78Zm-.1-3.42a.66.66,0,0,0-.55.27,1.26,1.26,0,0,0-.26.66v0h1.58v-.09a1,1,0,0,0-.19-.62A.7.7,0,0,0,143.93,85.36Z"/><path class="cls-2" d="M148.55,87.62a.44.44,0,0,0-.18-.35,2.09,2.09,0,0,0-.66-.23,2.75,2.75,0,0,1-1.08-.43.92.92,0,0,1-.37-.76,1.08,1.08,0,0,1,.43-.85,1.66,1.66,0,0,1,1.12-.36A1.74,1.74,0,0,1,149,85a1.09,1.09,0,0,1,.41.89v0h-.85a.59.59,0,0,0-.19-.42.86.86,0,0,0-1,0,.46.46,0,0,0-.17.36.44.44,0,0,0,.16.33,1.88,1.88,0,0,0,.65.22,2.78,2.78,0,0,1,1.11.43.94.94,0,0,1,.37.77,1,1,0,0,1-.45.87,1.88,1.88,0,0,1-1.16.34,1.77,1.77,0,0,1-1.23-.4,1.14,1.14,0,0,1-.43-.91v0H147a.59.59,0,0,0,.25.5,1,1,0,0,0,.57.16,1,1,0,0,0,.54-.13A.44.44,0,0,0,148.55,87.62Z"/><path class="cls-2" d="M150.06,86.76a2.64,2.64,0,0,1,.41-1.53,1.33,1.33,0,0,1,1.15-.59,1.21,1.21,0,0,1,.58.14,1.31,1.31,0,0,1,.45.37V83h.89V88.7h-.75l-.09-.49a1.31,1.31,0,0,1-.46.42,1.28,1.28,0,0,1-.63.15,1.36,1.36,0,0,1-1.14-.53,2.29,2.29,0,0,1-.41-1.41Zm.9.08a1.61,1.61,0,0,0,.21.88.73.73,0,0,0,.67.33.9.9,0,0,0,.48-.12,1,1,0,0,0,.33-.35V85.84a1.07,1.07,0,0,0-.33-.34.89.89,0,0,0-.47-.12.71.71,0,0,0-.67.38,2,2,0,0,0-.22,1Z"/><path class="cls-2" d="M156.9,88.7a1.82,1.82,0,0,1-.08-.29,1.47,1.47,0,0,1,0-.29,1.66,1.66,0,0,1-.48.47,1.28,1.28,0,0,1-.67.19,1.36,1.36,0,0,1-1-.32,1.17,1.17,0,0,1-.33-.88,1,1,0,0,1,.46-.9,2.15,2.15,0,0,1,1.28-.32h.69V86a.61.61,0,0,0-.18-.49.7.7,0,0,0-.52-.18.74.74,0,0,0-.49.15.46.46,0,0,0-.18.38h-.86v0a1,1,0,0,1,.42-.83,1.84,1.84,0,0,1,1.17-.37,1.67,1.67,0,0,1,1.12.36,1.22,1.22,0,0,1,.43,1v1.76a3.64,3.64,0,0,0,0,.48,3.15,3.15,0,0,0,.11.44Zm-1.1-.64a1.17,1.17,0,0,0,.61-.17.76.76,0,0,0,.35-.39v-.58h-.7a.88.88,0,0,0-.61.19.56.56,0,0,0-.23.45.52.52,0,0,0,.15.37A.61.61,0,0,0,155.8,88.06Z"/><path class="cls-2" d="M159.86,87.1l.09.4h0l.87-2.78h1l-1.65,4.58a1.9,1.9,0,0,1-.44.71,1.08,1.08,0,0,1-.81.3,1,1,0,0,1-.24,0l-.25,0,.1-.7h.27a.5.5,0,0,0,.39-.16,1.7,1.7,0,0,0,.24-.39l.14-.36-1.44-3.93h1Z"/><rect class="cls-1" x="66.66" y="79.67" width="48.58" height="12.75"/><path class="cls-2" d="M81,84.06H79.38V88.7h-.89V84.06H76.87v-.72H81Z"/><path class="cls-2" d="M83.81,88.12a1.38,1.38,0,0,1-.47.49,1.33,1.33,0,0,1-.67.17,1.28,1.28,0,0,1-1-.41,1.89,1.89,0,0,1-.36-1.27V84.72h.9v2.39a1.23,1.23,0,0,0,.16.73.61.61,0,0,0,.51.21,1.08,1.08,0,0,0,.54-.12.8.8,0,0,0,.35-.33V84.72h.89v4h-.78Z"/><path class="cls-2" d="M87.31,88.78A1.72,1.72,0,0,1,86,88.22a2,2,0,0,1-.51-1.42v-.15A2.1,2.1,0,0,1,86,85.21a1.72,1.72,0,0,1,2.48-.08,2,2,0,0,1,.43,1.31V87H86.38v0a1.22,1.22,0,0,0,.27.77.9.9,0,0,0,.71.3A1.89,1.89,0,0,0,88,88a2.13,2.13,0,0,0,.5-.25l.28.58a1.58,1.58,0,0,1-.59.34A2.5,2.5,0,0,1,87.31,88.78Zm-.1-3.42a.66.66,0,0,0-.55.27,1.26,1.26,0,0,0-.26.66v0H88v-.09a1,1,0,0,0-.19-.62A.71.71,0,0,0,87.21,85.36Z"/><path class="cls-2" d="M91.83,87.62a.44.44,0,0,0-.18-.35A2.09,2.09,0,0,0,91,87a2.75,2.75,0,0,1-1.08-.43.92.92,0,0,1-.37-.76A1.05,1.05,0,0,1,90,85a1.66,1.66,0,0,1,1.12-.36,1.74,1.74,0,0,1,1.15.36,1.09,1.09,0,0,1,.41.89v0h-.85a.59.59,0,0,0-.19-.42.86.86,0,0,0-1,0,.46.46,0,0,0-.17.36.44.44,0,0,0,.16.33,1.88,1.88,0,0,0,.65.22,2.78,2.78,0,0,1,1.11.43.94.94,0,0,1,.37.77,1,1,0,0,1-.45.87,1.89,1.89,0,0,1-1.17.34,1.76,1.76,0,0,1-1.22-.4,1.14,1.14,0,0,1-.43-.91v0h.83a.59.59,0,0,0,.25.5,1,1,0,0,0,.57.16,1,1,0,0,0,.54-.13A.44.44,0,0,0,91.83,87.62Z"/><path class="cls-2" d="M93.34,86.76a2.64,2.64,0,0,1,.41-1.53,1.33,1.33,0,0,1,1.15-.59,1.21,1.21,0,0,1,.58.14,1.31,1.31,0,0,1,.45.37V83h.89V88.7h-.75L96,88.21a1.31,1.31,0,0,1-.46.42,1.28,1.28,0,0,1-.63.15,1.36,1.36,0,0,1-1.14-.53,2.29,2.29,0,0,1-.41-1.41Zm.9.08a1.61,1.61,0,0,0,.21.88.73.73,0,0,0,.67.33.9.9,0,0,0,.48-.12,1,1,0,0,0,.33-.35V85.84a1.07,1.07,0,0,0-.33-.34.89.89,0,0,0-.47-.12.71.71,0,0,0-.67.38,2,2,0,0,0-.22,1Z"/><path class="cls-2" d="M100.18,88.7a1.82,1.82,0,0,1-.08-.29,1.47,1.47,0,0,1,0-.29,1.66,1.66,0,0,1-.48.47,1.28,1.28,0,0,1-.67.19,1.34,1.34,0,0,1-1-.32,1.17,1.17,0,0,1-.33-.88,1,1,0,0,1,.46-.9,2.15,2.15,0,0,1,1.28-.32H100V86a.64.64,0,0,0-.18-.49.7.7,0,0,0-.52-.18.74.74,0,0,0-.49.15.46.46,0,0,0-.18.38h-.86v0a1,1,0,0,1,.42-.83,1.84,1.84,0,0,1,1.17-.37,1.67,1.67,0,0,1,1.12.36,1.22,1.22,0,0,1,.43,1v1.76a3.64,3.64,0,0,0,0,.48,2.18,2.18,0,0,0,.11.44Zm-1.1-.64a1.17,1.17,0,0,0,.61-.17.81.81,0,0,0,.35-.39v-.58h-.7a.88.88,0,0,0-.61.19.56.56,0,0,0-.23.45.52.52,0,0,0,.15.37A.61.61,0,0,0,99.08,88.06Z"/><path class="cls-2" d="M103.14,87.1l.09.4h0l.87-2.78h1l-1.65,4.58A1.8,1.8,0,0,1,103,90a1,1,0,0,1-.8.3,1,1,0,0,1-.24,0l-.25,0,.1-.7h.27a.5.5,0,0,0,.39-.16,1.7,1.7,0,0,0,.24-.39l.14-.36-1.45-3.93h1Z"/><rect class="cls-1" x="15.29" y="79.67" width="48.59" height="12.75"/><path class="cls-2" d="M27.7,83.34l1.54,4.12h0l1.55-4.12H32V88.7h-.9V86.87l.09-2.32h0L29.55,88.7H29l-1.58-4.14h0l.09,2.31V88.7h-.89V83.34Z"/><path class="cls-2" d="M32.86,86.67a2.12,2.12,0,0,1,.49-1.45,1.64,1.64,0,0,1,1.33-.58,1.67,1.67,0,0,1,1.35.58,2.15,2.15,0,0,1,.49,1.45v.08A2.21,2.21,0,0,1,36,88.22a1.7,1.7,0,0,1-1.34.56,1.66,1.66,0,0,1-1.34-.57,2.13,2.13,0,0,1-.49-1.46Zm.9.08a1.81,1.81,0,0,0,.22,1,.87.87,0,0,0,1.41,0,1.72,1.72,0,0,0,.23-1v-.08a1.7,1.7,0,0,0-.23-.94.86.86,0,0,0-1.41,0,1.79,1.79,0,0,0-.22.94Z"/><path class="cls-2" d="M38.11,84.72l0,.57a1.38,1.38,0,0,1,.49-.47,1.24,1.24,0,0,1,.67-.18,1.28,1.28,0,0,1,1,.38,1.7,1.7,0,0,1,.34,1.18v2.5h-.89V86.21a.91.91,0,0,0-.18-.64.77.77,0,0,0-.57-.19.88.88,0,0,0-.8.43V88.7h-.9v-4Z"/><path class="cls-2" d="M41.4,86.76a2.64,2.64,0,0,1,.41-1.53A1.32,1.32,0,0,1,43,84.64a1.24,1.24,0,0,1,.58.14,1.2,1.2,0,0,1,.44.37V83h.89V88.7h-.75L44,88.21a1.4,1.4,0,0,1-.46.42,1.28,1.28,0,0,1-.63.15,1.36,1.36,0,0,1-1.14-.53,2.29,2.29,0,0,1-.41-1.41Zm.89.08a1.61,1.61,0,0,0,.22.88.72.72,0,0,0,.67.33.9.9,0,0,0,.48-.12,1,1,0,0,0,.32-.35V85.84a1,1,0,0,0-.33-.34.85.85,0,0,0-.46-.12.73.73,0,0,0-.68.38,2.09,2.09,0,0,0-.22,1Z"/><path class="cls-2" d="M48.23,88.7c0-.1-.06-.2-.08-.29a1.45,1.45,0,0,1,0-.29,1.66,1.66,0,0,1-.48.47,1.31,1.31,0,0,1-.68.19,1.33,1.33,0,0,1-1-.32,1.17,1.17,0,0,1-.33-.88,1,1,0,0,1,.45-.9,2.2,2.2,0,0,1,1.29-.32h.69V86a.64.64,0,0,0-.18-.49.72.72,0,0,0-.53-.18.77.77,0,0,0-.49.15.49.49,0,0,0-.18.38h-.85v0a1,1,0,0,1,.42-.83,1.82,1.82,0,0,1,1.17-.37,1.67,1.67,0,0,1,1.12.36A1.22,1.22,0,0,1,49,86v1.76a3.64,3.64,0,0,0,0,.48,3.13,3.13,0,0,0,.1.44Zm-1.1-.64a1.14,1.14,0,0,0,.61-.17.83.83,0,0,0,.36-.39v-.58h-.71a.89.89,0,0,0-.61.19.58.58,0,0,0-.22.45.48.48,0,0,0,.15.37A.6.6,0,0,0,47.13,88.06Z"/><path class="cls-2" d="M51.2,87.1l.09.4h0l.87-2.78h1L51.51,89.3a1.92,1.92,0,0,1-.45.71,1.06,1.06,0,0,1-.81.3l-.24,0-.24,0,.1-.7h.26a.47.47,0,0,0,.39-.16,1.41,1.41,0,0,0,.24-.39l.15-.36-1.45-3.93h1Z"/><path class="cls-3" d="M90.11,65.74h-3l-8-13.1-.08,0V65.74h-3V47.8h3l8,13.08.08,0V47.8h3Z"/><path class="cls-3" d="M93.1,59a7.29,7.29,0,0,1,1.62-4.88,6.22,6.22,0,0,1,9,0A7.22,7.22,0,0,1,105.33,59v.26a7.25,7.25,0,0,1-1.64,4.9A5.58,5.58,0,0,1,99.22,66a5.65,5.65,0,0,1-4.5-1.89,7.29,7.29,0,0,1-1.62-4.89Zm3,.25a5.91,5.91,0,0,0,.76,3.17,2.88,2.88,0,0,0,4.71,0,5.73,5.73,0,0,0,.79-3.17v-.26a5.66,5.66,0,0,0-.79-3.13,2.61,2.61,0,0,0-2.37-1.25,2.58,2.58,0,0,0-2.34,1.25,5.88,5.88,0,0,0-.76,3.13Z"/><path class="cls-3" d="M112.37,61.23l.23,1.08h.07l.23-1.08,2.65-8.82h3.09l-4.73,13.33h-2.6l-4.75-13.33h3.09Z"/><path class="cls-3" d="M126.07,66a5.8,5.8,0,0,1-4.52-1.85,6.8,6.8,0,0,1-1.68-4.76v-.49a7.07,7.07,0,0,1,1.67-4.82,5.27,5.27,0,0,1,4.18-1.91,5.19,5.19,0,0,1,4.13,1.64,6.34,6.34,0,0,1,1.44,4.37v1.76H123l0,.06a4.22,4.22,0,0,0,.93,2.6,2.94,2.94,0,0,0,2.37,1,6.58,6.58,0,0,0,2.07-.29,6.69,6.69,0,0,0,1.66-.85l1,2a6.4,6.4,0,0,1-2,1.13A8.45,8.45,0,0,1,126.07,66Zm-.35-11.43a2.24,2.24,0,0,0-1.82.89,4.32,4.32,0,0,0-.89,2.23l0,.06h5.28v-.31a3.17,3.17,0,0,0-.65-2.07A2.37,2.37,0,0,0,125.72,54.56Z"/><path class="cls-3" d="M136.44,52.41l.16,1.73a4.51,4.51,0,0,1,1.64-1.46,4.74,4.74,0,0,1,2.28-.52,4.16,4.16,0,0,1,2.24.59,3.61,3.61,0,0,1,1.4,1.78,4.63,4.63,0,0,1,1.63-1.74,4.36,4.36,0,0,1,2.36-.63,3.92,3.92,0,0,1,3.17,1.38,6.28,6.28,0,0,1,1.17,4.16v8h-3v-8a3.75,3.75,0,0,0-.58-2.39,2.22,2.22,0,0,0-1.76-.69,2.58,2.58,0,0,0-1.62.52,3,3,0,0,0-1,1.39,3,3,0,0,0,0,.32,2.35,2.35,0,0,1,0,.26v8.64h-3v-8a3.64,3.64,0,0,0-.6-2.35,2.12,2.12,0,0,0-1.75-.73,3.23,3.23,0,0,0-1.55.35,2.6,2.6,0,0,0-1,1v9.78h-3V52.41Z"/><path class="cls-3" d="M167.34,59.52a7.54,7.54,0,0,1-1.36,4.7A4.57,4.57,0,0,1,162.14,66a4.36,4.36,0,0,1-2.16-.5A4.24,4.24,0,0,1,158.45,64l-.3,1.73h-2.51V46.52h3v7.41a4.19,4.19,0,0,1,1.48-1.31,4.26,4.26,0,0,1,2-.46,4.44,4.44,0,0,1,3.86,2,8.79,8.79,0,0,1,1.36,5.15Zm-3-.26a6.88,6.88,0,0,0-.72-3.37,2.4,2.4,0,0,0-2.26-1.28,2.91,2.91,0,0,0-1.67.45,3.07,3.07,0,0,0-1.07,1.23v5.59a3,3,0,0,0,1.06,1.24,3.09,3.09,0,0,0,1.7.43,2.5,2.5,0,0,0,2.26-1.08,5.48,5.48,0,0,0,.7-2.95Z"/><path class="cls-3" d="M175.64,66a5.77,5.77,0,0,1-4.51-1.85,6.81,6.81,0,0,1-1.69-4.76v-.49a7.07,7.07,0,0,1,1.67-4.82,5.28,5.28,0,0,1,4.18-1.91,5.23,5.23,0,0,1,4.14,1.64,6.39,6.39,0,0,1,1.43,4.37v1.76h-8.31l0,.06a4.17,4.17,0,0,0,.94,2.6,2.91,2.91,0,0,0,2.36,1,6.69,6.69,0,0,0,2.08-.29,7.05,7.05,0,0,0,1.66-.85l1,2a6.4,6.4,0,0,1-2,1.13A8.45,8.45,0,0,1,175.64,66Zm-.35-11.43a2.26,2.26,0,0,0-1.82.89,4.31,4.31,0,0,0-.88,2.23l0,.06h5.29v-.31a3.22,3.22,0,0,0-.65-2.07A2.37,2.37,0,0,0,175.29,54.56Z"/><path class="cls-3" d="M189.91,55.11l-1.28,0a2.63,2.63,0,0,0-1.45.37,2.38,2.38,0,0,0-.91,1v9.27h-3V52.41H186l.2,1.93a4.34,4.34,0,0,1,1.3-1.6,3.07,3.07,0,0,1,1.83-.58,2.57,2.57,0,0,1,.5.05,2.47,2.47,0,0,1,.43.1Z"/><rect id="Place_for_Month" class="cls-4" x="15.29" y="30.74" width="48.58" height="38.33"/><path class="cls-2" d="M33,62.49H31.21V42.14l-5.62.65V41.52L33,40.18Z"/><path class="cls-2" d="M50.3,62.49H48.47V42.14l-5.62.65V41.52l7.45-1.34Z"/><rect class="cls-5" x="220.88" y="211.36" width="48.49" height="35.78"/><path class="cls-6" d="M230.15,222.21H226v-.72l2-2.2a4.8,4.8,0,0,0,.69-.89,1.49,1.49,0,0,0,.19-.68,1,1,0,0,0-.25-.7.81.81,0,0,0-.65-.29,1,1,0,0,0-.82.31,1.31,1.31,0,0,0-.26.85h-1v0a1.77,1.77,0,0,1,.54-1.39,2.07,2.07,0,0,1,1.55-.57,1.92,1.92,0,0,1,1.41.5,1.7,1.7,0,0,1,.53,1.29,1.9,1.9,0,0,1-.31,1,8.61,8.61,0,0,1-.93,1.19l-1.38,1.45v0h2.8Z"/><path class="cls-6" d="M235.12,216.82a8,8,0,0,0-1.45,2.28,10.51,10.51,0,0,0-.54,2.45l-.07.66h-1l.07-.66a8.49,8.49,0,0,1,2-4.73h-3.3V216h4.3Z"/><rect class="cls-5" x="169.61" y="211.36" width="48.48" height="35.78"/><path class="cls-6" d="M178.88,222.21h-4.13v-.72l2-2.2a4.66,4.66,0,0,0,.68-.89,1.38,1.38,0,0,0,.19-.68,1,1,0,0,0-.24-.7.85.85,0,0,0-.66-.29,1,1,0,0,0-.81.31,1.26,1.26,0,0,0-.27.85h-1v0a1.85,1.85,0,0,1,.54-1.39,2.08,2.08,0,0,1,1.55-.57,1.94,1.94,0,0,1,1.42.5,1.72,1.72,0,0,1,.52,1.29,1.89,1.89,0,0,1-.3,1,8.07,8.07,0,0,1-.94,1.19l-1.38,1.45v0h2.8Z"/><path class="cls-6" d="M182.17,215.9a2.75,2.75,0,0,1,1.19.26l-.2.79a3.16,3.16,0,0,0-.46-.16,2.09,2.09,0,0,0-.53-.06,1.22,1.22,0,0,0-1,.49,2.05,2.05,0,0,0-.38,1.3v0a1.66,1.66,0,0,1,.6-.36,2,2,0,0,1,.74-.13,1.61,1.61,0,0,1,1.32.58,2.48,2.48,0,0,1-.07,3.05,1.87,1.87,0,0,1-1.46.61,2,2,0,0,1-1.55-.66,2.67,2.67,0,0,1-.61-1.87v-1.19a2.79,2.79,0,0,1,.68-2A2.31,2.31,0,0,1,182.17,215.9Zm-.29,3a1.36,1.36,0,0,0-.67.14,1.08,1.08,0,0,0-.42.37v.45a2,2,0,0,0,.32,1.21,1,1,0,0,0,.81.43.82.82,0,0,0,.72-.39,1.71,1.71,0,0,0,.26-1,1.38,1.38,0,0,0-.28-.91A.87.87,0,0,0,181.88,218.87Z"/><rect class="cls-5" x="118.35" y="211.36" width="48.49" height="35.78"/><path class="cls-6" d="M127.62,222.21h-4.13v-.72l2-2.2a5.29,5.29,0,0,0,.69-.89,1.47,1.47,0,0,0,.18-.68,1,1,0,0,0-.24-.7.82.82,0,0,0-.66-.29,1,1,0,0,0-.81.31,1.25,1.25,0,0,0-.26.85h-1v0a1.82,1.82,0,0,1,.55-1.39,2.06,2.06,0,0,1,1.54-.57,1.94,1.94,0,0,1,1.42.5,1.69,1.69,0,0,1,.52,1.29,1.89,1.89,0,0,1-.3,1,8.61,8.61,0,0,1-.93,1.19l-1.39,1.45v0h2.81Z"/><path class="cls-6" d="M128.66,219.43,129,216h3.29v.9h-2.43l-.19,1.56a2,2,0,0,1,.43-.23,1.55,1.55,0,0,1,.55-.09,1.72,1.72,0,0,1,1.37.55,2.27,2.27,0,0,1,.49,1.55,2.13,2.13,0,0,1-.52,1.49,1.92,1.92,0,0,1-1.51.58,2.14,2.14,0,0,1-1.38-.45,1.5,1.5,0,0,1-.55-1.28v0l1,0a.91.91,0,0,0,.27.7.92.92,0,0,0,.68.25.86.86,0,0,0,.74-.34,1.75,1.75,0,0,0,0-1.82.87.87,0,0,0-.74-.35,1.19,1.19,0,0,0-.64.14.94.94,0,0,0-.3.4Z"/><rect class="cls-5" x="67.08" y="211.36" width="48.49" height="35.78"/><path class="cls-6" d="M76.35,222.21H72.22v-.72l2-2.2a5.29,5.29,0,0,0,.69-.89,1.47,1.47,0,0,0,.18-.68,1,1,0,0,0-.24-.7.82.82,0,0,0-.66-.29,1,1,0,0,0-.81.31,1.31,1.31,0,0,0-.26.85h-1v0a1.82,1.82,0,0,1,.55-1.39,2.06,2.06,0,0,1,1.54-.57,1.94,1.94,0,0,1,1.42.5,1.69,1.69,0,0,1,.52,1.29,1.89,1.89,0,0,1-.3,1,8.61,8.61,0,0,1-.93,1.19l-1.39,1.45,0,0h2.8Z"/><path class="cls-6" d="M80.69,220h.79v.84h-.79v1.38h-1v-1.38H77l0-.64,2.67-4.2h1.06ZM78,220h1.67v-2.52h0l-.09.19Z"/><rect class="cls-5" x="15.81" y="211.36" width="48.49" height="35.78"/><path class="cls-6" d="M25.08,222.21H21v-.72l2-2.2a5.29,5.29,0,0,0,.69-.89,1.47,1.47,0,0,0,.18-.68,1,1,0,0,0-.24-.7.82.82,0,0,0-.66-.29,1,1,0,0,0-.81.31,1.25,1.25,0,0,0-.26.85h-1v0a1.82,1.82,0,0,1,.55-1.39,2.06,2.06,0,0,1,1.54-.57,1.94,1.94,0,0,1,1.42.5,1.69,1.69,0,0,1,.52,1.29,1.89,1.89,0,0,1-.3,1,8.61,8.61,0,0,1-.93,1.19l-1.39,1.45,0,0h2.8Z"/><path class="cls-6" d="M27.12,218.63h.72a.92.92,0,0,0,.73-.25,1,1,0,0,0,.22-.71,1,1,0,0,0-.24-.69.91.91,0,0,0-.7-.25,1,1,0,0,0-.69.25.8.8,0,0,0-.27.63h-1v0a1.42,1.42,0,0,1,.54-1.19,2,2,0,0,1,1.42-.49,2.21,2.21,0,0,1,1.45.46,1.64,1.64,0,0,1,.54,1.31,1.37,1.37,0,0,1-.24.77,1.64,1.64,0,0,1-.69.58,1.49,1.49,0,0,1,.77.57,1.57,1.57,0,0,1,.26.88,1.65,1.65,0,0,1-.59,1.34,2.53,2.53,0,0,1-2.95,0,1.46,1.46,0,0,1-.57-1.27v0h1a.85.85,0,0,0,.28.67,1,1,0,0,0,.74.26,1.09,1.09,0,0,0,.76-.26,1,1,0,0,0,.28-.74,1,1,0,0,0-.26-.77,1.07,1.07,0,0,0-.79-.25h-.72Z"/><rect class="cls-5" x="220.88" y="173.06" width="48.49" height="35.78"/><path class="cls-6" d="M230.15,183.91H226v-.72l2-2.2a5.15,5.15,0,0,0,.69-.89,1.53,1.53,0,0,0,.19-.69,1,1,0,0,0-.25-.7.81.81,0,0,0-.65-.28,1,1,0,0,0-.82.31,1.26,1.26,0,0,0-.26.84h-1v0a1.81,1.81,0,0,1,.54-1.4,2.1,2.1,0,0,1,1.55-.56,2,2,0,0,1,1.41.49,1.7,1.7,0,0,1,.53,1.3,1.9,1.9,0,0,1-.31,1,8.62,8.62,0,0,1-.93,1.18l-1.38,1.46v0h2.8Z"/><path class="cls-6" d="M235.05,181.51a2.78,2.78,0,0,1-.54,1.85A1.85,1.85,0,0,1,233,184a1.87,1.87,0,0,1-1.5-.64,2.78,2.78,0,0,1-.55-1.85v-1.42a2.73,2.73,0,0,1,.55-1.85,2.05,2.05,0,0,1,3,0,2.73,2.73,0,0,1,.55,1.85Zm-1-1.58a2,2,0,0,0-.25-1.13.95.95,0,0,0-1.5,0,2.08,2.08,0,0,0-.25,1.13v1.73a2,2,0,0,0,.26,1.14.86.86,0,0,0,.75.36.84.84,0,0,0,.74-.36,2,2,0,0,0,.25-1.14Z"/><rect class="cls-5" x="169.61" y="173.06" width="48.48" height="35.78"/><path class="cls-6" d="M177.36,183.91h-1v-5.24h-1.27v-.76l2.31-.22Z"/><path class="cls-6" d="M181.46,183.16a1.1,1.1,0,0,0,.9-.41,1.81,1.81,0,0,0,.34-1.2v-.28a1.4,1.4,0,0,1-.51.43,1.45,1.45,0,0,1-.66.15,1.82,1.82,0,0,1-1.4-.56,2.43,2.43,0,0,1,.06-3.08,1.87,1.87,0,0,1,1.43-.61,2,2,0,0,1,1.54.63,2.64,2.64,0,0,1,.57,1.83v1.46a2.5,2.5,0,0,1-.63,1.83,2.2,2.2,0,0,1-1.64.65,3.09,3.09,0,0,1-.66-.07,2.44,2.44,0,0,1-.63-.19l.14-.8a2,2,0,0,0,.53.17A3,3,0,0,0,181.46,183.16Zm.17-2.12a1.34,1.34,0,0,0,.66-.15,1.05,1.05,0,0,0,.41-.4v-.55a1.89,1.89,0,0,0-.28-1.13.92.92,0,0,0-.79-.38.85.85,0,0,0-.7.38,1.54,1.54,0,0,0-.28.94,1.61,1.61,0,0,0,.26.94A.85.85,0,0,0,181.63,181Z"/><rect class="cls-5" x="118.35" y="173.06" width="48.49" height="35.78"/><path class="cls-6" d="M126.09,183.91h-1v-5.24h-1.27v-.76l2.31-.22Z"/><path class="cls-6" d="M132.39,179.33a1.4,1.4,0,0,1-.25.83,1.76,1.76,0,0,1-.7.56,1.82,1.82,0,0,1,.81.59,1.44,1.44,0,0,1,.3.9,1.61,1.61,0,0,1-.57,1.33,2.68,2.68,0,0,1-3,0,1.61,1.61,0,0,1-.57-1.33,1.44,1.44,0,0,1,.3-.9,1.8,1.8,0,0,1,.81-.6,1.54,1.54,0,0,1-.7-.55,1.4,1.4,0,0,1-.25-.83,1.63,1.63,0,0,1,.52-1.28,2.06,2.06,0,0,1,1.39-.45,2.08,2.08,0,0,1,1.38.45A1.6,1.6,0,0,1,132.39,179.33Zm-.88,2.83a1,1,0,0,0-.29-.74,1.1,1.1,0,0,0-1.49,0,1,1,0,0,0-.28.74,1,1,0,0,0,.28.74,1.21,1.21,0,0,0,1.5,0A1,1,0,0,0,131.51,182.16Zm-.16-2.79a1,1,0,0,0-.24-.68.83.83,0,0,0-.63-.26.87.87,0,0,0-.64.25,1,1,0,0,0-.23.69.93.93,0,0,0,.24.67.91.91,0,0,0,1.27,0A1,1,0,0,0,131.35,179.37Z"/><rect class="cls-5" x="67.08" y="173.06" width="48.49" height="35.78"/><path class="cls-6" d="M74.82,183.91h-1v-5.24H72.52v-.76l2.3-.22Z"/><path class="cls-6" d="M81.32,178.52a7.9,7.9,0,0,0-1.45,2.27,11.24,11.24,0,0,0-.55,2.46l-.06.66h-1l.07-.66a8.5,8.5,0,0,1,2-4.73H77v-.83h4.3Z"/><rect class="cls-5" x="15.81" y="173.06" width="48.49" height="35.78"/><path class="cls-6" d="M23.55,183.91h-1v-5.24H21.25v-.76l2.3-.22Z"/><path class="cls-6" d="M28.36,177.6a2.67,2.67,0,0,1,.64.07,2.54,2.54,0,0,1,.55.18l-.19.8a3.27,3.27,0,0,0-.47-.16,2.06,2.06,0,0,0-.52-.06,1.21,1.21,0,0,0-1,.49,2.05,2.05,0,0,0-.38,1.3v0a2,2,0,0,1,.6-.37,2.27,2.27,0,0,1,.75-.12,1.64,1.64,0,0,1,1.32.58,2.52,2.52,0,0,1-.07,3,1.91,1.91,0,0,1-1.46.61,2,2,0,0,1-1.56-.67,2.62,2.62,0,0,1-.61-1.86v-1.19a2.73,2.73,0,0,1,.69-1.95A2.24,2.24,0,0,1,28.36,177.6Zm-.29,3a1.54,1.54,0,0,0-.67.14,1,1,0,0,0-.42.38v.44a2,2,0,0,0,.32,1.22,1,1,0,0,0,.82.42.8.8,0,0,0,.71-.38,1.64,1.64,0,0,0,.26-1,1.47,1.47,0,0,0-.27-.91A.9.9,0,0,0,28.07,180.56Z"/><rect class="cls-5" x="220.88" y="134.74" width="48.49" height="35.79"/><path class="cls-6" d="M228.62,145.6h-1v-5.23h-1.26v-.77l2.3-.22Z"/><path class="cls-6" d="M232.19,142h.73a.9.9,0,0,0,.72-.25,1,1,0,0,0,.23-.71.87.87,0,0,0-1-.94,1,1,0,0,0-.69.25.8.8,0,0,0-.27.63h-1v0a1.41,1.41,0,0,1,.53-1.2,2.09,2.09,0,0,1,1.42-.49,2.19,2.19,0,0,1,1.45.46,1.64,1.64,0,0,1,.54,1.31,1.37,1.37,0,0,1-.24.77,1.52,1.52,0,0,1-.69.58,1.45,1.45,0,0,1,1,1.45,1.65,1.65,0,0,1-.59,1.34,2.49,2.49,0,0,1-2.95,0,1.45,1.45,0,0,1-.56-1.27v0h1a.87.87,0,0,0,.28.66,1.06,1.06,0,0,0,.74.26,1.08,1.08,0,0,0,.76-.26.94.94,0,0,0,.28-.74,1,1,0,0,0-.26-.77,1.06,1.06,0,0,0-.78-.25h-.73Z"/><rect class="cls-5" x="169.61" y="134.74" width="48.48" height="35.79"/><path class="cls-6" d="M177.36,145.6h-1v-5.23h-1.27v-.77l2.31-.22Z"/><path class="cls-6" d="M183.86,145.6h-4.13v-.71l2-2.21a5.29,5.29,0,0,0,.69-.89,1.47,1.47,0,0,0,.18-.68,1,1,0,0,0-.24-.7.82.82,0,0,0-.66-.29,1,1,0,0,0-.81.31,1.31,1.31,0,0,0-.26.85h-1v0a1.83,1.83,0,0,1,.55-1.39,2.06,2.06,0,0,1,1.54-.57,2,2,0,0,1,1.42.5,1.69,1.69,0,0,1,.52,1.29,1.89,1.89,0,0,1-.3,1,8.61,8.61,0,0,1-.93,1.19L181,144.75l0,0h2.8Z"/><rect class="cls-5" x="118.35" y="134.74" width="48.49" height="35.79"/><path class="cls-6" d="M126.09,145.6h-1v-5.23h-1.27v-.77l2.31-.22Z"/><path class="cls-6" d="M131.06,145.6h-1v-5.23h-1.26v-.77l2.3-.22Z"/><rect class="cls-5" x="67.08" y="134.74" width="48.49" height="35.79"/><path class="cls-6" d="M74.82,145.6h-1v-5.23H72.52v-.77l2.3-.22Z"/><path class="cls-6" d="M81.25,143.21a2.74,2.74,0,0,1-.55,1.85,1.86,1.86,0,0,1-1.48.64,1.91,1.91,0,0,1-1.5-.64,2.74,2.74,0,0,1-.55-1.85v-1.42a2.77,2.77,0,0,1,.55-1.86,2.05,2.05,0,0,1,3,0,2.77,2.77,0,0,1,.55,1.86Zm-1-1.59a2,2,0,0,0-.25-1.13.95.95,0,0,0-1.5,0,2,2,0,0,0-.25,1.13v1.73a2,2,0,0,0,.26,1.14.85.85,0,0,0,.75.37.83.83,0,0,0,.74-.37,2,2,0,0,0,.25-1.14Z"/><rect class="cls-5" x="15.81" y="134.74" width="48.49" height="35.79"/><path class="cls-6" d="M25.18,144.86a1.1,1.1,0,0,0,.89-.41,1.81,1.81,0,0,0,.35-1.2V143a1.43,1.43,0,0,1-.51.44,1.63,1.63,0,0,1-.66.14,1.79,1.79,0,0,1-1.41-.56,2.2,2.2,0,0,1-.51-1.54,2.17,2.17,0,0,1,.57-1.54,1.92,1.92,0,0,1,1.43-.61,2,2,0,0,1,1.55.64,2.63,2.63,0,0,1,.57,1.82v1.46a2.51,2.51,0,0,1-.63,1.83,2.18,2.18,0,0,1-1.64.66,3.7,3.7,0,0,1-.66-.07,2.9,2.9,0,0,1-.63-.19l.13-.8a2.6,2.6,0,0,0,.54.17A3.8,3.8,0,0,0,25.18,144.86Zm.16-2.12a1.3,1.3,0,0,0,.67-.16,1.05,1.05,0,0,0,.41-.4v-.55a1.92,1.92,0,0,0-.28-1.12.92.92,0,0,0-.79-.39.84.84,0,0,0-.7.38,1.5,1.5,0,0,0-.28.94,1.52,1.52,0,0,0,.26.94A.83.83,0,0,0,25.34,142.74Z"/><rect class="cls-5" x="220.88" y="96.44" width="48.49" height="35.78"/><path class="cls-6" d="M231,101a2.73,2.73,0,0,1,.64.07,2.54,2.54,0,0,1,.55.18l-.2.8a2.8,2.8,0,0,0-.46-.16,2.09,2.09,0,0,0-.53-.06,1.2,1.2,0,0,0-1,.49,2.05,2.05,0,0,0-.38,1.3v0a1.84,1.84,0,0,1,.6-.37,2.23,2.23,0,0,1,.75-.12,1.6,1.6,0,0,1,1.31.58,2.2,2.2,0,0,1,.49,1.48,2.25,2.25,0,0,1-.56,1.57,1.89,1.89,0,0,1-1.45.61,2,2,0,0,1-1.56-.67,2.62,2.62,0,0,1-.61-1.86v-1.19a2.73,2.73,0,0,1,.69-2A2.24,2.24,0,0,1,231,101Zm-.29,3a1.51,1.51,0,0,0-.67.14,1,1,0,0,0-.42.38v.44a2,2,0,0,0,.32,1.22,1,1,0,0,0,.82.43.83.83,0,0,0,.71-.39,1.72,1.72,0,0,0,.26-1,1.47,1.47,0,0,0-.27-.91A.92.92,0,0,0,230.66,104Z"/><rect class="cls-5" x="169.61" y="96.44" width="48.48" height="35.78"/><path class="cls-6" d="M177.44,104.52l.36-3.44h3.29V102h-2.42l-.19,1.56a1.67,1.67,0,0,1,.42-.22,1.86,1.86,0,0,1,.55-.1,1.72,1.72,0,0,1,1.37.56,2.26,2.26,0,0,1,.49,1.54,2.16,2.16,0,0,1-.52,1.5,1.94,1.94,0,0,1-1.51.58,2.16,2.16,0,0,1-1.38-.45,1.5,1.5,0,0,1-.55-1.28v0l1,0a.9.9,0,0,0,.27.7.93.93,0,0,0,.68.26.88.88,0,0,0,.74-.34,1.49,1.49,0,0,0,.26-.91,1.47,1.47,0,0,0-.27-.91.87.87,0,0,0-.74-.35,1.09,1.09,0,0,0-.63.14.73.73,0,0,0-.3.4Z"/><rect class="cls-5" x="118.35" y="96.44" width="48.49" height="35.78"/><path class="cls-6" d="M129.48,105.08h.79v.83h-.79v1.39h-1v-1.39h-2.67l0-.63,2.67-4.2h1.06Zm-2.7,0h1.67v-2.52h0l-.08.18Z"/><rect class="cls-5" x="67.08" y="96.44" width="48.49" height="35.78"/><path class="cls-6" d="M75.91,103.72h.72a1,1,0,0,0,.73-.25,1,1,0,0,0,.22-.71.93.93,0,0,0-.24-.69.91.91,0,0,0-.7-.25,1,1,0,0,0-.7.24.84.84,0,0,0-.26.64h-1v0a1.47,1.47,0,0,1,.53-1.2,2.1,2.1,0,0,1,1.42-.48,2.18,2.18,0,0,1,1.46.46,1.63,1.63,0,0,1,.54,1.31,1.33,1.33,0,0,1-.25.77,1.59,1.59,0,0,1-.69.58,1.39,1.39,0,0,1,.78.57,1.54,1.54,0,0,1,.25.88,1.63,1.63,0,0,1-.59,1.34,2.24,2.24,0,0,1-1.5.49,2.27,2.27,0,0,1-1.45-.46,1.46,1.46,0,0,1-.56-1.27v0h1a.85.85,0,0,0,.28.67,1,1,0,0,0,.74.26,1.09,1.09,0,0,0,.76-.26,1,1,0,0,0,.27-.74,1.06,1.06,0,0,0-.25-.78,1.11,1.11,0,0,0-.79-.24h-.72Z"/><rect class="cls-5" x="15.81" y="96.44" width="48.49" height="35.78"/><path class="cls-6" d="M27.57,107.3H23.44v-.72l2-2.21a4.37,4.37,0,0,0,.68-.89,1.35,1.35,0,0,0,.19-.68,1,1,0,0,0-.24-.7.87.87,0,0,0-.66-.28,1,1,0,0,0-.81.31,1.23,1.23,0,0,0-.27.84h-1v0a1.85,1.85,0,0,1,.54-1.39,2.08,2.08,0,0,1,1.55-.57,2,2,0,0,1,1.42.49,1.75,1.75,0,0,1,.52,1.3,1.94,1.94,0,0,1-.3,1,8.08,8.08,0,0,1-.94,1.18l-1.38,1.46v0h2.8Z"/><path class="cls-4" d="M89.32,113.05c-.24,0-1,.15-2.14.36v1c0,.49,0,.81,0,1a1.48,1.48,0,0,1-.1.56.49.49,0,0,1-.23.27.18.18,0,0,1-.21,0,.35.35,0,0,1-.1-.3c0-.61,0-1.4,0-2.36l-1.72.32a1.21,1.21,0,0,1-.57.05c-.13,0-.2-.13-.2-.3s.15-.22.44-.26.68-.11,1.35-.24l2.16-.4,1.31-.25c.22,0,.36,0,.41.08a.26.26,0,0,1-.06.32A.49.49,0,0,1,89.32,113.05ZM85.42,112a1.08,1.08,0,0,1-.56.29c-.18,0-.27,0-.29-.1a.41.41,0,0,1,.13-.31c.42-.36.86-.77,1.32-1.25a10.06,10.06,0,0,0,1.07-1.23,6.1,6.1,0,0,1-.89.32,7.88,7.88,0,0,1-.88.22.43.43,0,0,1-.47-.18.23.23,0,0,1,0-.26.35.35,0,0,1,.25-.14c.19,0,.52-.11,1-.24s.85-.26,1.12-.37.53-.1.64.09a.57.57,0,0,1-.06.65,7.59,7.59,0,0,1-.7.86c.22.07.7.25,1.44.55a1,1,0,0,1,.5.39c.08.15.08.25,0,.3a.56.56,0,0,1-.42,0,14.73,14.73,0,0,0-2-.72A13.73,13.73,0,0,1,85.42,112Z"/><path class="cls-4" d="M94,112.76a.44.44,0,0,1-.1.24.32.32,0,0,1-.12.12l-.14.07c-.16.07-.69.2-1.58.41a.58.58,0,0,1-.47,0,.49.49,0,0,1-.24-.38,16.79,16.79,0,0,0-.29-1.7,2,2,0,0,0-.15-.4l-.12-.29a.65.65,0,0,1,0-.25.29.29,0,0,1,.31-.07.55.55,0,0,1,.31.17.27.27,0,0,0,0,.07.5.5,0,0,1,0,.07c.23-.08.88-.25,2-.5a.51.51,0,0,1,.44,0,.59.59,0,0,1,.12.42s0,.36,0,1A10.68,10.68,0,0,1,94,112.76Zm-.64-1.85a10.32,10.32,0,0,0-1.7.45c.06.31.14.87.26,1.69a6.92,6.92,0,0,0,1.48-.38C93.4,111.91,93.39,111.33,93.36,110.91Zm3.21,4.46a.29.29,0,0,1,.39.06.26.26,0,0,1,0,.3.49.49,0,0,1-.21.19,16.46,16.46,0,0,1-2.15.44c-.25,0-.42,0-.5,0a.54.54,0,0,1-.16-.38c0-.1,0-.32,0-.66a1.61,1.61,0,0,0-.18-.73.4.4,0,0,1,0-.39q.07-.16.33-.12a.55.55,0,0,1,.36.31,1.23,1.23,0,0,1,.13.47c0,.13,0,.46,0,1,.26,0,.62-.09,1.08-.19A5.58,5.58,0,0,0,96.57,115.37Zm-.62-2c0-2,0-3.28,0-3.82a2.45,2.45,0,0,0-.17-.68c0-.16,0-.28,0-.35a.4.4,0,0,1,.4,0c.26.11.39.47.39,1.07s0,1.29,0,2v1.51a.86.86,0,0,1-.15.52c-.11.14-.21.19-.32.15S96,113.59,96,113.35Z"/><path class="cls-4" d="M99.32,114.25a1,1,0,0,1-.49.43c-.18.07-.29.07-.35,0a.29.29,0,0,1,0-.31,23.53,23.53,0,0,0,1.81-2.93,10.75,10.75,0,0,1-1.62.49.57.57,0,0,1-.29,0,.22.22,0,0,1-.19-.16c-.07-.19,0-.31.25-.37a15.59,15.59,0,0,0,1.93-.56.44.44,0,0,1,.52.09.55.55,0,0,1,0,.6,8,8,0,0,1-.57,1.13,14.77,14.77,0,0,1,1.15,1,.83.83,0,0,1,.24.49c0,.16,0,.25-.14.28a.43.43,0,0,1-.35-.15,15.5,15.5,0,0,0-1.25-1.09Zm3.6,1.07c0-2.56,0-4.25-.06-5a2.53,2.53,0,0,0-.17-.69c0-.16,0-.27,0-.35a.4.4,0,0,1,.4,0c.26.12.39.47.39,1.07v1.89l1.45-.47a.3.3,0,0,1,.21,0,.15.15,0,0,1,.08.17.43.43,0,0,1-.29.45l-1.45.48v2a1.23,1.23,0,0,1-.15.67c-.1.16-.2.22-.31.17S102.92,115.51,102.92,115.32Z"/><path class="cls-4" d="M107.25,114.51a1.14,1.14,0,0,1-.5.42c-.19.08-.3.07-.35,0s0-.18,0-.31a12.39,12.39,0,0,0,1.69-2.65,12.55,12.55,0,0,0-1.63.46.37.37,0,0,1-.45-.14c-.12-.16,0-.29.2-.4a11.72,11.72,0,0,1,2-.56.44.44,0,0,1,.48.14.64.64,0,0,1,0,.6,8.73,8.73,0,0,1-.49,1,10.63,10.63,0,0,1,1,1,.86.86,0,0,1,.19.4.35.35,0,0,1,0,.28.17.17,0,0,1-.19.09.44.44,0,0,1-.26-.18,7.42,7.42,0,0,0-1-1.08C107.74,113.85,107.52,114.16,107.25,114.51Zm1.07-4.2c.2.1.24.21.12.34a.39.39,0,0,1-.41.13,4,4,0,0,1-1-.41,1.38,1.38,0,0,1-.2-.13.6.6,0,0,1-.08-.13.21.21,0,0,1,0-.2c0-.08.1-.14.24-.17a.59.59,0,0,1,.43.11A8.23,8.23,0,0,0,108.32,110.31Zm2.52,5c0-2.56,0-4.25-.06-5a2.53,2.53,0,0,0-.17-.69c0-.16,0-.27,0-.35a.4.4,0,0,1,.4,0c.26.12.39.47.39,1.07v4.53a1.23,1.23,0,0,1-.15.67c-.1.16-.2.22-.3.17S110.84,115.51,110.84,115.32Z"/><path class="cls-4" d="M95.86,121.23v2.18c0,1,0,1.68,0,2.19a1,1,0,0,1-.13.57c-.08.15-.17.22-.25.22s-.2-.12-.2-.35c0-1.9,0-3.36,0-4.37a2.06,2.06,0,0,1-.4.45.37.37,0,0,1-.21.08.34.34,0,0,1-.26,0c-.12-.09-.1-.24.08-.43l.67-.78a.57.57,0,0,1,.36-.21.33.33,0,0,1,.28.13A.7.7,0,0,1,95.86,121.23Z"/><path class="cls-4" d="M101.45,121.87c-1.19.2-2.11.4-2.76.57l-.39.1-.3,0a.34.34,0,0,1-.23,0s-.07-.09-.07-.18.15-.33.43-.39c1.5-.35,2.64-.58,3.44-.7.14,0,.22,0,.26.1a.32.32,0,0,1-.07.3A.5.5,0,0,1,101.45,121.87ZM103,127c0-.1,0-.31,0-.63v-.78c-1.8.36-3.24.7-4.35,1a1.14,1.14,0,0,1-.57.07c-.13,0-.2-.13-.2-.3s.15-.18.44-.26l1.52-.36a6.52,6.52,0,0,0-.08-1,.78.78,0,0,1-.9-.64,1.27,1.27,0,0,1,.26-1.24,1,1,0,0,1,.31-.21.86.86,0,0,1,.35-.09,1.22,1.22,0,0,1,1.24.66.88.88,0,0,1,0,.76,1.06,1.06,0,0,1-.61.6,7.27,7.27,0,0,1,.06,1l2.52-.56c0-2.4,0-3.91,0-4.52a2.53,2.53,0,0,0-.17-.69.29.29,0,0,1,0-.35.38.38,0,0,1,.39,0c.27.12.4.47.4,1.07v6a1.23,1.23,0,0,1-.15.67c-.1.16-.2.22-.31.17S103,127.23,103,127Zm-2.67-6.52c.2.13.24.25.13.37a.35.35,0,0,1-.38.12,2.58,2.58,0,0,1-1-.68c-.18-.17-.2-.32,0-.47s.13-.09.28-.08a.57.57,0,0,1,.37.2A2.76,2.76,0,0,0,100.37,120.52Zm.16,3a.65.65,0,0,0-.54-.34.44.44,0,0,0-.49.2.83.83,0,0,0-.09.67.41.41,0,0,0,.19.24.46.46,0,0,0,.37,0,.81.81,0,0,0,.52-.32A.47.47,0,0,0,100.53,123.53Z"/><path class="cls-4" d="M106.77,125.51a1.22,1.22,0,0,1-.51.42c-.19.07-.3.06-.35,0s0-.18.06-.3a10.38,10.38,0,0,0,1.69-2.65,12.55,12.55,0,0,0-1.63.46.37.37,0,0,1-.45-.14c-.12-.16,0-.29.19-.4a12,12,0,0,1,2-.56.45.45,0,0,1,.49.14.64.64,0,0,1,0,.6,7.86,7.86,0,0,1-.49.94,8.66,8.66,0,0,1,.95,1,.83.83,0,0,1,.19.51c0,.16-.05.25-.14.27a.43.43,0,0,1-.33-.18,7.87,7.87,0,0,0-1-1.09C107.2,124.93,107,125.24,106.77,125.51Zm1.07-4.2c.2.1.24.21.12.34a.39.39,0,0,1-.41.13,4,4,0,0,1-1-.41,1.38,1.38,0,0,1-.2-.13.6.6,0,0,1-.08-.13.21.21,0,0,1,0-.2c0-.08.1-.14.24-.17a.59.59,0,0,1,.43.11A7.34,7.34,0,0,0,107.84,121.31Zm2.4,5c0-2.56,0-4.25-.06-5a2.53,2.53,0,0,0-.17-.69c-.05-.16,0-.27,0-.35a.4.4,0,0,1,.4,0c.26.12.39.47.39,1.07v1.89l1.45-.47a.3.3,0,0,1,.21,0,.15.15,0,0,1,.08.17.43.43,0,0,1-.29.45l-1.45.48v2a1.23,1.23,0,0,1-.15.67c-.1.16-.2.22-.31.17S110.24,126.51,110.24,126.32Z"/><path class="cls-4" d="M89.32,152.07c-.24,0-1,.15-2.14.36v1c0,.49,0,.81,0,.95a1.52,1.52,0,0,1-.1.56.49.49,0,0,1-.23.27.18.18,0,0,1-.21,0,.35.35,0,0,1-.1-.3c0-.61,0-1.4,0-2.36l-1.72.32a1.21,1.21,0,0,1-.57,0c-.13,0-.2-.13-.2-.3s.15-.22.44-.26.68-.11,1.35-.24l2.16-.4,1.31-.25c.22,0,.36,0,.41.08s0,.2-.06.32A.49.49,0,0,1,89.32,152.07ZM85.42,151a1.16,1.16,0,0,1-.56.29c-.18,0-.27,0-.29-.1a.4.4,0,0,1,.13-.31c.42-.36.86-.78,1.32-1.25a10.06,10.06,0,0,0,1.07-1.23,6.1,6.1,0,0,1-.89.32c-.38.11-.68.18-.88.22a.43.43,0,0,1-.47-.18.23.23,0,0,1,0-.26.35.35,0,0,1,.25-.14,9.25,9.25,0,0,0,1-.25,10,10,0,0,0,1.12-.36c.31-.13.53-.1.64.09a.57.57,0,0,1-.06.65,7.68,7.68,0,0,1-.7.85c.22.08.7.26,1.44.56a1,1,0,0,1,.5.39c.08.14.08.24,0,.3a.56.56,0,0,1-.42,0,14.73,14.73,0,0,0-2-.72A13.73,13.73,0,0,1,85.42,151Z"/><path class="cls-4" d="M94,151.78a.44.44,0,0,1-.1.24.66.66,0,0,1-.12.12l-.14.07c-.16.07-.69.2-1.58.41a.62.62,0,0,1-.47,0,.49.49,0,0,1-.24-.38,16.79,16.79,0,0,0-.29-1.7,2.32,2.32,0,0,0-.15-.41l-.12-.28a.65.65,0,0,1,0-.25.29.29,0,0,1,.31-.07.55.55,0,0,1,.31.17l0,.07a.23.23,0,0,1,0,.07c.23-.08.88-.25,2-.5a.51.51,0,0,1,.44,0,.55.55,0,0,1,.12.42s0,.36,0,.95A10.68,10.68,0,0,1,94,151.78Zm-.64-1.85a10.32,10.32,0,0,0-1.7.45c.06.31.14.87.26,1.69a6.73,6.73,0,0,0,1.48-.39C93.4,150.93,93.39,150.35,93.36,149.93Zm3.21,4.45a.31.31,0,0,1,.39.06.26.26,0,0,1,0,.3.47.47,0,0,1-.21.2,16.46,16.46,0,0,1-2.15.44.77.77,0,0,1-.5,0,.54.54,0,0,1-.16-.38c0-.1,0-.32,0-.66a1.61,1.61,0,0,0-.18-.73.4.4,0,0,1,0-.39q.07-.16.33-.12a.53.53,0,0,1,.36.31,1.23,1.23,0,0,1,.13.47c0,.13,0,.46,0,1,.26,0,.62-.1,1.08-.19A5.38,5.38,0,0,0,96.57,154.38Zm-.62-2c0-2,0-3.28,0-3.82a2.37,2.37,0,0,0-.17-.68c0-.16,0-.28,0-.35a.4.4,0,0,1,.4,0c.26.11.39.47.39,1.07s0,1.29,0,2v1.51a.89.89,0,0,1-.15.52c-.11.14-.21.19-.32.15S96,152.61,96,152.37Z"/><path class="cls-4" d="M99.32,153.27a1.1,1.1,0,0,1-.49.43c-.18.07-.29.07-.35,0s0-.19,0-.32a23.44,23.44,0,0,0,1.81-2.92,12.07,12.07,0,0,1-1.62.49.57.57,0,0,1-.29,0c-.11,0-.17-.08-.19-.16s0-.32.25-.37a15.91,15.91,0,0,0,1.93-.57.44.44,0,0,1,.52.1.55.55,0,0,1,0,.6,8,8,0,0,1-.57,1.13,14.77,14.77,0,0,1,1.15,1,.83.83,0,0,1,.24.49c0,.16,0,.25-.14.28a.43.43,0,0,1-.35-.15A13.75,13.75,0,0,0,100,152.2Zm3.6,1.07c0-2.56,0-4.25-.06-5.06a2.58,2.58,0,0,0-.17-.68c0-.16,0-.28,0-.35a.4.4,0,0,1,.4,0c.26.11.39.47.39,1.07v1.88l1.45-.46a.26.26,0,0,1,.21,0,.14.14,0,0,1,.08.16.44.44,0,0,1-.29.46l-1.45.48v2a1.25,1.25,0,0,1-.15.68c-.1.16-.2.21-.31.17S102.92,154.53,102.92,154.34Z"/><path class="cls-4" d="M107.25,153.53a1.14,1.14,0,0,1-.5.42c-.19.07-.3.07-.35,0s0-.18,0-.31a12.39,12.39,0,0,0,1.69-2.65,12.39,12.39,0,0,0-1.63.45.36.36,0,0,1-.45-.13c-.12-.16,0-.29.2-.41a12,12,0,0,1,2-.55.42.42,0,0,1,.48.14.62.62,0,0,1,0,.59,7.25,7.25,0,0,1-.49,1,10.59,10.59,0,0,1,1,1.05.83.83,0,0,1,.19.39.37.37,0,0,1,0,.29.19.19,0,0,1-.19.09.44.44,0,0,1-.26-.18,7.42,7.42,0,0,0-1-1.08C107.74,152.87,107.52,153.18,107.25,153.53Zm1.07-4.2c.2.1.24.21.12.34a.39.39,0,0,1-.41.13,4.41,4.41,0,0,1-1-.41l-.2-.13a.6.6,0,0,1-.08-.13.23.23,0,0,1,0-.21c0-.08.1-.13.24-.16a.58.58,0,0,1,.43.1A6.38,6.38,0,0,0,108.32,149.33Zm2.52,5c0-2.56,0-4.25-.06-5.06a2.58,2.58,0,0,0-.17-.68c0-.16,0-.28,0-.35a.4.4,0,0,1,.4,0c.26.11.39.47.39,1.07v4.52a1.25,1.25,0,0,1-.15.68c-.1.16-.2.21-.3.17S110.84,154.53,110.84,154.34Z"/><path class="cls-4" d="M95.2,159.62a1.21,1.21,0,0,1,1.38,1.08,1.73,1.73,0,0,1-.23,1.12,7.28,7.28,0,0,1-.68,1l-.65.83a1.88,1.88,0,0,0-.39,1.12q1.31-.11,1.92-.18a.49.49,0,0,1,.25,0s.08.1.06.21a.3.3,0,0,1-.13.21.46.46,0,0,1-.21.12q-.67.07-2,.18-.3,0-.39-.09a.59.59,0,0,1-.11-.36,2.21,2.21,0,0,1,.11-.69,2.38,2.38,0,0,1,.32-.72l.64-.84a6.79,6.79,0,0,0,.73-1.06,1.34,1.34,0,0,0,.16-.72.76.76,0,0,0-.23-.44.63.63,0,0,0-.48-.17.62.62,0,0,0-.43.16,3,3,0,0,0-.4.55s-.09.06-.21.07a.43.43,0,0,1-.27,0c-.15-.08-.16-.2-.06-.38A1.67,1.67,0,0,1,95.2,159.62Z"/><path class="cls-4" d="M101.45,160.88c-1.19.21-2.11.4-2.76.58l-.39.1a1.21,1.21,0,0,1-.3,0,.3.3,0,0,1-.23,0,.2.2,0,0,1-.07-.18c0-.2.15-.33.43-.39,1.5-.35,2.64-.59,3.44-.71.14,0,.22,0,.26.11a.32.32,0,0,1-.07.3A.48.48,0,0,1,101.45,160.88Zm1.59,5.18c0-.1,0-.31,0-.63v-.78c-1.8.36-3.24.69-4.35,1a1.14,1.14,0,0,1-.57.07c-.13,0-.2-.13-.2-.3s.15-.18.44-.26l1.52-.36a6.41,6.41,0,0,0-.08-1,.79.79,0,0,1-.9-.64,1.29,1.29,0,0,1,.26-1.25,1,1,0,0,1,.31-.2.89.89,0,0,1,.35-.1,1.22,1.22,0,0,1,1.24.66.9.9,0,0,1,0,.77,1.09,1.09,0,0,1-.61.6,7.27,7.27,0,0,1,.06,1l2.52-.56c0-2.4,0-3.91,0-4.53a2.58,2.58,0,0,0-.17-.68c-.06-.16,0-.28,0-.35a.38.38,0,0,1,.39,0c.27.11.4.47.4,1.07v6a1.25,1.25,0,0,1-.15.68c-.1.16-.2.21-.31.17S103,166.25,103,166.06Zm-2.67-6.52c.2.13.24.25.13.37a.35.35,0,0,1-.38.12,2.69,2.69,0,0,1-1-.68c-.18-.17-.2-.33,0-.47s.13-.09.28-.08a.53.53,0,0,1,.37.2A2.76,2.76,0,0,0,100.37,159.54Zm.16,3a.66.66,0,0,0-.54-.35.46.46,0,0,0-.49.21.83.83,0,0,0-.09.67.41.41,0,0,0,.19.24.5.5,0,0,0,.37.05.81.81,0,0,0,.52-.32A.47.47,0,0,0,100.53,162.55Z"/><path class="cls-4" d="M106.77,164.53a1.22,1.22,0,0,1-.51.42c-.19.06-.3.06-.35,0s0-.17.06-.29a10.56,10.56,0,0,0,1.69-2.65,12.39,12.39,0,0,0-1.63.45.36.36,0,0,1-.45-.13c-.12-.16,0-.29.19-.41a12.26,12.26,0,0,1,2-.55.43.43,0,0,1,.49.14.62.62,0,0,1,0,.59,7.92,7.92,0,0,1-.49.95,8.66,8.66,0,0,1,.95,1.05.83.83,0,0,1,.19.51c0,.16-.05.25-.14.27a.43.43,0,0,1-.33-.18,7.92,7.92,0,0,0-1-1.1C107.2,163.94,107,164.26,106.77,164.53Zm1.07-4.2c.2.1.24.21.12.34a.39.39,0,0,1-.41.13,4.41,4.41,0,0,1-1-.41l-.2-.13a.6.6,0,0,1-.08-.13.23.23,0,0,1,0-.21c0-.08.1-.13.24-.16a.58.58,0,0,1,.43.1A5.83,5.83,0,0,0,107.84,160.33Zm2.4,5c0-2.56,0-4.25-.06-5.06a2.58,2.58,0,0,0-.17-.68c-.05-.16,0-.28,0-.35a.4.4,0,0,1,.4,0c.26.11.39.47.39,1.07v1.88l1.45-.46a.26.26,0,0,1,.21,0,.14.14,0,0,1,.08.16.44.44,0,0,1-.29.46l-1.45.48v2a1.25,1.25,0,0,1-.15.68c-.1.16-.2.21-.31.17S110.24,165.53,110.24,165.34Z"/><path class="cls-4" d="M89.32,190c-.24,0-1,.15-2.14.36v1c0,.49,0,.81,0,1a1.52,1.52,0,0,1-.1.56.49.49,0,0,1-.23.27.18.18,0,0,1-.21,0,.35.35,0,0,1-.1-.3c0-.61,0-1.4,0-2.36l-1.72.32a1.21,1.21,0,0,1-.57.05c-.13,0-.2-.13-.2-.3s.15-.22.44-.26.68-.11,1.35-.24l2.16-.4,1.31-.25c.22,0,.36,0,.41.08s0,.2-.06.32A.49.49,0,0,1,89.32,190Zm-3.9-1.07a1.16,1.16,0,0,1-.56.29c-.18,0-.27,0-.29-.1a.4.4,0,0,1,.13-.31c.42-.36.86-.78,1.32-1.25a10.06,10.06,0,0,0,1.07-1.23,6.1,6.1,0,0,1-.89.32c-.38.11-.68.18-.88.22a.43.43,0,0,1-.47-.18.23.23,0,0,1,0-.26.35.35,0,0,1,.25-.14,9.25,9.25,0,0,0,1-.25,10,10,0,0,0,1.12-.36c.31-.13.53-.1.64.09a.57.57,0,0,1-.06.65,7.68,7.68,0,0,1-.7.85c.22.08.7.26,1.44.56a1,1,0,0,1,.5.39c.08.14.08.24,0,.3a.56.56,0,0,1-.42,0,14.73,14.73,0,0,0-2-.72A13.73,13.73,0,0,1,85.42,188.91Z"/><path class="cls-4" d="M94,189.69a.44.44,0,0,1-.1.24l-.12.12-.14.07c-.16.07-.69.2-1.58.41a.62.62,0,0,1-.47,0,.49.49,0,0,1-.24-.38,16.79,16.79,0,0,0-.29-1.7,2.32,2.32,0,0,0-.15-.41l-.12-.28a.65.65,0,0,1,0-.25.29.29,0,0,1,.31-.07.55.55,0,0,1,.31.17.27.27,0,0,0,0,.07.23.23,0,0,1,0,.07c.23-.08.88-.25,2-.5a.51.51,0,0,1,.44,0,.55.55,0,0,1,.12.42s0,.36,0,1A10.68,10.68,0,0,1,94,189.69Zm-.64-1.85a10.32,10.32,0,0,0-1.7.45c.06.31.14.87.26,1.69a6.73,6.73,0,0,0,1.48-.39C93.4,188.84,93.39,188.26,93.36,187.84Zm3.21,4.45a.31.31,0,0,1,.39.06.26.26,0,0,1,0,.3.47.47,0,0,1-.21.2,16.46,16.46,0,0,1-2.15.44.77.77,0,0,1-.5,0,.54.54,0,0,1-.16-.38c0-.1,0-.32,0-.66a1.61,1.61,0,0,0-.18-.73.4.4,0,0,1,0-.39q.07-.17.33-.12a.53.53,0,0,1,.36.31,1.23,1.23,0,0,1,.13.47c0,.13,0,.46,0,1,.26,0,.62-.1,1.08-.19A5.38,5.38,0,0,0,96.57,192.29Zm-.62-2c0-2,0-3.28,0-3.82a2.37,2.37,0,0,0-.17-.68c0-.16,0-.28,0-.35a.4.4,0,0,1,.4,0c.26.11.39.47.39,1.07s0,1.29,0,2V190a.89.89,0,0,1-.15.52c-.11.14-.21.19-.32.15S96,190.52,96,190.28Z"/><path class="cls-4" d="M99.32,191.18a1.1,1.1,0,0,1-.49.43c-.18.07-.29.07-.35,0s0-.19,0-.32a23.44,23.44,0,0,0,1.81-2.92,12.07,12.07,0,0,1-1.62.49.57.57,0,0,1-.29,0c-.11,0-.17-.08-.19-.16s0-.32.25-.37a15.91,15.91,0,0,0,1.93-.57.44.44,0,0,1,.52.1.55.55,0,0,1,0,.6,8,8,0,0,1-.57,1.13,14.77,14.77,0,0,1,1.15,1,.83.83,0,0,1,.24.49c0,.16,0,.25-.14.28a.43.43,0,0,1-.35-.15,13.75,13.75,0,0,0-1.25-1.09Zm3.6,1.07c0-2.56,0-4.25-.06-5.06a2.58,2.58,0,0,0-.17-.68c0-.16,0-.28,0-.35a.4.4,0,0,1,.4,0c.26.11.39.47.39,1.07v1.88l1.45-.46a.26.26,0,0,1,.21,0,.14.14,0,0,1,.08.16.44.44,0,0,1-.29.46l-1.45.48v2a1.25,1.25,0,0,1-.15.68c-.1.16-.2.21-.31.17S102.92,192.44,102.92,192.25Z"/><path class="cls-4" d="M107.25,191.44a1.14,1.14,0,0,1-.5.42c-.19.07-.3.07-.35,0s0-.18,0-.31a12.39,12.39,0,0,0,1.69-2.65,12.39,12.39,0,0,0-1.63.45.36.36,0,0,1-.45-.13c-.12-.16,0-.29.2-.41a12,12,0,0,1,2-.55.42.42,0,0,1,.48.14.62.62,0,0,1,0,.59,7.25,7.25,0,0,1-.49,1,10.59,10.59,0,0,1,1,1.05.83.83,0,0,1,.19.39.37.37,0,0,1,0,.29.19.19,0,0,1-.19.09.44.44,0,0,1-.26-.18,7.42,7.42,0,0,0-1-1.08C107.74,190.78,107.52,191.09,107.25,191.44Zm1.07-4.2c.2.1.24.21.12.34a.39.39,0,0,1-.41.13,4.41,4.41,0,0,1-1-.41l-.2-.13a.6.6,0,0,1-.08-.13.23.23,0,0,1,0-.21c0-.08.1-.13.24-.16a.58.58,0,0,1,.43.1A6.38,6.38,0,0,0,108.32,187.24Zm2.52,5c0-2.56,0-4.25-.06-5.06a2.58,2.58,0,0,0-.17-.68c0-.16,0-.28,0-.35a.4.4,0,0,1,.4,0c.26.11.39.47.39,1.07v4.52a1.25,1.25,0,0,1-.15.68c-.1.16-.2.21-.3.17S110.84,192.44,110.84,192.25Z"/><path class="cls-4" d="M94,198.1a2.27,2.27,0,0,1,.69-.44,1.54,1.54,0,0,1,.76-.15,1,1,0,0,1,.74.38,1.11,1.11,0,0,1,.17.88,1.45,1.45,0,0,1-.56.94,1.47,1.47,0,0,1,.69.46,1.83,1.83,0,0,1,.27.76,2,2,0,0,1-.55,1.81,1.77,1.77,0,0,1-.91.49,1.33,1.33,0,0,1-1-.12,1.47,1.47,0,0,1-.69-.74.24.24,0,0,1,.15-.34c.16-.07.27-.05.32.05a1,1,0,0,0,.76.61,1.14,1.14,0,0,0,.93-.36,1.39,1.39,0,0,0,.34-1.32,1,1,0,0,0-.88-.9,1.74,1.74,0,0,0-.61.14.29.29,0,0,1-.37-.18c-.09-.17,0-.28.11-.33a3.75,3.75,0,0,0,.9-.36,1,1,0,0,0,.47-.66.83.83,0,0,0-.09-.46.39.39,0,0,0-.36-.19,1.43,1.43,0,0,0-.86.41c-.18.14-.33.13-.45,0S93.88,198.2,94,198.1Z"/><path class="cls-4" d="M101.46,198.79c-1.2.21-2.12.4-2.76.58l-.39.1a1.36,1.36,0,0,1-.3,0c-.12,0-.2,0-.24,0a.2.2,0,0,1-.07-.18c0-.2.15-.33.43-.39,1.5-.35,2.65-.59,3.45-.71.13,0,.22,0,.25.11a.32.32,0,0,1-.07.3A.46.46,0,0,1,101.46,198.79ZM103,204c0-.1,0-.31,0-.63v-.78c-1.79.36-3.24.69-4.35,1a1.13,1.13,0,0,1-.57.07c-.13,0-.19-.13-.19-.3s.14-.18.43-.26l1.52-.36a6.41,6.41,0,0,0-.08-1,.79.79,0,0,1-.9-.64,1.31,1.31,0,0,1,.26-1.25,1.11,1.11,0,0,1,.31-.2.89.89,0,0,1,.35-.1,1.22,1.22,0,0,1,1.24.66.94.94,0,0,1,0,.77,1.14,1.14,0,0,1-.62.6,7.27,7.27,0,0,1,.06,1L103,202c0-2.4,0-3.91,0-4.53a2.58,2.58,0,0,0-.17-.68c0-.16,0-.28,0-.35a.4.4,0,0,1,.4,0c.26.11.39.47.39,1.07v6a1.25,1.25,0,0,1-.15.68c-.1.16-.2.21-.3.17S103,204.16,103,204Zm-2.66-6.52c.19.13.23.25.12.37a.35.35,0,0,1-.38.12,2.69,2.69,0,0,1-1-.68c-.18-.17-.2-.33,0-.47s.14-.09.28-.08a.53.53,0,0,1,.37.2A2.85,2.85,0,0,0,100.38,197.45Zm.15,3a.66.66,0,0,0-.54-.35.47.47,0,0,0-.49.21.79.79,0,0,0-.08.67.36.36,0,0,0,.18.24.5.5,0,0,0,.37.05.83.83,0,0,0,.53-.32A.5.5,0,0,0,100.53,200.46Z"/><path class="cls-4" d="M106.77,202.44a1.22,1.22,0,0,1-.51.42c-.19.06-.3.06-.35,0s0-.17.06-.29a10.56,10.56,0,0,0,1.69-2.65,12.39,12.39,0,0,0-1.63.45.36.36,0,0,1-.45-.13c-.12-.16,0-.29.19-.41a12.26,12.26,0,0,1,2-.55.43.43,0,0,1,.49.14.62.62,0,0,1,0,.59,7.92,7.92,0,0,1-.49.95,8.66,8.66,0,0,1,.95,1.05.83.83,0,0,1,.19.51c0,.16-.05.25-.14.27a.43.43,0,0,1-.33-.18,7.92,7.92,0,0,0-1-1.1C107.2,201.85,107,202.17,106.77,202.44Zm1.07-4.2c.2.1.24.21.12.34a.39.39,0,0,1-.41.13,4.41,4.41,0,0,1-1-.41l-.2-.13a.6.6,0,0,1-.08-.13.23.23,0,0,1,0-.21c0-.08.1-.13.24-.16a.58.58,0,0,1,.43.1A5.83,5.83,0,0,0,107.84,198.24Zm2.4,5c0-2.56,0-4.25-.06-5.06a2.58,2.58,0,0,0-.17-.68c-.05-.16,0-.28,0-.35a.4.4,0,0,1,.4,0c.26.11.39.47.39,1.07v1.88l1.45-.46a.26.26,0,0,1,.21,0,.14.14,0,0,1,.08.16.44.44,0,0,1-.29.46l-1.45.48v2a1.25,1.25,0,0,1-.15.68c-.1.16-.2.21-.31.17S110.24,203.44,110.24,203.25Z"/><path class="cls-4" d="M89.32,228.33c-.24,0-1,.15-2.14.36v1.05c0,.48,0,.8,0,.94a1.48,1.48,0,0,1-.1.56.49.49,0,0,1-.23.27.2.2,0,0,1-.21,0,.38.38,0,0,1-.1-.3c0-.62,0-1.41,0-2.37l-1.72.33a1.18,1.18,0,0,1-.57,0c-.13,0-.2-.13-.2-.3s.15-.22.44-.26l1.35-.23L88,228l1.31-.25c.22,0,.36,0,.41.08a.26.26,0,0,1-.06.32A.45.45,0,0,1,89.32,228.33Zm-3.9-1.07a1.08,1.08,0,0,1-.56.29c-.18,0-.27,0-.29-.1a.43.43,0,0,1,.13-.31c.42-.36.86-.77,1.32-1.24a10.83,10.83,0,0,0,1.07-1.24,9.25,9.25,0,0,1-1.77.54.43.43,0,0,1-.47-.18.23.23,0,0,1,0-.26.39.39,0,0,1,.25-.14c.19,0,.52-.11,1-.24a9.73,9.73,0,0,0,1.12-.37c.31-.13.53-.1.64.09a.58.58,0,0,1-.06.66,8.75,8.75,0,0,1-.7.85c.22.07.7.25,1.44.55a1,1,0,0,1,.5.39c.08.15.08.25,0,.3a.52.52,0,0,1-.42,0,14.73,14.73,0,0,0-2-.72A12.35,12.35,0,0,1,85.42,227.26Z"/><path class="cls-4" d="M94,228a.44.44,0,0,1-.1.24.32.32,0,0,1-.12.12l-.14.08c-.16.06-.69.2-1.58.4a.58.58,0,0,1-.47,0,.47.47,0,0,1-.24-.38,16.79,16.79,0,0,0-.29-1.7,2.25,2.25,0,0,0-.15-.4l-.12-.29a.66.66,0,0,1,0-.25.29.29,0,0,1,.31-.07.55.55,0,0,1,.31.17s0,0,0,.07a.5.5,0,0,1,0,.07c.23-.08.88-.24,2-.5.21-.05.36,0,.44,0A.55.55,0,0,1,94,226s0,.35,0,.94A10.39,10.39,0,0,1,94,228Zm-.64-1.84a10.2,10.2,0,0,0-1.7.44c.06.31.14.88.26,1.69A6.92,6.92,0,0,0,93.4,228C93.4,227.2,93.39,226.61,93.36,226.2Zm3.21,4.45a.31.31,0,0,1,.39.06.26.26,0,0,1,0,.3.49.49,0,0,1-.21.19,15,15,0,0,1-2.15.44c-.25,0-.42,0-.5,0a.52.52,0,0,1-.16-.38c0-.09,0-.31,0-.66a1.61,1.61,0,0,0-.18-.73.4.4,0,0,1,0-.39q.07-.17.33-.12a.58.58,0,0,1,.36.31,1.28,1.28,0,0,1,.13.48c0,.12,0,.46,0,1q.39,0,1.08-.18A6.39,6.39,0,0,0,96.57,230.65Zm-.62-2c0-2,0-3.28,0-3.82a2.45,2.45,0,0,0-.17-.68c0-.16,0-.28,0-.35a.4.4,0,0,1,.4,0c.26.12.39.47.39,1.07s0,1.29,0,2v1.51a.86.86,0,0,1-.15.52c-.11.14-.21.19-.32.15S96,228.87,96,228.63Z"/><path class="cls-4" d="M99.32,229.53a1,1,0,0,1-.49.43c-.18.08-.29.07-.35,0s0-.19,0-.32a23.53,23.53,0,0,0,1.81-2.93,10.75,10.75,0,0,1-1.62.49.57.57,0,0,1-.29,0,.24.24,0,0,1-.19-.17c-.07-.19,0-.31.25-.37a15.59,15.59,0,0,0,1.93-.56.44.44,0,0,1,.52.09.55.55,0,0,1,0,.6,8,8,0,0,1-.57,1.13c.47.39.85.73,1.15,1a.83.83,0,0,1,.24.49c0,.16,0,.26-.14.28a.41.41,0,0,1-.35-.14,13.8,13.8,0,0,0-1.25-1.1Zm3.6,1.07c0-2.56,0-4.24-.06-5a2.53,2.53,0,0,0-.17-.69c0-.16,0-.27,0-.34s.22-.08.4,0,.39.46.39,1.06v1.89L105,227a.3.3,0,0,1,.21,0,.14.14,0,0,1,.08.16.43.43,0,0,1-.29.45l-1.45.48v2a1.29,1.29,0,0,1-.15.68c-.1.15-.2.21-.31.16S102.92,230.79,102.92,230.6Z"/><path class="cls-4" d="M107.25,229.8a1.29,1.29,0,0,1-.5.42c-.19.07-.3.07-.35,0s0-.18,0-.31a12.39,12.39,0,0,0,1.69-2.65,12.55,12.55,0,0,0-1.63.46.36.36,0,0,1-.45-.14c-.12-.16,0-.29.2-.4a11.08,11.08,0,0,1,2-.55.42.42,0,0,1,.48.13.64.64,0,0,1,0,.6,8.73,8.73,0,0,1-.49,1,10.63,10.63,0,0,1,1,1,.86.86,0,0,1,.19.4.38.38,0,0,1,0,.29.18.18,0,0,1-.19.08.44.44,0,0,1-.26-.18,8.61,8.61,0,0,0-1-1.08C107.74,229.13,107.52,229.44,107.25,229.8Zm1.07-4.2q.3.14.12.33a.39.39,0,0,1-.41.13,4.48,4.48,0,0,1-1-.4l-.2-.14a.42.42,0,0,1-.08-.13.21.21,0,0,1,0-.2c0-.08.1-.14.24-.16a.54.54,0,0,1,.43.1A9.78,9.78,0,0,0,108.32,225.6Zm2.52,5c0-2.56,0-4.24-.06-5a2.53,2.53,0,0,0-.17-.69c0-.16,0-.27,0-.34s.22-.08.4,0,.39.46.39,1.06v4.53a1.29,1.29,0,0,1-.15.68c-.1.15-.2.21-.3.16S110.84,230.79,110.84,230.6Z"/><path class="cls-4" d="M96.57,239.45a.34.34,0,0,1,.21,0,.18.18,0,0,1,.06.16.38.38,0,0,1-.14.25.33.33,0,0,1-.21.12c-.19,0-.38,0-.59.08v.8a1.11,1.11,0,0,1-.13.58c-.08.14-.17.21-.25.21s-.2-.11-.2-.35,0-.64,0-1.17c-.86.09-1.4.14-1.62.14s-.39-.06-.46-.21a.4.4,0,0,1,0-.42l.48-.85.86-1.53c.29-.52.49-.88.58-1.08a.38.38,0,0,1,.36-.22.34.34,0,0,1,.28.14.68.68,0,0,1,.09.37c0,.43,0,1.45,0,3Zm-2.67.29,1.41-.13c0-.5,0-1.33,0-2.5,0,.07-.27.48-.69,1.26S94,239.6,93.9,239.74Z"/><path class="cls-4" d="M101.46,237.15q-1.8.32-2.76.57l-.39.11-.3,0a.37.37,0,0,1-.24,0,.22.22,0,0,1-.07-.19c0-.2.15-.33.43-.38,1.5-.36,2.65-.59,3.45-.71.13,0,.22,0,.25.1a.32.32,0,0,1-.07.3A.48.48,0,0,1,101.46,237.15Zm1.58,5.17c0-.1,0-.3,0-.62v-.78q-2.69.54-4.35,1a1,1,0,0,1-.57.07c-.13,0-.19-.13-.19-.3s.14-.18.43-.26l1.52-.36a6.52,6.52,0,0,0-.08-.95.78.78,0,0,1-.9-.63,1.31,1.31,0,0,1,.26-1.25,1.38,1.38,0,0,1,.31-.21.86.86,0,0,1,.35-.09,1.22,1.22,0,0,1,1.24.66.91.91,0,0,1,0,.76,1.16,1.16,0,0,1-.62.61,7.06,7.06,0,0,1,.06,1l2.52-.57c0-2.4,0-3.91,0-4.52a2.53,2.53,0,0,0-.17-.69c0-.16,0-.27,0-.34s.22-.08.4,0,.39.46.39,1.06v6a1.29,1.29,0,0,1-.15.68c-.1.15-.2.21-.3.16S103,242.51,103,242.32Zm-2.66-6.52c.19.13.23.26.12.38a.35.35,0,0,1-.38.12,2.62,2.62,0,0,1-1-.69c-.18-.17-.2-.32,0-.47s.14-.09.28-.08a.57.57,0,0,1,.37.2A2.85,2.85,0,0,0,100.38,235.8Zm.15,3a.65.65,0,0,0-.54-.34.46.46,0,0,0-.49.2.79.79,0,0,0-.08.67.36.36,0,0,0,.18.24.46.46,0,0,0,.37,0,.79.79,0,0,0,.53-.32A.49.49,0,0,0,100.53,238.81Z"/><path class="cls-4" d="M106.77,240.8a1.27,1.27,0,0,1-.51.41c-.19.07-.3.06-.35,0s0-.18.06-.3a10.38,10.38,0,0,0,1.69-2.65,12.55,12.55,0,0,0-1.63.46.36.36,0,0,1-.45-.14c-.12-.16,0-.29.19-.4a11.32,11.32,0,0,1,2-.55.43.43,0,0,1,.49.13.64.64,0,0,1,0,.6,8.75,8.75,0,0,1-.49,1,7.94,7.94,0,0,1,.95,1,.87.87,0,0,1,.19.51c0,.16-.05.25-.14.27s-.21,0-.33-.18a7.87,7.87,0,0,0-1-1.09C107.2,240.21,107,240.52,106.77,240.8Zm1.07-4.2q.3.14.12.33a.39.39,0,0,1-.41.13,4.48,4.48,0,0,1-1-.4l-.2-.14a.42.42,0,0,1-.08-.13.21.21,0,0,1,0-.2c0-.08.1-.14.24-.16a.54.54,0,0,1,.43.1A8.54,8.54,0,0,0,107.84,236.6Zm2.4,5c0-2.56,0-4.24-.06-5a2.53,2.53,0,0,0-.17-.69c-.05-.16,0-.27,0-.34s.22-.08.4,0,.39.46.39,1.06v1.89l1.45-.47a.3.3,0,0,1,.21,0,.14.14,0,0,1,.08.16.43.43,0,0,1-.29.45l-1.45.48v2a1.29,1.29,0,0,1-.15.68c-.1.15-.2.21-.31.16S110.24,241.79,110.24,241.6Z"/></svg>